<svg xmlns="http://www.w3.org/2000/svg" width="1480" height="720"><rect width="1480" height="720" x="0" y="0" fill="#FFFFFF" id="backgorund"/><g transform="translate(50,10)" id="viz"><g id="y axis" fill="none" font-size="10" font-family="sans-serif" text-anchor="end"><path class="domain" stroke="currentColor" d="M-6,680.5H0.5V0.5H-6"/><g class="tick" opacity="1" transform="translate(0,680.5)"><line stroke="currentColor" x2="-6"/><text fill="currentColor" x="-9" dy="0.32em">−10</text></g><g class="tick" opacity="1" transform="translate(0,612.5)"><line stroke="currentColor" x2="-6"/><text fill="currentColor" x="-9" dy="0.32em">−5</text></g><g class="tick" opacity="1" transform="translate(0,544.5)"><line stroke="currentColor" x2="-6"/><text fill="currentColor" x="-9" dy="0.32em">0</text></g><g class="tick" opacity="1" transform="translate(0,476.49999999999994)"><line stroke="currentColor" x2="-6"/><text fill="currentColor" x="-9" dy="0.32em">5</text></g><g class="tick" opacity="1" transform="translate(0,408.5)"><line stroke="currentColor" x2="-6"/><text fill="currentColor" x="-9" dy="0.32em">10</text></g><g class="tick" opacity="1" transform="translate(0,340.5)"><line stroke="currentColor" x2="-6"/><text fill="currentColor" x="-9" dy="0.32em">15</text></g><g class="tick" opacity="1" transform="translate(0,272.5)"><line stroke="currentColor" x2="-6"/><text fill="currentColor" x="-9" dy="0.32em">20</text></g><g class="tick" opacity="1" transform="translate(0,204.50000000000003)"><line stroke="currentColor" x2="-6"/><text fill="currentColor" x="-9" dy="0.32em">25</text></g><g class="tick" opacity="1" transform="translate(0,136.49999999999997)"><line stroke="currentColor" x2="-6"/><text fill="currentColor" x="-9" dy="0.32em">30</text></g><g class="tick" opacity="1" transform="translate(0,68.49999999999999)"><line stroke="currentColor" x2="-6"/><text fill="currentColor" x="-9" dy="0.32em">35</text></g><g class="tick" opacity="1" transform="translate(0,0.5)"><line stroke="currentColor" x2="-6"/><text fill="currentColor" x="-9" dy="0.32em">40</text></g><text x="4" text-anchor="start" dominant-baseline="hanging" style="font-family: Arial, sans-serif; font-size: 12px; fill: rgb(123, 123, 123); font-weight: bold;">temp_max</text></g><g id="x axis" transform="translate(0,680)" fill="none" font-size="10" font-family="sans-serif" text-anchor="middle"><path class="domain" stroke="currentColor" d="M0.5,6V0.5H1220.5V6"/><g class="tick" opacity="1" transform="translate(125.9674796747967,0)"><line stroke="currentColor" y2="6"/><text fill="currentColor" y="9" dy="0.71em">sun</text></g><g class="tick" opacity="1" transform="translate(367.98373983739833,0)"><line stroke="currentColor" y2="6"/><text fill="currentColor" y="9" dy="0.71em">rain</text></g><g class="tick" opacity="1" transform="translate(610,0)"><line stroke="currentColor" y2="6"/><text fill="currentColor" y="9" dy="0.71em">drizzle</text></g><g class="tick" opacity="1" transform="translate(852.0162601626016,0)"><line stroke="currentColor" y2="6"/><text fill="currentColor" y="9" dy="0.71em">fog</text></g><g class="tick" opacity="1" transform="translate(1094.0325203252032,0)"><line stroke="currentColor" y2="6"/><text fill="currentColor" y="9" dy="0.71em">snow</text></g><text x="1220" dy="-5" text-anchor="end" style="font-family: Arial, sans-serif; font-size: 12px; fill: rgb(123, 123, 123); font-weight: bold;">weather</text></g><g id="shapes"><g id="sun" transform="translate(9.91869918699183 ,0)" style="fill: rgb(148, 103, 189);"><path d="M116.04878048780488,693.6L116.04878048780488,666.4L120.40060975609757,639.1999999999999L127.65365853658537,612L134.90670731707317,584.8L130.5548780487805,557.6L162.46829268292683,530.4L166.8201219512195,503.2L156.6658536585366,475.99999999999994L197.2829268292683,448.79999999999995L174.0731707317073,421.6L200.18414634146342,394.40000000000003L175.52378048780486,367.20000000000005L165.36951219512196,340L184.22743902439024,312.79999999999995L171.1719512195122,285.6L203.08536585365854,258.4L198.73353658536584,231.2L181.3262195121951,204.00000000000003L232.09756097560975,176.8L201.63475609756097,149.6L195.83231707317074,122.40000000000003L142.15975609756097,95.2L124.75243902439024,67.99999999999999L120.40060975609757,40.80000000000004L116.04878048780488,13.600000000000012L116.04878048780488,-13.600000000000012L116.04878048780488,-13.600000000000012L116.04878048780488,13.600000000000012L111.6969512195122,40.80000000000004L107.34512195121951,67.99999999999999L89.93780487804878,95.2L36.265243902439025,122.40000000000003L30.462804878048782,149.6L0,176.8L50.771341463414636,204.00000000000003L33.3640243902439,231.2L29.01219512195122,258.4L60.925609756097565,285.6L47.87012195121951,312.79999999999995L66.7280487804878,340L56.573780487804875,367.20000000000005L31.913414634146342,394.40000000000003L58.02439024390244,421.6L34.81463414634146,448.79999999999995L75.43170731707318,475.99999999999994L65.27743902439025,503.2L69.62926829268292,530.4L101.54268292682927,557.6L97.19085365853658,584.8L104.44390243902438,612L111.6969512195122,639.1999999999999L116.04878048780488,666.4L116.04878048780488,693.6Z" style="stroke: none;"/></g><g id="rain" transform="translate(251.93495934959347 ,0)" style="fill: rgb(44, 160, 44);"><path d="M116.04878048780488,693.6L116.04878048780488,666.4L116.04878048780488,639.1999999999999L116.04878048780488,612L116.04878048780488,584.8L116.04878048780488,557.6L116.04878048780488,530.4L120.40060975609757,503.2L121.85121951219513,475.99999999999994L152.3140243902439,448.79999999999995L169.72134146341463,421.6L159.5670731707317,394.40000000000003L178.425,367.20000000000005L161.01768292682925,340L174.0731707317073,312.79999999999995L152.3140243902439,285.6L174.0731707317073,258.4L153.76463414634145,231.2L166.8201219512195,204.00000000000003L185.6780487804878,176.8L159.5670731707317,149.6L145.0609756097561,122.40000000000003L123.30182926829268,95.2L120.40060975609757,67.99999999999999L117.49939024390243,40.80000000000004L116.04878048780488,13.600000000000012L116.04878048780488,-13.600000000000012L116.04878048780488,-13.600000000000012L116.04878048780488,13.600000000000012L114.59817073170733,40.80000000000004L111.6969512195122,67.99999999999999L108.79573170731707,95.2L87.03658536585365,122.40000000000003L72.53048780487805,149.6L46.41951219512195,176.8L65.27743902439025,204.00000000000003L78.3329268292683,231.2L58.02439024390244,258.4L79.78353658536585,285.6L58.02439024390244,312.79999999999995L71.07987804878049,340L53.672560975609755,367.20000000000005L72.53048780487805,394.40000000000003L62.37621951219512,421.6L79.78353658536585,448.79999999999995L110.24634146341462,475.99999999999994L111.6969512195122,503.2L116.04878048780488,530.4L116.04878048780488,557.6L116.04878048780488,584.8L116.04878048780488,612L116.04878048780488,639.1999999999999L116.04878048780488,666.4L116.04878048780488,693.6Z" style="stroke: none;"/></g><g id="drizzle" transform="translate(493.9512195121951 ,0)" style="fill: rgb(31, 119, 180);"><path d="M116.04878048780488,693.6L116.04878048780488,666.4L116.04878048780488,639.1999999999999L116.04878048780488,612L117.49939024390243,584.8L116.04878048780488,557.6L117.49939024390243,530.4L118.94999999999999,503.2L117.49939024390243,475.99999999999994L117.49939024390243,448.79999999999995L120.40060975609757,421.6L117.49939024390243,394.40000000000003L121.85121951219513,367.20000000000005L121.85121951219513,340L117.49939024390243,312.79999999999995L120.40060975609757,285.6L123.30182926829268,258.4L126.20304878048779,231.2L124.75243902439024,204.00000000000003L123.30182926829268,176.8L121.85121951219513,149.6L124.75243902439024,122.40000000000003L117.49939024390243,95.2L118.94999999999999,67.99999999999999L116.04878048780488,40.80000000000004L116.04878048780488,13.600000000000012L116.04878048780488,-13.600000000000012L116.04878048780488,-13.600000000000012L116.04878048780488,13.600000000000012L116.04878048780488,40.80000000000004L113.14756097560975,67.99999999999999L114.59817073170733,95.2L107.34512195121951,122.40000000000003L110.24634146341462,149.6L108.79573170731707,176.8L107.34512195121951,204.00000000000003L105.89451219512195,231.2L108.79573170731707,258.4L111.6969512195122,285.6L114.59817073170733,312.79999999999995L110.24634146341462,340L110.24634146341462,367.20000000000005L114.59817073170733,394.40000000000003L111.6969512195122,421.6L114.59817073170733,448.79999999999995L114.59817073170733,475.99999999999994L113.14756097560975,503.2L114.59817073170733,530.4L116.04878048780488,557.6L114.59817073170733,584.8L116.04878048780488,612L116.04878048780488,639.1999999999999L116.04878048780488,666.4L116.04878048780488,693.6Z" style="stroke: none;"/></g><g id="fog" transform="translate(735.9674796747968 ,0)" style="fill: rgb(255, 127, 14);"><path d="M116.04878048780488,693.6L116.04878048780488,666.4L116.04878048780488,639.1999999999999L116.04878048780488,612L116.04878048780488,584.8L116.04878048780488,557.6L116.04878048780488,530.4L116.04878048780488,503.2L116.04878048780488,475.99999999999994L117.49939024390243,448.79999999999995L116.04878048780488,421.6L117.49939024390243,394.40000000000003L124.75243902439024,367.20000000000005L117.49939024390243,340L127.65365853658537,312.79999999999995L117.49939024390243,285.6L121.85121951219513,258.4L118.94999999999999,231.2L118.94999999999999,204.00000000000003L120.40060975609757,176.8L126.20304878048779,149.6L118.94999999999999,122.40000000000003L116.04878048780488,95.2L116.04878048780488,67.99999999999999L116.04878048780488,40.80000000000004L116.04878048780488,13.600000000000012L116.04878048780488,-13.600000000000012L116.04878048780488,-13.600000000000012L116.04878048780488,13.600000000000012L116.04878048780488,40.80000000000004L116.04878048780488,67.99999999999999L116.04878048780488,95.2L113.14756097560975,122.40000000000003L105.89451219512195,149.6L111.6969512195122,176.8L113.14756097560975,204.00000000000003L113.14756097560975,231.2L110.24634146341462,258.4L114.59817073170733,285.6L104.44390243902438,312.79999999999995L114.59817073170733,340L107.34512195121951,367.20000000000005L114.59817073170733,394.40000000000003L116.04878048780488,421.6L114.59817073170733,448.79999999999995L116.04878048780488,475.99999999999994L116.04878048780488,503.2L116.04878048780488,530.4L116.04878048780488,557.6L116.04878048780488,584.8L116.04878048780488,612L116.04878048780488,639.1999999999999L116.04878048780488,666.4L116.04878048780488,693.6Z" style="stroke: none;"/></g><g id="snow" transform="translate(977.9837398373984 ,0)" style="fill: rgb(214, 39, 40);"><path d="M116.04878048780488,693.6L116.04878048780488,666.4L118.94999999999999,639.1999999999999L120.40060975609757,612L121.85121951219513,584.8L123.30182926829268,557.6L146.51158536585365,530.4L145.0609756097561,503.2L140.7091463414634,475.99999999999994L132.00548780487804,448.79999999999995L121.85121951219513,421.6L121.85121951219513,394.40000000000003L118.94999999999999,367.20000000000005L116.04878048780488,340L116.04878048780488,312.79999999999995L116.04878048780488,285.6L116.04878048780488,258.4L116.04878048780488,231.2L116.04878048780488,204.00000000000003L116.04878048780488,176.8L116.04878048780488,149.6L116.04878048780488,122.40000000000003L116.04878048780488,95.2L116.04878048780488,67.99999999999999L116.04878048780488,40.80000000000004L116.04878048780488,13.600000000000012L116.04878048780488,-13.600000000000012L116.04878048780488,-13.600000000000012L116.04878048780488,13.600000000000012L116.04878048780488,40.80000000000004L116.04878048780488,67.99999999999999L116.04878048780488,95.2L116.04878048780488,122.40000000000003L116.04878048780488,149.6L116.04878048780488,176.8L116.04878048780488,204.00000000000003L116.04878048780488,231.2L116.04878048780488,258.4L116.04878048780488,285.6L116.04878048780488,312.79999999999995L116.04878048780488,340L113.14756097560975,367.20000000000005L110.24634146341462,394.40000000000003L110.24634146341462,421.6L100.09207317073171,448.79999999999995L91.38841463414634,475.99999999999994L87.03658536585365,503.2L85.5859756097561,530.4L108.79573170731707,557.6L110.24634146341462,584.8L111.6969512195122,612L113.14756097560975,639.1999999999999L116.04878048780488,666.4L116.04878048780488,693.6Z" style="stroke: none;"/></g></g></g><g id="legend" transform="translate(1280,10)"><g transform="translate(5,0)"><g class="legendColor" transform="translate(0,0)"><g class="legendCells" transform="translate(0,15.5)"><g class="cell" transform="translate(0, 0)"><rect class="swatch" height="15" width="15" style="fill: rgb(31, 119, 180);"/><text class="label" transform="translate( 20, 12.5)" font-family="&quot;Arial&quot;, sans-serif" font-size="10px"><tspan x="0" dy="0em">drizzle</tspan></text></g><g class="cell" transform="translate(0, 20.5)"><rect class="swatch" height="15" width="15" style="fill: rgb(255, 127, 14);"/><text class="label" transform="translate( 20, 12.5)" font-family="&quot;Arial&quot;, sans-serif" font-size="10px"><tspan x="0" dy="0em">fog</tspan></text></g><g class="cell" transform="translate(0, 41)"><rect class="swatch" height="15" width="15" style="fill: rgb(44, 160, 44);"/><text class="label" transform="translate( 20, 12.5)" font-family="&quot;Arial&quot;, sans-serif" font-size="10px"><tspan x="0" dy="0em">rain</tspan></text></g><g class="cell" transform="translate(0, 61.5)"><rect class="swatch" height="15" width="15" style="fill: rgb(214, 39, 40);"/><text class="label" transform="translate( 20, 12.5)" font-family="&quot;Arial&quot;, sans-serif" font-size="10px"><tspan x="0" dy="0em">snow</tspan></text></g><g class="cell" transform="translate(0, 82)"><rect class="swatch" height="15" width="15" style="fill: rgb(148, 103, 189);"/><text class="label" transform="translate( 20, 12.5)" font-family="&quot;Arial&quot;, sans-serif" font-size="10px"><tspan x="0" dy="0em">sun</tspan></text></g></g><text class="legendTitle" font-family="&quot;Arial&quot;, sans-serif" font-size="12px" font-weight="bold"><tspan x="0" dy="0em">weather</tspan></text></g></g></g></svg>