<svg xmlns="http://www.w3.org/2000/svg" width="1480" height="720"><rect width="1480" height="720" x="0" y="0" fill="#FFFFFF" id="backgorund"/><g id="viz"><clipPath id="serieClipPath"><rect x="-50" y="-10" width="1280" height="720"/></clipPath><g transform="translate(0,0)"><g transform="translate(50,10)" clip-path="url(#serieClipPath)"><g id="axis"><g transform="translate(0,690)" fill="none" font-size="10" font-family="sans-serif" text-anchor="middle"><path class="domain" stroke="currentColor" d="M0.5,0.5H1215.5"/><g class="tick" opacity="1" transform="translate(0.5,0)"><line stroke="currentColor" y2="6"/><text fill="currentColor" y="9" dy="0.71em">1970</text></g><g class="tick" opacity="1" transform="translate(121.98669368086738,0)"><line stroke="currentColor" y2="6"/><text fill="currentColor" y="9" dy="0.71em">1975</text></g><g class="tick" opacity="1" transform="translate(243.47338736173475,0)"><line stroke="currentColor" y2="6"/><text fill="currentColor" y="9" dy="0.71em">1980</text></g><g class="tick" opacity="1" transform="translate(365.02661263826525,0)"><line stroke="currentColor" y2="6"/><text fill="currentColor" y="9" dy="0.71em">1985</text></g><g class="tick" opacity="1" transform="translate(486.51330631913265,0)"><line stroke="currentColor" y2="6"/><text fill="currentColor" y="9" dy="0.71em">1990</text></g><g class="tick" opacity="1" transform="translate(608,0)"><line stroke="currentColor" y2="6"/><text fill="currentColor" y="9" dy="0.71em">1995</text></g><g class="tick" opacity="1" transform="translate(729.4866936808673,0)"><line stroke="currentColor" y2="6"/><text fill="currentColor" y="9" dy="0.71em">2000</text></g><g class="tick" opacity="1" transform="translate(851.0399189573978,0)"><line stroke="currentColor" y2="6"/><text fill="currentColor" y="9" dy="0.71em">2005</text></g><g class="tick" opacity="1" transform="translate(972.5266126382653,0)"><line stroke="currentColor" y2="6"/><text fill="currentColor" y="9" dy="0.71em">2010</text></g><g class="tick" opacity="1" transform="translate(1094.0133063191327,0)"><line stroke="currentColor" y2="6"/><text fill="currentColor" y="9" dy="0.71em">2015</text></g><g class="tick" opacity="1" transform="translate(1215.5,0)"><line stroke="currentColor" y2="6"/><text fill="currentColor" y="9" dy="0.71em">2020</text></g><text x="1215" dy="-5" text-anchor="end" style="font-family: Arial, sans-serif; font-size: 12px; fill: rgb(123, 123, 123); font-weight: bold;">Year</text></g><g transform="translate(0,0)" fill="none" font-size="10" font-family="sans-serif" text-anchor="end"><path class="domain" stroke="currentColor" d="M0.5,690.5V0.5"/><g class="tick" opacity="1" transform="translate(0,690.5)"><line stroke="currentColor" x2="-6"/><text fill="currentColor" x="-9" dy="0.32em">0</text></g><g class="tick" opacity="1" transform="translate(0,627.7727272727273)"><line stroke="currentColor" x2="-6"/><text fill="currentColor" x="-9" dy="0.32em">2,000</text></g><g class="tick" opacity="1" transform="translate(0,565.0454545454545)"><line stroke="currentColor" x2="-6"/><text fill="currentColor" x="-9" dy="0.32em">4,000</text></g><g class="tick" opacity="1" transform="translate(0,502.3181818181818)"><line stroke="currentColor" x2="-6"/><text fill="currentColor" x="-9" dy="0.32em">6,000</text></g><g class="tick" opacity="1" transform="translate(0,439.59090909090907)"><line stroke="currentColor" x2="-6"/><text fill="currentColor" x="-9" dy="0.32em">8,000</text></g><g class="tick" opacity="1" transform="translate(0,376.8636363636363)"><line stroke="currentColor" x2="-6"/><text fill="currentColor" x="-9" dy="0.32em">10,000</text></g><g class="tick" opacity="1" transform="translate(0,314.1363636363637)"><line stroke="currentColor" x2="-6"/><text fill="currentColor" x="-9" dy="0.32em">12,000</text></g><g class="tick" opacity="1" transform="translate(0,251.4090909090909)"><line stroke="currentColor" x2="-6"/><text fill="currentColor" x="-9" dy="0.32em">14,000</text></g><g class="tick" opacity="1" transform="translate(0,188.68181818181816)"><line stroke="currentColor" x2="-6"/><text fill="currentColor" x="-9" dy="0.32em">16,000</text></g><g class="tick" opacity="1" transform="translate(0,125.95454545454542)"><line stroke="currentColor" x2="-6"/><text fill="currentColor" x="-9" dy="0.32em">18,000</text></g><g class="tick" opacity="1" transform="translate(0,63.22727272727275)"><line stroke="currentColor" x2="-6"/><text fill="currentColor" x="-9" dy="0.32em">20,000</text></g><g class="tick" opacity="1" transform="translate(0,0.5)"><line stroke="currentColor" x2="-6"/><text fill="currentColor" x="-9" dy="0.32em">22,000</text></g><text x="4" text-anchor="start" dominant-baseline="hanging" style="font-family: Arial, sans-serif; font-size: 12px; fill: rgb(123, 123, 123); font-weight: bold;">Revenues in millions (Adjusted for inflation)</text></g></g><g id="viz"><g id="Tape"><path d="M72.91862884678568,585.1476521411046C81.01330631913262,584.7390282113387,89.10798379147958,584.3304042815728,97.20266126382653,584.3304042815728C105.29733873617347,584.3304042815728,113.39201620852043,586.8645620535682,121.48669368086738,586.8645620535682C129.58137115321432,586.8645620535682,137.67604862556126,579.3643746984527,145.7707260979082,573.1775358762001C153.88758076880956,566.9737468105989,162.00443543971087,558.8621718826942,170.12129011061222,549.6659377527272C178.21596758295917,540.4948299455198,186.3106450553061,518.0977588868182,194.40532252765306,518.0977588868182C202.5,518.0977588868182,210.59467747234697,541.6282495220454,218.68935494469392,550.2976633322727C226.78403241704086,558.9670771425,234.8787098893878,570.1142417481818,242.97338736173475,570.1142417481818C251.0902420326361,570.1142417481818,259.20709670353745,568.6400132938636,267.32395137443876,568.6400132938636C275.4186288467857,568.6400132938636,283.51330631913265,571.9684737262363,291.60798379147957,571.9684737262363C299.70266126382654,571.9684737262363,307.79733873617346,555.2032775409635,315.89201620852043,544.2128558345454C323.9866936808674,533.2224341281272,332.0813711532143,506.0259434877272,340.1760486255613,506.0259434877272C348.2929032964626,506.0259434877272,356.40975796736393,510.2954417468182,364.52661263826525,510.2954417468182C372.6212901106122,510.2954417468182,380.71596758295914,509.2425092531818,388.8106450553061,507.1366442659091C396.905322527653,505.03077927863643,405,488.49364673915005,413.0946774723469,480.0834253198091C421.1893549446939,471.6732039004682,429.28403241704086,456.67531574986356,437.37870988938784,456.67531574986356C445.49556456028915,456.67531574986356,453.6124192311905,461.0064107674566,461.7292739020918,461.0636548636364C469.82395137443876,461.1207425551818,477.9186288467857,461.0921987094091,486.01330631913265,461.1492864009545C494.10798379147957,461.2063740924999,502.20266126382654,498.66679266027273,510.29733873617346,498.66679266027273C518.3920162085204,498.66679266027273,526.4866936808673,494.8224543984546,534.5813711532144,494.8224543984546C542.6982258241156,494.8224543984546,550.815080495017,509.9992839915328,558.9319351659183,511.63786611259087C567.0266126382652,513.2719712333181,575.1212901106122,512.4549186729545,583.2159675829591,514.0890237936818C591.310645055306,515.7231289144091,599.4053225276531,544.8885425404092,607.5,556.3663750055455C615.5946774723469,567.8442074706818,623.689354944694,574.4844788961199,631.7840324170409,582.9560185844999C639.9008870879421,591.4507679706563,648.0177417588435,601.833317981747,656.1345964297448,607.2587949188181C664.2292739020918,612.669448148411,672.3239513744387,610.618710911184,680.4186288467857,615.5082089783182C688.5133063191327,620.3977070454523,696.6079837914796,629.0743687749181,704.7026612638265,636.5957833216228C712.7973387361734,644.1171978683276,720.8920162085204,654.4815270733865,728.9866936808673,660.6366962585469C737.1035483517686,666.8087289209269,745.22040302267,670.2094909336553,753.3372576935712,673.5467968482272C761.4319351659183,676.8749844406283,769.5266126382652,678.6919201409546,777.6212901106122,680.6489922088637C785.7159675829591,682.6060642767727,793.8106450553062,683.8983955911908,801.9053225276531,685.2892292556818C810,686.6800629201726,818.0946774723469,688.6827364638913,826.1893549446938,688.9939941958091C834.3062096155952,689.3061046886363,842.4230642864965,689.3188583102827,850.5399189573978,689.46215993505C858.6345964297449,689.6050700253232,866.7292739020918,689.8320899211283,874.8239513744388,689.8528381310728C882.9186288467857,689.8735863410172,891.0133063191327,689.8650197809698,899.1079837914796,689.8839604459895C907.2026612638265,689.9029011110092,915.2973387361735,689.9346916161003,923.3920162085204,689.9664821211913" stroke="rgb(35, 23, 27)" fill="none"/><g><circle class="dot" cx="72.91862884678568" cy="585.1476521411046" r="2" fill="rgb(35, 23, 27)"/><circle class="dot" cx="97.20266126382653" cy="584.3304042815728" r="2" fill="rgb(35, 23, 27)"/><circle class="dot" cx="121.48669368086738" cy="586.8645620535682" r="2" fill="rgb(35, 23, 27)"/><circle class="dot" cx="145.7707260979082" cy="573.1775358762001" r="2" fill="rgb(35, 23, 27)"/><circle class="dot" cx="170.12129011061222" cy="549.6659377527272" r="2" fill="rgb(35, 23, 27)"/><circle class="dot" cx="194.40532252765306" cy="518.0977588868182" r="2" fill="rgb(35, 23, 27)"/><circle class="dot" cx="218.68935494469392" cy="550.2976633322727" r="2" fill="rgb(35, 23, 27)"/><circle class="dot" cx="242.97338736173475" cy="570.1142417481818" r="2" fill="rgb(35, 23, 27)"/><circle class="dot" cx="267.32395137443876" cy="568.6400132938636" r="2" fill="rgb(35, 23, 27)"/><circle class="dot" cx="291.60798379147957" cy="571.9684737262363" r="2" fill="rgb(35, 23, 27)"/><circle class="dot" cx="315.89201620852043" cy="544.2128558345454" r="2" fill="rgb(35, 23, 27)"/><circle class="dot" cx="340.1760486255613" cy="506.0259434877272" r="2" fill="rgb(35, 23, 27)"/><circle class="dot" cx="364.52661263826525" cy="510.2954417468182" r="2" fill="rgb(35, 23, 27)"/><circle class="dot" cx="388.8106450553061" cy="507.1366442659091" r="2" fill="rgb(35, 23, 27)"/><circle class="dot" cx="413.0946774723469" cy="480.0834253198091" r="2" fill="rgb(35, 23, 27)"/><circle class="dot" cx="437.37870988938784" cy="456.67531574986356" r="2" fill="rgb(35, 23, 27)"/><circle class="dot" cx="461.7292739020918" cy="461.0636548636364" r="2" fill="rgb(35, 23, 27)"/><circle class="dot" cx="486.01330631913265" cy="461.1492864009545" r="2" fill="rgb(35, 23, 27)"/><circle class="dot" cx="510.29733873617346" cy="498.66679266027273" r="2" fill="rgb(35, 23, 27)"/><circle class="dot" cx="534.5813711532144" cy="494.8224543984546" r="2" fill="rgb(35, 23, 27)"/><circle class="dot" cx="558.9319351659183" cy="511.63786611259087" r="2" fill="rgb(35, 23, 27)"/><circle class="dot" cx="583.2159675829591" cy="514.0890237936818" r="2" fill="rgb(35, 23, 27)"/><circle class="dot" cx="607.5" cy="556.3663750055455" r="2" fill="rgb(35, 23, 27)"/><circle class="dot" cx="631.7840324170409" cy="582.9560185844999" r="2" fill="rgb(35, 23, 27)"/><circle class="dot" cx="656.1345964297448" cy="607.2587949188181" r="2" fill="rgb(35, 23, 27)"/><circle class="dot" cx="680.4186288467857" cy="615.5082089783182" r="2" fill="rgb(35, 23, 27)"/><circle class="dot" cx="704.7026612638265" cy="636.5957833216228" r="2" fill="rgb(35, 23, 27)"/><circle class="dot" cx="728.9866936808673" cy="660.6366962585469" r="2" fill="rgb(35, 23, 27)"/><circle class="dot" cx="753.3372576935712" cy="673.5467968482272" r="2" fill="rgb(35, 23, 27)"/><circle class="dot" cx="777.6212901106122" cy="680.6489922088637" r="2" fill="rgb(35, 23, 27)"/><circle class="dot" cx="801.9053225276531" cy="685.2892292556818" r="2" fill="rgb(35, 23, 27)"/><circle class="dot" cx="826.1893549446938" cy="688.9939941958091" r="2" fill="rgb(35, 23, 27)"/><circle class="dot" cx="850.5399189573978" cy="689.46215993505" r="2" fill="rgb(35, 23, 27)"/><circle class="dot" cx="874.8239513744388" cy="689.8528381310728" r="2" fill="rgb(35, 23, 27)"/><circle class="dot" cx="899.1079837914796" cy="689.8839604459895" r="2" fill="rgb(35, 23, 27)"/><circle class="dot" cx="923.3920162085204" cy="689.9664821211913" r="2" fill="rgb(35, 23, 27)"/></g><text font-family="sans-serif" font-size="10" class="labels" x="437.37870988938784" y="456.67531574986356" dx="0" dy="-4" text-anchor="middle">Tape</text></g><g id="Disc"><path d="M315.89201620852043,688.6153079244136C323.9866936808674,687.5174184296022,332.0813711532143,686.419528934791,340.1760486255613,682.0279709555455C348.2929032964626,677.6243813106034,356.40975796736393,671.0088104529353,364.52661263826525,660.9745281186819C372.6212901106122,650.9676618563799,380.71596758295914,635.8634181094774,388.8106450553061,621.9539079068182C396.905322527653,608.0443977041591,405,589.895941805675,413.0946774723469,577.5174669027273C421.1893549446939,565.1389919997795,429.28403241704086,556.8141891984956,437.37870988938784,547.6830584891319C445.49556456028915,538.5269109833042,453.6124192311905,534.3279915447376,461.7292739020918,522.6690260113636C469.82395137443876,511.0419155750752,477.9186288467857,492.89643827285676,486.01330631913265,477.87919808644085C494.10798379147957,462.86195790002495,502.20266126382654,448.37780871059306,510.29733873617346,432.5655848928681C518.3920162085204,416.7533610751431,526.4866936808673,400.7159780472081,534.5813711532144,383.0058551800909C542.6982258241156,365.24721142840633,550.815080495017,351.8618489383249,558.9319351659183,326.13969309029994C567.0266126382652,300.48781635661373,575.1212901106122,251.55363534094087,583.2159675829591,228.99453652127724C591.310645055306,206.4354377016136,599.4053225276531,200.137291147175,607.5,190.78510017231818C615.5946774723469,181.43290919746136,623.689354944694,172.88139067213635,631.7840324170409,172.88139067213635C639.9008870879421,172.88139067213635,648.0177417588435,181.03317893372724,656.1345964297448,181.03317893372724C664.2292739020918,181.03317893372724,672.3239513744387,137.69641434102283,680.4186288467857,117.93374078100004C688.5133063191327,98.17106722097742,696.6079837914796,62.457137573590934,704.7026612638265,62.457137573590934C712.7973387361734,62.457137573590934,720.8920162085204,64.3162180202273,728.9866936808673,68.03437891350003C737.1035483517686,71.7627265489461,745.22040302267,87.85006895493106,753.3372576935712,101.92249547890917C761.4319351659183,115.95647275008963,769.5266126382652,136.33206558420687,777.6212901106122,152.30813792537734C785.7159675829591,168.28421026654775,793.8106450553062,194.4426666367045,801.9053225276531,197.7789295259318C810,201.1151924151591,818.0946774723469,199.44706097054544,826.1893549446938,202.78332385977274C834.3062096155952,206.1287271952719,842.4230642864965,238.20592543710734,850.5399189573978,257.2193963583818C858.6345964297449,276.18091790555445,866.7292739020918,292.7081550228421,874.8239513744388,316.6940893393036C882.9186288467857,340.6800236557649,891.0133063191327,372.9187557360246,899.1079837914796,401.13500225715C907.2026612638265,429.35124877827553,915.2973387361735,464.79382345395857,923.3920162085204,485.9915684660564C931.5088708794217,507.2473894918859,939.6257255503231,515.16269711474,947.7425802212243,528.3790293625841C955.8372576935714,541.5592514130298,963.9319351659183,556.7106730946505,972.0266126382653,565.1961752029023C980.1212901106122,573.6816773111541,988.2159675829593,572.9859117353346,996.3106450553062,579.2920420120951C1004.4053225276531,585.5981722888555,1012.5,596.8865046998691,1020.5946774723469,603.032956863465C1028.7115321432482,609.1962486220297,1036.8283868141496,611.7431843863005,1044.945241485051,616.1921843497037C1053.039918957398,620.6290285755019,1061.1345964297448,625.5481965531699,1069.2292739020918,629.689464754106C1077.3239513744388,633.8307329550421,1085.4186288467856,637.2924615462712,1093.5133063191327,641.0397935553204C1101.6079837914797,644.7871255643697,1109.7026612638265,650.0703290949219,1117.7973387361735,652.1734568084019C1125.914193407075,654.2823465156173,1134.031048077976,653.2279016620096,1142.1479027488774,655.336791369225C1150.2425802212244,657.4399190827049,1158.3372576935712,665.6396235048114,1166.4319351659183,667.6667543730996C1174.5266126382653,669.6938852413878,1182.621290110612,670.2006679584598,1190.7159675829591,670.7074506755318" stroke="rgb(47, 157, 245)" fill="none"/><g><circle class="dot" cx="315.89201620852043" cy="688.6153079244136" r="2" fill="rgb(47, 157, 245)"/><circle class="dot" cx="340.1760486255613" cy="682.0279709555455" r="2" fill="rgb(47, 157, 245)"/><circle class="dot" cx="364.52661263826525" cy="660.9745281186819" r="2" fill="rgb(47, 157, 245)"/><circle class="dot" cx="388.8106450553061" cy="621.9539079068182" r="2" fill="rgb(47, 157, 245)"/><circle class="dot" cx="413.0946774723469" cy="577.5174669027273" r="2" fill="rgb(47, 157, 245)"/><circle class="dot" cx="437.37870988938784" cy="547.6830584891319" r="2" fill="rgb(47, 157, 245)"/><circle class="dot" cx="461.7292739020918" cy="522.6690260113636" r="2" fill="rgb(47, 157, 245)"/><circle class="dot" cx="486.01330631913265" cy="477.87919808644085" r="2" fill="rgb(47, 157, 245)"/><circle class="dot" cx="510.29733873617346" cy="432.5655848928681" r="2" fill="rgb(47, 157, 245)"/><circle class="dot" cx="534.5813711532144" cy="383.0058551800909" r="2" fill="rgb(47, 157, 245)"/><circle class="dot" cx="558.9319351659183" cy="326.13969309029994" r="2" fill="rgb(47, 157, 245)"/><circle class="dot" cx="583.2159675829591" cy="228.99453652127724" r="2" fill="rgb(47, 157, 245)"/><circle class="dot" cx="607.5" cy="190.78510017231818" r="2" fill="rgb(47, 157, 245)"/><circle class="dot" cx="631.7840324170409" cy="172.88139067213635" r="2" fill="rgb(47, 157, 245)"/><circle class="dot" cx="656.1345964297448" cy="181.03317893372724" r="2" fill="rgb(47, 157, 245)"/><circle class="dot" cx="680.4186288467857" cy="117.93374078100004" r="2" fill="rgb(47, 157, 245)"/><circle class="dot" cx="704.7026612638265" cy="62.457137573590934" r="2" fill="rgb(47, 157, 245)"/><circle class="dot" cx="728.9866936808673" cy="68.03437891350003" r="2" fill="rgb(47, 157, 245)"/><circle class="dot" cx="753.3372576935712" cy="101.92249547890917" r="2" fill="rgb(47, 157, 245)"/><circle class="dot" cx="777.6212901106122" cy="152.30813792537734" r="2" fill="rgb(47, 157, 245)"/><circle class="dot" cx="801.9053225276531" cy="197.7789295259318" r="2" fill="rgb(47, 157, 245)"/><circle class="dot" cx="826.1893549446938" cy="202.78332385977274" r="2" fill="rgb(47, 157, 245)"/><circle class="dot" cx="850.5399189573978" cy="257.2193963583818" r="2" fill="rgb(47, 157, 245)"/><circle class="dot" cx="874.8239513744388" cy="316.6940893393036" r="2" fill="rgb(47, 157, 245)"/><circle class="dot" cx="899.1079837914796" cy="401.13500225715" r="2" fill="rgb(47, 157, 245)"/><circle class="dot" cx="923.3920162085204" cy="485.9915684660564" r="2" fill="rgb(47, 157, 245)"/><circle class="dot" cx="947.7425802212243" cy="528.3790293625841" r="2" fill="rgb(47, 157, 245)"/><circle class="dot" cx="972.0266126382653" cy="565.1961752029023" r="2" fill="rgb(47, 157, 245)"/><circle class="dot" cx="996.3106450553062" cy="579.2920420120951" r="2" fill="rgb(47, 157, 245)"/><circle class="dot" cx="1020.5946774723469" cy="603.032956863465" r="2" fill="rgb(47, 157, 245)"/><circle class="dot" cx="1044.945241485051" cy="616.1921843497037" r="2" fill="rgb(47, 157, 245)"/><circle class="dot" cx="1069.2292739020918" cy="629.689464754106" r="2" fill="rgb(47, 157, 245)"/><circle class="dot" cx="1093.5133063191327" cy="641.0397935553204" r="2" fill="rgb(47, 157, 245)"/><circle class="dot" cx="1117.7973387361735" cy="652.1734568084019" r="2" fill="rgb(47, 157, 245)"/><circle class="dot" cx="1142.1479027488774" cy="655.336791369225" r="2" fill="rgb(47, 157, 245)"/><circle class="dot" cx="1166.4319351659183" cy="667.6667543730996" r="2" fill="rgb(47, 157, 245)"/><circle class="dot" cx="1190.7159675829591" cy="670.7074506755318" r="2" fill="rgb(47, 157, 245)"/></g><text font-family="sans-serif" font-size="10" class="labels" x="704.7026612638265" y="62.457137573590934" dx="0" dy="-4" text-anchor="middle">Disc</text></g><g id="Download"><path d="M826.1893549446938,682.2108833293499C834.3062096155952,671.9569882215277,842.4230642864965,661.7030931137054,850.5399189573978,652.0514830518136C858.6345964297449,642.4262435092165,866.7292739020918,633.4719543905454,874.8239513744388,624.3737611579363C882.9186288467857,615.2755679253273,891.0133063191327,602.4562214401682,899.1079837914796,597.4623236561591C907.2026612638265,592.46842587215,915.2973387361735,589.9714769801454,923.3920162085204,589.9714769801454C931.5088708794217,589.9714769801454,939.6257255503231,590.4177075857366,947.7425802212243,590.5823412129137C955.8372576935714,590.7465250214372,963.9319351659183,590.9585675580954,972.0266126382653,590.9585675580954C980.1212901106122,590.9585675580954,988.2159675829593,587.6099401831841,996.3106450553062,586.5604042321637C1004.4053225276531,585.5108682811433,1012.5,584.6613518519728,1020.5946774723469,584.6613518519728C1028.7115321432482,584.6613518519728,1036.8283868141496,586.3313870150016,1044.945241485051,589.4838372423136C1053.039918957398,592.6276742176384,1061.1345964297448,599.8006196450337,1069.2292739020918,603.5249209270501C1077.3239513744388,607.2492222090664,1085.4186288467856,607.6987411352916,1093.5133063191327,611.8296449344118C1101.6079837914797,615.960548733532,1109.7026612638265,622.9338145955404,1117.7973387361735,628.3103437217713C1125.914193407075,633.7016030647865,1134.031048077976,639.3637762755968,1142.1479027488774,644.1310838085436C1150.2425802212244,648.8853659110725,1158.3372576935712,653.7034046167918,1166.4319351659183,656.8834008391309C1174.5266126382653,660.06339706147,1182.621290110612,661.6372291020241,1190.7159675829591,663.2110611425782" stroke="rgb(222, 221, 50)" fill="none"/><g><circle class="dot" cx="826.1893549446938" cy="682.2108833293499" r="2" fill="rgb(222, 221, 50)"/><circle class="dot" cx="850.5399189573978" cy="652.0514830518136" r="2" fill="rgb(222, 221, 50)"/><circle class="dot" cx="874.8239513744388" cy="624.3737611579363" r="2" fill="rgb(222, 221, 50)"/><circle class="dot" cx="899.1079837914796" cy="597.4623236561591" r="2" fill="rgb(222, 221, 50)"/><circle class="dot" cx="923.3920162085204" cy="589.9714769801454" r="2" fill="rgb(222, 221, 50)"/><circle class="dot" cx="947.7425802212243" cy="590.5823412129137" r="2" fill="rgb(222, 221, 50)"/><circle class="dot" cx="972.0266126382653" cy="590.9585675580954" r="2" fill="rgb(222, 221, 50)"/><circle class="dot" cx="996.3106450553062" cy="586.5604042321637" r="2" fill="rgb(222, 221, 50)"/><circle class="dot" cx="1020.5946774723469" cy="584.6613518519728" r="2" fill="rgb(222, 221, 50)"/><circle class="dot" cx="1044.945241485051" cy="589.4838372423136" r="2" fill="rgb(222, 221, 50)"/><circle class="dot" cx="1069.2292739020918" cy="603.5249209270501" r="2" fill="rgb(222, 221, 50)"/><circle class="dot" cx="1093.5133063191327" cy="611.8296449344118" r="2" fill="rgb(222, 221, 50)"/><circle class="dot" cx="1117.7973387361735" cy="628.3103437217713" r="2" fill="rgb(222, 221, 50)"/><circle class="dot" cx="1142.1479027488774" cy="644.1310838085436" r="2" fill="rgb(222, 221, 50)"/><circle class="dot" cx="1166.4319351659183" cy="656.8834008391309" r="2" fill="rgb(222, 221, 50)"/><circle class="dot" cx="1190.7159675829591" cy="663.2110611425782" r="2" fill="rgb(222, 221, 50)"/></g><text font-family="sans-serif" font-size="10" class="labels" x="1020.5946774723469" y="584.6613518519728" dx="0" dy="-4" text-anchor="middle">Download</text></g><g id="Other"><path d="M461.7292739020918,682.5377770227273C469.82395137443876,680.9836597160454,477.9186288467857,679.4295424093636,486.01330631913265,679.4295424093636C494.10798379147957,679.4295424093636,502.20266126382654,683.0472456046364,510.29733873617346,683.0472456046364C518.3920162085204,683.0472456046364,526.4866936808673,681.8167893812744,534.5813711532144,681.0043788823637C542.6982258241156,680.1897426012641,550.815080495017,678.6102030450625,558.9319351659183,678.1639414015909C567.0266126382652,677.7188990522272,575.1212901106122,677.4963778775455,583.2159675829591,677.4963778775455C591.310645055306,677.4963778775455,599.4053225276531,678.4091942269091,607.5,678.4091942269091C615.5946774723469,678.4091942269091,623.689354944694,678.250853376091,631.7840324170409,677.9341716744545C639.9008870879421,677.6166223517178,648.0177417588435,675.9775220113811,656.1345964297448,673.8184540948637C664.2292739020918,671.6652852710143,672.3239513744387,665.0103481205455,680.4186288467857,665.0103481205455C688.5133063191327,665.0103481205455,696.6079837914796,669.8925045577273,704.7026612638265,671.8697112260455C712.7973387361734,673.8469178943637,720.8920162085204,676.8735881304546,728.9866936808673,676.8735881304546C737.1035483517686,676.8735881304546,745.22040302267,674.8235726565641,753.3372576935712,674.8235726565641C761.4319351659183,674.8235726565641,769.5266126382652,676.76685312975,777.6212901106122,676.76685312975C785.7159675829591,676.76685312975,793.8106450553062,674.3607230654429,801.9053225276531,672.2245755181091C810,670.0884279707752,818.0946774723469,663.9499678457469,826.1893549446938,663.9499678457469C834.3062096155952,663.9499678457469,842.4230642864965,664.2249420269704,850.5399189573978,664.7748903894177C858.6345964297449,665.3233361607107,866.7292739020918,671.8871580802855,874.8239513744388,671.8871580802855C882.9186288467857,671.8871580802855,891.0133063191327,671.0352688917545,899.1079837914796,671.0352688917545C907.2026612638265,671.0352688917545,915.2973387361735,681.3933535596232,923.3920162085204,681.3933535596232C931.5088708794217,681.3933535596232,939.6257255503231,674.3510625041332,947.7425802212243,674.3510625041332C955.8372576935714,674.3510625041332,963.9319351659183,675.7362237561341,972.0266126382653,676.2620185801568C980.1212901106122,676.7878134041795,988.2159675829593,677.0266762444352,996.3106450553062,677.5058314482695C1004.4053225276531,677.9849866521039,1012.5,678.8289672766102,1020.5946774723469,679.1369498031627C1028.7115321432482,679.4457761174591,1036.8283868141496,679.3932465275792,1044.945241485051,679.6001892746073C1053.039918957398,679.8065666042937,1061.1345964297448,680.331121201555,1069.2292739020918,680.3760500689104C1077.3239513744388,680.4209789362659,1085.4186288467856,680.3985145025882,1093.5133063191327,680.4434433699437C1101.6079837914797,680.4883722372991,1109.7026612638265,680.6374319572406,1117.7973387361735,680.7276918106296C1125.914193407075,680.8181989512883,1134.031048077976,680.9856704489032,1142.1479027488774,680.9856704489032C1150.2425802212244,680.9856704489032,1158.3372576935712,679.834238194785,1166.4319351659183,679.834238194785C1174.5266126382653,679.834238194785,1182.621290110612,680.1087383537972,1190.7159675829591,680.3832385128095" stroke="rgb(77, 248, 132)" fill="none"/><g><circle class="dot" cx="461.7292739020918" cy="682.5377770227273" r="2" fill="rgb(77, 248, 132)"/><circle class="dot" cx="486.01330631913265" cy="679.4295424093636" r="2" fill="rgb(77, 248, 132)"/><circle class="dot" cx="510.29733873617346" cy="683.0472456046364" r="2" fill="rgb(77, 248, 132)"/><circle class="dot" cx="534.5813711532144" cy="681.0043788823637" r="2" fill="rgb(77, 248, 132)"/><circle class="dot" cx="558.9319351659183" cy="678.1639414015909" r="2" fill="rgb(77, 248, 132)"/><circle class="dot" cx="583.2159675829591" cy="677.4963778775455" r="2" fill="rgb(77, 248, 132)"/><circle class="dot" cx="607.5" cy="678.4091942269091" r="2" fill="rgb(77, 248, 132)"/><circle class="dot" cx="631.7840324170409" cy="677.9341716744545" r="2" fill="rgb(77, 248, 132)"/><circle class="dot" cx="656.1345964297448" cy="673.8184540948637" r="2" fill="rgb(77, 248, 132)"/><circle class="dot" cx="680.4186288467857" cy="665.0103481205455" r="2" fill="rgb(77, 248, 132)"/><circle class="dot" cx="704.7026612638265" cy="671.8697112260455" r="2" fill="rgb(77, 248, 132)"/><circle class="dot" cx="728.9866936808673" cy="676.8735881304546" r="2" fill="rgb(77, 248, 132)"/><circle class="dot" cx="753.3372576935712" cy="674.8235726565641" r="2" fill="rgb(77, 248, 132)"/><circle class="dot" cx="777.6212901106122" cy="676.76685312975" r="2" fill="rgb(77, 248, 132)"/><circle class="dot" cx="801.9053225276531" cy="672.2245755181091" r="2" fill="rgb(77, 248, 132)"/><circle class="dot" cx="826.1893549446938" cy="663.9499678457469" r="2" fill="rgb(77, 248, 132)"/><circle class="dot" cx="850.5399189573978" cy="664.7748903894177" r="2" fill="rgb(77, 248, 132)"/><circle class="dot" cx="874.8239513744388" cy="671.8871580802855" r="2" fill="rgb(77, 248, 132)"/><circle class="dot" cx="899.1079837914796" cy="671.0352688917545" r="2" fill="rgb(77, 248, 132)"/><circle class="dot" cx="923.3920162085204" cy="681.3933535596232" r="2" fill="rgb(77, 248, 132)"/><circle class="dot" cx="947.7425802212243" cy="674.3510625041332" r="2" fill="rgb(77, 248, 132)"/><circle class="dot" cx="972.0266126382653" cy="676.2620185801568" r="2" fill="rgb(77, 248, 132)"/><circle class="dot" cx="996.3106450553062" cy="677.5058314482695" r="2" fill="rgb(77, 248, 132)"/><circle class="dot" cx="1020.5946774723469" cy="679.1369498031627" r="2" fill="rgb(77, 248, 132)"/><circle class="dot" cx="1044.945241485051" cy="679.6001892746073" r="2" fill="rgb(77, 248, 132)"/><circle class="dot" cx="1069.2292739020918" cy="680.3760500689104" r="2" fill="rgb(77, 248, 132)"/><circle class="dot" cx="1093.5133063191327" cy="680.4434433699437" r="2" fill="rgb(77, 248, 132)"/><circle class="dot" cx="1117.7973387361735" cy="680.7276918106296" r="2" fill="rgb(77, 248, 132)"/><circle class="dot" cx="1142.1479027488774" cy="680.9856704489032" r="2" fill="rgb(77, 248, 132)"/><circle class="dot" cx="1166.4319351659183" cy="679.834238194785" r="2" fill="rgb(77, 248, 132)"/><circle class="dot" cx="1190.7159675829591" cy="680.3832385128095" r="2" fill="rgb(77, 248, 132)"/></g><text font-family="sans-serif" font-size="10" class="labels" x="826.1893549446938" y="663.9499678457469" dx="0" dy="-4" text-anchor="middle">Other</text></g><g id="Streaming"><path d="M826.1893549446938,689.707112234224C834.3062096155952,687.1398240291479,842.4230642864965,684.5725358240718,850.5399189573978,683.0368187000591C858.6345964297449,681.5052975244728,866.7292739020918,681.0754911579318,874.8239513744388,680.4941387361818C882.9186288467857,679.9127863144317,891.0133063191327,679.95932845015,899.1079837914796,679.5487041695591C907.2026612638265,679.1380798889682,915.2973387361735,678.5408922230455,923.3920162085204,678.0303930526363C931.5088708794217,677.5184952543631,939.6257255503231,677.3175057713308,947.7425802212243,676.4814409103182C955.8372576935714,675.6476603795268,963.9319351659183,674.6561122130455,972.0266126382653,673.0260914783182C980.1212901106122,671.3960707435909,988.2159675829593,669.88401494775,996.3106450553062,666.7013165019545C1004.4053225276531,663.518618056159,1012.5,658.384636648358,1020.5946774723469,653.9299008035455C1028.7115321432482,649.4629602029937,1036.8283868141496,644.2424097273687,1044.945241485051,639.9330345418637C1053.039918957398,635.6354336054993,1061.1345964297448,632.90336521975,1069.2292739020918,628.1031403030909C1077.3239513744388,623.3029153864318,1085.4186288467856,622.4459885493636,1093.5133063191327,611.131685041909C1101.6079837914797,599.8173815344544,1109.7026612638265,575.3469704116308,1117.7973387361735,557.6326590355363C1125.914193407075,539.8698152995074,1134.031048077976,521.8689630637048,1142.1479027488774,504.70217356677273C1150.2425802212244,487.5822878662803,1158.3372576935712,470.0455262279091,1166.4319351659183,454.7648292724091C1174.5266126382653,439.4841323169091,1182.621290110612,426.25106207534094,1190.7159675829591,413.0179918337728" stroke="rgb(144, 12, 0)" fill="none"/><g><circle class="dot" cx="826.1893549446938" cy="689.707112234224" r="2" fill="rgb(144, 12, 0)"/><circle class="dot" cx="850.5399189573978" cy="683.0368187000591" r="2" fill="rgb(144, 12, 0)"/><circle class="dot" cx="874.8239513744388" cy="680.4941387361818" r="2" fill="rgb(144, 12, 0)"/><circle class="dot" cx="899.1079837914796" cy="679.5487041695591" r="2" fill="rgb(144, 12, 0)"/><circle class="dot" cx="923.3920162085204" cy="678.0303930526363" r="2" fill="rgb(144, 12, 0)"/><circle class="dot" cx="947.7425802212243" cy="676.4814409103182" r="2" fill="rgb(144, 12, 0)"/><circle class="dot" cx="972.0266126382653" cy="673.0260914783182" r="2" fill="rgb(144, 12, 0)"/><circle class="dot" cx="996.3106450553062" cy="666.7013165019545" r="2" fill="rgb(144, 12, 0)"/><circle class="dot" cx="1020.5946774723469" cy="653.9299008035455" r="2" fill="rgb(144, 12, 0)"/><circle class="dot" cx="1044.945241485051" cy="639.9330345418637" r="2" fill="rgb(144, 12, 0)"/><circle class="dot" cx="1069.2292739020918" cy="628.1031403030909" r="2" fill="rgb(144, 12, 0)"/><circle class="dot" cx="1093.5133063191327" cy="611.131685041909" r="2" fill="rgb(144, 12, 0)"/><circle class="dot" cx="1117.7973387361735" cy="557.6326590355363" r="2" fill="rgb(144, 12, 0)"/><circle class="dot" cx="1142.1479027488774" cy="504.70217356677273" r="2" fill="rgb(144, 12, 0)"/><circle class="dot" cx="1166.4319351659183" cy="454.7648292724091" r="2" fill="rgb(144, 12, 0)"/><circle class="dot" cx="1190.7159675829591" cy="413.0179918337728" r="2" fill="rgb(144, 12, 0)"/></g><text font-family="sans-serif" font-size="10" class="labels" x="1190.7159675829591" y="413.0179918337728" dx="0" dy="-4" text-anchor="middle">Streaming</text></g><g id="Vinyl"><path d="M72.91862884678568,430.6683231940909C81.01330631913262,434.28531340295456,89.10798379147958,437.9023036118182,97.20266126382653,437.9023036118182C105.29733873617347,437.9023036118182,113.39201620852043,437.6529468745455,121.48669368086738,437.1542334C129.58137115321432,436.65551992545454,137.67604862556126,431.8065039018182,145.7707260979082,421.11104490545455C153.88758076880956,410.3862832817036,162.00443543971087,376.01601859076703,170.12129011061222,367.1231579318181C178.21596758295917,358.25459470636366,186.3106450553061,353.8203130936364,194.40532252765306,353.8203130936364C202.5,353.8203130936364,210.59467747234697,407.4653288991818,218.68935494469392,423.76041366136366C226.78403241704086,440.0554984235455,234.8787098893878,445.4546234823297,242.97338736173475,451.5908216667273C251.0902420326361,457.743831353,259.20709670353745,454.6673265098637,267.32395137443876,460.8203361961364C275.4186288467857,466.95653438053404,283.51330631913265,494.60457522334093,291.60798379147957,506.5255803192273C299.70266126382654,518.4465854151136,307.79733873617346,525.5303230551591,315.89201620852043,532.3463667714545C323.9866936808674,539.16241048775,332.0813711532143,540.5544829476283,340.1760486255613,547.421842617C348.2929032964626,554.3080169703974,356.40975796736393,564.6285632841082,364.52661263826525,573.6372930800454C372.6212901106122,582.6214088601469,380.71596758295914,593.7238067660454,388.8106450553061,601.3959551300454C396.905322527653,609.0681034940454,405,612.9528061374773,413.0946774723469,619.6701832640455C421.1893549446939,626.3875603906137,429.28403241704086,633.6203973775266,437.37870988938784,641.7002178894545C445.49556456028915,649.8021748959355,453.6124192311905,662.0260855777434,461.7292739020918,668.2276388522728C469.82395137443876,674.4122479921723,477.9186288467857,676.1886687146705,486.01330631913265,678.9019397649546C494.10798379147957,681.6152108152387,502.20266126382654,683.8897033698228,510.29733873617346,684.5072651539773C518.3920162085204,685.1248269381318,526.4866936808673,685.0902661790915,534.5813711532144,685.4336078302091C542.6982258241156,685.7778901433846,550.815080495017,686.5707059471727,558.9319351659183,686.5707059471727C567.0266126382652,686.5707059471727,575.1212901106122,686.5412492183841,583.2159675829591,686.4831872008909C591.310645055306,686.4251251833978,599.4053225276531,686.354219925759,607.5,686.2223338422136C615.5946774723469,686.0904477586682,623.689354944694,685.6918706996182,631.7840324170409,685.6918706996182C639.9008870879421,685.6918706996182,648.0177417588435,686.3291542225572,656.1345964297448,686.5578619547182C664.2292739020918,686.7859448023651,672.3239513744387,687.0209174845409,680.4186288467857,687.0632239818682C688.5133063191327,687.1055304791955,696.6079837914796,687.0843772305318,704.7026612638265,687.1266837278591C712.7973387361734,687.1689902251865,720.8920162085204,687.4855401171682,728.9866936808673,687.4855401171682C737.1035483517686,687.4855401171682,745.22040302267,687.3377866115046,753.3372576935712,687.3377866115046C761.4319351659183,687.3377866115046,769.5266126382652,687.882500129541,777.6212901106122,687.9764740050136C785.7159675829591,688.0704478804863,793.8106450553062,688.05750416735,801.9053225276531,688.1174348182227C810,688.1773654690954,818.0946774723469,688.2101065188236,826.1893549446938,688.33605791025C834.3062096155952,688.4623543739816,842.4230642864965,688.8036925177512,850.5399189573978,688.8750520779818C858.6345964297449,688.9462166667363,866.7292739020918,688.9817989611136,874.8239513744388,688.9817989611136C882.9186288467857,688.9817989611136,891.0133063191327,688.9743699737741,899.1079837914796,688.9595119990951C907.2026612638265,688.9446540244161,915.2973387361735,687.9521263779196,923.3920162085204,687.7803715802319C931.5088708794217,687.6081462214545,939.6257255503231,687.6942589008432,947.7425802212243,687.5220335420659C955.8372576935714,687.3502787443781,963.9319351659183,686.9701068917789,972.0266126382653,686.6464028225264C980.1212901106122,686.3226987532739,988.2159675829593,685.9839984369596,996.3106450553062,685.5798091265509C1004.4053225276531,685.1756198161423,1012.5,684.7098229701517,1020.5946774723469,684.2212669600746C1028.7115321432482,683.7313724403808,1036.8283868141496,683.088708582126,1044.945241485051,682.6438697421069C1053.039918957398,682.2002463087545,1061.1345964297448,682.2406879634568,1069.2292739020918,681.5545547361695C1077.3239513744388,680.8684215088822,1085.4186288467856,678.9034894079887,1093.5133063191327,678.5270703783832C1101.6079837914797,678.1506513487777,1109.7026612638265,678.2011147665263,1117.7973387361735,677.9624418339749C1125.914193407075,677.7231150029783,1134.031048077976,677.3454868611761,1142.1479027488774,677.0922404157545C1150.2425802212244,676.8396859005118,1158.3372576935712,676.8763056633904,1166.4319351659183,676.4444361586623C1174.5266126382653,676.0125666539341,1182.621290110612,675.0966115570573,1190.7159675829591,674.1806564601804" stroke="rgb(246, 95, 24)" fill="none"/><g><circle class="dot" cx="72.91862884678568" cy="430.6683231940909" r="2" fill="rgb(246, 95, 24)"/><circle class="dot" cx="97.20266126382653" cy="437.9023036118182" r="2" fill="rgb(246, 95, 24)"/><circle class="dot" cx="121.48669368086738" cy="437.1542334" r="2" fill="rgb(246, 95, 24)"/><circle class="dot" cx="145.7707260979082" cy="421.11104490545455" r="2" fill="rgb(246, 95, 24)"/><circle class="dot" cx="170.12129011061222" cy="367.1231579318181" r="2" fill="rgb(246, 95, 24)"/><circle class="dot" cx="194.40532252765306" cy="353.8203130936364" r="2" fill="rgb(246, 95, 24)"/><circle class="dot" cx="218.68935494469392" cy="423.76041366136366" r="2" fill="rgb(246, 95, 24)"/><circle class="dot" cx="242.97338736173475" cy="451.5908216667273" r="2" fill="rgb(246, 95, 24)"/><circle class="dot" cx="267.32395137443876" cy="460.8203361961364" r="2" fill="rgb(246, 95, 24)"/><circle class="dot" cx="291.60798379147957" cy="506.5255803192273" r="2" fill="rgb(246, 95, 24)"/><circle class="dot" cx="315.89201620852043" cy="532.3463667714545" r="2" fill="rgb(246, 95, 24)"/><circle class="dot" cx="340.1760486255613" cy="547.421842617" r="2" fill="rgb(246, 95, 24)"/><circle class="dot" cx="364.52661263826525" cy="573.6372930800454" r="2" fill="rgb(246, 95, 24)"/><circle class="dot" cx="388.8106450553061" cy="601.3959551300454" r="2" fill="rgb(246, 95, 24)"/><circle class="dot" cx="413.0946774723469" cy="619.6701832640455" r="2" fill="rgb(246, 95, 24)"/><circle class="dot" cx="437.37870988938784" cy="641.7002178894545" r="2" fill="rgb(246, 95, 24)"/><circle class="dot" cx="461.7292739020918" cy="668.2276388522728" r="2" fill="rgb(246, 95, 24)"/><circle class="dot" cx="486.01330631913265" cy="678.9019397649546" r="2" fill="rgb(246, 95, 24)"/><circle class="dot" cx="510.29733873617346" cy="684.5072651539773" r="2" fill="rgb(246, 95, 24)"/><circle class="dot" cx="534.5813711532144" cy="685.4336078302091" r="2" fill="rgb(246, 95, 24)"/><circle class="dot" cx="558.9319351659183" cy="686.5707059471727" r="2" fill="rgb(246, 95, 24)"/><circle class="dot" cx="583.2159675829591" cy="686.4831872008909" r="2" fill="rgb(246, 95, 24)"/><circle class="dot" cx="607.5" cy="686.2223338422136" r="2" fill="rgb(246, 95, 24)"/><circle class="dot" cx="631.7840324170409" cy="685.6918706996182" r="2" fill="rgb(246, 95, 24)"/><circle class="dot" cx="656.1345964297448" cy="686.5578619547182" r="2" fill="rgb(246, 95, 24)"/><circle class="dot" cx="680.4186288467857" cy="687.0632239818682" r="2" fill="rgb(246, 95, 24)"/><circle class="dot" cx="704.7026612638265" cy="687.1266837278591" r="2" fill="rgb(246, 95, 24)"/><circle class="dot" cx="728.9866936808673" cy="687.4855401171682" r="2" fill="rgb(246, 95, 24)"/><circle class="dot" cx="753.3372576935712" cy="687.3377866115046" r="2" fill="rgb(246, 95, 24)"/><circle class="dot" cx="777.6212901106122" cy="687.9764740050136" r="2" fill="rgb(246, 95, 24)"/><circle class="dot" cx="801.9053225276531" cy="688.1174348182227" r="2" fill="rgb(246, 95, 24)"/><circle class="dot" cx="826.1893549446938" cy="688.33605791025" r="2" fill="rgb(246, 95, 24)"/><circle class="dot" cx="850.5399189573978" cy="688.8750520779818" r="2" fill="rgb(246, 95, 24)"/><circle class="dot" cx="874.8239513744388" cy="688.9817989611136" r="2" fill="rgb(246, 95, 24)"/><circle class="dot" cx="899.1079837914796" cy="688.9595119990951" r="2" fill="rgb(246, 95, 24)"/><circle class="dot" cx="923.3920162085204" cy="687.7803715802319" r="2" fill="rgb(246, 95, 24)"/><circle class="dot" cx="947.7425802212243" cy="687.5220335420659" r="2" fill="rgb(246, 95, 24)"/><circle class="dot" cx="972.0266126382653" cy="686.6464028225264" r="2" fill="rgb(246, 95, 24)"/><circle class="dot" cx="996.3106450553062" cy="685.5798091265509" r="2" fill="rgb(246, 95, 24)"/><circle class="dot" cx="1020.5946774723469" cy="684.2212669600746" r="2" fill="rgb(246, 95, 24)"/><circle class="dot" cx="1044.945241485051" cy="682.6438697421069" r="2" fill="rgb(246, 95, 24)"/><circle class="dot" cx="1069.2292739020918" cy="681.5545547361695" r="2" fill="rgb(246, 95, 24)"/><circle class="dot" cx="1093.5133063191327" cy="678.5270703783832" r="2" fill="rgb(246, 95, 24)"/><circle class="dot" cx="1117.7973387361735" cy="677.9624418339749" r="2" fill="rgb(246, 95, 24)"/><circle class="dot" cx="1142.1479027488774" cy="677.0922404157545" r="2" fill="rgb(246, 95, 24)"/><circle class="dot" cx="1166.4319351659183" cy="676.4444361586623" r="2" fill="rgb(246, 95, 24)"/><circle class="dot" cx="1190.7159675829591" cy="674.1806564601804" r="2" fill="rgb(246, 95, 24)"/></g><text font-family="sans-serif" font-size="10" class="labels" x="194.40532252765306" y="353.8203130936364" dx="0" dy="-4" text-anchor="middle">Vinyl</text></g></g></g><text y="4" x="4" style="font-family: Arial, sans-serif; font-size: 12px; fill: black; font-weight: bold; dominant-baseline: hanging;"/></g><g id="grid"><rect x="0" y="0" width="1280" height="720" fill="none" stroke="#ccc"/></g></g><g id="legend" transform="translate(1280,10)"><g transform="translate(5,0)"><g class="legendColor" transform="translate(0,0)"><g class="legendCells" transform="translate(0,15.5)"><g class="cell" transform="translate(0, 0)"><rect class="swatch" height="15" width="15" style="fill: rgb(35, 23, 27);"/><text class="label" transform="translate( 20, 12.5)" font-family="&quot;Arial&quot;, sans-serif" font-size="10px"><tspan x="0" dy="0em">8 -</tspan><tspan x="0" dy="1.2em">Track,Cassette,Cassette</tspan><tspan x="0" dy="1.2em">Single,Other Tapes</tspan></text></g><g class="cell" transform="translate(0, 51.703125)"><rect class="swatch" height="15" width="15" style="fill: rgb(47, 157, 245);"/><text class="label" transform="translate( 20, 12.5)" font-family="&quot;Arial&quot;, sans-serif" font-size="10px"><tspan x="0" dy="0em">CD,CD Single,SACD</tspan></text></g><g class="cell" transform="translate(0, 72.203125)"><rect class="swatch" height="15" width="15" style="fill: rgb(77, 248, 132);"/><text class="label" transform="translate( 20, 12.5)" font-family="&quot;Arial&quot;, sans-serif" font-size="10px"><tspan x="0" dy="0em">DVD Audio,Kiosk,Music</tspan><tspan x="0" dy="1.2em">Video</tspan><tspan x="0" dy="1.2em">(Physical),Synchronization</tspan></text></g><g class="cell" transform="translate(0, 123.90625)"><rect class="swatch" height="15" width="15" style="fill: rgb(222, 221, 50);"/><text class="label" transform="translate( 20, 12.5)" font-family="&quot;Arial&quot;, sans-serif" font-size="10px"><tspan x="0" dy="0em">Download Album,Download</tspan><tspan x="0" dy="1.2em">Music Video,Download</tspan><tspan x="0" dy="1.2em">Single,Other</tspan><tspan x="0" dy="1.2em">Digital,Ringtones &amp;</tspan><tspan x="0" dy="1.2em">Ringbacks</tspan></text></g><g class="cell" transform="translate(0, 206.8125)"><rect class="swatch" height="15" width="15" style="fill: rgb(246, 95, 24);"/><text class="label" transform="translate( 20, 12.5)" font-family="&quot;Arial&quot;, sans-serif" font-size="10px"><tspan x="0" dy="0em">LP/EP,Vinyl Single</tspan></text></g><g class="cell" transform="translate(0, 227.3125)"><rect class="swatch" height="15" width="15" style="fill: rgb(144, 12, 0);"/><text class="label" transform="translate( 20, 12.5)" font-family="&quot;Arial&quot;, sans-serif" font-size="10px"><tspan x="0" dy="0em">Limited Tier Paid</tspan><tspan x="0" dy="1.2em">Subscription,On-Demand</tspan><tspan x="0" dy="1.2em">Streaming</tspan><tspan x="0" dy="1.2em">(Ad-Supported),Other</tspan><tspan x="0" dy="1.2em">Ad-Supported</tspan><tspan x="0" dy="1.2em">Streaming,Paid</tspan><tspan x="0" dy="1.2em">Subscription,SoundExchange</tspan><tspan x="0" dy="1.2em">Distributions</tspan></text></g></g><text class="legendTitle" font-family="&quot;Arial&quot;, sans-serif" font-size="12px" font-weight="bold"><tspan x="0" dy="0em">Format</tspan></text></g></g></g></svg>