<svg xmlns="http://www.w3.org/2000/svg" width="1480" height="720"><rect width="1480" height="720" x="0" y="0" fill="#FFFFFF" id="backgorund"/><g transform="translate(640,360)" id="viz"><path fill="rgb(158, 1, 66)" display="" d="M0.9999945578320198,-137.9963768034665A138,138,0,0,1,72.15502011538752,117.6335541932999L37.01951666220006,59.41006132042864A70,70,0,0,0,0.9999945578320114,-69.99285685614144Z"><title>Aromas</title></path><path fill="rgb(251, 248, 176)" display="" d="M70.44266240049448,118.6668922401272A138,138,0,0,1,-109.23607083976724,84.3295963911209L-55.10710035180147,43.1648872443388A70,70,0,0,0,35.30715894730704,60.44339936725595Z"><title>Bouquet</title></path><path fill="rgb(94, 79, 162)" display="" d="M-110.44672832200953,82.73765891638594A138,138,0,0,1,-0.9999945578319448,-137.9963768034665L-0.999994557831989,-69.99285685614144A70,70,0,0,0,-56.31775783404372,41.57294976960388Z"><title>Faults</title></path><path fill="rgb(158, 1, 66)" display="" d="M0.9999945578320063,-207.99759616611993A208,208,0,0,1,109.26807619840119,-176.98725243333317L73.26743779954421,-119.29745411487171A140,140,0,0,0,0.9999945578320288,-139.996428564747Z"><title>Floral</title></path><path fill="rgb(158, 1, 66)" display="" d="M110.96479660470555,-175.92843407043765A208,208,0,0,1,125.99809862004291,-165.4946498958016L84.54606277026393,-111.58836529874695A140,140,0,0,0,74.96415820584865,-118.23863575197616Z"><title>Fruits Red Wine</title></path><path fill="rgb(158, 1, 66)" display="" d="M127.5835417273142,-164.27549993932348A208,208,0,0,1,162.25354112469077,-130.14525881682468L109.0042588207127,-87.85255579063752A140,140,0,0,0,86.13150587753525,-110.36921534226884Z"><title>Fruits White Wine</title></path><path fill="rgb(158, 1, 66)" display="" d="M163.4974160272546,-128.5791388694559A208,208,0,0,1,108.32267859172772,177.56744437737808L73.18839052944045,119.34596554433713A140,140,0,0,0,110.24813372327654,-86.28643584326873Z"><title>Vegetal</title></path><path fill="rgb(251, 248, 176)" display="" d="M106.6103208768347,178.60078242420536A208,208,0,0,1,95.96322241135711,184.54013098626652L64.8805078923466,124.05853334467221A140,140,0,0,0,71.47603281454742,120.37930359116446Z"><title>Aged Wine</title></path><path fill="rgb(251, 248, 176)" display="" d="M94.18439211699734,185.45430779993137A208,208,0,0,1,-111.51281589138483,175.5815818700074L-74.78052554806872,118.35486047794844A140,140,0,0,0,63.1016775979868,124.9727101583371Z"><title>Late Harvest / Botrytis</title></path><path fill="rgb(251, 248, 176)" display="" d="M-113.19591669606781,174.5012448188748A208,208,0,0,1,-126.67003489484925,164.9809148348307L-84.99913380775735,111.24363915267679A140,140,0,0,0,-76.4636263527517,117.27452342681582Z"><title>Malolactic Ferm.</title></path><path fill="rgb(251, 248, 176)" display="" d="M-128.25050726408506,163.75532781105127A208,208,0,0,1,-153.64228608510973,140.2071607534412L-103.19242264291668,94.61143646032255A140,140,0,0,0,-86.57960617699314,110.01805212889734Z"><title>Oak Aging</title></path><path fill="rgb(251, 248, 176)" display="" d="M-154.9833064752539,138.7233747931383A208,208,0,0,1,-164.9551562626643,126.7035769911805L-110.82805817872581,85.54029179476164A140,140,0,0,0,-104.53344303306088,93.12765050001968Z"><title>Yeast</title></path><path fill="rgb(94, 79, 162)" display="" d="M-166.16581374490656,125.11163951644559A208,208,0,0,1,-206.03387198303014,28.531449239047557L-138.63142178839587,19.527644326130922A140,140,0,0,0,-112.03871566096804,83.94835432002677Z"><title>Brett</title></path><path fill="rgb(94, 79, 162)" display="" d="M-206.29868378642382,26.54906906068676A208,208,0,0,1,-113.85455374326105,-174.0722280891552L-76.90626422812872,-116.9847277317567A140,140,0,0,0,-138.89623359178955,17.545264147770126Z"><title>Sulfides</title></path><path fill="rgb(94, 79, 162)" display="" d="M-112.17554758229983,-175.15891791345135A208,208,0,0,1,-0.9999945578316622,-207.99759616611993L-0.9999945578318284,-139.996428564747A140,140,0,0,0,-75.22725806716741,-118.0714175560529Z"><title>Volatile Acidity</title></path><path fill="rgb(158, 1, 66)" display="" d="M0.9999945578320261,-277.9982014526071A278,278,0,0,1,5.63824338643988,-277.9428182405785L4.014547059624795,-209.96162366467368A210,210,0,0,0,0.999994557832038,-209.99761906003675Z"><title>Other</title></path><path fill="rgb(158, 1, 66)" display="" d="M7.63766228018898,-277.8950631351586A278,278,0,0,1,146.32724102616888,-236.37330334381986L110.32691244391116,-178.68400149591892A210,210,0,0,0,6.013965953373927,-209.91386855925376Z"><title>Orange Blossom</title></path><path fill="rgb(158, 1, 66)" display="" d="M148.02396143247327,-235.31448498092433A278,278,0,0,1,157.27502942578766,-229.23473802876742L118.60309997513448,-173.3011964075501A210,210,0,0,0,112.02363285021559,-177.6251831330234Z"><title>Red Berries</title></path><path fill="rgb(158, 1, 66)" display="" d="M158.9201105487281,-228.0973442703357A278,278,0,0,1,168.66894828620522,-220.98594046686642L127.21726916701076,-167.08011977996765A210,210,0,0,0,120.24818109807497,-172.16380264911834Z"><title>Tree Fruits</title></path><path fill="rgb(158, 1, 66)" display="" d="M170.2543913934765,-219.76679051038832A278,278,0,0,1,196.12806121036863,-197.0222921546237L147.980835470856,-149.0022561350916A210,210,0,0,0,128.80271227428207,-165.86096982348954Z"><title>Citrus</title></path><path fill="rgb(158, 1, 66)" display="" d="M197.5403954286025,-195.60621711466985A278,278,0,0,1,206.80683455551508,-185.7819506333374L156.0574193768347,-140.52075240847077A210,210,0,0,0,149.3931696890899,-147.58618109513776Z"><title>Tree Fruits</title></path><path fill="rgb(158, 1, 66)" display="" d="M208.13802762220175,-184.28934168187692A278,278,0,0,1,217.06851157049582,-173.68149378839857L163.81968752260119,-131.3891547274633A210,210,0,0,0,157.38861244352137,-139.0281434570103Z"><title>Tropical Fruits</title></path><path fill="rgb(158, 1, 66)" display="" d="M218.31238647305966,-172.1153738410298A278,278,0,0,1,277.087803061032,-22.502208665167775L209.29098926382457,-17.241862224529754A210,210,0,0,0,165.06356242516506,-129.8230347800945Z"><title>Fresh Herbs</title></path><path fill="rgb(158, 1, 66)" display="" d="M277.24251696576243,-20.508212659540476A278,278,0,0,1,251.8083962571148,117.79869088584925L190.31849460623266,88.76300248874747A210,210,0,0,0,209.445703168555,-15.247866218902452Z"><title>Leaves</title></path><path fill="rgb(158, 1, 66)" display="" d="M250.95441738345207,119.60719207360455A278,278,0,0,1,144.49001979220802,237.50080879956457L109.35603409082684,179.2798310126544A210,210,0,0,0,189.46451573256996,90.57150367650279Z"><title>Vegetables</title></path><path fill="rgb(251, 248, 176)" display="none" d="M142.7776620773151,238.5341468463918A278,278,0,0,1,127.95986169014928,246.80006846886783L96.87741466475377,186.31899132367948A210,210,0,0,0,107.64367637593386,180.31316905948165Z"><title/></path><path fill="rgb(251, 248, 176)" display="" d="M126.1810313957895,247.71424528253272A278,278,0,0,1,-10.858029485069883,277.787874457654L-7.957684603355394,209.84917263538A210,210,0,0,0,95.09858437039397,187.23316813734436Z"><title>Dry Apricot</title></path><path fill="rgb(251, 248, 176)" display="" d="M-12.85619860945281,277.7025713912536A278,278,0,0,1,-149.32514541878547,234.49094000762284L-112.59317118856575,177.26471110094735A210,210,0,0,0,-9.95585372773835,209.76386956897957Z"><title>Orange Peel</title></path><path fill="rgb(251, 248, 176)" display="" d="M-151.0082462234685,233.41060295649024A278,278,0,0,1,-169.5661850908185,220.29822712347524L-127.8956426178355,166.56141389700946A210,210,0,0,0,-114.27627199324878,176.1843740498147Z"><title>Butter</title></path><path fill="rgb(251, 248, 176)" display="" d="M-170.62327691029984,219.48051707700878L-128.88808687468693,165.79463520205698Z"><title>Coffee</title></path><path fill="rgb(251, 248, 176)" display="" d="M-171.6764254942816,218.65773466654773A278,278,0,0,1,-186.16364317567187,206.46330899111618L-140.44545529649238,156.12518722666422A210,210,0,0,0,-129.87593413722288,165.0219431832741Z"><title>Nuts</title></path><path fill="rgb(251, 248, 176)" display="" d="M-187.64415543144446,205.11867524050538A278,278,0,0,1,-193.20316240008012,199.89131556575506L-145.76885665361843,151.16692902184934A210,210,0,0,0,-141.925967552265,154.7805534760534Z"><title>Smoked</title></path><path fill="rgb(251, 248, 176)" display="" d="M-194.636212520043,198.49620846719634A278,278,0,0,1,-200.97224375993054,192.07851841915866L-151.64445747623358,145.2720156008678A210,210,0,0,0,-147.20190677358136,149.7718219232906Z"><title>Toast</title></path><path fill="rgb(251, 248, 176)" display="" d="M-202.348886325114,190.6277214966021A278,278,0,0,1,-205.57552638292537,187.14353569488622L-155.1260971053977,141.54820379237148A210,210,0,0,0,-153.0211000414171,143.82121867831123Z"><title>Woods</title></path><path fill="rgb(251, 248, 176)" display="" d="M-206.9165467730695,185.65974973458341A278,278,0,0,1,-220.67375289747054,169.07718587126448L-166.54712062397874,127.9142549204813A210,210,0,0,0,-156.46711749554183,140.06441783206864Z"><title>Bread</title></path><path fill="rgb(94, 79, 162)" display="" d="M-221.8844103797128,167.48524839652956A278,278,0,0,1,-275.41815578055486,37.79999294230138L-208.0162856422426,28.796265514905635A210,210,0,0,0,-167.75777810622102,126.32231744574632Z"><title>Ethyl-phenol</title></path><path fill="rgb(94, 79, 162)" display="" d="M-275.68296758394854,35.81761276394054A278,278,0,0,1,-255.8191918836689,-108.81425027994536L-193.34032507528758,-81.97267044437511A210,210,0,0,0,-208.28109744563625,26.813885336544768Z"><title>Dimethyl Sulfide</title></path><path fill="rgb(94, 79, 162)" display="" d="M-255.02974471087188,-110.65183827080111A278,278,0,0,1,-247.36559928265373,-126.86315576846405L-186.97040281640622,-95.6141645922339A210,210,0,0,0,-192.5508779024905,-83.8102584352309Z"><title>Ethyl Mercaptan</title></path><path fill="rgb(94, 79, 162)" display="" d="M-246.44652418022096,-128.63946019588147A278,278,0,0,1,-151.88923346407546,-232.8382716773503L-114.94126192089881,-175.7512626072181A210,210,0,0,0,-186.05132771397342,-97.39046901965133Z"><title>Hudrogen Sulfide</title></path><path fill="rgb(94, 79, 162)" display="" d="M-150.210227303114,-233.92496150164655A278,278,0,0,1,-139.46275532378206,-240.4872967071211L-105.56109052216014,-181.54023291758858A210,210,0,0,0,-113.2622557599377,-176.83795243151414Z"><title>Acetic Acid</title></path><path fill="rgb(94, 79, 162)" display="" d="M-137.72904243734195,-241.48439052926975A278,278,0,0,1,-0.9999945578316897,-277.9982014526071L-0.9999945578315973,-209.99761906003675A210,210,0,0,0,-103.82737763572038,-182.53732673973704Z"><title>Ethyl Acetate</title></path><path fill="rgb(158, 1, 66)" display="none" d="M0.9999945578320129,-347.99856323106326A348,348,0,0,1,7.309689810813808,-347.92322204025083L5.685999058505513,-279.94226085874686A280,280,0,0,0,0.9999945578320345,-279.9982142994564Z"><title/></path><path fill="rgb(158, 1, 66)" display="none" d="M9.309108704562872,-347.8754669348309A348,348,0,0,1,183.3862769378476,-295.7591476706596L147.38607195264015,-238.070043882827A280,280,0,0,0,7.685417952254629,-279.89450575332694Z"><title/></path><path fill="rgb(158, 1, 66)" display="" d="M185.08299734415198,-294.70032930776415A348,348,0,0,1,197.0842333615531,-286.81318826073687L158.41243668014386,-230.8798386716766A280,280,0,0,0,149.08279235894457,-237.0112255199315Z"><title>Berries</title></path><path fill="rgb(158, 1, 66)" display="" d="M198.72931448449359,-285.6757945023051A348,348,0,0,1,207.36561599735444,-279.4700365012996L166.6889346838954,-224.97733008894042A280,280,0,0,0,160.05751780308432,-229.74244491324484Z"><title>Cherry</title></path><path fill="rgb(158, 1, 66)" display="" d="M208.96832571017387,-278.2736761712949A348,348,0,0,1,211.33964951515702,-276.477038002816L169.8881127086988,-222.57140238646218A280,280,0,0,0,168.2916443967148,-223.7809697589357Z"><title>Plum</title></path><path fill="rgb(158, 1, 66)" display="" d="M212.92509262242834,-275.25788804633794A348,348,0,0,1,214.3053542811183,-274.1846369263683L172.2755985493937,-220.72860744463583A280,280,0,0,0,171.4735558159701,-221.35225242998408Z"><title>Grapefruit</title></path><path fill="rgb(158, 1, 66)" display="" d="M215.87757381836818,-272.94848071072863A348,348,0,0,1,234.56806674696173,-257.06384822178495L188.58853978304506,-206.9646410923828A280,280,0,0,0,173.84781808664357,-219.4924512289962Z"><title>Lemon</title></path><path fill="rgb(158, 1, 66)" display="" d="M236.04155725894398,-255.7115234923383A348,348,0,0,1,245.69121349247496,-246.45451428731246L197.54415305298352,-198.43464313113128A280,280,0,0,0,190.06203029502726,-205.61231636293613Z"><title>Lime</title></path><path fill="rgb(158, 1, 66)" display="none" d="M247.10354771070882,-245.0384392473586A348,348,0,0,1,259.0487021625319,-232.37420232871767L208.29946121776172,-187.11315949550468A280,280,0,0,0,198.95648727121738,-197.01856809117743Z"><title/></path><path fill="rgb(158, 1, 66)" display="none" d="M260.3798952292186,-230.8815933772572A348,348,0,0,1,271.8832913338708,-217.2175773123841L218.63465010090704,-174.92538345035564A280,280,0,0,0,209.6306542844484,-185.6205505440442Z"><title/></path><path fill="rgb(158, 1, 66)" display="" d="M273.1271662364346,-215.65145736501526A348,348,0,0,1,343.89861169005127,-53.27048786763021L276.67005360026263,-43.05440094610308A280,280,0,0,0,219.8785250034709,-173.35926350298683Z"><title>Cut Grass</title></path><path fill="rgb(158, 1, 66)" display="" d="M344.19908165776104,-51.29319824259319A348,348,0,0,1,344.75897390424217,-47.38406812942598L277.3656041200998,-38.31868540401738A280,280,0,0,0,276.9705235679724,-41.077111321066035Z"><title>Dill</title></path><path fill="rgb(158, 1, 66)" display="" d="M345.02559998874034,-45.401931152867675A348,348,0,0,1,345.95563988949823,-37.665570865816115L278.3338955292859,-30.499878679964727A280,280,0,0,0,277.63223020459805,-36.33654842745906Z"><title>Mint</title></path><path fill="rgb(158, 1, 66)" display="" d="M346.16639331360665,-35.6767170609825A348,348,0,0,1,346.8784037625587,-27.917252786391558L279.0818227267324,-22.65692440568043A280,280,0,0,0,278.54464895339424,-28.511024875131106Z"><title>Thyme</title></path><path fill="rgb(158, 1, 66)" display="" d="M347.03311766728916,-25.92325678076417A348,348,0,0,1,315.285342754411,147.3063224856068L253.7605128146095,118.34526663988895A280,280,0,0,0,279.2365366314628,-20.662928400053065Z"><title>Blackcurrant Leaf</title></path><path fill="rgb(158, 1, 66)" display="" d="M314.7708920470204,148.40244445400154L253.26393612978654,119.40426565264492Z"><title>Eucalyptus</title></path><path fill="rgb(158, 1, 66)" display="" d="M314.2526305727809,149.4967697914818A348,348,0,0,1,198.22768265686622,286.02410008334743L159.65410165985674,230.02297238142137A280,280,0,0,0,252.76294003026254,120.46118108028787Z"><title>Green Pepper</title></path><path fill="rgb(158, 1, 66)" display="" d="M196.58060808109585,287.1586051757227A348,348,0,0,1,180.65723517894713,297.43396473418863L145.5233701002704,239.2131868327073A280,280,0,0,0,158.00702708408636,231.15747747379666Z"><title>Tomato</title></path><path fill="rgb(251, 248, 176)" display="none" d="M178.9448774640543,298.46730278101586A348,348,0,0,1,159.95638966363776,309.0597893705593L128.87404935112286,248.57891987021816A280,280,0,0,0,143.81101238537747,240.24652487953455Z"><title/></path><path fill="rgb(251, 248, 176)" display="none" d="M158.17755936927801,309.97396618422414A348,348,0,0,1,-13.843668487839517,347.724535865387L-10.943333563647244,279.78606729162686A280,280,0,0,0,127.09521905676306,249.49309668388304Z"><title/></path><path fill="rgb(251, 248, 176)" display="none" d="M-15.841837612222406,347.63923279898654A348,348,0,0,1,-187.13734341009618,293.4000932198416L-150.4054952888272,236.1740607834031A280,280,0,0,0,-12.941502688030186,279.7007642252264Z"><title/></path><path fill="rgb(251, 248, 176)" display="none" d="M-188.82044421477926,292.3197561687089A348,348,0,0,1,-212.46218606583412,275.6153469822152L-170.79178665699345,221.8787182460545A280,280,0,0,0,-152.08859609351023,235.09372373227043Z"><title/></path><path fill="rgb(251, 248, 176)" display="none" d="M-213.58597253519548,274.74539547769444L-171.85078249958258,221.05951360274264Z"><title/></path><path fill="rgb(251, 248, 176)" display="" d="M-214.70619692504863,273.8708619075462A348,348,0,0,1,-220.7842289430454,268.99502644105695L-177.49139890887454,216.55669768762814A280,280,0,0,0,-172.90584907827528,220.23525456774783Z"><title>Almond</title></path><path fill="rgb(251, 248, 176)" display="" d="M-222.32651642242226,267.72172137402373A348,348,0,0,1,-231.54516934742554,259.78998162337217L-186.15479335106127,209.15638386724817A280,280,0,0,0,-179.03368638825134,215.28339262059504Z"><title>Coconut</title></path><path fill="rgb(251, 248, 176)" display="" d="M-233.034377064595,258.4549846803427A348,348,0,0,1,-233.22632379982548,258.28178775674246L-187.57615696699008,207.88262394316436Z"><title>Hazelnut</title></path><path fill="rgb(251, 248, 176)" display="none" d="M-234.70683605559825,256.93715400613144A348,348,0,0,1,-242.0324289465531,250.04860195216395L-194.59828605250146,201.32438268979945A280,280,0,0,0,-188.98880513701843,206.5992050635289Z"><title/></path><path fill="rgb(251, 248, 176)" display="none" d="M-243.46547906651602,248.65349485360517A348,348,0,0,1,-251.7506748276976,240.26151944037744L-202.42305789714607,193.45517731911093A280,280,0,0,0,-196.03133617246434,199.9292755912407Z"><title/></path><path fill="rgb(251, 248, 176)" display="" d="M-253.12731739288117,238.8107225178208A348,348,0,0,1,-253.13854575484433,238.79882046007387L-203.67017488582866,192.1417702166189Z"><title>Cedar</title></path><path fill="rgb(251, 248, 176)" display="" d="M-254.24468866099917,237.6207867331299L-204.56469202609128,191.18913875079417Z"><title>Oak</title></path><path fill="rgb(251, 248, 176)" display="" d="M-255.34534939382084,236.43762928719184A348,348,0,0,1,-257.35023469619335,234.25382964172474L-206.9318231196201,188.62454925165565A280,280,0,0,0,-205.58299098331884,190.0937500770413Z"><title>Pine</title></path><path fill="rgb(251, 248, 176)" display="" d="M-258.1012516863609,233.42609939322077L-207.66767377063525,187.81410296006268Z"><title>Sandalwood</title></path><path fill="rgb(251, 248, 176)" display="none" d="M-258.84960641300313,232.59596140052255A348,348,0,0,1,-276.39215570644194,211.45064734813644L-222.26570926158985,170.28785771875343A280,280,0,0,0,-208.40035033946802,187.0007860368159Z"><title/></path><path fill="rgb(94, 79, 162)" display="" d="M-277.60281318868425,209.8587098734014A348,348,0,0,1,-344.802198214019,47.068504403479345L-277.40055948115935,38.06480788786116A280,280,0,0,0,-223.4763667438321,168.69592024401848Z"><title>Old band-aid</title></path><path fill="rgb(94, 79, 162)" display="" d="M-345.06701001741266,45.0861242251184A348,348,0,0,1,-320.1354539833965,-136.4451945025718L-257.6568016787139,-109.60370682005195A280,280,0,0,0,-277.66537128455303,36.0824277095003Z"><title>Sweet Corn</title></path><path fill="rgb(94, 79, 162)" display="" d="M-319.34600681059936,-138.28278249342767A348,348,0,0,1,-309.53691390333813,-159.03112566789375L-249.1419247870906,-127.78224177632697A280,280,0,0,0,-256.8673545059168,-111.44129481090772Z"><title>Onion</title></path><path fill="rgb(94, 79, 162)" display="" d="M-308.61783880090536,-160.80743009531125A348,348,0,0,1,-189.9237808753198,-291.6041108386909L-152.97593618266043,-234.51729776082317A280,280,0,0,0,-248.2228496846578,-129.5585462037444Z"><title>Rotten Egg</title></path><path fill="rgb(94, 79, 162)" display="" d="M-188.24477471435873,-292.6908006629869A348,348,0,0,1,-174.36140938685003,-301.1678915764947L-140.459860977104,-242.22103016520387A280,280,0,0,0,-151.2969300216992,-235.6039875851193Z"><title>Vinegar</title></path><path fill="rgb(94, 79, 162)" display="" d="M-172.6276965004103,-302.1649853986432A348,348,0,0,1,-0.9999945578313599,-347.99856323106326L-0.9999945578315715,-279.9982142994564A280,280,0,0,0,-138.72614809066408,-243.21812398735244Z"><title>Nail Polish Remover</title></path></g><g id="labels" transform="translate(640,360)" text-anchor="middle"><text transform="rotate(90) translate(35,0) rotate(180)" style="opacity: 1;"><tspan x="0" y="4" style="font-family: Arial, sans-serif; font-size: 10px; fill: black; font-weight: normal; font-style: italic;"/></text><text transform="rotate(-15.554634194965985) translate(105,0) rotate(0)" style="opacity: 1;"><tspan x="0" y="4" style="font-family: Arial, sans-serif; font-size: 10px; fill: black; font-weight: normal; font-style: italic;">Aromas</tspan></text><text transform="rotate(100.81899646496095) translate(105,0) rotate(180)" style="opacity: 1;"><tspan x="0" y="4" style="font-family: Arial, sans-serif; font-size: 10px; fill: black; font-weight: normal; font-style: italic;">Bouquet</tspan></text><text transform="rotate(206.37363065992696) translate(105,0) rotate(180)" style="opacity: 1;"><tspan x="0" y="4" style="font-family: Arial, sans-serif; font-size: 10px; fill: black; font-weight: normal; font-style: italic;">Faults</tspan></text><text transform="rotate(-74.01713056530288) translate(175,0) rotate(0)" style="opacity: 1;"><tspan x="0" y="4" style="font-family: Arial, sans-serif; font-size: 10px; fill: black; font-weight: normal; font-style: italic;">Floral</tspan></text><text transform="rotate(-55.23762194584614) translate(175,0) rotate(0)" style="opacity: 1;"><tspan x="0" y="4" style="font-family: Arial, sans-serif; font-size: 10px; fill: black; font-weight: normal; font-style: italic;">Fruits Red Wine</tspan></text><text transform="rotate(-45.44949314734048) translate(175,0) rotate(0)" style="opacity: 0;"><tspan x="0" y="4" style="font-family: Arial, sans-serif; font-size: 10px; fill: black; font-weight: normal; font-style: italic;">Fruits White Wine</tspan></text><text transform="rotate(10.21636403823679) translate(175,0) rotate(0)" style="opacity: 1;"><tspan x="0" y="4" style="font-family: Arial, sans-serif; font-size: 10px; fill: black; font-weight: normal; font-style: italic;">Vegetal</tspan></text><text transform="rotate(60.845592324905766) translate(175,0) rotate(0)" style="opacity: 1;"><tspan x="0" y="4" style="font-family: Arial, sans-serif; font-size: 10px; fill: black; font-weight: normal; font-style: italic;">Aged Wine</tspan></text><text transform="rotate(92.74788251593083) translate(175,0) rotate(180)" style="opacity: 1;"><tspan x="0" y="4" style="font-family: Arial, sans-serif; font-size: 10px; fill: black; font-weight: normal; font-style: italic;">Late Harvest / Botrytis</tspan></text><text transform="rotate(125.24366054957076) translate(175,0) rotate(180)" style="opacity: 1;"><tspan x="0" y="4" style="font-family: Arial, sans-serif; font-size: 10px; fill: black; font-weight: normal; font-style: italic;">Malolactic Ferm.</tspan></text><text transform="rotate(132.84263658729327) translate(175,0) rotate(180)" style="opacity: 0;"><tspan x="0" y="4" style="font-family: Arial, sans-serif; font-size: 10px; fill: black; font-weight: normal; font-style: italic;">Oak Aging</tspan></text><text transform="rotate(140.3202626937085) translate(175,0) rotate(180)" style="opacity: 0;"><tspan x="0" y="4" style="font-family: Arial, sans-serif; font-size: 10px; fill: black; font-weight: normal; font-style: italic;">Yeast</tspan></text><text transform="rotate(157.56928864381342) translate(175,0) rotate(180)" style="opacity: 1;"><tspan x="0" y="4" style="font-family: Arial, sans-serif; font-size: 10px; fill: black; font-weight: normal; font-style: italic;">Brett</tspan></text><text transform="rotate(204.73974051339695) translate(175,0) rotate(180)" style="opacity: 1;"><tspan x="0" y="4" style="font-family: Arial, sans-serif; font-size: 10px; fill: black; font-weight: normal; font-style: italic;">Sulfides</tspan></text><text transform="rotate(253.5440825295105) translate(175,0) rotate(180)" style="opacity: 1;"><tspan x="0" y="4" style="font-family: Arial, sans-serif; font-size: 10px; fill: black; font-weight: normal; font-style: italic;">Volatile Acidity</tspan></text><text transform="rotate(-89.31588976225525) translate(245,0) rotate(0)" style="opacity: 1;"><tspan x="0" y="4" style="font-family: Arial, sans-serif; font-size: 10px; fill: black; font-weight: normal; font-style: italic;">Other</tspan></text><text transform="rotate(-73.33302032755813) translate(245,0) rotate(0)" style="opacity: 1;"><tspan x="0" y="4" style="font-family: Arial, sans-serif; font-size: 10px; fill: black; font-weight: normal; font-style: italic;">Orange Blossom</tspan></text><text transform="rotate(-56.68732023235622) translate(245,0) rotate(0)" style="opacity: 1;"><tspan x="0" y="4" style="font-family: Arial, sans-serif; font-size: 10px; fill: black; font-weight: normal; font-style: italic;">Red Berries</tspan></text><text transform="rotate(-53.89068104759662) translate(245,0) rotate(0)" style="opacity: 0;"><tspan x="0" y="4" style="font-family: Arial, sans-serif; font-size: 10px; fill: black; font-weight: normal; font-style: italic;">Tree Fruits</tspan></text><text transform="rotate(-48.68260203145563) translate(245,0) rotate(0)" style="opacity: 0;"><tspan x="0" y="4" style="font-family: Arial, sans-serif; font-size: 10px; fill: black; font-weight: normal; font-style: italic;">Citrus</tspan></text><text transform="rotate(-43.32630274207506) translate(245,0) rotate(0)" style="opacity: 1;"><tspan x="0" y="4" style="font-family: Arial, sans-serif; font-size: 10px; fill: black; font-weight: normal; font-style: italic;">Tree Fruits</tspan></text><text transform="rotate(-40.09319385795991) translate(245,0) rotate(0)" style="opacity: 0;"><tspan x="0" y="4" style="font-family: Arial, sans-serif; font-size: 10px; fill: black; font-weight: normal; font-style: italic;">Tropical Fruits</tspan></text><text transform="rotate(-21.447343519985893) translate(245,0) rotate(0)" style="opacity: 1;"><tspan x="0" y="4" style="font-family: Arial, sans-serif; font-size: 10px; fill: black; font-weight: normal; font-style: italic;">Fresh Herbs</tspan></text><text transform="rotate(10.420058565788295) translate(245,0) rotate(0)" style="opacity: 1;"><tspan x="0" y="4" style="font-family: Arial, sans-serif; font-size: 10px; fill: black; font-weight: normal; font-style: italic;">Leaves</tspan></text><text transform="rotate(42.08376612401099) translate(245,0) rotate(0)" style="opacity: 1;"><tspan x="0" y="4" style="font-family: Arial, sans-serif; font-size: 10px; fill: black; font-weight: normal; font-style: italic;">Vegetables</tspan></text><text/><text transform="rotate(77.62248036370312) translate(245,0) rotate(0)" style="opacity: 1;"><tspan x="0" y="4" style="font-family: Arial, sans-serif; font-size: 10px; fill: black; font-weight: normal; font-style: italic;">Dry Apricot</tspan></text><text transform="rotate(107.56990983989036) translate(245,0) rotate(180)" style="opacity: 1;"><tspan x="0" y="4" style="font-family: Arial, sans-serif; font-size: 10px; fill: black; font-weight: normal; font-style: italic;">Orange Peel</tspan></text><text transform="rotate(125.24366054957076) translate(245,0) rotate(180)" style="opacity: 1;"><tspan x="0" y="4" style="font-family: Arial, sans-serif; font-size: 10px; fill: black; font-weight: normal; font-style: italic;">Butter</tspan></text><text transform="rotate(127.8613519249133) translate(245,0) rotate(180)" style="opacity: 0;"><tspan x="0" y="4" style="font-family: Arial, sans-serif; font-size: 10px; fill: black; font-weight: normal; font-style: italic;">Coffee</tspan></text><text transform="rotate(130.08855655701353) translate(245,0) rotate(180)" style="opacity: 0;"><tspan x="0" y="4" style="font-family: Arial, sans-serif; font-size: 10px; fill: black; font-weight: normal; font-style: italic;">Nuts</tspan></text><text transform="rotate(133.23888745227268) translate(245,0) rotate(180)" style="opacity: 0;"><tspan x="0" y="4" style="font-family: Arial, sans-serif; font-size: 10px; fill: black; font-weight: normal; font-style: italic;">Smoked</tspan></text><text transform="rotate(135.36684517626804) translate(245,0) rotate(180)" style="opacity: 1;"><tspan x="0" y="4" style="font-family: Arial, sans-serif; font-size: 10px; fill: black; font-weight: normal; font-style: italic;">Toast</tspan></text><text transform="rotate(137.19779894338885) translate(245,0) rotate(180)" style="opacity: 0;"><tspan x="0" y="4" style="font-family: Arial, sans-serif; font-size: 10px; fill: black; font-weight: normal; font-style: italic;">Woods</tspan></text><text transform="rotate(140.3202626937085) translate(245,0) rotate(180)" style="opacity: 0;"><tspan x="0" y="4" style="font-family: Arial, sans-serif; font-size: 10px; fill: black; font-weight: normal; font-style: italic;">Bread</tspan></text><text transform="rotate(157.56928864381342) translate(245,0) rotate(180)" style="opacity: 1;"><tspan x="0" y="4" style="font-family: Arial, sans-serif; font-size: 10px; fill: black; font-weight: normal; font-style: italic;">Ethyl-phenol</tspan></text><text transform="rotate(187.8200929482689) translate(245,0) rotate(180)" style="opacity: 1;"><tspan x="0" y="4" style="font-family: Arial, sans-serif; font-size: 10px; fill: black; font-weight: normal; font-style: italic;">Dimethyl Sulfide</tspan></text><text transform="rotate(205.30315090875217) translate(245,0) rotate(180)" style="opacity: 1;"><tspan x="0" y="4" style="font-family: Arial, sans-serif; font-size: 10px; fill: black; font-weight: normal; font-style: italic;">Ethyl Mercaptan</tspan></text><text transform="rotate(222.22279847388023) translate(245,0) rotate(180)" style="opacity: 1;"><tspan x="0" y="4" style="font-family: Arial, sans-serif; font-size: 10px; fill: black; font-weight: normal; font-style: italic;">Hudrogen Sulfide</tspan></text><text transform="rotate(238.59203742200742) translate(245,0) rotate(180)" style="opacity: 1;"><tspan x="0" y="4" style="font-family: Arial, sans-serif; font-size: 10px; fill: black; font-weight: normal; font-style: italic;">Acetic Acid</tspan></text><text transform="rotate(255.047954892497) translate(245,0) rotate(180)" style="opacity: 1;"><tspan x="0" y="4" style="font-family: Arial, sans-serif; font-size: 10px; fill: black; font-weight: normal; font-style: italic;">Ethyl Acetate</tspan></text><text/><text/><text transform="rotate(-56.68732023235622) translate(315,0) rotate(0)" style="opacity: 1;"><tspan x="0" y="4" style="font-family: Arial, sans-serif; font-size: 10px; fill: black; font-weight: bold;">Berries</tspan></text><text transform="rotate(-54.30023706575866) translate(315,0) rotate(0)" style="opacity: 0;"><tspan x="0" y="4" style="font-family: Arial, sans-serif; font-size: 10px; fill: black; font-weight: bold;">Cherry</tspan></text><text transform="rotate(-52.85053877924858) translate(315,0) rotate(0)" style="opacity: 0;"><tspan x="0" y="4" style="font-family: Arial, sans-serif; font-size: 10px; fill: black; font-weight: bold;">Plum</tspan></text><text transform="rotate(-52.132407221476626) translate(315,0) rotate(0)" style="opacity: 0;"><tspan x="0" y="4" style="font-family: Arial, sans-serif; font-size: 10px; fill: black; font-weight: bold;">Grapefruit</tspan></text><text transform="rotate(-49.639532918335824) translate(315,0) rotate(0)" style="opacity: 1;"><tspan x="0" y="4" style="font-family: Arial, sans-serif; font-size: 10px; fill: black; font-weight: bold;">Lemon</tspan></text><text transform="rotate(-46.18972772831483) translate(315,0) rotate(0)" style="opacity: 0;"><tspan x="0" y="4" style="font-family: Arial, sans-serif; font-size: 10px; fill: black; font-weight: bold;">Lime</tspan></text><text/><text/><text transform="rotate(-23.549297687272556) translate(315,0) rotate(0)" style="opacity: 1;"><tspan x="0" y="4" style="font-family: Arial, sans-serif; font-size: 10px; fill: black; font-weight: bold;">Cut Grass</tspan></text><text transform="rotate(-8.150858189603483) translate(315,0) rotate(0)" style="opacity: 1;"><tspan x="0" y="4" style="font-family: Arial, sans-serif; font-size: 10px; fill: black; font-weight: bold;">Dill</tspan></text><text transform="rotate(-6.855014280286554) translate(315,0) rotate(0)" style="opacity: 0;"><tspan x="0" y="4" style="font-family: Arial, sans-serif; font-size: 10px; fill: black; font-weight: bold;">Mint</tspan></text><text transform="rotate(-5.242793764347098) translate(315,0) rotate(0)" style="opacity: 1;"><tspan x="0" y="4" style="font-family: Arial, sans-serif; font-size: 10px; fill: black; font-weight: bold;">Thyme</tspan></text><text transform="rotate(10.385343817582182) translate(315,0) rotate(0)" style="opacity: 1;"><tspan x="0" y="4" style="font-family: Arial, sans-serif; font-size: 10px; fill: black; font-weight: bold;">Blackcurrant Leaf</tspan></text><text transform="rotate(25.24208588974784) translate(315,0) rotate(0)" style="opacity: 1;"><tspan x="0" y="4" style="font-family: Arial, sans-serif; font-size: 10px; fill: black; font-weight: bold;">Eucalyptus</tspan></text><text transform="rotate(40.3588635290005) translate(315,0) rotate(0)" style="opacity: 1;"><tspan x="0" y="4" style="font-family: Arial, sans-serif; font-size: 10px; fill: black; font-weight: bold;">Green Pepper</tspan></text><text transform="rotate(57.16582901505754) translate(315,0) rotate(0)" style="opacity: 1;"><tspan x="0" y="4" style="font-family: Arial, sans-serif; font-size: 10px; fill: black; font-weight: bold;">Tomato</tspan></text><text/><text/><text/><text/><text/><text transform="rotate(128.73680500077288) translate(315,0) rotate(180)" style="opacity: 1;"><tspan x="0" y="4" style="font-family: Arial, sans-serif; font-size: 10px; fill: black; font-weight: bold;">Almond</tspan></text><text transform="rotate(130.70874138451606) translate(315,0) rotate(180)" style="opacity: 0;"><tspan x="0" y="4" style="font-family: Arial, sans-serif; font-size: 10px; fill: black; font-weight: bold;">Coconut</tspan></text><text transform="rotate(132.06049294075666) translate(315,0) rotate(180)" style="opacity: 0;"><tspan x="0" y="4" style="font-family: Arial, sans-serif; font-size: 10px; fill: black; font-weight: bold;">Hazelnut</tspan></text><text/><text/><text transform="rotate(136.66832318953854) translate(315,0) rotate(180)" style="opacity: 1;"><tspan x="0" y="4" style="font-family: Arial, sans-serif; font-size: 10px; fill: black; font-weight: bold;">Cedar</tspan></text><text transform="rotate(136.93572643102632) translate(315,0) rotate(180)" style="opacity: 0;"><tspan x="0" y="4" style="font-family: Arial, sans-serif; font-size: 10px; fill: black; font-weight: bold;">Oak</tspan></text><text transform="rotate(137.4458295351287) translate(315,0) rotate(180)" style="opacity: 0;"><tspan x="0" y="4" style="font-family: Arial, sans-serif; font-size: 10px; fill: black; font-weight: bold;">Pine</tspan></text><text transform="rotate(137.8738914178151) translate(315,0) rotate(180)" style="opacity: 0;"><tspan x="0" y="4" style="font-family: Arial, sans-serif; font-size: 10px; fill: black; font-weight: bold;">Sandalwood</tspan></text><text/><text transform="rotate(157.56928864381342) translate(315,0) rotate(180)" style="opacity: 1;"><tspan x="0" y="4" style="font-family: Arial, sans-serif; font-size: 10px; fill: black; font-weight: bold;">Old band-aid</tspan></text><text transform="rotate(187.8200929482689) translate(315,0) rotate(180)" style="opacity: 1;"><tspan x="0" y="4" style="font-family: Arial, sans-serif; font-size: 10px; fill: black; font-weight: bold;">Sweet Corn</tspan></text><text transform="rotate(205.30315090875217) translate(315,0) rotate(180)" style="opacity: 1;"><tspan x="0" y="4" style="font-family: Arial, sans-serif; font-size: 10px; fill: black; font-weight: bold;">Onion</tspan></text><text transform="rotate(222.22279847388023) translate(315,0) rotate(180)" style="opacity: 0;"><tspan x="0" y="4" style="font-family: Arial, sans-serif; font-size: 10px; fill: black; font-weight: bold;">Rotten Egg</tspan></text><text transform="rotate(238.59203742200742) translate(315,0) rotate(180)" style="opacity: 1;"><tspan x="0" y="4" style="font-family: Arial, sans-serif; font-size: 10px; fill: black; font-weight: bold;">Vinegar</tspan></text><text transform="rotate(255.047954892497) translate(315,0) rotate(180)" style="opacity: 0;"><tspan x="0" y="4" style="font-family: Arial, sans-serif; font-size: 10px; fill: black; font-weight: bold;">Nail Polish Remover</tspan></text></g><g id="legend" transform="translate(1280,10)"><g transform="translate(5,0)"><g class="legendColor" transform="translate(0,0)"><g class="legendCells" transform="translate(0,15.5)"><g class="cell" transform="translate(0, 0)"><rect class="swatch" height="15" width="15" style="fill: rgb(158, 1, 66);"/><text class="label" transform="translate( 20, 12.5)" font-family="&quot;Arial&quot;, sans-serif" font-size="10px"><tspan x="0" dy="0em">Aromas</tspan></text></g><g class="cell" transform="translate(0, 20.5)"><rect class="swatch" height="15" width="15" style="fill: rgb(251, 248, 176);"/><text class="label" transform="translate( 20, 12.5)" font-family="&quot;Arial&quot;, sans-serif" font-size="10px"><tspan x="0" dy="0em">Bouquet</tspan></text></g><g class="cell" transform="translate(0, 41)"><rect class="swatch" height="15" width="15" style="fill: rgb(94, 79, 162);"/><text class="label" transform="translate( 20, 12.5)" font-family="&quot;Arial&quot;, sans-serif" font-size="10px"><tspan x="0" dy="0em">Faults</tspan></text></g></g><text class="legendTitle" font-family="&quot;Arial&quot;, sans-serif" font-size="12px" font-weight="bold"><tspan x="0" dy="0em">Root</tspan></text></g></g></g></svg>