<svg xmlns="http://www.w3.org/2000/svg" width="1480" height="720"><rect width="1480" height="720" x="0" y="0" fill="#FFFFFF" id="backgorund"/><g id="viz"><g transform="translate(0,0)"><g id="pie" transform="translate(106.66666666666667,76)"><path fill="rgb(35, 23, 27)" stroke="#FFFFFF" d="M8.055198229316378e-16,-13.155137032040129A13.155137032040129,13.155137032040129,0,0,1,8.257379827722815,-10.240766998251152L0,0Z"/><path fill="rgb(149, 251, 81)" stroke="#FFFFFF" d="M8.257379827722815,-10.240766998251152A13.155137032040129,13.155137032040129,0,0,1,8.44891479095721,10.083326295766593L0,0Z"/><path fill="rgb(144, 12, 0)" stroke="#FFFFFF" d="M8.44891479095721,10.083326295766593A13.155137032040129,13.155137032040129,0,1,1,-2.4165594687949133e-15,-13.155137032040129L0,0Z"/></g><text y="58.84486296795987" x="106.66666666666667" style="font-family: Arial, sans-serif; font-size: 12px; fill: black; font-weight: bold; dominant-baseline: auto; text-anchor: middle;">Argentina</text></g><g transform="translate(213.33333333333331,0)"><g id="pie" transform="translate(106.66666666666667,76)"><path fill="rgb(35, 23, 27)" stroke="#FFFFFF" d="M9.37586947596764e-16,-15.311956855634595A15.311956855634595,15.311956855634595,0,0,1,3.430652242577519,-14.922689031783552L0.06989410278911729,-0.3040261406075596A0.31195685563459463,0.31195685563459463,0,0,0,1.9101848236248963e-17,-0.31195685563459463Z"/><path fill="rgb(149, 251, 81)" stroke="#FFFFFF" d="M3.430652242577519,-14.922689031783552A15.311956855634595,15.311956855634595,0,0,1,14.86125065344154,3.6877163345895636L0.3027744310120085,0.07513137628699353A0.31195685563459463,0.31195685563459463,0,0,0,0.06989410278911729,-0.3040261406075596Z"/><path fill="rgb(144, 12, 0)" stroke="#FFFFFF" d="M14.86125065344154,3.6877163345895636A15.311956855634595,15.311956855634595,0,1,1,-2.8127608427902916e-15,-15.311956855634595L-5.730554470874689e-17,-0.31195685563459463A0.31195685563459463,0.31195685563459463,0,1,0,0.3027744310120085,0.07513137628699353Z"/></g><text y="56.68804314436541" x="106.66666666666667" style="font-family: Arial, sans-serif; font-size: 12px; fill: black; font-weight: bold; dominant-baseline: auto; text-anchor: middle;">Australia</text></g><g transform="translate(426.66666666666663,0)"><g id="pie" transform="translate(106.66666666666667,76)"><path fill="rgb(35, 23, 27)" stroke="#FFFFFF" d="M1.5118031004007925e-15,-24.689618287548193A24.689618287548193,24.689618287548193,0,0,1,9.947606103366907,-22.59695519305846L3.904009567661966,-8.868337603744695A9.689618287548193,9.689618287548193,0,0,0,5.933180010402776e-16,-9.689618287548193Z"/><path fill="rgb(149, 251, 81)" stroke="#FFFFFF" d="M9.947606103366907,-22.59695519305846A24.689618287548193,24.689618287548193,0,0,1,24.432256634772973,3.5555712505062087L9.588614855733207,1.3954095122224277A9.689618287548193,9.689618287548193,0,0,0,3.904009567661966,-8.868337603744695Z"/><path fill="rgb(144, 12, 0)" stroke="#FFFFFF" d="M24.432256634772973,3.5555712505062087A24.689618287548193,24.689618287548193,0,1,1,-4.535409301202377e-15,-24.689618287548193L-1.779954003120833e-15,-9.689618287548193A9.689618287548193,9.689618287548193,0,1,0,9.588614855733207,1.3954095122224277Z"/></g><text y="47.31038171245181" x="106.66666666666667" style="font-family: Arial, sans-serif; font-size: 12px; fill: black; font-weight: bold; dominant-baseline: auto; text-anchor: middle;">Brazil</text></g><g transform="translate(640,0)"><g id="pie" transform="translate(106.66666666666667,76)"><path fill="rgb(35, 23, 27)" stroke="#FFFFFF" d="M1.117285156653635e-15,-18.246651319082897A18.246651319082897,18.246651319082897,0,0,1,1.831265216675342,-18.15452428642471L0.32583949390711847,-3.230259031705208A3.246651319082897,3.246651319082897,0,0,0,1.988000572931201e-16,-3.246651319082897Z"/><path fill="rgb(149, 251, 81)" stroke="#FFFFFF" d="M1.831265216675342,-18.15452428642471A18.246651319082897,18.246651319082897,0,0,1,17.423080404946823,5.420014166305072L3.1001122337471783,0.96439044264955A3.246651319082897,3.246651319082897,0,0,0,0.32583949390711847,-3.230259031705208Z"/><path fill="rgb(144, 12, 0)" stroke="#FFFFFF" d="M17.423080404946823,5.420014166305072A18.246651319082897,18.246651319082897,0,1,1,-3.351855469960905e-15,-18.246651319082897L-5.964001718793602e-16,-3.246651319082897A3.246651319082897,3.246651319082897,0,1,0,3.1001122337471783,0.96439044264955Z"/></g><text y="53.7533486809171" x="106.66666666666667" style="font-family: Arial, sans-serif; font-size: 12px; fill: black; font-weight: bold; dominant-baseline: auto; text-anchor: middle;">Canada</text></g><g transform="translate(853.3333333333333,0)"><g id="pie" transform="translate(106.66666666666667,76)"><path fill="rgb(35, 23, 27)" stroke="#FFFFFF" d="M4.0413344371862654e-15,-66A66,66,0,0,1,31.431721442083983,-58.03487647257671L24.288148387064894,-44.84513181971837A51,51,0,0,0,3.1228493378257506e-15,-51Z"/><path fill="rgb(149, 251, 81)" stroke="#FFFFFF" d="M31.431721442083983,-58.03487647257671A66,66,0,0,1,6.623873180180184,65.66676712076581L5.1184474574119605,50.74250186604631A51,51,0,0,0,24.288148387064894,-44.84513181971837Z"/><path fill="rgb(144, 12, 0)" stroke="#FFFFFF" d="M6.623873180180184,65.66676712076581A66,66,0,1,1,-1.2124003311558795e-14,-66L-9.368548013477251e-15,-51A51,51,0,1,0,5.1184474574119605,50.74250186604631Z"/></g><text y="6" x="106.66666666666667" style="font-family: Arial, sans-serif; font-size: 12px; fill: black; font-weight: bold; dominant-baseline: auto; text-anchor: middle;">China</text></g><g transform="translate(1066.6666666666667,0)"><g id="pie" transform="translate(106.66666666666667,76)"><path fill="rgb(35, 23, 27)" stroke="#FFFFFF" d="M9.204505569257088e-16,-15.032098357935729A15.032098357935729,15.032098357935729,0,0,1,10.081811553748809,-11.149935283998339L0.02152790569800612,-0.02380869291724989A0.03209835793572857,0.03209835793572857,0,0,0,1.965457565193802e-18,-0.03209835793572857Z"/><path fill="rgb(149, 251, 81)" stroke="#FFFFFF" d="M10.081811553748809,-11.149935283998339A15.032098357935729,15.032098357935729,0,0,1,3.7383308444860344,14.559837345925892L0.007982537013213458,0.03108992899642626A0.03209835793572857,0.03209835793572857,0,0,0,0.02152790569800612,-0.02380869291724989Z"/><path fill="rgb(144, 12, 0)" stroke="#FFFFFF" d="M3.7383308444860344,14.559837345925892A15.032098357935729,15.032098357935729,0,1,1,-2.761351670777126e-15,-15.032098357935729L-5.896372695581405e-18,-0.03209835793572857A0.03209835793572857,0.03209835793572857,0,1,0,0.007982537013213458,0.03108992899642626Z"/></g><text y="56.96790164206427" x="106.66666666666667" style="font-family: Arial, sans-serif; font-size: 12px; fill: black; font-weight: bold; dominant-baseline: auto; text-anchor: middle;">Egypt</text></g><g transform="translate(0,144)"><g id="pie" transform="translate(106.66666666666667,76)"><path fill="rgb(35, 23, 27)" stroke="#FFFFFF" d="M3.78412226367081e-15,-61.79940642976347A61.79940642976347,61.79940642976347,0,0,1,6.354276591605282,-61.47186188874116L4.8119616345448755,-46.55136375452233A46.79940642976347,46.79940642976347,0,0,0,2.865637164310295e-15,-46.79940642976347Z"/><path fill="rgb(149, 251, 81)" stroke="#FFFFFF" d="M6.354276591605282,-61.47186188874116A61.79940642976347,61.79940642976347,0,0,1,61.123204372267196,9.117045702262697L46.28733266165412,6.904149277612298A46.79940642976347,46.79940642976347,0,0,0,4.8119616345448755,-46.55136375452233Z"/><path fill="rgb(144, 12, 0)" stroke="#FFFFFF" d="M61.123204372267196,9.117045702262697A61.79940642976347,61.79940642976347,0,1,1,-6.62412659322055e-14,-61.79940642976347L-5.016313433862208e-14,-46.79940642976347A46.79940642976347,46.79940642976347,0,1,0,46.28733266165412,6.904149277612298Z"/></g><text y="10.200593570236528" x="106.66666666666667" style="font-family: Arial, sans-serif; font-size: 12px; fill: black; font-weight: bold; dominant-baseline: auto; text-anchor: middle;">European Union</text></g><g transform="translate(213.33333333333331,144)"><g id="pie" transform="translate(106.66666666666667,76)"><path fill="rgb(35, 23, 27)" stroke="#FFFFFF" d="M1.4176411888175242e-15,-23.15183757152742A23.15183757152742,23.15183757152742,0,0,1,2.4682441270938704,-23.01989039651265L0.8690768129649705,-8.105378540557666A8.15183757152742,8.15183757152742,0,0,0,4.991560894570094e-16,-8.15183757152742Z"/><path fill="rgb(149, 251, 81)" stroke="#FFFFFF" d="M2.4682441270938704,-23.01989039651265A23.15183757152742,23.15183757152742,0,0,1,22.495060059782244,-5.475386364922421L7.920584066062134,-1.9279014095665505A8.15183757152742,8.15183757152742,0,0,0,0.8690768129649705,-8.105378540557666Z"/><path fill="rgb(144, 12, 0)" stroke="#FFFFFF" d="M22.495060059782244,-5.475386364922421A23.15183757152742,23.15183757152742,0,1,1,-4.252923566452573e-15,-23.15183757152742L-1.497468268371028e-15,-8.15183757152742A8.15183757152742,8.15183757152742,0,1,0,7.920584066062134,-1.9279014095665505Z"/></g><text y="48.84816242847258" x="106.66666666666667" style="font-family: Arial, sans-serif; font-size: 12px; fill: black; font-weight: bold; dominant-baseline: auto; text-anchor: middle;">France</text></g><g transform="translate(426.66666666666663,144)"><g id="pie" transform="translate(106.66666666666667,76)"><path fill="rgb(35, 23, 27)" stroke="#FFFFFF" d="M1.718937787035408e-15,-28.072384433327215A28.072384433327215,28.072384433327215,0,0,1,1.2342899202291198,-28.045236603839392L0.5747681454611463,-13.059742583667523A13.072384433327215,13.072384433327215,0,0,0,8.004526876748931e-16,-13.072384433327215Z"/><path fill="rgb(149, 251, 81)" stroke="#FFFFFF" d="M1.2342899202291198,-28.045236603839392A28.072384433327215,28.072384433327215,0,0,1,25.833102187045604,10.986792032534868L12.02962447655755,5.116187029976834A13.072384433327215,13.072384433327215,0,0,0,0.5747681454611463,-13.059742583667523Z"/><path fill="rgb(144, 12, 0)" stroke="#FFFFFF" d="M25.833102187045604,10.986792032534868A28.072384433327215,28.072384433327215,0,1,1,-5.156813361106223e-15,-28.072384433327215L-2.401358063024679e-15,-13.072384433327215A13.072384433327215,13.072384433327215,0,1,0,12.02962447655755,5.116187029976834Z"/></g><text y="43.927615566672785" x="106.66666666666667" style="font-family: Arial, sans-serif; font-size: 12px; fill: black; font-weight: bold; dominant-baseline: auto; text-anchor: middle;">Germany</text></g><g transform="translate(640,144)"><g id="pie" transform="translate(106.66666666666667,76)"><path fill="rgb(35, 23, 27)" stroke="#FFFFFF" d="M2.580694853175884e-15,-42.14594534477474A42.14594534477474,42.14594534477474,0,0,1,34.73170043776385,-23.874456930078516L22.37047559621338,-15.377391529798507A27.145945344774738,27.145945344774738,0,0,0,1.6622097538153689e-15,-27.145945344774738Z"/><path fill="rgb(149, 251, 81)" stroke="#FFFFFF" d="M34.73170043776385,-23.874456930078516A42.14594534477474,42.14594534477474,0,0,1,27.99368927205582,31.506095758508803L18.03056385997161,20.292883372083498A27.145945344774738,27.145945344774738,0,0,0,22.37047559621338,-15.377391529798507Z"/><path fill="rgb(144, 12, 0)" stroke="#FFFFFF" d="M27.99368927205582,31.506095758508803A42.14594534477474,42.14594534477474,0,1,1,-7.742084559527651e-15,-42.14594534477474L-4.986629261446106e-15,-27.145945344774738A27.145945344774738,27.145945344774738,0,1,0,18.03056385997161,20.292883372083498Z"/></g><text y="29.854054655225262" x="106.66666666666667" style="font-family: Arial, sans-serif; font-size: 12px; fill: black; font-weight: bold; dominant-baseline: auto; text-anchor: middle;">India</text></g><g transform="translate(853.3333333333333,144)"><g id="pie" transform="translate(106.66666666666667,76)"><path fill="rgb(35, 23, 27)" stroke="#FFFFFF" d="M1.5130244306932134e-15,-24.709564124883027A24.709564124883027,24.709564124883027,0,0,1,18.724934858960236,-16.122635447388934L7.357918368306814,-6.335351038462564A9.709564124883027,9.709564124883027,0,0,0,5.945393313326986e-16,-9.709564124883027Z"/><path fill="rgb(149, 251, 81)" stroke="#FFFFFF" d="M18.724934858960236,-16.122635447388934A24.709564124883027,24.709564124883027,0,0,1,-7.110167606846409,23.664489765136672L-2.793923355686393,9.29890465473034A9.709564124883027,9.709564124883027,0,0,0,7.357918368306814,-6.335351038462564Z"/><path fill="rgb(144, 12, 0)" stroke="#FFFFFF" d="M-7.110167606846409,23.664489765136672A24.709564124883027,24.709564124883027,0,0,1,-4.53907329207964e-15,-24.709564124883027L-1.7836179939980953e-15,-9.709564124883027A9.709564124883027,9.709564124883027,0,0,0,-2.793923355686393,9.29890465473034Z"/></g><text y="47.29043587511697" x="106.66666666666667" style="font-family: Arial, sans-serif; font-size: 12px; fill: black; font-weight: bold; dominant-baseline: auto; text-anchor: middle;">Indonesia</text></g><g transform="translate(1066.6666666666667,144)"><g id="pie" transform="translate(106.66666666666667,76)"><path fill="rgb(35, 23, 27)" stroke="#FFFFFF" d="M1.0737220935571415e-15,-17.53521250869571A17.53521250869571,17.53521250869571,0,0,1,9.955898974901126,-14.434810470757183L1.4394076834805092,-2.0869614239330043A2.535212508695711,2.535212508695711,0,0,0,1.5523699419662667e-16,-2.535212508695711Z"/><path fill="rgb(149, 251, 81)" stroke="#FFFFFF" d="M9.955898974901126,-14.434810470757183A17.53521250869571,17.53521250869571,0,0,1,5.476335318136786,16.658134025407715L0.7917596546644401,2.4084059278894094A2.535212508695711,2.535212508695711,0,0,0,1.4394076834805092,-2.0869614239330043Z"/><path fill="rgb(144, 12, 0)" stroke="#FFFFFF" d="M5.476335318136786,16.658134025407715A17.53521250869571,17.53521250869571,0,1,1,-3.2211662806714245e-15,-17.53521250869571L-4.6571098258988e-16,-2.535212508695711A2.535212508695711,2.535212508695711,0,1,0,0.7917596546644401,2.4084059278894094Z"/></g><text y="54.46478749130429" x="106.66666666666667" style="font-family: Arial, sans-serif; font-size: 12px; fill: black; font-weight: bold; dominant-baseline: auto; text-anchor: middle;">Iran</text></g><g transform="translate(0,288)"><g id="pie" transform="translate(106.66666666666667,76)"><path fill="rgb(35, 23, 27)" stroke="#FFFFFF" d="M1.2762418519184147e-15,-20.842611156244953A20.842611156244953,20.842611156244953,0,0,1,2.7448736963102696,-20.661077130724102L0.7694443637759157,-5.791723447656272A5.842611156244953,5.842611156244953,0,0,0,3.577567525578999e-16,-5.842611156244953Z"/><path fill="rgb(149, 251, 81)" stroke="#FFFFFF" d="M2.7448736963102696,-20.661077130724102A20.842611156244953,20.842611156244953,0,0,1,20.799315113317917,1.3427325226311888L5.830474387894267,0.37639545053966716A5.842611156244953,5.842611156244953,0,0,0,0.7694443637759157,-5.791723447656272Z"/><path fill="rgb(144, 12, 0)" stroke="#FFFFFF" d="M20.799315113317917,1.3427325226311888A20.842611156244953,20.842611156244953,0,1,1,-3.828725555755244e-15,-20.842611156244953L-1.0732702576736996e-15,-5.842611156244953A5.842611156244953,5.842611156244953,0,1,0,5.830474387894267,0.37639545053966716Z"/></g><text y="51.157388843755044" x="106.66666666666667" style="font-family: Arial, sans-serif; font-size: 12px; fill: black; font-weight: bold; dominant-baseline: auto; text-anchor: middle;">Italy</text></g><g transform="translate(213.33333333333331,288)"><g id="pie" transform="translate(106.66666666666667,76)"><path fill="rgb(35, 23, 27)" stroke="#FFFFFF" d="M1.956091350211585e-15,-31.9453960370205A31.9453960370205,31.9453960370205,0,0,1,2.2083547072412473,-31.868973900160178L1.1714190383194774,-16.904858008517337A16.9453960370205,16.9453960370205,0,0,0,1.03760625085107e-15,-16.9453960370205Z"/><path fill="rgb(149, 251, 81)" stroke="#FFFFFF" d="M2.2083547072412473,-31.868973900160178A31.9453960370205,31.9453960370205,0,0,1,29.528093655567396,12.19016050058922L15.663140961907771,6.466255644410994A16.9453960370205,16.9453960370205,0,0,0,1.1714190383194774,-16.904858008517337Z"/><path fill="rgb(144, 12, 0)" stroke="#FFFFFF" d="M29.528093655567396,12.19016050058922A31.9453960370205,31.9453960370205,0,1,1,-3.4241485419490265e-14,-31.9453960370205L-1.8163353825906843e-14,-16.9453960370205A16.9453960370205,16.9453960370205,0,1,0,15.663140961907771,6.466255644410994Z"/></g><text y="40.0546039629795" x="106.66666666666667" style="font-family: Arial, sans-serif; font-size: 12px; fill: black; font-weight: bold; dominant-baseline: auto; text-anchor: middle;">Japan</text></g><g transform="translate(426.66666666666663,288)"><g id="pie" transform="translate(106.66666666666667,76)"><path fill="rgb(35, 23, 27)" stroke="#FFFFFF" d="M1.1954590353649723e-15,-19.52332764348541A19.52332764348541,19.52332764348541,0,0,1,2.6954815395915688,-19.336356987411115L0.6245116807537464,-4.480008719960419A4.523327643485409,4.523327643485409,0,0,0,2.769739360044573e-16,-4.523327643485409Z"/><path fill="rgb(149, 251, 81)" stroke="#FFFFFF" d="M2.6954815395915688,-19.336356987411115A19.52332764348541,19.52332764348541,0,0,1,9.85023497746228,16.856250863215706L2.2821847270103826,3.905397014660585A4.523327643485409,4.523327643485409,0,0,0,0.6245116807537464,-4.480008719960419Z"/><path fill="rgb(144, 12, 0)" stroke="#FFFFFF" d="M9.85023497746228,16.856250863215706A19.52332764348541,19.52332764348541,0,1,1,-3.586377106094916e-15,-19.52332764348541L-8.309218080133719e-16,-4.523327643485409A4.523327643485409,4.523327643485409,0,1,0,2.2821847270103826,3.905397014660585Z"/></g><text y="52.47667235651459" x="106.66666666666667" style="font-family: Arial, sans-serif; font-size: 12px; fill: black; font-weight: bold; dominant-baseline: auto; text-anchor: middle;">Korea, South</text></g><g transform="translate(640,288)"><g id="pie" transform="translate(106.66666666666667,76)"><path fill="rgb(35, 23, 27)" stroke="#FFFFFF" d="M8.103970553095401e-16,-13.234788281384805A13.234788281384805,13.234788281384805,0,0,1,6.95054470897071,-11.26275051227185L0,0Z"/><path fill="rgb(149, 251, 81)" stroke="#FFFFFF" d="M6.95054470897071,-11.26275051227185A13.234788281384805,13.234788281384805,0,0,1,2.9681934048522023,12.897652839353075L0,0Z"/><path fill="rgb(144, 12, 0)" stroke="#FFFFFF" d="M2.9681934048522023,12.897652839353075A13.234788281384805,13.234788281384805,0,1,1,-2.43119116592862e-15,-13.234788281384805L0,0Z"/></g><text y="58.76521171861519" x="106.66666666666667" style="font-family: Arial, sans-serif; font-size: 12px; fill: black; font-weight: bold; dominant-baseline: auto; text-anchor: middle;">Malaysia</text></g><g transform="translate(853.3333333333333,288)"><g id="pie" transform="translate(106.66666666666667,76)"><path fill="rgb(35, 23, 27)" stroke="#FFFFFF" d="M1.3164956465259932e-15,-21.500005510855683A21.500005510855683,21.500005510855683,0,0,1,4.821822596335493,-20.952333135388365L1.4577611820947751,-6.334430043589706A6.500005510855683,6.500005510855683,0,0,0,3.9801054716547844e-16,-6.500005510855683Z"/><path fill="rgb(149, 251, 81)" stroke="#FFFFFF" d="M4.821822596335493,-20.952333135388365A21.500005510855683,21.500005510855683,0,0,1,16.98833712050758,13.177505031181319L5.136011934872227,3.983899226386668A6.500005510855683,6.500005510855683,0,0,0,1.4577611820947751,-6.334430043589706Z"/><path fill="rgb(144, 12, 0)" stroke="#FFFFFF" d="M16.98833712050758,13.177505031181319A21.500005510855683,21.500005510855683,0,1,1,-3.94948693957798e-15,-21.500005510855683L-1.1940316414964351e-15,-6.500005510855683A6.500005510855683,6.500005510855683,0,1,0,5.136011934872227,3.983899226386668Z"/></g><text y="50.49999448914431" x="106.66666666666667" style="font-family: Arial, sans-serif; font-size: 12px; fill: black; font-weight: bold; dominant-baseline: auto; text-anchor: middle;">Mexico</text></g><g transform="translate(1066.6666666666667,288)"><g id="pie" transform="translate(106.66666666666667,76)"><path fill="rgb(35, 23, 27)" stroke="#FFFFFF" d="M7.638594638109447e-16,-12.474771735700013A12.474771735700013,12.474771735700013,0,0,1,1.3951427874399567,-12.396511866669357L0,0Z"/><path fill="rgb(149, 251, 81)" stroke="#FFFFFF" d="M1.3951427874399567,-12.396511866669357A12.474771735700013,12.474771735700013,0,0,1,12.21384966770681,-2.538071345033108L0,0Z"/><path fill="rgb(144, 12, 0)" stroke="#FFFFFF" d="M12.21384966770681,-2.538071345033108A12.474771735700013,12.474771735700013,0,1,1,-2.2915783914328336e-15,-12.474771735700013L0,0Z"/></g><text y="59.52522826429998" x="106.66666666666667" style="font-family: Arial, sans-serif; font-size: 12px; fill: black; font-weight: bold; dominant-baseline: auto; text-anchor: middle;">Netherlands</text></g><g transform="translate(0,432)"><g id="pie" transform="translate(106.66666666666667,76)"><path fill="rgb(35, 23, 27)" stroke="#FFFFFF" d="M8.8815758208566645e-16,-14.504714056396283A14.504714056396283,14.504714056396283,0,0,1,14.071408880593925,-3.5188324729890703L0,0Z"/><path fill="rgb(149, 251, 81)" stroke="#FFFFFF" d="M14.071408880593925,-3.5188324729890703A14.504714056396283,14.504714056396283,0,0,1,5.676763126676924,13.347699811631259L0,0Z"/><path fill="rgb(144, 12, 0)" stroke="#FFFFFF" d="M5.676763126676924,13.347699811631259A14.504714056396283,14.504714056396283,0,1,1,-2.6644727462569993e-15,-14.504714056396283L0,0Z"/></g><text y="57.49528594360372" x="106.66666666666667" style="font-family: Arial, sans-serif; font-size: 12px; fill: black; font-weight: bold; dominant-baseline: auto; text-anchor: middle;">Nigeria</text></g><g transform="translate(213.33333333333331,432)"><g id="pie" transform="translate(106.66666666666667,76)"><path fill="rgb(35, 23, 27)" stroke="#FFFFFF" d="M8.640620145459074e-16,-14.111203575553393A14.111203575553393,14.111203575553393,0,0,1,14.101177179338746,-0.5318538404552422L0,0Z"/><path fill="rgb(149, 251, 81)" stroke="#FFFFFF" d="M14.101177179338746,-0.5318538404552422A14.111203575553393,14.111203575553393,0,0,1,5.604234734349009,12.95062235543246L0,0Z"/><path fill="rgb(144, 12, 0)" stroke="#FFFFFF" d="M5.604234734349009,12.95062235543246A14.111203575553393,14.111203575553393,0,1,1,-2.592186043637722e-15,-14.111203575553393L0,0Z"/></g><text y="57.88879642444661" x="106.66666666666667" style="font-family: Arial, sans-serif; font-size: 12px; fill: black; font-weight: bold; dominant-baseline: auto; text-anchor: middle;">Pakistan</text></g><g transform="translate(426.66666666666663,432)"><g id="pie" transform="translate(106.66666666666667,76)"><path fill="rgb(35, 23, 27)" stroke="#FFFFFF" d="M7.856634195287011e-16,-12.830857355373166A12.830857355373166,12.830857355373166,0,0,1,7.278531831094985,-10.566639714576755L0,0Z"/><path fill="rgb(149, 251, 81)" stroke="#FFFFFF" d="M7.278531831094985,-10.566639714576755A12.830857355373166,12.830857355373166,0,0,1,7.410782980048273,10.474311246882085L0,0Z"/><path fill="rgb(144, 12, 0)" stroke="#FFFFFF" d="M7.410782980048273,10.474311246882085A12.830857355373166,12.830857355373166,0,1,1,-2.356990258586103e-15,-12.830857355373166L0,0Z"/></g><text y="59.16914264462683" x="106.66666666666667" style="font-family: Arial, sans-serif; font-size: 12px; fill: black; font-weight: bold; dominant-baseline: auto; text-anchor: middle;">Philippines</text></g><g transform="translate(640,432)"><g id="pie" transform="translate(106.66666666666667,76)"><path fill="rgb(35, 23, 27)" stroke="#FFFFFF" d="M8.901361044352626e-16,-14.537025778453184A14.537025778453184,14.537025778453184,0,0,1,2.1838332616317615,-14.372055899167774L0,0Z"/><path fill="rgb(149, 251, 81)" stroke="#FFFFFF" d="M2.1838332616317615,-14.372055899167774A14.537025778453184,14.537025778453184,0,0,1,6.518158370926543,12.993795824736228L0,0Z"/><path fill="rgb(144, 12, 0)" stroke="#FFFFFF" d="M6.518158370926543,12.993795824736228A14.537025778453184,14.537025778453184,0,1,1,-2.6704083133057877e-15,-14.537025778453184L0,0Z"/></g><text y="57.462974221546816" x="106.66666666666667" style="font-family: Arial, sans-serif; font-size: 12px; fill: black; font-weight: bold; dominant-baseline: auto; text-anchor: middle;">Poland</text></g><g transform="translate(853.3333333333333,432)"><g id="pie" transform="translate(106.66666666666667,76)"><path fill="rgb(35, 23, 27)" stroke="#FFFFFF" d="M1.6760125474160348e-15,-27.371362070809965A27.371362070809965,27.371362070809965,0,0,1,8.012722477772655,-26.17227044231301L3.6216060672829244,-11.829394277835824A12.371362070809965,12.371362070809965,0,0,0,7.575274480555198e-16,-12.371362070809965Z"/><path fill="rgb(149, 251, 81)" stroke="#FFFFFF" d="M8.012722477772655,-26.17227044231301A27.371362070809965,27.371362070809965,0,0,1,19.567385369787715,19.139197773198124L8.844105330325279,8.650572258133414A12.371362070809965,12.371362070809965,0,0,0,3.6216060672829244,-11.829394277835824Z"/><path fill="rgb(144, 12, 0)" stroke="#FFFFFF" d="M19.567385369787715,19.139197773198124A27.371362070809965,27.371362070809965,0,1,1,-5.028037642248104e-15,-27.371362070809965L-2.2725823441665593e-15,-12.371362070809965A12.371362070809965,12.371362070809965,0,1,0,8.844105330325279,8.650572258133414Z"/></g><text y="44.628637929190035" x="106.66666666666667" style="font-family: Arial, sans-serif; font-size: 12px; fill: black; font-weight: bold; dominant-baseline: auto; text-anchor: middle;">Russia</text></g><g transform="translate(1066.6666666666667,432)"><g id="pie" transform="translate(106.66666666666667,76)"><path fill="rgb(35, 23, 27)" stroke="#FFFFFF" d="M1.1176000179129934e-15,-18.25179339367253A18.25179339367253,18.25179339367253,0,0,1,2.9684199372696063,-18.008787998122706L0.5288624593463506,-3.2084988350046864A3.2517933936725285,3.2517933936725285,0,0,0,1.9911491855247854e-16,-3.2517933936725285Z"/><path fill="rgb(149, 251, 81)" stroke="#FFFFFF" d="M2.9684199372696063,-18.008787998122706A18.25179339367253,18.25179339367253,0,0,1,3.645065303003323,17.884111971863447L0.649415595287218,3.186286186099743A3.2517933936725285,3.2517933936725285,0,0,0,0.5288624593463506,-3.2084988350046864Z"/><path fill="rgb(144, 12, 0)" stroke="#FFFFFF" d="M3.645065303003323,17.884111971863447A18.25179339367253,18.25179339367253,0,1,1,-3.35280005373898e-15,-18.25179339367253L-5.973447556574356e-16,-3.2517933936725285A3.2517933936725285,3.2517933936725285,0,1,0,0.649415595287218,3.186286186099743Z"/></g><text y="53.74820660632747" x="106.66666666666667" style="font-family: Arial, sans-serif; font-size: 12px; fill: black; font-weight: bold; dominant-baseline: auto; text-anchor: middle;">Saudi Arabia</text></g><g transform="translate(0,576)"><g id="pie" transform="translate(106.66666666666667,76)"><path fill="rgb(35, 23, 27)" stroke="#FFFFFF" d="M1.1185440699055531e-15,-18.267210932724883A18.267210932724883,18.267210932724883,0,0,1,2.970927402115363,-18.02400026719994L0.5313699241921068,-3.22371110408192A3.2672109327248826,3.2672109327248826,0,0,0,2.000589705450383e-16,-3.2672109327248826Z"/><path fill="rgb(149, 251, 81)" stroke="#FFFFFF" d="M2.970927402115363,-18.02400026719994A18.267210932724883,18.267210932724883,0,0,1,18.244138652629818,0.9178235583607937L3.263084303539557,0.1641587856642506A3.2672109327248826,3.2672109327248826,0,0,0,0.5313699241921068,-3.22371110408192Z"/><path fill="rgb(144, 12, 0)" stroke="#FFFFFF" d="M18.244138652629818,0.9178235583607937A18.267210932724883,18.267210932724883,0,1,1,-3.3556322097166594e-15,-18.267210932724883L-6.001769116351149e-16,-3.2672109327248826A3.2672109327248826,3.2672109327248826,0,1,0,3.263084303539557,0.1641587856642506Z"/></g><text y="53.73278906727512" x="106.66666666666667" style="font-family: Arial, sans-serif; font-size: 12px; fill: black; font-weight: bold; dominant-baseline: auto; text-anchor: middle;">Spain</text></g><g transform="translate(213.33333333333331,576)"><g id="pie" transform="translate(106.66666666666667,76)"><path fill="rgb(35, 23, 27)" stroke="#FFFFFF" d="M9.14241419040797e-16,-14.930695440960243A14.930695440960243,14.930695440960243,0,0,1,1.686703813616483,-14.835117006476308L0,0Z"/><path fill="rgb(149, 251, 81)" stroke="#FFFFFF" d="M1.686703813616483,-14.835117006476308A14.930695440960243,14.930695440960243,0,0,1,10.331128516466235,10.779306560580283L0,0Z"/><path fill="rgb(144, 12, 0)" stroke="#FFFFFF" d="M10.331128516466235,10.779306560580283A14.930695440960243,14.930695440960243,0,1,1,-2.742724257122391e-15,-14.930695440960243L0,0Z"/></g><text y="57.06930455903976" x="106.66666666666667" style="font-family: Arial, sans-serif; font-size: 12px; fill: black; font-weight: bold; dominant-baseline: auto; text-anchor: middle;">Taiwan</text></g><g transform="translate(426.66666666666663,576)"><g id="pie" transform="translate(106.66666666666667,76)"><path fill="rgb(35, 23, 27)" stroke="#FFFFFF" d="M9.326022453777285e-16,-15.230550490591124A15.230550490591124,15.230550490591124,0,0,1,7.504508653545993,-13.253377611586371L0.11359853032161904,-0.20062129154348562A0.2305504905911242,0.2305504905911242,0,0,0,1.411714601721361e-17,-0.2305504905911242Z"/><path fill="rgb(149, 251, 81)" stroke="#FFFFFF" d="M7.504508653545993,-13.253377611586371A15.230550490591124,15.230550490591124,0,0,1,5.249101442634405,14.297433416224708L0.07945759501664411,0.2164255514165992A0.2305504905911242,0.2305504905911242,0,0,0,0.11359853032161904,-0.20062129154348562Z"/><path fill="rgb(144, 12, 0)" stroke="#FFFFFF" d="M5.249101442634405,14.297433416224708A15.230550490591124,15.230550490591124,0,1,1,-2.7978067361331855e-15,-15.230550490591124L-4.235143805164083e-17,-0.2305504905911242A0.2305504905911242,0.2305504905911242,0,1,0,0.07945759501664411,0.2164255514165992Z"/></g><text y="56.76944950940887" x="106.66666666666667" style="font-family: Arial, sans-serif; font-size: 12px; fill: black; font-weight: bold; dominant-baseline: auto; text-anchor: middle;">Thailand</text></g><g transform="translate(640,576)"><g id="pie" transform="translate(106.66666666666667,76)"><path fill="rgb(35, 23, 27)" stroke="#FFFFFF" d="M1.2390178719850864e-15,-20.234697430275226A20.234697430275226,20.234697430275226,0,0,1,8.400529439419724,-18.408532946224405L2.173209163171742,-4.762270374478589A5.234697430275226,5.234697430275226,0,0,0,3.2053277262457154e-16,-5.234697430275226Z"/><path fill="rgb(149, 251, 81)" stroke="#FFFFFF" d="M8.400529439419724,-18.408532946224405A20.234697430275226,20.234697430275226,0,0,1,12.722553908116831,15.734662441560287L3.2913128787244412,4.070542558538442A5.234697430275226,5.234697430275226,0,0,0,2.173209163171742,-4.762270374478589Z"/><path fill="rgb(144, 12, 0)" stroke="#FFFFFF" d="M12.722553908116831,15.734662441560287A20.234697430275226,20.234697430275226,0,1,1,-3.717053615955259e-15,-20.234697430275226L-9.615983178737146e-16,-5.234697430275226A5.234697430275226,5.234697430275226,0,1,0,3.2913128787244412,4.070542558538442Z"/></g><text y="51.765302569724774" x="106.66666666666667" style="font-family: Arial, sans-serif; font-size: 12px; fill: black; font-weight: bold; dominant-baseline: auto; text-anchor: middle;">Turkey</text></g><g transform="translate(853.3333333333333,576)"><g id="pie" transform="translate(106.66666666666667,76)"><path fill="rgb(35, 23, 27)" stroke="#FFFFFF" d="M1.4353810069410385e-15,-23.441550787384685A23.441550787384685,23.441550787384685,0,0,1,1.029651890371374,-23.41892654034745L0.3707885542527424,-8.433403556336561A8.441550787384685,8.441550787384685,0,0,0,5.168959075805237e-16,-8.441550787384685Z"/><path fill="rgb(149, 251, 81)" stroke="#FFFFFF" d="M1.029651890371374,-23.41892654034745A23.441550787384685,23.441550787384685,0,0,1,22.660160182671884,-6.001953333139747L8.16016375227359,-2.161366982276544A8.441550787384685,8.441550787384685,0,0,0,0.3707885542527424,-8.433403556336561Z"/><path fill="rgb(144, 12, 0)" stroke="#FFFFFF" d="M22.660160182671884,-6.001953333139747A23.441550787384685,23.441550787384685,0,1,1,1.651413651283644e-14,-23.441550787384685L5.946915515416106e-15,-8.441550787384685A8.441550787384685,8.441550787384685,0,1,0,8.16016375227359,-2.161366982276544Z"/></g><text y="48.558449212615315" x="106.66666666666667" style="font-family: Arial, sans-serif; font-size: 12px; fill: black; font-weight: bold; dominant-baseline: auto; text-anchor: middle;">United Kingdom</text></g><g transform="translate(1066.6666666666667,576)"><g id="pie" transform="translate(106.66666666666667,76)"><path fill="rgb(35, 23, 27)" stroke="#FFFFFF" d="M3.7033362045336726e-15,-60.48006996159349A60.48006996159349,60.48006996159349,0,0,1,3.4182449195995837,-60.3833956003542L2.570466902369214,-45.407372348719576A45.48006996159349,45.48006996159349,0,0,0,2.784851105173158e-15,-45.48006996159349Z"/><path fill="rgb(149, 251, 81)" stroke="#FFFFFF" d="M3.4182449195995837,-60.3833956003542A60.48006996159349,60.48006996159349,0,0,1,57.51996464296027,-18.68936943911816L43.25411689853296,-14.05411452349395A45.48006996159349,45.48006996159349,0,0,0,2.570466902369214,-45.407372348719576Z"/><path fill="rgb(144, 12, 0)" stroke="#FFFFFF" d="M57.51996464296027,-18.68936943911816A60.48006996159349,60.48006996159349,0,1,1,-1.1110008613601017e-14,-60.48006996159349L-8.354553315519473e-15,-45.48006996159349A45.48006996159349,45.48006996159349,0,1,0,43.25411689853296,-14.05411452349395Z"/></g><text y="11.519930038406507" x="106.66666666666667" style="font-family: Arial, sans-serif; font-size: 12px; fill: black; font-weight: bold; dominant-baseline: auto; text-anchor: middle;">United States</text></g></g><g id="legend" transform="translate(1280,10)"><g transform="translate(5,0)"><g class="legendSize" transform="translate(0,0)"><g class="legendCells" transform="translate(66,16)"><g class="cell" transform="translate(0, 12)"><circle class="swatch" r="12" fill="none" stroke="#ccc"/><text class="label" transform="translate( 71,&#10;          5)" font-family="&quot;Arial&quot;, sans-serif" font-size="10px"><tspan x="0" dy="0em">829187.0</tspan></text></g><g class="cell" transform="translate(0, 102)"><circle class="swatch" r="66" fill="none" stroke="#ccc"/><text class="label" transform="translate( 71,&#10;          5)" font-family="&quot;Arial&quot;, sans-serif" font-size="10px"><tspan x="0" dy="0em">23210000.0</tspan></text></g></g><text class="legendTitle" font-family="&quot;Arial&quot;, sans-serif" font-size="12px" font-weight="bold"><tspan x="0" dy="0em">Area</tspan></text></g><g class="legendColor" transform="translate(0,217)"><g class="legendCells" transform="translate(0,16)"><g class="cell" transform="translate(0, 0)"><rect class="swatch" height="15" width="15" style="fill: rgb(35, 23, 27);"/><text class="label" transform="translate( 20, 12.5)" font-family="&quot;Arial&quot;, sans-serif" font-size="10px"><tspan x="0" dy="0em">Agricultural (US$MM)</tspan></text></g><g class="cell" transform="translate(0, 21)"><rect class="swatch" height="15" width="15" style="fill: rgb(149, 251, 81);"/><text class="label" transform="translate( 20, 12.5)" font-family="&quot;Arial&quot;, sans-serif" font-size="10px"><tspan x="0" dy="0em">Industrial (US$MM)</tspan></text></g><g class="cell" transform="translate(0, 42)"><rect class="swatch" height="15" width="15" style="fill: rgb(144, 12, 0);"/><text class="label" transform="translate( 20, 12.5)" font-family="&quot;Arial&quot;, sans-serif" font-size="10px"><tspan x="0" dy="0em">Service (US$MM)</tspan></text></g></g><text class="legendTitle" font-family="&quot;Arial&quot;, sans-serif" font-size="12px" font-weight="bold"><tspan x="0" dy="0em">Arcs colors</tspan></text></g></g></g></svg>