<svg xmlns="http://www.w3.org/2000/svg" width="1480" height="720"><rect width="1480" height="720" x="0" y="0" fill="#FFFFFF" id="backgorund"/><g id="viz"><g transform="translate(0,0)"><g transform="translate(10,20)"><g><path fill="rgb(35, 23, 27)" d="M0,270.7666666666667C0,270.7666666666667,29.017978950297664,297.33777551688524,43.44930135951662,310.84716796875C57.97494576099132,324.4448567509227,73.21743821065505,335.9601036364507,86.86886329305136,352.09378144392736C102.41808757755935,370.47033724292146,113.10540429520807,405.68081718623046,130.318164652568,416.50532787842144C143.2585035837027,424.643060247463,157.268746299372,417.71931054390956,173.7674660120846,422.86765367879815C198.28325838688835,430.5176843215955,238.71192040135946,472.48722351111223,260.66606873111783,465.8720001092039C281.4086232237129,459.6218541306974,286.7928637951237,406.9300591226939,304.1153700906344,391.01719241689614C317.0221579080611,379.16070983666157,332.80824994571026,375.6881701889382,347.5646714501511,370.50146471736565C361.7936407749813,365.5001523714338,376.7128535596617,358.97005446703105,391.0139728096677,360.105204554764C405.68868660938085,361.2700086771542,415.63464451869146,373.7045054047694,434.4632741691843,378.13184265000217C465.84281875190936,385.5103842140135,533.153058260959,389.76171741935497,564.8111782477341,387.08921365737314C583.3282317802708,385.52604770667256,593.8126197172636,380.3700646595079,608.2604796072508,376.5923351421875C622.7791669889197,372.79608612730823,637.1115494936734,365.5119803145982,651.7097809667674,364.35905830602934C666.0812986525992,363.22404143312457,680.7627890638737,366.8015232405941,695.159082326284,369.4580945872085C709.7311223530565,372.14709676931335,724.0482042189848,379.68909093770833,738.6083836858006,380.46629590734057C753.0160118235593,381.23535786944075,767.8998348177885,372.08596583886185,782.0576850453172,374.27775727171166C796.8981556922505,376.57522587751464,810.7766515856348,389.6236607077693,825.5069864048338,395.1945716177032C839.7586591862325,400.58445585028835,854.4642236279633,407.3641914435079,868.9562877643503,407.42892666240306C883.4304466702386,407.4935818996611,899.9510275380451,389.6215827391878,912.4055891238671,395.6124762898965C931.8156768581182,404.9491172165583,938.0177116124739,491.6170575227626,955.8548904833838,495.97529899951485C968.6201586450284,499.0942967718966,984.6427033565288,461.0889910433562,999.3041918429003,460.6266250021022C1013.6172815487935,460.17524609663985,1028.1488537768032,481.74278638371504,1042.7534932024168,491.63919354890993C1057.1190021593154,501.3735609392742,1071.048444105544,514.5237925029189,1086.2027945619334,519.5619297870307C1100.119785641877,524.1887009471864,1115.2033442573127,521.0036401498614,1129.6520959214502,522.6401390508852C1144.1698741390671,524.2844560583817,1158.8171676706265,525.6154397404084,1173.101397280967,529.4219166618294C1187.7949287960043,533.3374647965131,1201.8333082476788,544.1650783204669,1216.5506986404835,546.07579766085C1230.813751313205,547.9275315530211,1260,541.3731926908415,1260,541.3731926908415L1260,581.0398593575081C1260,581.0398593575081,1230.904856347701,593.0733603772644,1216.5506986404835,592.2591309941834C1201.9338935722062,591.4300031264175,1187.8412835676306,578.3301456078078,1173.101397280967,575.6052499951628C1158.8580727306908,572.9721514880432,1143.9093684293011,578.1786632638092,1129.6520959214502,575.6234723842185C1114.928141554676,572.9846427000155,1099.6791633690802,568.5811964046956,1086.2027945619334,559.5119297870308C1070.3216083141467,548.8242798460772,1057.792482032096,526.1543055135893,1042.7534932024168,512.03919354891C1028.7522137934923,498.89804232232564,1013.6021151611673,476.62196771125633,999.3041918429003,477.0599583354355C984.6259314806682,477.5095998865065,968.4818401258686,519.7349297812233,955.8548904833838,516.6586323328482C937.4119651754036,512.1653916316565,932.2180906474853,406.6123922943444,912.4055891238671,399.0124762898965C900.0089404983538,394.25722172609267,883.6273809680835,421.06766076252364,868.9562877643503,421.87892666240305C854.651899722937,422.6699149054394,840.0541832686025,410.1369187668142,825.5069864048338,404.82790495103654C811.0868674176754,399.565268331424,796.7264517232545,391.8824964638842,782.0576850453172,390.1444239383783C767.7511932561551,388.44927663246887,752.9411811116158,395.594567246601,738.6083836858006,394.06629590734053C723.9684699530243,392.5052775030233,709.8104004076772,382.3999847577916,695.159082326284,380.50809458720846C680.8367303245061,378.65868303111057,666.1962904091264,382.05891235223777,651.7097809667674,382.4923916393626C637.2300862962097,382.9256670083225,622.6763720812636,381.60664314975605,608.2604796072508,383.1090018088542C593.7089000540216,384.62550115738634,583.2567183519915,390.74883628471633,564.8111782477341,391.62254699070644C533.0845669667657,393.12534277680385,465.9160552775937,386.1288332683751,434.4632741691843,378.6985093166688C415.71998572592366,374.27064315838925,405.65706383016504,363.13476885373177,391.0139728096677,362.08853788809733C376.68409184914253,361.0646853986353,361.73244353291034,366.78551428300716,347.5646714501511,371.91813138403234C332.73614425287207,377.2901229597852,317.0727848462391,381.9304737975381,304.1153700906344,394.13385908356287C286.95688492257636,410.2938423348345,281.3468648874662,461.6098182688212,260.66606873111783,467.85533344253724C238.69502146946826,474.4904991304374,198.29938555494607,432.47947533804245,173.7674660120846,425.70098701213146C157.28188262202977,421.14580598114543,143.1433690746626,429.7650491169086,130.318164652568,421.8886612117548C112.71002301060605,411.0749112475002,102.76713661071146,371.2527201803234,86.86886329305136,352.09378144392736C73.40989776952745,335.8744417226745,57.88065551497461,325.67925097670536,43.44930135951662,312.2638346354167C28.923820266560977,298.7609177004999,0,271.3333333333333,0,271.3333333333333Z"><title>Australasia</title></path><path fill="rgb(74, 68, 188)" d="M0,283.3333333333333C0,283.3333333333333,27.939359908484626,316.60845679328634,43.44930135951662,327.83050130208335C57.12424748550166,337.72485548554124,74.13336670545551,336.5533821810313,86.86886329305136,349.09378144392736C104.79464638069255,366.7449562899901,111.76708546348694,420.53990375441896,130.318164652568,434.45532787842143C142.92314067087247,443.91049679769543,157.30275914908097,436.9053438211679,173.7674660120846,442.6843203454648C198.3252120420513,451.303886972291,238.70083739947617,495.15115571581254,260.66606873111783,488.8053334425372C281.36798601501846,482.8244864477488,286.4846475778364,427.7911681618874,304.1153700906344,412.98385908356283C316.934457952085,402.2176414240816,332.98732973904714,401.89159082550077,347.5646714501511,397.28479805069895C361.9559214213754,392.7368147694053,376.7183931392135,384.39869399039435,391.0139728096677,385.4718712214307C405.6948381458356,386.57397206475986,415.6147289659628,399.3511477603432,434.4632741691843,404.63184265000217C465.82604466823085,413.4185803061029,533.0704450341987,422.897587686477,564.8111782477341,421.8058803240398C583.2422034230193,421.1719540140909,593.7065770631629,414.1890201970812,608.2604796072508,413.0090018088542C622.6741359395708,411.8403544675515,637.2278431854314,414.71466333269706,651.7097809667674,414.6590583060294C666.1940444652428,414.60344434950963,680.8118823746764,410.99649822213985,695.159082326284,412.6747612538752C709.7833835296703,414.3854381913536,723.9828913400838,423.3327407314561,738.6083836858006,425.09962924067383C752.9544805976514,426.83276431650575,767.7626446116919,421.3729135244923,782.0576850453172,423.4444239383783C796.7391502492835,425.57193160107664,810.8732349981289,434.47968551474077,825.5069864048338,438.12790495103656C839.8454543105054,441.702509701819,854.674671162958,446.7567797482111,868.9562877643503,445.26225999573643C883.6527472069544,443.7243284336837,900.0569735875499,422.80628998943587,912.4055891238671,428.3458096232298C932.5934423614339,437.40196729894313,937.7724964580688,541.2129345370465,955.8548904833838,545.1419656661816C968.5608548689107,547.9027798330737,985.262229172364,500.76638275409044,999.3041918429003,501.5766250021022C1014.289706554751,502.4413116141256,1027.8106898751262,539.5623541186714,1042.7534932024168,556.5558602155767C1056.828721592739,572.5627281524271,1070.6188559701743,590.1469646772573,1086.2027945619334,601.0285964536974C1099.842589927503,610.5527119268302,1114.8250513556848,617.7190219291203,1129.6520959214502,620.5401390508852C1143.8211038636289,623.2360526381685,1159.0317863217385,615.4012869308095,1173.101397280967,618.5385833284962C1188.0513505376853,621.8721818646463,1201.7521089142608,639.882426185157,1216.5506986404835,641.42579766085C1230.7436062561424,642.9060014624555,1260,629.0731926908414,1260,629.0731926908414L1260,633.0398593575081C1260,633.0398593575081,1230.7071606064655,649.3920033967289,1216.5506986404835,647.9424643275167C1201.7085511143503,646.4227150595259,1188.1672451620498,626.0284999331287,1173.101397280967,622.2219166618295C1159.1201590237151,618.6893741801726,1143.8281978184775,626.6452559823781,1129.6520959214502,623.9401390508851C1114.8335403466378,621.1124276054629,1099.7233842922972,614.5015065665317,1086.2027945619334,604.7119297870308C1070.4057895522578,593.2741155709037,1056.9672290567862,573.3822490613868,1042.7534932024168,556.5558602155767C1027.979369629638,539.066077751721,1014.289706554751,502.4413116141256,999.3041918429003,501.5766250021022C985.262229172364,500.76638275409044,968.5608548689107,547.9027798330737,955.8548904833838,545.1419656661816C937.7724964580688,541.2129345370466,932.5934423614339,437.40196729894313,912.4055891238671,428.3458096232298C900.0569735875499,422.80628998943587,883.6527472069545,443.72432843368375,868.9562877643503,445.26225999573643C854.6746711629579,446.7567797482111,839.8454543105056,441.70250970181894,825.5069864048338,438.12790495103656C810.8732349981289,434.47968551474077,796.7391502492835,425.5719316010767,782.0576850453172,423.4444239383783C767.7626446116919,421.3729135244922,752.9544805976514,426.83276431650575,738.6083836858006,425.09962924067383C723.9828913400838,423.3327407314561,709.7833835296703,414.3854381913536,695.159082326284,412.6747612538752C680.8118823746764,410.99649822213985,666.1940444652428,414.6034443495096,651.7097809667674,414.6590583060294C637.2278431854314,414.714663332697,622.6741359395708,411.8403544675515,608.2604796072508,413.0090018088542C593.7065770631629,414.1890201970812,583.2422034230193,421.17195401409094,564.8111782477341,421.8058803240398C533.0704450341987,422.897587686477,465.82604466823085,413.4185803061029,434.4632741691843,404.63184265000217C415.61472896596274,399.3511477603432,405.6948381458356,386.57397206475986,391.0139728096677,385.4718712214307C376.7183931392135,384.39869399039435,361.9559214213754,392.73681476940527,347.5646714501511,397.28479805069895C332.98732973904714,401.8915908255008,316.934457952085,402.2176414240816,304.1153700906344,412.98385908356283C286.4846475778364,427.7911681618874,281.36798601501846,482.82448644774894,260.66606873111783,488.8053334425372C238.70083739947614,495.15115571581254,198.3252120420513,451.303886972291,173.7674660120846,442.6843203454648C157.30275914908094,436.9053438211679,142.92314067087247,443.91049679769543,130.318164652568,434.45532787842143C111.76708546348694,420.53990375441896,104.79464638069253,366.74495628999017,86.86886329305136,349.09378144392736C74.13336670545551,336.5533821810313,57.12424748550166,337.72485548554124,43.44930135951662,327.83050130208335C27.939359908484626,316.60845679328634,0,283.3333333333333,0,283.3333333333333Z"><title>Central Asia</title></path><path fill="rgb(64, 118, 245)" d="M0,267.7666666666667C0,267.7666666666667,28.584403934441493,293.44722952677165,43.44930135951662,304.28050130208334C57.57759284432517,314.57694782297,73.97603663691373,317.67042645235614,86.86886329305136,331.54378144392734C104.21144663530023,350.2053070810062,111.9445029084542,400.5437028304022,130.318164652568,413.50532787842144C142.9595903324114,422.4231702778563,157.1519062552879,415.18321417620723,173.7674660120846,419.86765367879815C198.14389605724753,426.74012222678044,238.9363362322858,464.81681570120594,260.66606873111783,457.0386667758706C282.365409642132,449.2713965070552,286.65415477606376,392.26904364635044,304.1153700906344,373.40052575022946C316.98154086800747,359.49739419873674,332.4493534053234,351.2614375288914,347.5646714501511,346.3681313840323C361.50966492121137,341.8536962898062,376.72547098339203,341.421250750974,391.0139728096677,343.33853788809733C405.7027268551036,345.30953243560776,415.7690677553737,354.6936603000267,434.4632741691843,358.53184265000215C465.9591953596352,364.99839630483405,533.1972629671016,370.64531278417223,564.8111782477341,367.4892136573731C583.3753975035739,365.6358995182365,593.7605626806424,359.41538892578234,608.2604796072508,355.5756684755209C622.7268413291273,351.7448337731209,637.1237484449434,345.6859976454879,651.7097809667674,344.47572497269607C666.092794772864,343.28229773085644,680.6632667377619,347.45719592269563,695.159082326284,348.1580945872085C709.6295121398332,348.8577658040025,724.2006406295633,350.07511625446625,738.6083836858006,348.68296257400715C753.1684432929007,347.27609124859487,767.8463685769626,337.995859089119,782.0576850453172,339.661090605045C796.8346349203898,341.3926010316845,810.8520923519753,354.1566730852032,825.5069864048338,360.01123828436994C839.826076064215,365.73165111718805,854.2771278399043,372.21104969306475,868.9562877643503,374.5122599957364C883.2534014008189,376.7535779845075,899.2105296801178,367.9338238745006,912.4055891238671,374.0291429565632C928.9018477715077,381.64941632829357,940.4923397094967,424.4831311653974,955.8548904833838,426.2252989995149C969.6308169437746,427.7875379999064,983.9263761670014,397.3246253190549,999.3041918429003,393.14329166876894C1013.0702949312908,389.4001937353607,1028.2545657157546,396.9546950642098,1042.7534932024168,398.3725268822432C1057.2208355037849,399.78727002487426,1071.711262591296,400.8700216962292,1086.2027945619334,401.64526312036406C1100.6774830860843,402.41960348466154,1115.218392106625,404.0111743246156,1129.6520959214502,403.02347238421856C1144.1852762385286,402.02896324204175,1158.6312871071168,398.24669757276894,1173.101397280967,395.63858332849617C1187.5975347866204,393.02577787911156,1202.2512754875556,386.05954369884284,1216.5506986404835,387.3591309941834C1231.2272937966266,388.69299715086635,1260,404.1898593575081,1260,404.1898593575081L1260,486.07319269084155C1260,486.07319269084155,1230.9461148907915,482.9165303409306,1216.5506986404835,480.00913099418335C1201.9777377553,477.0658734863048,1187.6538334490283,471.6619385594402,1173.101397280967,468.45524999516283C1158.6863297234286,465.2788311635521,1144.1651848394542,461.23109038277244,1129.6520959214502,460.8234723842186C1115.198737597844,460.41753199306294,1100.6536729785562,466.3959214908576,1086.2027945619334,465.9619297870308C1071.68718274533,465.5259939966411,1056.8910523259883,462.9246574413569,1042.7534932024168,458.1558602155766C1027.8883709903473,453.14164574289504,1013.2324792539818,434.2162371046922,999.3041918429003,435.9266250021023C984.1656740398981,437.78562868796683,968.7156687316693,476.65627396254627,955.8548904833838,473.8252989995149C938.3747509864622,469.9774885240737,931.4418159833946,384.7822034789909,912.4055891238671,376.57914295656315C899.8904595400055,371.1861432733795,883.53560511691,391.1630312670481,868.9562877643503,391.79559332906973C854.5669134655174,392.4199142116983,839.7620973382325,385.7596146771621,825.5069864048338,380.6945716177032C810.780571592171,375.4620676066097,796.8568297462198,362.6534002909089,782.0576850453172,360.6277572717117C767.8652468741342,358.6851576223487,753.0263431038984,368.29775081154173,738.6083836858006,367.66629590734055C724.0589487554356,367.02908284731467,709.7338476460109,359.29912064255257,695.159082326284,356.6580945872085C680.765383331239,354.0498787261105,666.1591615575543,351.37253991008976,651.7097809667674,351.8423916393627C637.1926436682477,352.31444661922467,622.7313771183905,356.8425925425127,608.2604796072508,359.54233514218754C593.7651349458904,362.24663868998886,583.2833995200999,366.5184272429817,564.8111782477341,368.05588032403983C533.1103303737502,370.6943592333911,466.05136150989114,369.3296091756056,434.4632741691843,364.48184265000214C415.8711185221077,361.62853821239673,405.6286490826606,354.7604080271743,391.0139728096677,352.1218712214307C376.6578341284423,349.5300108482542,361.5744856911477,345.48070007925867,347.5646714501511,348.63479805069903C332.5370162574719,352.01804753162594,316.9365520157359,360.2507336296906,304.1153700906344,373.6838590835629C286.49239780425637,392.147960051474,282.3813199252586,450.182787474377,260.66606873111783,457.88866677587055C238.9395354187537,465.59854965257114,198.16313724083878,426.85416327836583,173.7674660120846,419.86765367879815C157.16840196781547,415.113961140409,142.9595903324114,422.42317027785634,130.318164652568,413.50532787842144C111.94450290845417,400.54370283040214,104.21144663530023,350.20530708100625,86.86886329305136,331.54378144392734C73.97603663691373,317.6704264523562,57.57759284432517,314.57694782297,43.44930135951662,304.28050130208334C28.584403934441493,293.44722952677165,0,267.7666666666667,0,267.7666666666667Z"><title>East Asia</title></path><path fill="rgb(44, 166, 241)" d="M0,210.55C0,210.55,27.811064033612073,151.77448904429735,43.44930135951662,149.76383463541666C57.048894586001865,148.01529472583738,71.35470075205284,181.54048816271344,86.86886329305136,185.92711477726067C100.54324232215312,189.79354294107205,116.06837876426503,183.5271870951099,130.318164652568,179.65532787842147C145.0506541991025,175.65231156065778,157.7539344170572,171.8812490029513,173.7674660120846,161.9343203454648C198.94915910993913,146.29251745940692,236.67142459098733,85.03391437608906,260.66606873111783,85.03866677587055C277.63581939281244,85.04202781922947,289.42714552926196,111.35651890143347,304.1153700906344,123.5171924168962C318.40434606154486,135.34732007640264,332.3803270809837,148.8935201364263,347.5646714501511,157.11813138403232C361.4604916615113,164.6448125779291,377.7490391429986,176.05962909592526,391.0139728096677,172.22187122143066C407.34301512069214,167.4976176151309,412.9705945197788,124.83006164825153,434.4632741691843,117.71517598333546C464.3544964266732,107.82005670478085,533.853988775013,157.59158341625988,564.8111782477341,152.17254699070642C584.1888806433182,148.78049244978192,593.0067396460461,126.35590026944986,608.2604796072508,122.12566847552088C622.1084390455054,118.28529369230503,637.2204944558125,124.63464965498198,651.7097809667674,124.90905830602938C666.1867059129501,125.18323284476824,681.1209104176384,127.56914851785673,695.159082326284,123.77476125387517C710.1495213244287,119.72298505493687,723.6782211620155,105.17357792165735,738.6083836858006,99.9329625740072C752.6935920481867,94.98893339809048,768.1353622648986,97.89676879932215,782.0576850453172,92.32775727171168C797.2045479923742,86.26892242858206,810.9440646849573,72.72794934848221,825.5069864048338,63.37790495103657C839.9119873732095,54.12925271006979,854.9667548402459,47.14421562911175,868.9562877643503,36.512259995736414C884.0109770628418,25.070792323858395,899.4842805265042,-6.266082623611534,912.4055891238671,-3.6375237101036078C929.680080807306,-0.12340447452639926,940.263900316632,91.63668292795461,955.8548904833838,92.75863233284826C969.4905638979649,93.7398744162047,981.8755940734512,32.18564020319641,999.3041918429003,24.543291668768973C1012.1797397561987,18.897431569935765,1028.2590692038402,29.864936991807728,1042.7534932024168,32.322526882243324C1057.2253054128485,34.77628284992661,1072.1697321806437,41.88857389666775,1086.2027945619334,39.27859645369739C1101.1998897111673,36.489320742804196,1114.6130916820773,17.507743652064907,1129.6520959214502,14.023472384218508C1143.6533637578161,10.779626285156144,1158.767030658756,14.459649515562521,1173.101397280967,17.121916661829516C1187.73960369266,19.840614811334135,1202.0522436659712,26.065702229186112,1216.5506986404835,30.375797660850125C1231.0185094109245,34.6767831946521,1260,42.95652602417488,1260,42.95652602417488L1260,114.3565260241748C1260,114.3565260241748,1230.8920615236493,112.23514371337835,1216.5506986404835,114.2424643275167C1201.9200855652266,116.29027048532046,1187.732023005697,124.70139567390623,1173.101397280967,126.77191666182952C1158.7600460760873,128.80149962181804,1144.1331678852746,126.54468279347758,1129.6520959214502,126.79013905088522C1115.16696584186,127.03566409394008,1100.5131235362517,125.74893516946142,1086.2027945619334,128.2452631203641C1071.5382640923842,130.803378825719,1057.2627435023765,137.76264315832006,1042.7534932024168,142.25586021557663C1028.2963550910265,146.73293919748605,1013.1966735654751,157.62753671181247,999.3041918429003,155.1599583354356C984.1150789241218,152.46207272052635,968.686346050322,119.58795490386699,955.8548904833838,122.79196566618162C938.2696494049233,127.18299530263694,930.1294303994893,210.10557361044377,912.4055891238671,214.8124762898965C899.6112378044671,218.21025928572908,884.2353632580271,189.1272331540906,868.9562877643503,184.41225999573643C855.1254221866025,180.14419024355325,839.762245886467,182.2694194630861,825.5069864048338,184.92790495103654C810.7807407800012,187.67422537656464,796.7839240644988,198.3803462596599,782.0576850453172,201.1277572717117C767.8024197636064,203.787300741275,753.0100083137572,200.02337382816134,738.6083836858006,201.64962924067385C724.0419317451901,203.29449722754907,709.72077563971,209.8682742749871,695.159082326284,211.04142792054182C680.7529049854585,212.20205251976444,665.9932364698674,211.59425669774726,651.7097809667674,208.77572497269603C637.0153825162622,205.87610252459137,622.6562511985901,199.09433539564515,608.2604796072508,193.5256684755209C593.6878918835065,187.8886043777101,583.4278628381028,181.72153603162272,564.8111782477341,175.12254699070644C533.2455543415317,163.93359413416619,464.52665904565026,128.62195288475647,434.4632741691843,137.5485093166688C413.4246645975285,143.79538858066581,407.0816743825345,183.55183195754063,391.0139728096677,187.80520455476403C377.63029220280436,191.3480747085981,361.5048439673418,179.87244338319664,347.5646714501511,172.41813138403236C332.4426846602398,164.33186075572908,317.87557951438896,152.9926608590405,304.1153700906344,139.95052575022953C288.7283453578408,125.3664704275486,278.15965501154733,88.67919084527799,260.66606873111783,87.87200010920388C237.1431538747195,86.78660351566567,199.54699037177343,159.1928791691206,173.7674660120846,174.40098701213145C158.10863802023118,183.63859518024964,144.94561773437803,184.5434528463071,130.318164652568,187.02199454508818C115.97388193059238,189.45255457947542,100.77887803266314,193.01920249801884,86.86886329305136,189.32711477726065C71.71556679099344,185.3050270231094,57.05190297971656,159.26755032481083,43.44930135951662,161.3805013020833C27.816325202483927,163.80883914295836,0,213.95000000000002,0,213.95000000000002Z"><title>Eastern Europe</title></path><path fill="rgb(38, 208, 205)" d="M0,267.7666666666667C0,267.7666666666667,28.445418393759887,295.8900817998982,43.44930135951662,307.28050130208334C57.467861020866785,317.92289805521847,73.92183192565312,320.82808787740754,86.86886329305136,334.54378144392734C104.03479424335957,352.7288496666962,112.14507164739038,400.8962104653932,130.318164652568,413.50532787842144C143.00337501597954,422.3067634312824,157.22811931753918,414.87403410879995,173.7674660120846,419.86765367879815C198.23397763253163,427.25467164836186,238.91563051941398,468.25851329020793,260.66606873111783,460.88866677587055C282.2642858219589,453.57039836244695,286.49239780425637,395.147960051474,304.1153700906344,376.6838590835629C316.9365520157359,363.2507336296905,332.5370162574719,355.01804753162594,347.5646714501511,351.63479805069903C361.5744856911477,348.4807000792587,376.6578341284423,352.53001084825416,391.0139728096677,355.1218712214307C405.6286490826606,357.7604080271744,415.8711185221077,364.62853821239673,434.4632741691843,367.48184265000214C466.05136150989114,372.3296091756056,533.1103303737503,373.6943592333911,564.8111782477341,371.05588032403983C583.2833995200999,369.5184272429818,593.7651349458904,365.2466386899889,608.2604796072508,362.54233514218754C622.7313771183905,359.8425925425127,637.1926436682477,355.3144466192247,651.7097809667674,354.8423916393627C666.1591615575543,354.37253991008976,680.765383331239,357.0498787261105,695.159082326284,359.6580945872085C709.7338476460109,362.2991206425526,724.0589487554356,370.02908284731467,738.6083836858006,370.66629590734055C753.0263431038984,371.2977508115417,767.8652468741342,361.68515762234875,782.0576850453172,363.6277572717117C796.8568297462198,365.65340029090885,810.780571592171,378.4620676066097,825.5069864048338,383.6945716177032C839.7620973382324,388.7596146771621,854.5669134655172,395.4199142116982,868.9562877643503,394.79559332906973C883.5356051169099,394.16303126704827,899.8904595400055,374.18614327337957,912.4055891238671,379.57914295656315C931.4418159833946,387.7822034789909,938.3747509864622,472.9774885240737,955.8548904833838,476.8252989995149C968.7156687316693,479.65627396254615,984.1656740398981,440.7856286879668,999.3041918429003,438.9266250021023C1013.2324792539818,437.21623710469225,1027.8883709903473,456.1416457428951,1042.7534932024168,461.1558602155766C1056.8910523259883,465.9246574413568,1071.68718274533,468.5259939966411,1086.2027945619334,468.9619297870308C1100.6536729785562,469.3959214908576,1115.198737597844,463.417531993063,1129.6520959214502,463.8234723842186C1144.1651848394542,464.2310903827724,1158.6863297234288,468.2788311635521,1173.101397280967,471.45524999516283C1187.6538334490283,474.6619385594402,1201.9777377552998,480.06587348630484,1216.5506986404835,483.00913099418335C1230.9461148907913,485.91653034093054,1260,489.07319269084155,1260,489.07319269084155L1260,538.3731926908415C1260,538.3731926908415,1230.813751313205,544.9275315530214,1216.5506986404835,543.07579766085C1201.8333082476788,541.165078320467,1187.7949287960043,530.3374647965131,1173.101397280967,526.4219166618294C1158.8171676706265,522.6154397404083,1144.1698741390671,521.2844560583817,1129.6520959214502,519.6401390508852C1115.2033442573124,518.0036401498614,1100.1197856418767,521.1887009471865,1086.2027945619334,516.5619297870307C1071.0484441055441,511.52379250291887,1057.1190021593154,498.3735609392743,1042.7534932024168,488.63919354890993C1028.1488537768032,478.7427863837151,1013.6172815487938,457.17524609663985,999.3041918429003,457.6266250021022C984.6427033565285,458.08899104335626,968.6201586450284,496.09429677189667,955.8548904833838,492.97529899951485C938.0177116124739,488.61705752276265,931.8156768581182,401.9491172165583,912.4055891238671,392.6124762898965C899.9510275380451,386.6215827391878,883.4304466702386,404.493581899661,868.9562877643503,404.42892666240306C854.4642236279632,404.36419144350793,839.7586591862325,397.58445585028835,825.5069864048338,392.1945716177032C810.7766515856348,386.6236607077694,796.8981556922505,373.5752258775146,782.0576850453172,371.27775727171166C767.8998348177885,369.0859658388619,753.0160118235593,378.2353578694407,738.6083836858006,377.46629590734057C724.0482042189848,376.6890909377083,709.7311223530564,369.14709676931335,695.159082326284,366.4580945872085C680.7627890638738,363.8015232405941,666.0812986525992,360.22404143312457,651.7097809667674,361.35905830602934C637.1115494936734,362.51198031459825,622.7791669889195,369.79608612730823,608.2604796072508,373.5923351421875C593.8126197172637,377.3700646595079,583.3282317802707,382.52604770667256,564.8111782477341,384.08921365737314C533.1530582609589,386.76171741935497,465.84281875190936,382.5103842140136,434.4632741691843,375.13184265000217C415.63464451869146,370.70450540476946,405.68868660938085,358.2700086771543,391.0139728096677,357.105204554764C376.7128535596617,355.970054467031,361.79364077498127,362.5001523714338,347.5646714501511,367.50146471736565C332.8082499457102,372.68817018893816,317.0221579080611,376.16070983666157,304.1153700906344,388.01719241689614C286.7928637951237,403.9300591226939,281.4086232237129,456.62185413069733,260.66606873111783,462.8720001092039C238.7119204013595,469.4872235111123,198.28325838688835,427.5176843215955,173.7674660120846,419.86765367879815C157.268746299372,414.7193105439096,143.04278932918876,422.2029249007005,130.318164652568,413.50532787842144C112.3150858467914,401.1997763519649,103.76265636079644,355.31825447865305,86.86886329305136,337.09378144392736C73.83140739233676,323.02939918523595,57.5135162921185,318.9651733478798,43.44930135951662,307.84716796875C28.504406445801813,296.032969818518,0,267.7666666666667,0,267.7666666666667Z"><title>Latin America and the Caribbean</title></path><path fill="rgb(55, 237, 159)" d="M0,280.3333333333333C0,280.3333333333333,28.06835327028639,313.0539554223449,43.44930135951662,324.83050130208335C57.204421297934296,335.3622188591762,74.03747484084401,335.94880410207054,86.86886329305136,349.09378144392736C104.42568457884703,367.07967742520856,111.96702380921683,417.89829238478853,130.318164652568,431.45532787842143C142.9643668351454,440.79779946165144,157.30275914908097,433.90534382116795,173.7674660120846,439.6843203454648C198.3252120420513,448.30388697229097,238.70083739947617,492.1511557158125,260.66606873111783,485.8053334425372C281.36798601501846,479.8244864477489,286.5395122740306,425.0912823113115,304.1153700906344,409.98385908356283C316.9494010626714,398.9522986535831,332.9316102193637,397.76325096141454,347.5646714501511,393.1514647173657C361.90377560019783,388.6323226029298,376.6998055452983,381.42016392353867,391.0139728096677,382.4718712214307C405.67427528191973,383.5490101715778,415.6878131310091,395.2335631059252,434.4632741691843,400.2151759833354C465.8881847903783,408.5530132861694,533.042994688168,418.08159283138565,564.8111782477341,417.38921365737315C583.2142089309317,416.98812446195643,593.7251253770669,410.67263957696406,608.2604796072508,409.7256684755208C622.6920696730858,408.78545755779567,637.2307844044228,411.80871651602956,651.7097809667674,411.6590583060294C666.196989967514,411.5093152103932,680.8141777223011,407.2447336498191,695.159082326284,408.8247612538752C709.7858630616028,410.4358362633152,723.9763380000514,419.7205983918481,738.6083836858006,421.53296257400723C752.9484244483,423.3091582479976,767.7694751558863,417.764613654642,782.0576850453172,419.87775727171163C796.7467651737692,422.050187278988,810.8697241855143,431.1006187072866,825.5069864048338,434.8445716177032C839.8422214428664,438.5112713145433,854.6710395058508,443.7113722277345,868.9562877643503,442.26225999573643C883.6486790767354,440.7718466978501,900.0459629580816,419.8310650301221,912.4055891238671,425.3458096232298C932.5035899802094,434.3133414941862,937.8008744363507,536.7784177571898,955.8548904833838,540.725298999515C968.5674756287129,543.5044625784576,985.1535679446964,497.0967741001989,999.3041918429003,497.72662500210225C1014.1534067144274,498.38757051564784,1028.091619244008,532.5198506577908,1042.7534932024168,549.1391935489099C1057.0662328309274,565.3627900872708,1070.4249403112497,585.2211457468321,1086.2027945619334,596.3285964536975C1099.733663235336,605.8541919131926,1114.8606856687234,611.9605807461141,1129.6520959214502,614.7068057175519C1143.851088527362,617.3430403562625,1159.0506892447347,609.9674714004855,1173.101397280967,613.2719166618296C1188.0755965249339,616.7935485686739,1201.7516364079913,635.2410801554233,1216.5506986404835,636.72579766085C1230.7432065620224,638.1496625399876,1260,623.5231926908415,1260,623.5231926908415L1260,626.0731926908414C1260,626.0731926908414,1230.7436062561424,639.9060014624555,1216.5506986404835,638.42579766085C1201.7521089142608,636.882426185157,1188.0513505376853,618.8721818646464,1173.101397280967,615.5385833284962C1159.0317863217385,612.4012869308094,1143.8211038636289,620.2360526381685,1129.6520959214502,617.5401390508852C1114.8250513556848,614.7190219291202,1099.7501876920123,607.8203145227802,1086.2027945619334,598.0285964536974C1070.455407404047,586.6467775388567,1057.055299904635,566.9046571831226,1042.7534932024168,550.5558602155767C1028.0795414141833,533.7816537469505,1014.1530199385148,499.22901985067176,999.3041918429003,498.5766250021022C985.1532489808932,497.9548922858145,968.5608548689107,544.9027798330736,955.8548904833838,542.1419656661816C937.7724964580688,538.2129345370467,932.5934423614339,434.4019672989431,912.4055891238671,425.3458096232298C900.0569735875499,419.80628998943587,883.6527472069545,440.7243284336837,868.9562877643503,442.26225999573643C854.6746711629579,443.7567797482111,839.8454543105056,438.7025097018189,825.5069864048338,435.12790495103656C810.8732349981289,431.4796855147408,796.7391502492835,422.57193160107676,782.0576850453172,420.4444239383783C767.7626446116919,418.3729135244923,752.9544805976514,423.83276431650586,738.6083836858006,422.09962924067383C723.9828913400838,420.3327407314561,709.7833835296703,411.3854381913535,695.159082326284,409.6747612538752C680.8118823746764,407.9964982221399,666.1940444652428,411.60344434950963,651.7097809667674,411.6590583060294C637.2278431854314,411.71466333269706,622.6741359395708,408.8403544675515,608.2604796072508,410.0090018088542C593.7065770631629,411.18902019708133,583.2422034230193,418.1719540140909,564.8111782477341,418.8058803240398C533.0704450341987,419.8975876864771,465.82604466823085,410.41858030610285,434.4632741691843,401.63184265000217C415.61472896596274,396.35114776034317,405.6948381458356,383.57397206475986,391.0139728096677,382.4718712214307C376.7183931392135,381.3986939903944,361.9559214213754,389.73681476940527,347.5646714501511,394.28479805069895C332.98732973904714,398.89159082550077,316.934457952085,399.21764142408165,304.1153700906344,409.98385908356283C286.4846475778364,424.79116816188747,281.36798601501846,479.8244864477489,260.66606873111783,485.8053334425372C238.70083739947614,492.1511557158125,198.3252120420513,448.30388697229097,173.7674660120846,439.6843203454648C157.30275914908094,433.90534382116795,142.9643668351454,440.79779946165144,130.318164652568,431.45532787842143C111.96702380921683,417.89829238478853,104.42568457884703,367.07967742520856,86.86886329305136,349.09378144392736C74.03747484084401,335.94880410207054,57.204421297934296,335.36221885917615,43.44930135951662,324.83050130208335C28.06835327028639,313.0539554223449,0,280.3333333333333,0,280.3333333333333Z"><title>North Africa</title></path><path fill="rgb(95, 252, 115)" d="M0,234.68333333333328C0,234.68333333333328,30.098441695489736,257.0542722700632,43.44930135951662,253.79716796875C59.574105172111445,249.86332631529112,70.8514395034478,203.38847726645173,86.86886329305136,199.86044811059404C100.27085975098292,196.90849810469027,115.42995068120608,218.50912017931307,130.318164652568,221.35532787842146C144.4369428015346,224.05444109286674,156.80716777259815,219.33503404625566,173.7674660120846,217.80098701213143C197.7715742846507,215.62983232001662,236.7493305943081,207.92317644101627,260.66606873111783,209.18866677587053C277.7150640733286,210.0907688393345,289.89392207298926,213.5198586168003,304.1153700906344,218.2005257502295C318.8805116270571,223.06013727672217,333.0212486642478,237.926933127335,347.5646714501511,238.2014647173657C361.98843809234484,238.47373759623378,377.14639281610255,218.02904187435252,391.0139728096677,220.155204554764C406.23899293101226,222.48948851819083,414.53652172985335,251.8204469855682,434.4632741691843,256.5985093166688C465.07001736364754,263.9374335683942,533.1017029705486,225.44262261701223,564.8111782477341,226.45588032403975C583.274435700088,227.0458629001276,593.7788365834497,239.4853731892342,608.2604796072508,239.47566847552088C622.7450380766728,239.4659618080538,637.0661922246545,228.59824011368624,651.7097809667674,226.3923916393627C666.039205507799,224.23386753585064,680.6777157522658,225.92642074305937,695.159082326284,226.10809458720848C709.6439174893101,226.28981194602835,724.6225182285636,223.43760599744968,738.6083836858006,227.48296257400716C753.6679993520888,231.83889717543184,767.3357795398031,245.57778046550234,782.0576850453172,253.02775727171166C796.3167596445676,260.2435198645795,810.8042335189492,266.8791847734592,825.5069864048338,271.67790495103657C839.7829999682657,276.3373449126494,854.874279181181,276.11943394851284,868.9562877643503,281.64559332906975C883.8904946019625,287.50617825340254,899.76003943181,310.74407756504235,912.4055891238671,306.66247628989646C930.7597968318265,300.7382927305095,939.6077953119611,212.3255125533964,955.8548904833838,210.39196566618162C969.1557517307315,208.80904646796583,983.7789552764651,264.31111420395445,999.3041918429003,266.2766250021023C1012.9787968568758,268.00784395650356,1027.8280337469403,242.21481968142476,1042.7534932024168,232.68919354890994C1056.8424305874269,223.69744689385013,1071.2846063504069,213.00845773957496,1086.2027945619334,210.17859645369742C1100.2975143572387,207.50494055671618,1115.1533893505875,213.59655542112446,1129.6520959214502,214.6734723842185C1144.1196572331853,215.7480759783434,1159.044353500746,219.83345073513257,1173.101397280967,216.63858332849617C1188.0674377681382,213.23712028218026,1201.5832008884402,197.39350672463382,1216.5506986404835,193.34246432751672C1230.6066089127055,189.53814851026058,1260,191.75652602417486,1260,191.75652602417486L1260,278.7398593575081C1260,278.7398593575081,1231.1879827859457,289.3086993490601,1216.5506986404835,292.22579766085005C1202.2154837738317,295.08269588534887,1187.593877117953,296.0068913447222,1173.101397280967,296.25524999516284C1158.6276519776877,296.50328759057624,1144.1214255523018,293.3860470294653,1129.6520959214502,293.72347238421855C1115.1551720716589,294.06154123727833,1100.6072066489328,295.8360597105216,1086.2027945619334,298.29526312036415C1071.6392576064172,300.78163323558044,1057.046052515262,303.9515405509111,1042.7534932024168,308.6225268822433C1028.0692654712643,313.42151532910145,1014.0897902239758,323.5341024904495,999.3041918429003,326.9099583354356C985.1002570115422,330.1530084431414,969.9385441475048,332.1567464335844,955.8548904833838,329.1086323328483C940.922763930518,325.87688391122117,926.8055913890443,306.35515331500113,912.4055891238671,306.66247628989646C897.8374384822403,306.9733878655658,883.8123463056187,329.8186840931964,868.9562877643503,331.5122599957364C854.8112974057441,333.12477483245766,839.7937485017325,323.8914835384298,825.5069864048338,318.42790495103657C810.8162883213691,312.80985217334666,796.8816523672261,300.340464056392,782.0576850453172,298.0777572717116C767.8861090805141,295.91463046571937,752.828378278296,305.9182463138304,738.6083836858006,303.9829625740072C723.8415525677617,301.973256595178,709.9454773514005,289.0738366698321,695.159082326284,285.3247612538752C680.9558258028318,281.7235400117703,666.1932486564639,282.6728288887481,651.7097809667674,281.35905830602934C637.2270477128764,280.04535434272634,622.7072937544411,279.3130595043152,608.2604796072508,277.4423351421876C593.7407255141459,275.5621657541598,583.197257437715,270.3129337536438,564.8111782477341,270.08921365737314C533.0262345150114,269.70245742738166,466.26209732513365,289.0501214673992,434.4632741691843,288.89850931666876C416.0911529637814,288.8109137224617,405.43056772419294,285.1098850142089,391.0139728096677,282.205204554764C376.4631223755333,279.27347406119566,362.0877551824356,271.7076291812497,347.5646714501511,271.3514647173657C333.12111757026247,270.99725064554457,318.5448368509183,280.43139551817126,304.1153700906344,279.9671924168962C289.57782952472166,279.4995125277001,277.67948040046144,272.59798847816666,260.66606873111783,268.40533344253726C236.71466247319654,262.50293208945493,197.85729912468057,250.0015232816846,173.7674660120846,248.68432034546476C156.89113190762333,247.76154280976644,143.18564655242588,245.63730239525006,130.318164652568,253.65532787842147C112.86153199957437,264.5329593024542,102.0523912153411,320.4174625962156,86.86886329305136,321.410448110594C72.98161222137595,322.3186585883754,58.94048162241958,283.92192968093826,43.44930135951662,269.94716796875C29.761028708995557,257.5988287656628,0,240.35000000000002,0,240.35000000000002Z"><title>Northern America</title></path><path fill="rgb(149, 251, 81)" d="M0,243.35000000000002C0,243.35000000000002,29.761028708995557,260.59882876566286,43.44930135951662,272.94716796875C58.94048162241958,286.92192968093826,72.98161222137597,325.31865858837546,86.86886329305136,324.410448110594C102.05239121534113,323.4174625962156,112.86153199957437,267.5329593024542,130.318164652568,256.6553278784215C143.18564655242588,248.63730239525006,156.89113190762333,250.76154280976644,173.7674660120846,251.68432034546476C197.85729912468054,253.00152328168454,236.71466247319654,265.50293208945493,260.66606873111783,271.40533344253726C277.6794804004614,275.5979884781666,289.57782952472166,282.49951252770006,304.1153700906344,282.9671924168962C318.5448368509183,283.4313955181712,333.12111757026247,273.9972506455446,347.5646714501511,274.3514647173657C362.0877551824356,274.70762918124973,376.4631223755334,282.2734740611957,391.0139728096677,285.205204554764C405.430567724193,288.1098850142088,416.09115296378144,291.8109137224616,434.4632741691843,291.89850931666876C466.26209732513365,292.05012146739926,533.0262345150114,272.7024574273816,564.8111782477341,273.08921365737314C583.197257437715,273.3129337536438,593.7407255141459,278.5621657541599,608.2604796072508,280.4423351421876C622.7072937544411,282.3130595043152,637.2270477128764,283.0453543427263,651.7097809667674,284.35905830602934C666.1932486564639,285.67282888874803,680.9558258028318,284.7235400117703,695.159082326284,288.3247612538752C709.9454773514005,292.073836669832,723.8415525677617,304.97325659517804,738.6083836858006,306.9829625740072C752.828378278296,308.91824631383037,767.8861090805141,298.9146304657194,782.0576850453172,301.0777572717116C796.8816523672261,303.340464056392,810.8162883213691,315.8098521733466,825.5069864048338,321.42790495103657C839.7937485017325,326.89148353842984,854.811297405744,336.1247748324577,868.9562877643503,334.5122599957364C883.8123463056188,332.8186840931964,897.8374384822403,309.9733878655658,912.4055891238671,309.66247628989646C926.8055913890441,309.3551533150012,940.9227639305179,328.8768839112212,955.8548904833838,332.1086323328483C969.9385441475047,335.1567464335843,985.1002570115422,333.1530084431414,999.3041918429003,329.9099583354356C1014.0897902239758,326.5341024904495,1028.0692654712643,316.42151532910145,1042.7534932024168,311.6225268822433C1057.046052515262,306.95154055091115,1071.6392576064172,303.78163323558044,1086.2027945619334,301.29526312036415C1100.6072066489328,298.8360597105216,1115.1551720716589,297.06154123727833,1129.6520959214502,296.72347238421855C1144.1214255523018,296.3860470294653,1158.6276519776877,299.50328759057624,1173.101397280967,299.25524999516284C1187.5938771179528,299.00689134472225,1202.2154837738317,298.08269588534887,1216.5506986404835,295.22579766085005C1231.1879827859457,292.3086993490601,1260,281.7398593575081,1260,281.7398593575081L1260,339.2565260241748C1260,339.2565260241748,1230.9838947450962,340.83813591717785,1216.5506986404835,339.7091309941834C1202.0169963969875,338.57226420020993,1187.3824575813671,330.92352466571015,1173.101397280967,332.40524999516276C1158.404313913646,333.93013962074804,1144.2594687039468,348.68699220910213,1129.6520959214502,349.4234723842186C1115.289143771145,350.1476292652919,1100.5704995177673,336.57927963446696,1086.2027945619334,337.27859645369745C1071.6004995869969,337.9893314323688,1057.4739256502417,350.4910064532627,1042.7534932024168,354.1225268822433C1028.49312177963,357.6405505768771,1013.6828666113066,356.32963326168056,999.3041918429003,359.0932916687689C984.7135643849816,361.89768851953926,969.5530833938925,374.0561749645216,955.8548904833838,370.9252989995149C940.3685906017579,367.385731086942,927.6642751445764,335.5241155085369,912.4055891238671,333.17914295656317C898.5609824758217,331.05148776145154,883.6441770514848,350.9002376345586,868.9562877643503,352.07892666240303C854.6670114927003,353.22562737807255,839.6125160676744,346.6958098143488,825.5069864048338,340.9779049510365C810.6023214560022,334.9360576589439,797.0201702450661,318.61817829467293,782.0576850453172,316.0944239383783C767.9978724469718,313.7229252989442,752.8952377538426,325.6410180107284,738.6083836858006,324.2662959073405C723.9177884238056,322.8527246674855,709.7846244440082,307.8775909542024,695.159082326284,307.02476125387517C680.8130314898583,306.1882289641844,666.2540304476817,315.3190557995766,651.7097809667674,318.6423916393627C637.2868139668954,321.93801464209145,622.7158850744717,323.88305998489443,608.2604796072508,326.90900180885416C593.7494706980491,329.94658306977254,583.31954743303,335.1495508359439,564.8111782477341,336.8392136573731C533.1448360644714,339.7300918618246,465.9177264387517,337.59777796632403,434.4632741691843,331.28184265000215C415.7219031765517,327.51864607883874,405.73483791536444,317.687024824166,391.0139728096677,315.2385378880973C376.7539823851461,312.8667071558536,361.2428530191442,311.2480383512564,347.5646714501511,316.28479805069895C332.0453817857823,321.999514758559,317.5104649045974,336.58441647363856,304.1153700906344,351.53385908356285C288.07141509552065,369.4395318516005,281.6524358029062,408.893053332773,260.66606873111783,419.0220001092039C238.77555810129644,429.5873264622542,197.77906867954576,412.2885161742278,173.7674660120846,410.35098701213144C156.81462667113206,408.9830391471628,142.9365711630959,415.8367805321066,130.318164652568,407.6719945450881C111.83363170556947,395.7115100372927,104.37435814517778,343.29738214403864,86.86886329305136,324.9771147772607C74.02316416252744,311.5335278022944,56.982930773884306,311.0858590470497,43.44930135951662,299.58050130208335C27.692627162812997,286.18526429999014,0,247.03333333333336,0,247.03333333333336Z"><title>Northern Europe</title></path><path fill="rgb(203, 232, 57)" d="M0,280.3333333333333C0,280.3333333333333,28.06835327028639,313.0539554223449,43.44930135951662,324.83050130208335C57.204421297934296,335.3622188591762,74.03747484084401,335.94880410207054,86.86886329305136,349.09378144392736C104.42568457884703,367.07967742520856,111.96702380921683,417.89829238478853,130.318164652568,431.45532787842143C142.9643668351454,440.79779946165144,157.30275914908097,433.90534382116795,173.7674660120846,439.6843203454648C198.3252120420513,448.30388697229097,238.70083739947617,492.1511557158125,260.66606873111783,485.8053334425372C281.36798601501846,479.8244864477489,286.4846475778364,424.79116816188747,304.1153700906344,409.98385908356283C316.934457952085,399.2176414240816,332.98732973904714,398.89159082550077,347.5646714501511,394.28479805069895C361.9559214213754,389.73681476940527,376.7183931392135,381.3986939903944,391.0139728096677,382.4718712214307C405.6948381458356,383.57397206475986,415.6147289659628,396.3511477603431,434.4632741691843,401.63184265000217C465.82604466823085,410.41858030610285,533.0704450341987,419.8975876864771,564.8111782477341,418.8058803240398C583.2422034230193,418.1719540140909,593.7065770631629,411.18902019708133,608.2604796072508,410.0090018088542C622.6741359395708,408.8403544675515,637.2278431854314,411.71466333269706,651.7097809667674,411.6590583060294C666.1940444652428,411.60344434950963,680.8118823746764,407.9964982221398,695.159082326284,409.6747612538752C709.7833835296703,411.3854381913536,723.9828913400838,420.3327407314561,738.6083836858006,422.09962924067383C752.9544805976514,423.8327643165058,767.7626446116919,418.37291352449233,782.0576850453172,420.4444239383783C796.7391502492835,422.5719316010767,810.8732349981289,431.47968551474077,825.5069864048338,435.12790495103656C839.8454543105054,438.7025097018189,854.674671162958,443.7567797482111,868.9562877643503,442.26225999573643C883.6527472069544,440.7243284336837,900.0569735875499,419.80628998943587,912.4055891238671,425.3458096232298C932.5934423614339,434.4019672989431,937.7724964580688,538.2129345370467,955.8548904833838,542.1419656661816C968.5608548689107,544.9027798330736,985.262229172364,497.76638275409044,999.3041918429003,498.5766250021022C1014.289706554751,499.44131161412554,1028.2368112284032,535.3251027220384,1042.7534932024168,553.5558602155767C1057.2033207320212,571.7026586359898,1070.0644041087312,595.2990621449711,1086.2027945619334,607.7119297870308C1099.5531340532825,617.9803637775964,1114.8335403466378,624.1124276054629,1129.6520959214502,626.9401390508851C1143.8281978184775,629.6452559823781,1159.1201590237151,621.6893741801728,1173.101397280967,625.2219166618295C1188.1672451620498,629.0284999331286,1201.7085511143503,649.4227150595259,1216.5506986404835,650.9424643275167C1230.7071606064655,652.3920033967289,1260,636.0398593575081,1260,636.0398593575081L1260,636.0398593575081C1260,636.0398593575081,1230.7071606064655,652.3920033967289,1216.5506986404835,650.9424643275167C1201.7085511143503,649.4227150595259,1188.1672451620498,629.0284999331286,1173.101397280967,625.2219166618295C1159.1201590237151,621.6893741801728,1143.8361522725784,629.6066167046702,1129.6520959214502,626.9401390508851C1114.8430158019512,624.156162434167,1099.53976867063,618.2224538905606,1086.2027945619334,607.9952631203641C1070.0354978577875,595.5976963046761,1057.2147511819942,571.7645250941692,1042.7534932024168,553.5558602155767C1028.2484177100253,535.2920232068852,1014.289706554751,499.44131161412554,999.3041918429003,498.5766250021022C985.262229172364,497.76638275409044,968.5608548689107,544.9027798330736,955.8548904833838,542.1419656661816C937.7724964580688,538.2129345370467,932.5934423614339,434.4019672989431,912.4055891238671,425.3458096232298C900.0569735875499,419.80628998943587,883.6527472069545,440.7243284336837,868.9562877643503,442.26225999573643C854.6746711629579,443.7567797482111,839.8454543105056,438.7025097018189,825.5069864048338,435.12790495103656C810.8732349981289,431.4796855147408,796.7391502492835,422.57193160107676,782.0576850453172,420.4444239383783C767.7626446116919,418.3729135244923,752.9544805976514,423.83276431650586,738.6083836858006,422.09962924067383C723.9828913400838,420.3327407314561,709.7833835296703,411.3854381913535,695.159082326284,409.6747612538752C680.8118823746764,407.9964982221399,666.1940444652428,411.60344434950963,651.7097809667674,411.6590583060294C637.2278431854314,411.71466333269706,622.6741359395708,408.8403544675515,608.2604796072508,410.0090018088542C593.7065770631629,411.18902019708133,583.2422034230193,418.1719540140909,564.8111782477341,418.8058803240398C533.0704450341987,419.8975876864771,465.82604466823085,410.41858030610285,434.4632741691843,401.63184265000217C415.61472896596274,396.35114776034317,405.6948381458356,383.57397206475986,391.0139728096677,382.4718712214307C376.7183931392135,381.3986939903944,361.9559214213754,389.73681476940527,347.5646714501511,394.28479805069895C332.98732973904714,398.89159082550077,316.934457952085,399.21764142408165,304.1153700906344,409.98385908356283C286.4846475778364,424.79116816188747,281.36798601501846,479.8244864477489,260.66606873111783,485.8053334425372C238.70083739947614,492.1511557158125,198.3252120420513,448.30388697229097,173.7674660120846,439.6843203454648C157.30275914908094,433.90534382116795,142.9643668351454,440.79779946165144,130.318164652568,431.45532787842143C111.96702380921683,417.89829238478853,104.42568457884703,367.07967742520856,86.86886329305136,349.09378144392736C74.03747484084401,335.94880410207054,57.204421297934296,335.36221885917615,43.44930135951662,324.83050130208335C28.06835327028639,313.0539554223449,0,280.3333333333333,0,280.3333333333333Z"><title>Polynesia</title></path><path fill="rgb(245, 199, 43)" d="M0,280.3333333333333C0,280.3333333333333,28.54341765446958,307.076570622561,43.44930135951662,318.2638346354167C57.544445530075016,328.8426169642973,74.02330678219165,331.9067759428011,86.86886329305136,346.09378144392736C104.374865252296,365.4279181851863,111.69200083342184,418.4407117407649,130.318164652568,431.45532787842143C142.90832369680683,440.25242043402227,157.34936258461266,431.5361644345854,173.7674660120846,436.6843203454648C198.38375231365555,444.40314611527236,238.70083739947617,489.15115571581254,260.66606873111783,482.8053334425372C281.36798601501846,476.8244864477489,287.13540546286873,424.68707798150353,304.1153700906344,406.98385908356283C317.13132437242626,393.41349584267823,332.53533512217325,385.89062798668397,347.5646714501511,379.6181313840323C361.5732167530989,373.7716621252893,376.64961531822763,368.68910379105625,391.0139728096677,369.5052045547641C405.6198427164973,370.335026674736,415.7761074811737,380.7296999198606,434.4632741691843,384.98184265000214C465.9654452085218,392.1499559228685,533.0210546385388,399.1487323221066,564.8111782477341,398.7558803240398C583.1920398173671,398.52873562077946,593.7530892828723,394.456289716121,608.2604796072508,393.07566847552084C622.7194520517578,391.69965500736504,637.2264394133513,391.33422352904876,651.7097809667674,390.47572497269596C666.192640335749,389.61725499777504,680.8280134502888,386.21218146463843,695.159082326284,387.9247612538752C709.8008785494787,389.6744733309673,723.9601384287871,399.0529291998074,738.6083836858006,401.1996292406738C752.9335439381273,403.29898118075437,767.77881924511,398.56831449249427,782.0576850453172,400.96109060504494C796.7572316595721,403.4243621628885,810.938636847115,411.70551364693165,825.5069864048338,416.21123828436987C839.9067987903403,420.6648374503432,854.5851052944172,428.58050653345776,868.9562877643503,427.87892666240305C883.5548761470408,427.1662451710549,900.041501931978,405.95220106725685,912.4055891238671,411.52914295656313C932.467863141687,420.5784269536964,937.592251845504,521.4190962396261,955.8548904833838,525.7752989995149C968.5202020578813,528.7963665642665,984.9676849903037,485.8654125708426,999.3041918429003,486.17662500210224C1013.9400721236009,486.49433613861646,1028.5321717830402,514.2034519378323,1042.7534932024168,529.3725268822433C1057.5187818488796,545.12182073822,1070.1814703601913,568.1259209196163,1086.2027945619334,579.1119297870308C1099.6088695254996,588.304631749266,1114.9445473494181,592.8389117542274,1129.6520959214502,594.9401390508851C1143.9238522252112,596.9791058963685,1158.9857475302076,589.2754974936576,1173.101397280967,592.0885833284962C1187.9934837241976,595.0564040214393,1201.9406931500434,612.996320620682,1216.5506986404835,613.5591309941833C1230.9111916597287,614.1123295843629,1260,596.1065260241749,1260,596.1065260241749L1260,598.0898593575082C1260,598.0898593575082,1230.8608269807694,615.4771997409231,1216.5506986404835,614.6924643275167C1201.8859469071049,613.8882821608481,1188.0234086157402,595.4164418105232,1173.101397280967,592.3719166618295C1159.0097203945859,589.4968039370538,1143.9181863052722,597.5395386787125,1129.6520959214502,595.5068057175519C1114.9381462129304,593.4102586078205,1099.737955580809,588.296256617546,1086.2027945619334,579.3952631203641C1070.4328920249488,569.0246587561352,1057.156171122154,549.3054264910724,1042.7534932024168,533.9058602155766C1028.1881432812495,518.3323625169694,1013.940077780021,486.74807537608535,999.3041918429003,486.4599583354356C984.9676901978744,486.17773487147986,968.5970921370513,533.0072427914976,955.8548904833838,530.3086323328482C937.9246773218266,526.5112775209611,932.467863141687,425.11176028702977,912.4055891238671,416.0624762898965C900.041501931978,410.48553440059015,883.6235136934341,431.10215454348383,868.9562877643503,432.41225999573646C854.648401344416,433.690268536656,839.8358591994629,428.27871361534665,825.5069864048338,424.42790495103657C810.8627958128054,420.49235629889637,796.7639630878266,411.2548915627695,782.0576850453172,408.8944239383783C767.7848018939986,406.6035194356876,752.9085601853752,412.1087692019555,738.6083836858006,409.98296257400716C723.9326243913778,407.8013233208702,709.8224033302662,397.3101748944056,695.159082326284,395.5747612538752C680.8476562391951,393.88099460713585,666.2022830659822,398.9682657820533,651.7097809667674,399.2590583060293C637.2360578106897,399.54947402990314,622.6959837617538,396.4310845488554,608.2604796072508,397.3256684755209C593.7291488449422,398.22619088151976,583.2229627074388,404.16557723727,564.8111782477341,404.7058803240398C533.0516087345493,405.63788088487655,465.87438346729954,398.34021495284514,434.4632741691843,390.3651759833354C415.671744028542,385.59415106517594,405.66254845189536,373.607898024695,391.0139728096677,372.6218712214307C376.6891147148575,371.6576345352562,361.7290569903976,378.35628179045835,347.5646714501511,383.8681313840324C332.7320757916724,389.6400045175005,317.04899645035965,394.45053486758707,304.1153700906344,406.98385908356283C286.88098722570027,423.684829260118,281.36798601501846,476.8244864477488,260.66606873111783,482.8053334425372C238.70083739947614,489.15115571581254,198.38375231365555,444.40314611527236,173.7674660120846,436.6843203454648C157.34936258461266,431.5361644345854,142.90832369680683,440.25242043402227,130.318164652568,431.45532787842143C111.69200083342184,418.4407117407649,104.41231301386642,365.28901259936504,86.86886329305136,346.09378144392736C74.03377070894476,332.0502168671696,57.50473224683505,329.3580508506983,43.44930135951662,318.83050130208335C28.493188797122627,307.628339140173,0,280.3333333333333,0,280.3333333333333Z"><title>South Asia</title></path><path fill="rgb(255, 155, 33)" d="M0,277.3333333333333C0,277.3333333333333,27.653135731905895,313.69553842074606,43.44930135951662,324.83050130208335C56.9616613580367,334.3555740678307,74.17500667387183,331.29038146734905,86.86886329305136,343.09378144392736C104.97011485812368,359.9252550227602,111.69200083342184,415.440711740765,130.318164652568,428.45532787842143C142.90832369680683,437.25242043402227,157.34936258461266,428.5361644345853,173.7674660120846,433.6843203454648C198.38375231365555,441.4031461152725,238.70083739947617,486.1511557158125,260.66606873111783,479.8053334425372C281.36798601501846,473.8244864477488,286.4124179926467,418.36632104247855,304.1153700906344,403.98385908356283C316.91520323120665,393.58485262374916,333.01674509599894,394.1097869647352,347.5646714501511,389.8681313840324C361.98408624478395,385.6639451828378,376.7050549153251,377.57871061471496,391.0139728096677,378.6218712214307C405.6800599977302,379.6910704803974,415.66090711625856,391.80939147406417,434.4632741691843,396.9318426500021C465.86512031135345,405.48685188074415,533.0413563127862,415.04768341769824,564.8111782477341,414.38921365737315C583.2125471709619,414.0078220018158,593.7251253770669,407.6726395769641,608.2604796072508,406.7256684755208C622.6920696730858,405.78545755779567,637.2323918447729,408.85568968923064,651.7097809667674,408.6590583060294C666.1986017742802,408.46227165808267,680.8126296369632,404.008336077249,695.159082326284,405.5414279205419C709.7841903952382,407.104297458632,723.9754828878334,416.3887557066987,738.6083836858006,418.24962924067387C752.9476357655534,420.0731593158532,767.77025186411,414.71716013718606,782.0576850453172,416.87775727171163C796.7476330000793,419.0992241408715,810.8657135833521,428.14902657082644,825.5069864048338,431.8445716177032C839.838535708419,435.46194059161013,854.6671758552427,440.4332527766777,868.9562877643503,438.97892666240307C883.6443605486605,437.4839948601702,900.0460027762516,416.79500488832474,912.4055891238671,422.3458096232298C932.5039105992583,431.3721520000336,937.9031518461132,533.647217781247,955.8548904833838,537.4419656661817C968.5918556476611,540.134382963149,985.0564312858219,492.86707415477196,999.3041918429003,493.30995833543557C1014.0389968827025,493.76798203896055,1028.1279370911495,527.0553176338783,1042.7534932024168,543.3058602155767C1057.0995310848232,559.2458284269123,1070.4563475360221,578.9140263715293,1086.2027945619334,589.9285964536974C1099.750700976863,599.4052970978709,1114.8616129070388,605.6105439912072,1129.6520959214502,608.3068057175518C1143.851876037631,610.8953840359517,1159.02409969142,603.4392958030647,1173.101397280967,606.5885833284962C1188.0415732406616,609.9309087626443,1201.7626290552794,627.6884366795357,1216.5506986404835,629.1924643275166C1230.7525302481927,630.6368683632764,1260,616.8398593575081,1260,616.8398593575081L1260,620.5231926908415C1260,620.5231926908415,1230.7432065620224,635.1496625399876,1216.5506986404835,633.72579766085C1201.7516364079913,632.2410801554233,1188.0755965249339,613.7935485686738,1173.101397280967,610.2719166618296C1159.0506892447347,606.9674714004855,1143.851088527362,614.3430403562626,1129.6520959214502,611.7068057175519C1114.8606856687234,608.9605807461141,1099.733663235336,602.8541919131926,1086.2027945619334,593.3285964536975C1070.4249403112497,582.2211457468321,1057.0662328309274,562.3627900872709,1042.7534932024168,546.1391935489099C1028.091619244008,529.5198506577908,1014.1534067144277,495.3875705156479,999.3041918429003,494.72662500210225C985.1535679446963,494.0967741001988,968.5674756287129,540.5044625784576,955.8548904833838,537.725298999515C937.8008744363509,533.7784177571897,932.5035899802094,431.3133414941861,912.4055891238671,422.3458096232298C900.0459629580816,416.8310650301221,883.6486790767354,437.77184669785004,868.9562877643503,439.26225999573643C854.6710395058508,440.7113722277345,839.8422214428664,435.5112713145433,825.5069864048338,431.8445716177032C810.8697241855143,428.1006187072866,796.7467651737692,419.05018727898806,782.0576850453172,416.87775727171163C767.7694751558863,414.764613654642,752.9484244483,420.3091582479975,738.6083836858006,418.53296257400723C723.9763380000514,416.72059839184806,709.7858630616028,407.43583626331514,695.159082326284,405.8247612538752C680.8141777223011,404.2447336498192,666.196989967514,408.50931521039314,651.7097809667674,408.6590583060294C637.2307844044228,408.80871651602956,622.6920696730858,405.7854575577957,608.2604796072508,406.7256684755208C593.7251253770668,407.67263957696406,583.2142089309317,413.98812446195643,564.8111782477341,414.38921365737315C533.042994688168,415.08159283138565,465.8881847903783,405.5530132861695,434.4632741691843,397.2151759833354C415.6878131310091,392.2335631059252,405.67427528191973,380.5490101715777,391.0139728096677,379.4718712214307C376.6998055452983,378.4201639235387,361.9798455205872,386.09024616492775,347.5646714501511,390.1514647173657C333.01234591023547,394.25132325358885,316.911959862811,393.65010731155996,304.1153700906344,403.98385908356283C286.40007644109704,418.2896585505815,281.36798601501846,473.8244864477488,260.66606873111783,479.8053334425372C238.70083739947614,486.1511557158125,198.38375231365555,441.4031461152725,173.7674660120846,433.6843203454648C157.34936258461266,428.5361644345853,142.90832369680683,437.25242043402227,130.318164652568,428.45532787842143C111.69200083342184,415.440711740765,104.97011485812367,359.9252550227602,86.86886329305136,343.09378144392736C74.17500667387182,331.29038146734905,56.9616613580367,334.3555740678307,43.44930135951662,324.83050130208335C27.653135731905895,313.69553842074606,0,277.3333333333333,0,277.3333333333333Z"><title>Southeast Asia</title></path><path fill="rgb(251, 105, 25)" d="M0,250.03333333333336C0,250.03333333333336,27.692627162812997,289.18526429999014,43.44930135951662,302.58050130208335C56.982930773884306,314.0858590470497,74.02316416252745,314.53352780229443,86.86886329305136,327.9771147772607C104.37435814517778,346.2973821440386,111.83363170556947,398.7115100372928,130.318164652568,410.6719945450881C142.9365711630959,418.8367805321066,156.81462667113206,411.98303914716286,173.7674660120846,413.35098701213144C197.77906867954576,415.2885161742278,238.77555810129644,432.5873264622542,260.66606873111783,422.0220001092039C281.6524358029062,411.893053332773,288.07141509552065,372.43953185160046,304.1153700906344,354.53385908356285C317.5104649045974,339.58441647363856,332.0453817857823,324.9995147585589,347.5646714501511,319.28479805069895C361.2428530191442,314.24803835125635,376.7539823851461,315.8667071558536,391.0139728096677,318.2385378880973C405.73483791536444,320.687024824166,415.7219031765517,330.51864607883874,434.4632741691843,334.28184265000215C465.9177264387517,340.5977779663241,533.1448360644714,342.7300918618246,564.8111782477341,339.8392136573731C583.31954743303,338.14955083594396,593.7494706980491,332.94658306977254,608.2604796072508,329.90900180885416C622.7158850744717,326.88305998489443,637.2868139668955,324.9380146420914,651.7097809667674,321.6423916393627C666.2540304476818,318.3190557995766,680.8130314898583,309.1882289641844,695.159082326284,310.02476125387517C709.7846244440082,310.87759095420245,723.9177884238059,325.8527246674855,738.6083836858006,327.2662959073405C752.8952377538424,328.6410180107284,767.9978724469718,316.7229252989441,782.0576850453172,319.0944239383783C797.0201702450661,321.6181782946729,810.6023214560022,337.936057658944,825.5069864048338,343.9779049510365C839.6125160676743,349.6958098143489,854.6670114927003,356.22562737807255,868.9562877643503,355.07892666240303C883.6441770514848,353.90023763455866,898.5609824758217,334.05148776145154,912.4055891238671,336.17914295656317C927.6642751445764,338.5241155085369,940.3685906017579,370.3857310869421,955.8548904833838,373.9252989995149C969.5530833938923,377.0561749645216,984.7135643849817,364.8976885195392,999.3041918429003,362.0932916687689C1013.6828666113068,359.32963326168056,1028.49312177963,360.64055057687716,1042.7534932024168,357.1225268822433C1057.4739256502417,353.4910064532626,1071.6004995869969,340.98933143236883,1086.2027945619334,340.27859645369745C1100.5704995177673,339.57927963446696,1115.289143771145,353.147629265292,1129.6520959214502,352.4234723842186C1144.2594687039468,351.686992209102,1158.404313913646,336.93013962074804,1173.101397280967,335.40524999516276C1187.3824575813671,333.9235246657101,1202.0169963969875,341.5722642002098,1216.5506986404835,342.7091309941834C1230.9838947450962,343.83813591717785,1260,342.2565260241748,1260,342.2565260241748L1260,401.1898593575081C1260,401.1898593575081,1231.2272937966266,385.6929971508663,1216.5506986404835,384.3591309941834C1202.2512754875556,383.0595436988429,1187.5975347866204,390.02577787911156,1173.101397280967,392.63858332849617C1158.631287107117,395.24669757276894,1144.1852762385286,399.02896324204175,1129.6520959214502,400.02347238421856C1115.218392106625,401.0111743246156,1100.6774830860843,399.4196034846615,1086.2027945619334,398.64526312036406C1071.711262591296,397.87002169622923,1057.2208355037849,396.78727002487426,1042.7534932024168,395.3725268822432C1028.2545657157548,393.95469506420983,1013.0702949312908,386.40019373536063,999.3041918429003,390.14329166876894C983.9263761670012,394.32462531905486,969.6308169437746,424.7875379999065,955.8548904833838,423.2252989995149C940.4923397094967,421.4831311653974,928.9018477715077,378.64941632829357,912.4055891238671,371.0291429565632C899.2105296801178,364.9338238745006,883.253401400819,373.75357798450756,868.9562877643503,371.5122599957364C854.2771278399043,369.21104969306475,839.826076064215,362.73165111718805,825.5069864048338,357.01123828436994C810.8520923519753,351.1566730852032,796.8346349203898,338.3926010316844,782.0576850453172,336.661090605045C767.8463685769626,334.99585908911905,753.1684432929007,344.2760912485949,738.6083836858006,345.68296257400715C724.2006406295633,347.07511625446625,709.6295121398332,345.8577658040025,695.159082326284,345.1580945872085C680.6632667377619,344.45719592269563,666.092794772864,340.2822977308565,651.7097809667674,341.47572497269607C637.1237484449434,342.6859976454878,622.7268413291273,348.7448337731209,608.2604796072508,352.5756684755209C593.7605626806424,356.4153889257824,583.3753975035739,362.6358995182365,564.8111782477341,364.4892136573731C533.1972629671016,367.6453127841723,465.9591953596352,361.9983963048341,434.4632741691843,355.53184265000215C415.7690677553737,351.6936603000267,405.7027268551036,342.30953243560776,391.0139728096677,340.33853788809733C376.72547098339203,338.421250750974,361.5096649212113,338.8536962898061,347.5646714501511,343.3681313840323C332.44935340532334,348.26143752889146,316.98154086800747,356.4973941987367,304.1153700906344,370.40052575022946C286.65415477606376,389.26904364635044,282.47545417037907,445.8666054526839,260.66606873111783,454.0386667758706C238.95814477850666,462.1727100864382,198.0789972532498,426.3357350093885,173.7674660120846,419.86765367879815C157.09537161784147,415.43204403234967,142.918447880246,422.53381256153807,130.318164652568,413.50532787842144C111.74349760922091,400.1960161856116,104.58316058608025,346.92329463880685,86.86886329305136,328.54378144392734C74.07985820100248,315.27451741666073,57.37389943987418,314.30127712524074,43.44930135951662,304.28050130208334C28.318448953969952,293.39164985414476,0,264.7666666666667,0,264.7666666666667Z"><title>Southern Europe</title></path><path fill="rgb(214, 57, 15)" d="M0,274.3333333333333C0,274.3333333333333,28.40246461173498,303.518908407981,43.44930135951662,315.2638346354167C57.43543069599454,326.180817388521,73.96216549488688,329.0871127979528,86.86886329305136,343.09378144392736C104.16519294907876,361.86418748209877,111.90798810604788,412.69462608887386,130.318164652568,424.8886612117548C142.95191877204877,433.25666578126624,157.28188262202977,424.1458059811455,173.7674660120846,428.70098701213146C198.29938555494604,435.47947533804245,238.69502146946826,477.49049913043746,260.66606873111783,470.85533344253724C281.3468648874662,464.60981826882124,286.95688492257636,413.29384233483455,304.1153700906344,397.13385908356287C317.07278484623913,384.9304737975382,332.73614425287207,380.2901229597852,347.5646714501511,374.91813138403234C361.73244353291034,369.7855142830072,376.6840918491425,364.0646853986354,391.0139728096677,365.08853788809733C405.657063830165,366.13476885373177,415.71998572592366,377.27064315838925,434.4632741691843,381.6985093166688C465.9160552775937,389.12883326837516,533.0845669667657,396.12534277680396,564.8111782477341,394.62254699070644C583.2567183519915,393.7488362847163,593.7089000540216,387.62550115738634,608.2604796072508,386.1090018088542C622.6763720812636,384.60664314975605,637.2300862962097,385.9256670083224,651.7097809667674,385.4923916393626C666.1962904091264,385.0589123522378,680.8367303245061,381.6586830311105,695.159082326284,383.50809458720846C709.8104004076772,385.39998475779163,723.9684699530243,395.5052775030233,738.6083836858006,397.06629590734053C752.9411811116158,398.594567246601,767.7511932561551,391.44927663246887,782.0576850453172,393.1444239383783C796.7264517232545,394.88249646388425,811.0868674176754,402.565268331424,825.5069864048338,407.82790495103654C840.0541832686024,413.13691876681423,854.651899722937,425.6699149054394,868.9562877643503,424.87892666240305C883.6273809680835,424.0676607625236,900.0089404983538,397.2572217260927,912.4055891238671,402.0124762898965C932.2180906474853,409.6123922943444,937.4119651754037,515.1653916316565,955.8548904833838,519.6586323328482C968.4818401258686,522.7349297812233,984.6259314806682,480.50959988650646,999.3041918429003,480.0599583354355C1013.6021151611673,479.6219677112563,1028.7522137934923,501.8980423223256,1042.7534932024168,515.03919354891C1057.792482032096,529.1543055135892,1070.3216083141465,551.8242798460772,1086.2027945619334,562.5119297870308C1099.67916336908,571.5811964046956,1114.928141554676,575.9846427000156,1129.6520959214502,578.6234723842185C1143.9093684293011,581.1786632638091,1158.8580727306908,575.9721514880432,1173.101397280967,578.6052499951628C1187.8412835676306,581.3301456078077,1201.9338935722062,594.4300031264177,1216.5506986404835,595.2591309941834C1230.904856347701,596.0733603772644,1260,584.0398593575081,1260,584.0398593575081L1260,593.1065260241749C1260,593.1065260241749,1230.9111916597287,611.1123295843628,1216.5506986404835,610.5591309941833C1201.9406931500434,609.996320620682,1187.9934837241976,592.0564040214393,1173.101397280967,589.0885833284962C1158.9857475302076,586.2754974936577,1143.9238522252112,593.9791058963684,1129.6520959214502,591.9401390508851C1114.9445473494181,589.8389117542273,1099.6088695254996,585.304631749266,1086.2027945619334,576.1119297870308C1070.1814703601913,565.1259209196163,1057.5187818488796,542.12182073822,1042.7534932024168,526.3725268822433C1028.5321717830402,511.20345193783214,1013.9400721236009,483.49433613861646,999.3041918429003,483.17662500210224C984.9676849903037,482.8654125708426,968.5202020578813,525.7963665642666,955.8548904833838,522.7752989995149C937.592251845504,518.419096239626,932.467863141687,417.57842695369635,912.4055891238671,408.52914295656313C900.041501931978,402.95220106725685,883.5548761470408,424.1662451710549,868.9562877643503,424.87892666240305C854.5851052944172,425.58050653345776,839.9067987903403,417.6648374503432,825.5069864048338,413.21123828436987C810.938636847115,408.7055136469318,796.7572316595721,400.4243621628885,782.0576850453172,397.96109060504494C767.77881924511,395.5683144924942,752.9335439381273,400.29898118075437,738.6083836858006,398.1996292406738C723.9601384287871,396.0529291998074,709.8008785494787,386.6744733309673,695.159082326284,384.9247612538752C680.8280134502888,383.2121814646384,666.192640335749,386.61725499777504,651.7097809667674,387.47572497269596C637.2264394133513,388.3342235290488,622.7194520517578,388.6996550073651,608.2604796072508,390.07566847552084C593.7530892828723,391.4562897161209,583.192039817367,395.52873562077946,564.8111782477341,395.7558803240398C533.0210546385388,396.1487323221066,465.9654452085218,389.1499559228684,434.4632741691843,381.98184265000214C415.77610748117365,377.7296999198606,405.6198427164973,367.335026674736,391.0139728096677,366.5052045547641C376.64961531822763,365.68910379105625,361.7631503101927,371.55004592359103,347.5646714501511,376.6181313840323C332.7726560610116,381.8980771347913,316.9650795964499,385.72156493123236,304.1153700906344,397.98385908356283C286.5959982623506,414.7023452583082,281.6134361606232,470.5650475797978,260.66606873111783,476.8053334425372C238.76569920395798,483.329521592147,198.38375231365555,438.4031461152724,173.7674660120846,430.6843203454648C157.34936258461266,425.5361644345853,142.94891979671107,434.14412302336007,130.318164652568,425.45532787842143C111.89359680938449,412.780923712042,104.19845831857573,361.9542393445425,86.86886329305136,343.09378144392736C73.97216401596219,329.0578127202397,57.43543069599454,326.180817388521,43.44930135951662,315.2638346354167C28.40246461173498,303.518908407981,0,274.3333333333333,0,274.3333333333333Z"><title>Sub-Saharan Africa</title></path><path fill="rgb(168, 22, 4)" d="M0,274.3333333333333C0,274.3333333333333,27.653135731905895,310.6955384207461,43.44930135951662,321.83050130208335C56.9616613580367,331.3555740678306,74.17500667387183,328.2903814673491,86.86886329305136,340.09378144392736C104.97011485812368,356.9252550227602,111.69200083342184,412.440711740765,130.318164652568,425.45532787842143C142.90832369680683,434.25242043402227,157.34936258461266,425.5361644345853,173.7674660120846,430.6843203454648C198.38375231365555,438.4031461152724,238.70083739947617,483.15115571581237,260.66606873111783,476.8053334425372C281.36798601501846,470.8244864477489,286.4124179926467,415.3663210424785,304.1153700906344,400.98385908356283C316.91520323120665,390.58485262374916,333.01674509599894,391.1097869647352,347.5646714501511,386.8681313840324C361.98408624478395,382.6639451828377,376.6891147148575,374.6576345352562,391.0139728096677,375.6218712214307C405.66254845189536,376.6078980246949,415.6717440285419,388.5941510651759,434.4632741691843,393.3651759833354C465.87438346729954,401.3402149528451,533.0516087345493,408.6378808848765,564.8111782477341,407.7058803240398C583.2229627074388,407.16557723727004,593.7291488449423,401.22619088151976,608.2604796072508,400.3256684755209C622.6959837617538,399.4310845488554,637.2360578106897,402.5494740299032,651.7097809667674,402.2590583060293C666.2022830659822,401.9682657820533,680.8476562391951,396.8809946071359,695.159082326284,398.5747612538752C709.8224033302662,400.3101748944055,723.9326243913778,410.80132332087015,738.6083836858006,412.98296257400716C752.9085601853752,415.10876920195557,767.7848018939986,409.60351943568764,782.0576850453172,411.8944239383783C796.7639630878266,414.25489156276944,810.8627958128054,423.4923562988964,825.5069864048338,427.42790495103657C839.8358591994629,431.2787136153466,854.6484013444159,436.690268536656,868.9562877643503,435.41225999573646C883.623513693434,434.10215454348383,900.0415019319782,413.48553440059015,912.4055891238671,419.0624762898965C932.467863141687,428.11176028702977,937.9246773218266,529.5112775209612,955.8548904833838,533.3086323328482C968.5970921370513,536.0072427914974,984.9676901978746,489.1777348714798,999.3041918429003,489.4599583354356C1013.9400777800209,489.74807537608535,1028.1881432812497,521.3323625169694,1042.7534932024168,536.9058602155766C1057.1561711221539,552.3054264910725,1070.4328920249488,572.0246587561354,1086.2027945619334,582.3952631203641C1099.737955580809,591.2962566175459,1114.9381462129304,596.4102586078205,1129.6520959214502,598.5068057175519C1143.918186305272,600.5395386787123,1159.0097203945859,592.4968039370536,1173.101397280967,595.3719166618295C1188.0234086157404,598.4164418105233,1201.8859469071049,616.8882821608481,1216.5506986404835,617.6924643275167C1230.8608269807694,618.4771997409231,1260,601.0898593575082,1260,601.0898593575082L1260,613.8398593575081C1260,613.8398593575081,1230.7525302481927,627.6368683632764,1216.5506986404835,626.1924643275166C1201.7626290552794,624.6884366795358,1188.0415732406616,606.9309087626443,1173.101397280967,603.5885833284962C1159.02409969142,600.4392958030647,1143.8518760376312,607.8953840359517,1129.6520959214502,605.3068057175518C1114.861612907039,602.6105439912072,1099.7507009768628,596.4052970978709,1086.2027945619334,586.9285964536974C1070.4563475360223,575.9140263715294,1057.0995310848232,556.2458284269122,1042.7534932024168,540.3058602155767C1028.1279370911495,524.0553176338783,1014.0389968827025,490.76798203896044,999.3041918429003,490.30995833543557C985.0564312858219,489.8670741547719,968.5918556476609,537.134382963149,955.8548904833838,534.4419656661817C937.9031518461131,530.647217781247,932.5039105992583,428.3721520000335,912.4055891238671,419.3458096232298C900.0460027762518,413.7950048883247,883.6443605486606,434.48399486017024,868.9562877643503,435.97892666240307C854.6671758552426,437.43325277667776,839.838535708419,432.46194059161013,825.5069864048338,428.8445716177032C810.8657135833521,425.14902657082644,796.7476330000793,416.0992241408715,782.0576850453172,413.87775727171163C767.77025186411,411.71716013718606,752.9476357655534,417.0731593158533,738.6083836858006,415.24962924067387C723.9754828878334,413.38875570669865,709.7841903952382,404.10429745863206,695.159082326284,402.5414279205419C680.8126296369632,401.00833607724894,666.1986017742802,405.4622716580827,651.7097809667674,405.6590583060294C637.2323918447729,405.85568968923064,622.6920696730858,402.7854575577957,608.2604796072508,403.7256684755208C593.7251253770668,404.67263957696406,583.2125471709618,411.0078220018157,564.8111782477341,411.38921365737315C533.0413563127862,412.04768341769824,465.8651203113536,402.48685188074415,434.4632741691843,393.9318426500021C415.66090711625844,388.80939147406406,405.68005999773015,376.6910704803974,391.0139728096677,375.6218712214307C376.70505491532515,374.5787106147149,361.98408624478395,382.6639451828378,347.5646714501511,386.8681313840324C333.01674509599894,391.1097869647351,316.91520323120665,390.58485262374916,304.1153700906344,400.98385908356283C286.4124179926467,415.3663210424785,281.36798601501846,470.824486447749,260.66606873111783,476.8053334425372C238.70083739947614,483.1511557158124,198.38375231365555,438.4031461152724,173.7674660120846,430.6843203454648C157.34936258461266,425.5361644345853,142.90832369680683,434.2524204340223,130.318164652568,425.45532787842143C111.69200083342184,412.440711740765,104.97011485812367,356.92525502276015,86.86886329305136,340.09378144392736C74.17500667387182,328.2903814673491,56.9616613580367,331.3555740678307,43.44930135951662,321.83050130208335C27.653135731905895,310.69553842074606,0,274.3333333333333,0,274.3333333333333Z"><title>Western Asia</title></path><path fill="rgb(144, 12, 0)" d="M0,216.95000000000002C0,216.95000000000002,27.816325202483927,166.80883914295833,43.44930135951662,164.3805013020833C57.05190297971656,162.2675503248108,71.71556679099342,188.30502702310935,86.86886329305136,192.32711477726065C100.77887803266313,196.0192024980188,115.97388193059238,192.45255457947542,130.318164652568,190.02199454508818C144.94561773437803,187.54345284630708,158.10863802023118,186.63859518024967,173.7674660120846,177.40098701213145C199.5469903717734,162.19287916912066,237.1431538747195,89.78660351566569,260.66606873111783,90.87200010920388C278.15965501154733,91.67919084527799,288.7283453578408,128.3664704275486,304.1153700906344,142.95052575022953C317.87557951438896,155.9926608590405,332.4426846602398,167.33186075572905,347.5646714501511,175.41813138403236C361.5048439673418,182.8724433831967,377.63029220280436,194.3480747085981,391.0139728096677,190.80520455476403C407.0816743825345,186.5518319575406,413.4246645975285,146.79538858066581,434.4632741691843,140.5485093166688C464.52665904565026,131.62195288475644,533.2455543415318,166.93359413416613,564.8111782477341,178.12254699070644C583.4278628381027,184.72153603162272,593.6878918835065,190.8886043777101,608.2604796072508,196.5256684755209C622.6562511985901,202.09433539564515,637.0153825162622,208.87610252459137,651.7097809667674,211.77572497269603C665.9932364698674,214.59425669774726,680.7529049854585,215.2020525197644,695.159082326284,214.04142792054182C709.72077563971,212.8682742749871,724.0419317451901,206.2944972275491,738.6083836858006,204.64962924067385C753.0100083137572,203.02337382816134,767.8024197636064,206.787300741275,782.0576850453172,204.1277572717117C796.7839240644988,201.38034625965986,810.7807407800012,190.6742253765646,825.5069864048338,187.92790495103654C839.762245886467,185.26941946308608,855.1254221866025,183.14419024355328,868.9562877643503,187.41225999573643C884.2353632580272,192.12723315409056,899.6112378044671,221.2102592857291,912.4055891238671,217.8124762898965C930.1294303994893,213.10557361044377,938.2696494049233,130.18299530263693,955.8548904833838,125.79196566618162C968.6863460503221,122.587954903867,984.1150789241219,155.46207272052638,999.3041918429003,158.1599583354356C1013.1966735654751,160.62753671181247,1028.2963550910265,149.73293919748605,1042.7534932024168,145.25586021557663C1057.2627435023765,140.76264315832006,1071.5382640923842,133.803378825719,1086.2027945619334,131.2452631203641C1100.5131235362517,128.7489351694614,1115.16696584186,130.03566409394008,1129.6520959214502,129.79013905088522C1144.1331678852746,129.54468279347756,1158.7600460760873,131.80149962181804,1173.101397280967,129.77191666182952C1187.732023005697,127.70139567390626,1201.9200855652266,119.29027048532046,1216.5506986404835,117.2424643275167C1230.8920615236493,115.23514371337836,1260,117.3565260241748,1260,117.3565260241748L1260,188.75652602417486C1260,188.75652602417486,1230.6066089127053,186.53814851026058,1216.5506986404835,190.34246432751672C1201.58320088844,194.39350672463385,1188.0674377681382,210.23712028218026,1173.101397280967,213.63858332849617C1159.044353500746,216.83345073513257,1144.1196572331853,212.74807597834342,1129.6520959214502,211.6734723842185C1115.1533893505875,210.5965554211244,1100.2975143572387,204.50494055671618,1086.2027945619334,207.17859645369742C1071.2846063504069,210.00845773957496,1056.8424305874269,220.69744689385013,1042.7534932024168,229.68919354890994C1027.8280337469403,239.2148196814248,1012.9787968568758,265.0078439565036,999.3041918429003,263.2766250021023C983.7789552764651,261.31111420395445,969.1557517307315,205.80904646796583,955.8548904833838,207.39196566618162C939.607795311961,209.32551255339635,930.7597968318265,297.73829273050944,912.4055891238671,303.66247628989646C899.7600394318099,307.7440775650424,883.8904946019625,284.50617825340254,868.9562877643503,278.64559332906975C854.874279181181,273.11943394851284,839.7829999682658,273.33734491264937,825.5069864048338,268.67790495103657C810.8042335189492,263.8791847734592,796.3167596445677,257.2435198645795,782.0576850453172,250.02775727171166C767.3357795398031,242.57778046550231,753.6679993520888,228.8388971754318,738.6083836858006,224.48296257400716C724.6225182285636,220.43760599744968,709.6439174893101,223.28981194602838,695.159082326284,223.10809458720848C680.6777157522658,222.92642074305937,666.039205507799,221.2338675358506,651.7097809667674,223.3923916393627C637.0661922246545,225.59824011368624,622.7450380766728,236.46596180805375,608.2604796072508,236.47566847552088C593.7788365834497,236.4853731892342,583.2744357000879,224.04586290012764,564.8111782477341,223.45588032403975C533.1017029705486,222.44262261701223,465.07001736364754,260.9374335683943,434.4632741691843,253.5985093166688C414.53652172985323,248.8204469855682,406.23899293101226,219.48948851819083,391.0139728096677,217.155204554764C377.14639281610255,215.02904187435252,361.98843809234484,235.4737375962338,347.5646714501511,235.2014647173657C333.0212486642478,234.92693312733502,318.8805116270571,220.06013727672214,304.1153700906344,215.2005257502295C289.89392207298926,210.5198586168003,277.7150640733286,207.09076883933454,260.66606873111783,206.18866677587053C236.7493305943081,204.92317644101627,197.7715742846507,212.62983232001662,173.7674660120846,214.80098701213143C156.80716777259815,216.33503404625563,144.4369428015346,221.0544410928668,130.318164652568,218.35532787842146C115.42995068120608,215.50912017931307,100.27085975098292,193.90849810469024,86.86886329305136,196.86044811059404C70.8514395034478,200.3884772664517,59.574105172111445,246.86332631529112,43.44930135951662,250.79716796875C30.098441695489736,254.05427227006322,0,231.68333333333328,0,231.68333333333328Z"><title>Western Europe</title></path></g><g id="xAxis" transform="translate(0,680)" fill="none" font-size="10" font-family="sans-serif" text-anchor="middle"><path class="domain" stroke="currentColor" d="M0.5,0.5H1260.5"/><g class="tick" opacity="1" transform="translate(43.94930135951662,0)"><line stroke="currentColor" y2="6"/><text fill="currentColor" y="9" dy="0.71em">1900</text></g><g class="tick" opacity="1" transform="translate(152.5576850453172,0)"><line stroke="currentColor" y2="6"/><text fill="currentColor" y="9" dy="0.71em">1910</text></g><g class="tick" opacity="1" transform="translate(261.16606873111783,0)"><line stroke="currentColor" y2="6"/><text fill="currentColor" y="9" dy="0.71em">1920</text></g><g class="tick" opacity="1" transform="translate(369.8041918429003,0)"><line stroke="currentColor" y2="6"/><text fill="currentColor" y="9" dy="0.71em">1930</text></g><g class="tick" opacity="1" transform="translate(478.4125755287009,0)"><line stroke="currentColor" y2="6"/><text fill="currentColor" y="9" dy="0.71em">1940</text></g><g class="tick" opacity="1" transform="translate(587.0506986404835,0)"><line stroke="currentColor" y2="6"/><text fill="currentColor" y="9" dy="0.71em">1950</text></g><g class="tick" opacity="1" transform="translate(695.659082326284,0)"><line stroke="currentColor" y2="6"/><text fill="currentColor" y="9" dy="0.71em">1960</text></g><g class="tick" opacity="1" transform="translate(804.2972054380665,0)"><line stroke="currentColor" y2="6"/><text fill="currentColor" y="9" dy="0.71em">1970</text></g><g class="tick" opacity="1" transform="translate(912.9055891238671,0)"><line stroke="currentColor" y2="6"/><text fill="currentColor" y="9" dy="0.71em">1980</text></g><g class="tick" opacity="1" transform="translate(1021.5437122356497,0)"><line stroke="currentColor" y2="6"/><text fill="currentColor" y="9" dy="0.71em">1990</text></g><g class="tick" opacity="1" transform="translate(1130.1520959214502,0)"><line stroke="currentColor" y2="6"/><text fill="currentColor" y="9" dy="0.71em">2000</text></g><g class="tick" opacity="1" transform="translate(1238.7902190332325,0)"><line stroke="currentColor" y2="6"/><text fill="currentColor" y="9" dy="0.71em">2010</text></g></g><text y="676" x="1260" text-anchor="end" style="font-family: Arial, sans-serif; font-size: 12px; fill: rgb(123, 123, 123); font-weight: bold;">Year</text><text x="4" text-anchor="start" dominant-baseline="hanging" style="font-family: Arial, sans-serif; font-size: 12px; fill: rgb(123, 123, 123); font-weight: bold;">Medal</text></g><text x="4" y="4" style="font-family: Arial, sans-serif; font-size: 12px; fill: black; font-weight: bold; dominant-baseline: hanging;"/></g></g><g id="legend" transform="translate(1280,20)"><g transform="translate(5,0)"><g class="legendColor" transform="translate(0,0)"><g class="legendCells" transform="translate(0,15.5)"><g class="cell" transform="translate(0, 0)"><rect class="swatch" height="15" width="15" style="fill: rgb(35, 23, 27);"/><text class="label" transform="translate( 20, 12.5)" font-family="&quot;Arial&quot;, sans-serif" font-size="10px"><tspan x="0" dy="0em">Australasia</tspan></text></g><g class="cell" transform="translate(0, 20.5)"><rect class="swatch" height="15" width="15" style="fill: rgb(74, 68, 188);"/><text class="label" transform="translate( 20, 12.5)" font-family="&quot;Arial&quot;, sans-serif" font-size="10px"><tspan x="0" dy="0em">Central Asia</tspan></text></g><g class="cell" transform="translate(0, 41)"><rect class="swatch" height="15" width="15" style="fill: rgb(64, 118, 245);"/><text class="label" transform="translate( 20, 12.5)" font-family="&quot;Arial&quot;, sans-serif" font-size="10px"><tspan x="0" dy="0em">East Asia</tspan></text></g><g class="cell" transform="translate(0, 61.5)"><rect class="swatch" height="15" width="15" style="fill: rgb(44, 166, 241);"/><text class="label" transform="translate( 20, 12.5)" font-family="&quot;Arial&quot;, sans-serif" font-size="10px"><tspan x="0" dy="0em">Eastern Europe</tspan></text></g><g class="cell" transform="translate(0, 82)"><rect class="swatch" height="15" width="15" style="fill: rgb(38, 208, 205);"/><text class="label" transform="translate( 20, 12.5)" font-family="&quot;Arial&quot;, sans-serif" font-size="10px"><tspan x="0" dy="0em">Latin America and the</tspan><tspan x="0" dy="1.2em">Caribbean</tspan></text></g><g class="cell" transform="translate(0, 118.109375)"><rect class="swatch" height="15" width="15" style="fill: rgb(55, 237, 159);"/><text class="label" transform="translate( 20, 12.5)" font-family="&quot;Arial&quot;, sans-serif" font-size="10px"><tspan x="0" dy="0em">North Africa</tspan></text></g><g class="cell" transform="translate(0, 138.609375)"><rect class="swatch" height="15" width="15" style="fill: rgb(95, 252, 115);"/><text class="label" transform="translate( 20, 12.5)" font-family="&quot;Arial&quot;, sans-serif" font-size="10px"><tspan x="0" dy="0em">Northern America</tspan></text></g><g class="cell" transform="translate(0, 159.109375)"><rect class="swatch" height="15" width="15" style="fill: rgb(149, 251, 81);"/><text class="label" transform="translate( 20, 12.5)" font-family="&quot;Arial&quot;, sans-serif" font-size="10px"><tspan x="0" dy="0em">Northern Europe</tspan></text></g><g class="cell" transform="translate(0, 179.609375)"><rect class="swatch" height="15" width="15" style="fill: rgb(203, 232, 57);"/><text class="label" transform="translate( 20, 12.5)" font-family="&quot;Arial&quot;, sans-serif" font-size="10px"><tspan x="0" dy="0em">Polynesia</tspan></text></g><g class="cell" transform="translate(0, 200.109375)"><rect class="swatch" height="15" width="15" style="fill: rgb(245, 199, 43);"/><text class="label" transform="translate( 20, 12.5)" font-family="&quot;Arial&quot;, sans-serif" font-size="10px"><tspan x="0" dy="0em">South Asia</tspan></text></g><g class="cell" transform="translate(0, 220.609375)"><rect class="swatch" height="15" width="15" style="fill: rgb(255, 155, 33);"/><text class="label" transform="translate( 20, 12.5)" font-family="&quot;Arial&quot;, sans-serif" font-size="10px"><tspan x="0" dy="0em">Southeast Asia</tspan></text></g><g class="cell" transform="translate(0, 241.109375)"><rect class="swatch" height="15" width="15" style="fill: rgb(251, 105, 25);"/><text class="label" transform="translate( 20, 12.5)" font-family="&quot;Arial&quot;, sans-serif" font-size="10px"><tspan x="0" dy="0em">Southern Europe</tspan></text></g><g class="cell" transform="translate(0, 261.609375)"><rect class="swatch" height="15" width="15" style="fill: rgb(214, 57, 15);"/><text class="label" transform="translate( 20, 12.5)" font-family="&quot;Arial&quot;, sans-serif" font-size="10px"><tspan x="0" dy="0em">Sub-Saharan Africa</tspan></text></g><g class="cell" transform="translate(0, 282.109375)"><rect class="swatch" height="15" width="15" style="fill: rgb(168, 22, 4);"/><text class="label" transform="translate( 20, 12.5)" font-family="&quot;Arial&quot;, sans-serif" font-size="10px"><tspan x="0" dy="0em">Western Asia</tspan></text></g><g class="cell" transform="translate(0, 302.609375)"><rect class="swatch" height="15" width="15" style="fill: rgb(144, 12, 0);"/><text class="label" transform="translate( 20, 12.5)" font-family="&quot;Arial&quot;, sans-serif" font-size="10px"><tspan x="0" dy="0em">Western Europe</tspan></text></g></g><text class="legendTitle" font-family="&quot;Arial&quot;, sans-serif" font-size="12px" font-weight="bold"><tspan x="0" dy="0em">Colors</tspan></text></g></g></g></svg>