<svg xmlns="http://www.w3.org/2000/svg" width="1480" height="720"><rect width="1480" height="720" x="0" y="0" fill="#FFFFFF" id="background"/><g transform="translate(150,50)" id="visualization"><g id="axis"><g transform="translate(0,620)" fill="none" font-size="10" font-family="sans-serif" text-anchor="middle"><path class="domain" stroke="currentColor" d="M0.5,6V0.5H1080.5V6"/><g class="tick" opacity="1" transform="translate(0.5,0)"><line stroke="currentColor" y2="6"/><text fill="currentColor" y="9" dy="0.71em">1940</text></g><g class="tick" opacity="1" transform="translate(120.5,0)"><line stroke="currentColor" y2="6"/><text fill="currentColor" y="9" dy="0.71em">1950</text></g><g class="tick" opacity="1" transform="translate(240.5,0)"><line stroke="currentColor" y2="6"/><text fill="currentColor" y="9" dy="0.71em">1960</text></g><g class="tick" opacity="1" transform="translate(360.5,0)"><line stroke="currentColor" y2="6"/><text fill="currentColor" y="9" dy="0.71em">1970</text></g><g class="tick" opacity="1" transform="translate(480.5,0)"><line stroke="currentColor" y2="6"/><text fill="currentColor" y="9" dy="0.71em">1980</text></g><g class="tick" opacity="1" transform="translate(600.5,0)"><line stroke="currentColor" y2="6"/><text fill="currentColor" y="9" dy="0.71em">1990</text></g><g class="tick" opacity="1" transform="translate(720.5,0)"><line stroke="currentColor" y2="6"/><text fill="currentColor" y="9" dy="0.71em">2000</text></g><g class="tick" opacity="1" transform="translate(840.5,0)"><line stroke="currentColor" y2="6"/><text fill="currentColor" y="9" dy="0.71em">2010</text></g><g class="tick" opacity="1" transform="translate(960.5,0)"><line stroke="currentColor" y2="6"/><text fill="currentColor" y="9" dy="0.71em">2020</text></g><g class="tick" opacity="1" transform="translate(1080.5,0)"><line stroke="currentColor" y2="6"/><text fill="currentColor" y="9" dy="0.71em">2030</text></g></g></g><g id="viz"><g id="Alcide De Gasperi" transform="translate(0,0)"><text x="74" y="8.61111111111111" text-anchor="end" dominant-baseline="middle" style="font-family: Arial, sans-serif; font-size: 10px; fill: black; font-weight: normal;">Alcide De Gasperi</text><rect x="78" y="0" width="7" height="17.22222222222222" fill="rgb(94, 79, 162)"/><rect x="85" y="0" width="4" height="17.22222222222222" fill="rgb(94, 79, 162)"/><rect x="89" y="0" width="12" height="17.22222222222222" fill="rgb(94, 79, 162)"/><rect x="101" y="0" width="20" height="17.22222222222222" fill="rgb(94, 79, 162)"/><rect x="121" y="0" width="18" height="17.22222222222222" fill="rgb(94, 79, 162)"/><rect x="139" y="0" width="23" height="17.22222222222222" fill="rgb(94, 79, 162)"/><rect x="162" y="0" width="2" height="17.22222222222222" fill="rgb(94, 79, 162)"/><line x1="0" y1="0" x2="1080" y2="0" style="stroke: rgb(204, 204, 204);"/></g><g id="Giuseppe Pella" transform="translate(0,17.22222222222222)"><text x="160" y="8.61111111111111" text-anchor="end" dominant-baseline="middle" style="font-family: Arial, sans-serif; font-size: 10px; fill: black; font-weight: normal;">Giuseppe Pella</text><rect x="164" y="0" width="5" height="17.22222222222222" fill="rgb(94, 79, 162)"/><line x1="0" y1="0" x2="1080" y2="0" style="stroke: rgb(204, 204, 204);"/></g><g id="Amintore Fanfani" transform="translate(0,34.44444444444444)"><text x="165" y="8.61111111111111" text-anchor="end" dominant-baseline="middle" style="font-family: Arial, sans-serif; font-size: 10px; fill: black; font-weight: normal;">Amintore Fanfani</text><rect x="169" y="0" width="1" height="17.22222222222222" fill="rgb(94, 79, 162)"/><rect x="222" y="0" width="7" height="17.22222222222222" fill="rgb(94, 79, 162)"/><rect x="247" y="0" width="19" height="17.22222222222222" fill="rgb(94, 79, 162)"/><rect x="266" y="0" width="16" height="17.22222222222222" fill="rgb(94, 79, 162)"/><rect x="515" y="0" width="8" height="17.22222222222222" fill="rgb(94, 79, 162)"/><rect x="567" y="0" width="4" height="17.22222222222222" fill="rgb(94, 79, 162)"/><line x1="0" y1="0" x2="1080" y2="0" style="stroke: rgb(204, 204, 204);"/></g><g id="Mario Scelba" transform="translate(0,51.666666666666664)"><text x="165" y="8.61111111111111" text-anchor="end" dominant-baseline="middle" style="font-family: Arial, sans-serif; font-size: 10px; fill: black; font-weight: normal;">Mario Scelba</text><rect x="169" y="0" width="17" height="17.22222222222222" fill="rgb(94, 79, 162)"/><line x1="0" y1="0" x2="1080" y2="0" style="stroke: rgb(204, 204, 204);"/></g><g id="Antonio Segni" transform="translate(0,68.88888888888889)"><text x="182" y="8.61111111111111" text-anchor="end" dominant-baseline="middle" style="font-family: Arial, sans-serif; font-size: 10px; fill: black; font-weight: normal;">Antonio Segni</text><rect x="186" y="0" width="23" height="17.22222222222222" fill="rgb(94, 79, 162)"/><rect x="229" y="0" width="14" height="17.22222222222222" fill="rgb(94, 79, 162)"/><rect x="268" y="0" width="31" height="17.22222222222222" fill="rgb(158, 1, 66)"/><line x1="0" y1="0" x2="1080" y2="0" style="stroke: rgb(204, 204, 204);"/></g><g id="Adone Zoli" transform="translate(0,86.11111111111111)"><text x="205" y="8.61111111111111" text-anchor="end" dominant-baseline="middle" style="font-family: Arial, sans-serif; font-size: 10px; fill: black; font-weight: normal;">Adone Zoli</text><rect x="209" y="0" width="13" height="17.22222222222222" fill="rgb(94, 79, 162)"/><line x1="0" y1="0" x2="1080" y2="0" style="stroke: rgb(204, 204, 204);"/></g><g id="Fernando Tambroni" transform="translate(0,103.33333333333333)"><text x="239" y="8.61111111111111" text-anchor="end" dominant-baseline="middle" style="font-family: Arial, sans-serif; font-size: 10px; fill: black; font-weight: normal;">Fernando Tambroni</text><rect x="243" y="0" width="4" height="17.22222222222222" fill="rgb(94, 79, 162)"/><line x1="0" y1="0" x2="1080" y2="0" style="stroke: rgb(204, 204, 204);"/></g><g id="Giovanni Leone" transform="translate(0,120.55555555555554)"><text x="278" y="8.61111111111111" text-anchor="end" dominant-baseline="middle" style="font-family: Arial, sans-serif; font-size: 10px; fill: black; font-weight: normal;">Giovanni Leone</text><rect x="282" y="0" width="5" height="17.22222222222222" fill="rgb(94, 79, 162)"/><rect x="342" y="0" width="5" height="17.22222222222222" fill="rgb(94, 79, 162)"/><rect x="384" y="0" width="77" height="17.22222222222222" fill="rgb(158, 1, 66)"/><line x1="0" y1="0" x2="1080" y2="0" style="stroke: rgb(204, 204, 204);"/></g><g id="Aldo Moro" transform="translate(0,137.77777777777777)"><text x="283" y="8.61111111111111" text-anchor="end" dominant-baseline="middle" style="font-family: Arial, sans-serif; font-size: 10px; fill: black; font-weight: normal;">Aldo Moro</text><rect x="287" y="0" width="8" height="17.22222222222222" fill="rgb(94, 79, 162)"/><rect x="295" y="0" width="19" height="17.22222222222222" fill="rgb(94, 79, 162)"/><rect x="314" y="0" width="28" height="17.22222222222222" fill="rgb(94, 79, 162)"/><rect x="419" y="0" width="14" height="17.22222222222222" fill="rgb(94, 79, 162)"/><rect x="433" y="0" width="6" height="17.22222222222222" fill="rgb(94, 79, 162)"/><line x1="0" y1="0" x2="1080" y2="0" style="stroke: rgb(204, 204, 204);"/></g><g id="Mariano Rumor" transform="translate(0,155)"><text x="343" y="8.61111111111111" text-anchor="end" dominant-baseline="middle" style="font-family: Arial, sans-serif; font-size: 10px; fill: black; font-weight: normal;">Mariano Rumor</text><rect x="347" y="0" width="8" height="17.22222222222222" fill="rgb(94, 79, 162)"/><rect x="355" y="0" width="8" height="17.22222222222222" fill="rgb(94, 79, 162)"/><rect x="363" y="0" width="4" height="17.22222222222222" fill="rgb(94, 79, 162)"/><rect x="402" y="0" width="8" height="17.22222222222222" fill="rgb(94, 79, 162)"/><rect x="410" y="0" width="9" height="17.22222222222222" fill="rgb(94, 79, 162)"/><line x1="0" y1="0" x2="1080" y2="0" style="stroke: rgb(204, 204, 204);"/></g><g id="Emilio Colombo" transform="translate(0,172.22222222222223)"><text x="363" y="8.61111111111111" text-anchor="end" dominant-baseline="middle" style="font-family: Arial, sans-serif; font-size: 10px; fill: black; font-weight: normal;">Emilio Colombo</text><rect x="367" y="0" width="19" height="17.22222222222222" fill="rgb(94, 79, 162)"/><line x1="0" y1="0" x2="1080" y2="0" style="stroke: rgb(204, 204, 204);"/></g><g id="Giulio Andreotti" transform="translate(0,189.44444444444443)"><text x="382" y="8.61111111111111" text-anchor="end" dominant-baseline="middle" style="font-family: Arial, sans-serif; font-size: 10px; fill: black; font-weight: normal;">Giulio Andreotti</text><rect x="386" y="0" width="16" height="17.22222222222222" fill="rgb(94, 79, 162)"/><rect x="402" y="0" width="1" height="17.22222222222222" fill="rgb(94, 79, 162)"/><rect x="439" y="0" width="19" height="17.22222222222222" fill="rgb(94, 79, 162)"/><rect x="458" y="0" width="13" height="17.22222222222222" fill="rgb(94, 79, 162)"/><rect x="471" y="0" width="4" height="17.22222222222222" fill="rgb(94, 79, 162)"/><rect x="595" y="0" width="20" height="17.22222222222222" fill="rgb(94, 79, 162)"/><rect x="615" y="0" width="15" height="17.22222222222222" fill="rgb(94, 79, 162)"/><line x1="0" y1="0" x2="1080" y2="0" style="stroke: rgb(204, 204, 204);"/></g><g id="Francesco Cossiga" transform="translate(0,206.66666666666666)"><text x="471" y="8.61111111111111" text-anchor="end" dominant-baseline="middle" style="font-family: Arial, sans-serif; font-size: 10px; fill: black; font-weight: normal;">Francesco Cossiga</text><rect x="475" y="0" width="8" height="17.22222222222222" fill="rgb(94, 79, 162)"/><rect x="483" y="0" width="7" height="17.22222222222222" fill="rgb(94, 79, 162)"/><rect x="546" y="0" width="82" height="17.22222222222222" fill="rgb(158, 1, 66)"/><line x1="0" y1="0" x2="1080" y2="0" style="stroke: rgb(204, 204, 204);"/></g><g id="Arnaldo Forlani" transform="translate(0,223.88888888888889)"><text x="486" y="8.61111111111111" text-anchor="end" dominant-baseline="middle" style="font-family: Arial, sans-serif; font-size: 10px; fill: black; font-weight: normal;">Arnaldo Forlani</text><rect x="490" y="0" width="8" height="17.22222222222222" fill="rgb(94, 79, 162)"/><line x1="0" y1="0" x2="1080" y2="0" style="stroke: rgb(204, 204, 204);"/></g><g id="Giovanni Spadolini" transform="translate(0,241.1111111111111)"><text x="494" y="8.61111111111111" text-anchor="end" dominant-baseline="middle" style="font-family: Arial, sans-serif; font-size: 10px; fill: black; font-weight: normal;">Giovanni Spadolini</text><rect x="498" y="0" width="14" height="17.22222222222222" fill="rgb(94, 79, 162)"/><rect x="512" y="0" width="3" height="17.22222222222222" fill="rgb(94, 79, 162)"/><line x1="0" y1="0" x2="1080" y2="0" style="stroke: rgb(204, 204, 204);"/></g><g id="Bettino Craxi" transform="translate(0,258.3333333333333)"><text x="519" y="8.61111111111111" text-anchor="end" dominant-baseline="middle" style="font-family: Arial, sans-serif; font-size: 10px; fill: black; font-weight: normal;">Bettino Craxi</text><rect x="523" y="0" width="36" height="17.22222222222222" fill="rgb(94, 79, 162)"/><rect x="559" y="0" width="8" height="17.22222222222222" fill="rgb(94, 79, 162)"/><line x1="0" y1="0" x2="1080" y2="0" style="stroke: rgb(204, 204, 204);"/></g><g id="Giovanni Goria" transform="translate(0,275.55555555555554)"><text x="567" y="8.61111111111111" text-anchor="end" dominant-baseline="middle" style="font-family: Arial, sans-serif; font-size: 10px; fill: black; font-weight: normal;">Giovanni Goria</text><rect x="571" y="0" width="8" height="17.22222222222222" fill="rgb(94, 79, 162)"/><line x1="0" y1="0" x2="1080" y2="0" style="stroke: rgb(204, 204, 204);"/></g><g id="Ciriaco De Mita" transform="translate(0,292.77777777777777)"><text x="575" y="8.61111111111111" text-anchor="end" dominant-baseline="middle" style="font-family: Arial, sans-serif; font-size: 10px; fill: black; font-weight: normal;">Ciriaco De Mita</text><rect x="579" y="0" width="16" height="17.22222222222222" fill="rgb(94, 79, 162)"/><line x1="0" y1="0" x2="1080" y2="0" style="stroke: rgb(204, 204, 204);"/></g><g id="Giuliano Amato" transform="translate(0,310)"><text x="626" y="8.61111111111111" text-anchor="end" dominant-baseline="middle" style="font-family: Arial, sans-serif; font-size: 10px; fill: black; font-weight: normal;">Giuliano Amato</text><rect x="630" y="0" width="10" height="17.22222222222222" fill="rgb(94, 79, 162)"/><rect x="724" y="0" width="13" height="17.22222222222222" fill="rgb(94, 79, 162)"/><line x1="0" y1="0" x2="1080" y2="0" style="stroke: rgb(204, 204, 204);"/></g><g id="Carlo Azeglio Ciampi" transform="translate(0,327.22222222222223)"><text x="636" y="8.61111111111111" text-anchor="end" dominant-baseline="middle" style="font-family: Arial, sans-serif; font-size: 10px; fill: black; font-weight: normal;">Carlo Azeglio Ciampi</text><rect x="640" y="0" width="12" height="17.22222222222222" fill="rgb(94, 79, 162)"/><rect x="712" y="0" width="84" height="17.22222222222222" fill="rgb(158, 1, 66)"/><line x1="0" y1="0" x2="1080" y2="0" style="stroke: rgb(204, 204, 204);"/></g><g id="Silvio Berlusconi" transform="translate(0,344.44444444444446)"><text x="648" y="8.61111111111111" text-anchor="end" dominant-baseline="middle" style="font-family: Arial, sans-serif; font-size: 10px; fill: black; font-weight: normal;">Silvio Berlusconi</text><rect x="652" y="0" width="9" height="17.22222222222222" fill="rgb(94, 79, 162)"/><rect x="737" y="0" width="47" height="17.22222222222222" fill="rgb(94, 79, 162)"/><rect x="784" y="0" width="12" height="17.22222222222222" fill="rgb(94, 79, 162)"/><rect x="820" y="0" width="42" height="17.22222222222222" fill="rgb(94, 79, 162)"/><line x1="0" y1="0" x2="1080" y2="0" style="stroke: rgb(204, 204, 204);"/></g><g id="Lamberto Dini" transform="translate(0,361.66666666666663)"><text x="657" y="8.61111111111111" text-anchor="end" dominant-baseline="middle" style="font-family: Arial, sans-serif; font-size: 10px; fill: black; font-weight: normal;">Lamberto Dini</text><rect x="661" y="0" width="16" height="17.22222222222222" fill="rgb(94, 79, 162)"/><line x1="0" y1="0" x2="1080" y2="0" style="stroke: rgb(204, 204, 204);"/></g><g id="Romano Prodi" transform="translate(0,378.88888888888886)"><text x="673" y="8.61111111111111" text-anchor="end" dominant-baseline="middle" style="font-family: Arial, sans-serif; font-size: 10px; fill: black; font-weight: normal;">Romano Prodi</text><rect x="677" y="0" width="29" height="17.22222222222222" fill="rgb(94, 79, 162)"/><rect x="796" y="0" width="24" height="17.22222222222222" fill="rgb(94, 79, 162)"/><line x1="0" y1="0" x2="1080" y2="0" style="stroke: rgb(204, 204, 204);"/></g><g id="Massimo D'Alema" transform="translate(0,396.1111111111111)"><text x="702" y="8.61111111111111" text-anchor="end" dominant-baseline="middle" style="font-family: Arial, sans-serif; font-size: 10px; fill: black; font-weight: normal;">Massimo D'Alema</text><rect x="706" y="0" width="14" height="17.22222222222222" fill="rgb(94, 79, 162)"/><rect x="720" y="0" width="4" height="17.22222222222222" fill="rgb(94, 79, 162)"/><line x1="0" y1="0" x2="1080" y2="0" style="stroke: rgb(204, 204, 204);"/></g><g id="Mario Monti" transform="translate(0,413.3333333333333)"><text x="858" y="8.61111111111111" text-anchor="end" dominant-baseline="middle" style="font-family: Arial, sans-serif; font-size: 10px; fill: black; font-weight: normal;">Mario Monti</text><rect x="862" y="0" width="18" height="17.22222222222222" fill="rgb(94, 79, 162)"/><line x1="0" y1="0" x2="1080" y2="0" style="stroke: rgb(204, 204, 204);"/></g><g id="Enrico Letta" transform="translate(0,430.55555555555554)"><text x="876" y="8.61111111111111" text-anchor="end" dominant-baseline="middle" style="font-family: Arial, sans-serif; font-size: 10px; fill: black; font-weight: normal;">Enrico Letta</text><rect x="880" y="0" width="10" height="17.22222222222222" fill="rgb(94, 79, 162)"/><line x1="0" y1="0" x2="1080" y2="0" style="stroke: rgb(204, 204, 204);"/></g><g id="Matteo Renzi" transform="translate(0,447.77777777777777)"><text x="886" y="8.61111111111111" text-anchor="end" dominant-baseline="middle" style="font-family: Arial, sans-serif; font-size: 10px; fill: black; font-weight: normal;">Matteo Renzi</text><rect x="890" y="0" width="33" height="17.22222222222222" fill="rgb(94, 79, 162)"/><line x1="0" y1="0" x2="1080" y2="0" style="stroke: rgb(204, 204, 204);"/></g><g id="Paolo Gentiloni" transform="translate(0,465)"><text x="919" y="8.61111111111111" text-anchor="end" dominant-baseline="middle" style="font-family: Arial, sans-serif; font-size: 10px; fill: black; font-weight: normal;">Paolo Gentiloni</text><rect x="923" y="0" width="18" height="17.22222222222222" fill="rgb(94, 79, 162)"/><line x1="0" y1="0" x2="1080" y2="0" style="stroke: rgb(204, 204, 204);"/></g><g id="Giuseppe Conte" transform="translate(0,482.2222222222222)"><text x="937" y="8.61111111111111" text-anchor="end" dominant-baseline="middle" style="font-family: Arial, sans-serif; font-size: 10px; fill: black; font-weight: normal;">Giuseppe Conte</text><rect x="941" y="0" width="15" height="17.22222222222222" fill="rgb(94, 79, 162)"/><rect x="956" y="0" width="17" height="17.22222222222222" fill="rgb(94, 79, 162)"/><line x1="0" y1="0" x2="1080" y2="0" style="stroke: rgb(204, 204, 204);"/></g><g id="Oscar Luigi Scalfaro" transform="translate(0,499.4444444444444)"><text x="625" y="8.61111111111111" text-anchor="end" dominant-baseline="middle" style="font-family: Arial, sans-serif; font-size: 10px; fill: black; font-weight: normal;">Oscar Luigi Scalfaro</text><rect x="629" y="0" width="83" height="17.22222222222222" fill="rgb(158, 1, 66)"/><line x1="0" y1="0" x2="1080" y2="0" style="stroke: rgb(204, 204, 204);"/></g><g id="Giovanni Gronchi" transform="translate(0,516.6666666666666)"><text x="180" y="8.61111111111111" text-anchor="end" dominant-baseline="middle" style="font-family: Arial, sans-serif; font-size: 10px; fill: black; font-weight: normal;">Giovanni Gronchi</text><rect x="184" y="0" width="84" height="17.22222222222222" fill="rgb(158, 1, 66)"/><line x1="0" y1="0" x2="1080" y2="0" style="stroke: rgb(204, 204, 204);"/></g><g id="Giuseppe Saragat" transform="translate(0,533.8888888888889)"><text x="296" y="8.61111111111111" text-anchor="end" dominant-baseline="middle" style="font-family: Arial, sans-serif; font-size: 10px; fill: black; font-weight: normal;">Giuseppe Saragat</text><rect x="300" y="0" width="84" height="17.22222222222222" fill="rgb(158, 1, 66)"/><line x1="0" y1="0" x2="1080" y2="0" style="stroke: rgb(204, 204, 204);"/></g><g id="Giorgio Napolitano" transform="translate(0,551.1111111111111)"><text x="792" y="8.61111111111111" text-anchor="end" dominant-baseline="middle" style="font-family: Arial, sans-serif; font-size: 10px; fill: black; font-weight: normal;">Giorgio Napolitano</text><rect x="796" y="0" width="104" height="17.22222222222222" fill="rgb(158, 1, 66)"/><line x1="0" y1="0" x2="1080" y2="0" style="stroke: rgb(204, 204, 204);"/></g><g id="Sandro Pertini" transform="translate(0,568.3333333333333)"><text x="458" y="8.61111111111111" text-anchor="end" dominant-baseline="middle" style="font-family: Arial, sans-serif; font-size: 10px; fill: black; font-weight: normal;">Sandro Pertini</text><rect x="462" y="0" width="84" height="17.22222222222222" fill="rgb(158, 1, 66)"/><line x1="0" y1="0" x2="1080" y2="0" style="stroke: rgb(204, 204, 204);"/></g><g id="Luigi Einaudi" transform="translate(0,585.5555555555555)"><text x="96" y="8.61111111111111" text-anchor="end" dominant-baseline="middle" style="font-family: Arial, sans-serif; font-size: 10px; fill: black; font-weight: normal;">Luigi Einaudi</text><rect x="100" y="0" width="84" height="17.22222222222222" fill="rgb(158, 1, 66)"/><line x1="0" y1="0" x2="1080" y2="0" style="stroke: rgb(204, 204, 204);"/></g><g id="Enrico de Nicola" transform="translate(0,602.7777777777777)"><text x="92" y="8.61111111111111" text-anchor="end" dominant-baseline="middle" style="font-family: Arial, sans-serif; font-size: 10px; fill: black; font-weight: normal;">Enrico de Nicola</text><rect x="96" y="0" width="4" height="17.22222222222222" fill="rgb(158, 1, 66)"/><line x1="0" y1="0" x2="1080" y2="0" style="stroke: rgb(204, 204, 204);"/></g></g></g><g id="legend" transform="translate(1280,50)"><g transform="translate(5,0)"><g class="legendColor" transform="translate(0,0)"><g class="legendCells" transform="translate(0,15.5)"><g class="cell" transform="translate(0, 0)"><rect class="swatch" height="15" width="15" style="fill: rgb(158, 1, 66);"/><text class="label" transform="translate( 20, 12.5)" font-family="&quot;Arial&quot;, sans-serif" font-size="10px"><tspan x="0" dy="0em">President</tspan></text></g><g class="cell" transform="translate(0, 20.5)"><rect class="swatch" height="15" width="15" style="fill: rgb(94, 79, 162);"/><text class="label" transform="translate( 20, 12.5)" font-family="&quot;Arial&quot;, sans-serif" font-size="10px"><tspan x="0" dy="0em">Prime minister</tspan></text></g></g><text class="legendTitle" font-family="&quot;Arial&quot;, sans-serif" font-size="12px" font-weight="bold"><tspan x="0" dy="0em">Role</tspan></text></g></g></g></svg>