<?xml version="1.0" encoding="utf-8"?>
<!-- Generator: Adobe Illustrator 25.0.1, SVG Export Plug-In . SVG Version: 6.00 Build 0)  -->
<svg version="1.1" id="Livello_1" xmlns="http://www.w3.org/2000/svg" xmlns:xlink="http://www.w3.org/1999/xlink" x="0px" y="0px"
	 viewBox="0 0 1480 720" style="enable-background:new 0 0 1480 720;" xml:space="preserve">
<style type="text/css">
	.st0{fill:#FFFFFF;}
	.st1{fill:#23171B;}
	.st2{fill:#95FB51;}
	.st3{fill:#900C00;}
	.st4{fill:none;stroke:#000000;}
	.st5{font-family:'Helvetica';}
	.st6{font-size:10px;}
	.st7{fill:none;stroke:#CCCCCC;}
	.st8{font-family:'ArialMT';}
	.st9{font-family:'Arial-BoldMT';}
	.st10{font-size:12px;}
</style>
<rect id="backgorund" x="-1.7" class="st0" width="1480" height="720"/>
<g id="viz">
	<g transform="translate(0,0)">
		<g transform="translate(70,20)">
			<g id="Agricolture">
				<rect x="1184.9" y="147.6" class="st1" width="38.7" height="7.9"/>
				<rect x="287.9" y="454.9" class="st1" width="38.7" height="35.7"/>
				<rect x="544.2" y="553.4" class="st1" width="38.7" height="2.1"/>
				<rect x="373.3" y="575.2" class="st1" width="38.7" height="1.2"/>
				<rect x="1142.2" y="592.1" class="st1" width="38.7" height="0.8"/>
				<rect x="330.6" y="592.1" class="st1" width="38.7" height="2"/>
				<rect x="202.5" y="615.5" class="st1" width="38.7" height="4.8"/>
				<rect x="501.5" y="618.5" class="st1" width="38.7" height="1.6"/>
				<rect x="416" y="622.5" class="st1" width="38.7" height="13.5"/>
				<rect x="800.5" y="635.1" class="st1" width="38.7" height="2.7"/>
				<rect x="245.2" y="631.8" class="st1" width="38.7" height="1.2"/>
				<rect x="74.3" y="640" class="st1" width="38.7" height="2.2"/>
				<rect x="885.9" y="647.8" class="st1" width="38.7" height="1.4"/>
				<rect x="928.6" y="639.7" class="st1" width="38.7" height="1.8"/>
				<rect x="586.9" y="648.1" class="st1" width="38.7" height="1.8"/>
				<rect x="458.8" y="662.2" class="st1" width="38.7" height="4.8"/>
				<rect x="629.6" y="655.1" class="st1" width="38.7" height="0.9"/>
				<rect x="1099.5" y="658.1" class="st1" width="38.7" height="2.7"/>
				<rect x="843.2" y="670.6" class="st1" width="38.7" height="0.6"/>
				<rect x="1014" y="660.6" class="st1" width="38.7" height="0.3"/>
				<rect x="672.3" y="664.3" class="st1" width="38.7" height="3.9"/>
				<rect x="971.3" y="664.6" class="st1" width="38.7" height="0.4"/>
				<rect x="757.8" y="666.1" class="st1" width="38.7" height="0.7"/>
				<rect x="159.8" y="664.4" class="st1" width="38.7" height="0.1"/>
				<rect x="715" y="668.1" class="st1" width="38.7" height="0.5"/>
				<rect x="1056.8" y="667" class="st1" width="38.7" height="0.2"/>
				<rect x="31.6" y="668.3" class="st1" width="38.7" height="1.7"/>
				<rect x="117" y="668.4" class="st1" width="38.7" height="0.2"/>
			</g>
			<g id="Industry">
				<rect x="1184.9" y="22" class="st2" width="38.7" height="125.7"/>
				<rect x="287.9" y="287.9" class="st2" width="38.7" height="167.1"/>
				<rect x="544.2" y="505.4" class="st2" width="38.7" height="48"/>
				<rect x="373.3" y="534.2" class="st2" width="38.7" height="41"/>
				<rect x="1142.2" y="568.7" class="st2" width="38.7" height="23.4"/>
				<rect x="330.6" y="572.5" class="st2" width="38.7" height="19.7"/>
				<rect x="202.5" y="591.1" class="st2" width="38.7" height="24.4"/>
				<rect x="501.5" y="598.9" class="st2" width="38.7" height="19.6"/>
				<rect x="416" y="602.6" class="st2" width="38.7" height="20"/>
				<rect x="800.5" y="609.8" class="st2" width="38.7" height="25.3"/>
				<rect x="245.2" y="612.4" class="st2" width="38.7" height="19.3"/>
				<rect x="74.3" y="625.4" class="st2" width="38.7" height="14.5"/>
				<rect x="885.9" y="626.5" class="st2" width="38.7" height="21.3"/>
				<rect x="928.6" y="626.8" class="st2" width="38.7" height="12.9"/>
				<rect x="586.9" y="631.5" class="st2" width="38.7" height="16.6"/>
				<rect x="458.8" y="646.4" class="st2" width="38.7" height="15.7"/>
				<rect x="629.6" y="647.2" class="st2" width="38.7" height="7.9"/>
				<rect x="1099.5" y="649.5" class="st2" width="38.7" height="8.6"/>
				<rect x="843.2" y="651.6" class="st2" width="38.7" height="19"/>
				<rect x="1014" y="653.1" class="st2" width="38.7" height="7.5"/>
				<rect x="672.3" y="658.7" class="st2" width="38.7" height="5.6"/>
				<rect x="971.3" y="658.9" class="st2" width="38.7" height="5.7"/>
				<rect x="757.8" y="659.1" class="st2" width="38.7" height="7"/>
				<rect x="159.8" y="660.1" class="st2" width="38.7" height="4.3"/>
				<rect x="715" y="660.7" class="st2" width="38.7" height="7.4"/>
				<rect x="1056.8" y="660.9" class="st2" width="38.7" height="6.1"/>
				<rect x="31.6" y="663.1" class="st2" width="38.7" height="5.2"/>
				<rect x="117" y="663.5" class="st2" width="38.7" height="4.9"/>
			</g>
			<g id="Services">
				<rect x="1184.9" y="155.5" class="st3" width="38.7" height="524.5"/>
				<rect x="287.9" y="490.6" class="st3" width="38.7" height="189.4"/>
				<rect x="544.2" y="555.5" class="st3" width="38.7" height="124.5"/>
				<rect x="373.3" y="576.3" class="st3" width="38.7" height="103.7"/>
				<rect x="1142.2" y="592.9" class="st3" width="38.7" height="87.1"/>
				<rect x="330.6" y="594.2" class="st3" width="38.7" height="85.8"/>
				<rect x="202.5" y="620.3" class="st3" width="38.7" height="59.7"/>
				<rect x="501.5" y="620.1" class="st3" width="38.7" height="59.9"/>
				<rect x="416" y="636" class="st3" width="38.7" height="44"/>
				<rect x="800.5" y="637.8" class="st3" width="38.7" height="42.2"/>
				<rect x="245.2" y="633" class="st3" width="38.7" height="47"/>
				<rect x="74.3" y="642.1" class="st3" width="38.7" height="37.9"/>
				<rect x="885.9" y="649.2" class="st3" width="38.7" height="30.8"/>
				<rect x="928.6" y="641.4" class="st3" width="38.7" height="38.6"/>
				<rect x="586.9" y="649.9" class="st3" width="38.7" height="30.1"/>
				<rect x="458.8" y="667" class="st3" width="38.7" height="13"/>
				<rect x="629.6" y="656" class="st3" width="38.7" height="24"/>
				<rect x="1099.5" y="660.8" class="st3" width="38.7" height="19.2"/>
				<rect x="843.2" y="671.2" class="st3" width="38.7" height="8.8"/>
				<rect x="1014" y="660.9" class="st3" width="38.7" height="19.1"/>
				<rect x="672.3" y="668.2" class="st3" width="38.7" height="11.8"/>
				<rect x="971.3" y="664.9" class="st3" width="38.7" height="15.1"/>
				<rect x="757.8" y="666.9" class="st3" width="38.7" height="13.1"/>
				<rect x="159.8" y="664.5" class="st3" width="38.7" height="15.5"/>
				<rect x="715" y="668.6" class="st3" width="38.7" height="11.4"/>
				<rect x="1056.8" y="667.2" class="st3" width="38.7" height="12.8"/>
				<rect x="31.6" y="670" class="st3" width="38.7" height="10"/>
				<rect x="117" y="668.6" class="st3" width="38.7" height="11.4"/>
			</g>
			<g id="xAxis" transform="translate(0,680)">
				<path class="st4" d="M28.1,0.5h1200"/>
				<g transform="translate(23.35073564309445,0)">
					<line class="st4" x1="27.6" y1="0" x2="27.6" y2="6"/>
					<text transform="matrix(1 0 0 1 6.2161 16.1)" class="st5 st6">Argentina</text>
				</g>
				<g transform="translate(66.06549596582819,0)">
					<line class="st4" x1="27.6" y1="0" x2="27.6" y2="6"/>
					<text transform="matrix(1 0 0 1 10.1668 16.1)" class="st5 st6">Australia</text>
				</g>
				<g transform="translate(108.78025628856194,0)">
					<line class="st4" x1="27.6" y1="0" x2="27.6" y2="6"/>
					<text transform="matrix(1 0 0 1 12.0584 16.1)" class="st5 st6">Austria</text>
				</g>
				<g transform="translate(151.49501661129568,0)">
					<line class="st4" x1="27.6" y1="0" x2="27.6" y2="6"/>
					<text transform="matrix(1 0 0 1 9.556 16.1)" class="st5 st6">Belgium</text>
				</g>
				<g transform="translate(194.20977693402943,0)">
					<line class="st4" x1="27.6" y1="0" x2="27.6" y2="6"/>
					<text transform="matrix(1 0 0 1 15.1175 16.1)" class="st5 st6">Brazil</text>
				</g>
				<g transform="translate(236.9245372567632,0)">
					<line class="st4" x1="27.6" y1="0" x2="27.6" y2="6"/>
					<text transform="matrix(1 0 0 1 10.1053 16.1)" class="st5 st6">Canada</text>
				</g>
				<g transform="translate(279.6392975794969,0)">
					<line class="st4" x1="27.6" y1="0" x2="27.6" y2="6"/>
					<text transform="matrix(1 0 0 1 14.556 16.1)" class="st5 st6">China</text>
				</g>
				<g transform="translate(322.35405790223064,0)">
					<line class="st4" x1="27.6" y1="0" x2="27.6" y2="6"/>
					<text transform="matrix(1 0 0 1 12.0584 16.1)" class="st5 st6">France</text>
				</g>
				<g transform="translate(365.0688182249644,0)">
					<line class="st4" x1="27.6" y1="0" x2="27.6" y2="6"/>
					<text transform="matrix(1 0 0 1 7.0584 16.1)" class="st5 st6">Germany</text>
				</g>
				<g transform="translate(407.78357854769814,0)">
					<line class="st4" x1="27.6" y1="0" x2="27.6" y2="6"/>
					<text transform="matrix(1 0 0 1 16.7776 16.1)" class="st5 st6">India</text>
				</g>
				<g transform="translate(450.4983388704319,0)">
					<line class="st4" x1="27.6" y1="0" x2="27.6" y2="6"/>
					<text transform="matrix(1 0 0 1 5.9354 16.1)" class="st5 st6">Indonesia</text>
				</g>
				<g transform="translate(493.21309919316565,0)">
					<line class="st4" x1="27.6" y1="0" x2="27.6" y2="6"/>
					<text transform="matrix(1 0 0 1 18.45 16.1)" class="st5 st6">Italy</text>
				</g>
				<g transform="translate(535.9278595158994,0)">
					<line class="st4" x1="27.6" y1="0" x2="27.6" y2="6"/>
					<text transform="matrix(1 0 0 1 13.9969 16.1)" class="st5 st6">Japan</text>
				</g>
				<g transform="translate(578.6426198386332,0)">
					<line class="st4" x1="27.6" y1="0" x2="27.6" y2="6"/>
					<text transform="matrix(1 0 0 1 9.7825 16.1)" class="st5 st6">Mexico</text>
				</g>
				<g transform="translate(621.3573801613669,0)">
					<line class="st4" x1="27.6" y1="0" x2="27.6" y2="6"/>
					<text transform="matrix(1 0 0 1 0.6595 16.1)" class="st5 st6">Netherlands</text>
				</g>
				<g transform="translate(664.0721404841007,0)">
					<line class="st4" x1="27.6" y1="0" x2="27.6" y2="6"/>
					<text transform="matrix(1 0 0 1 13.7801 16.1)" class="st5 st6">Nigeria</text>
				</g>
				<g transform="translate(706.7869008068344,0)">
					<line class="st4" x1="27.6" y1="0" x2="27.6" y2="6"/>
					<text transform="matrix(1 0 0 1 10.6717 16.1)" class="st5 st6">Norway</text>
				</g>
				<g transform="translate(749.5016611295681,0)">
					<line class="st4" x1="27.6" y1="0" x2="27.6" y2="6"/>
					<text transform="matrix(1 0 0 1 12.0511 16.1)" class="st5 st6">Poland</text>
				</g>
				<g transform="translate(792.2164214523019,0)">
					<line class="st4" x1="27.6" y1="0" x2="27.6" y2="6"/>
					<text transform="matrix(1 0 0 1 12.3367 16.1)" class="st5 st6">Russia</text>
				</g>
				<g transform="translate(834.9311817750356,0)">
					<line class="st4" x1="27.6" y1="0" x2="27.6" y2="6"/>
					<text transform="matrix(1 0 0 1 8.2559 16.1)" class="st5 st6">S. Arabia</text>
				</g>
				<g transform="translate(877.6459420977694,0)">
					<line class="st4" x1="27.6" y1="0" x2="27.6" y2="6"/>
					<text transform="matrix(1 0 0 1 11.8365 16.1)" class="st5 st6">S. Korea</text>
				</g>
				<g transform="translate(920.3607024205031,0)">
					<line class="st4" x1="27.6" y1="0" x2="27.6" y2="6"/>
					<text transform="matrix(1 0 0 1 14.8318 16.1)" class="st5 st6">Spain</text>
				</g>
				<g transform="translate(963.0754627432369,0)">
					<line class="st4" x1="27.6" y1="0" x2="27.6" y2="6"/>
					<text transform="matrix(1 0 0 1 4.269 16.1)" class="st5 st6">Sweden</text>
				</g>
				<g transform="translate(1005.7902230659706,0)">
					<line class="st4" x1="27.6" y1="0" x2="27.6" y2="6"/>
					<text transform="matrix(1 0 0 1 1.7751 16.1)" class="st5 st6">Switzerland</text>
				</g>
				<g transform="translate(1048.5049833887042,0)">
					<line class="st4" x1="27.6" y1="0" x2="27.6" y2="6"/>
					<text transform="matrix(1 0 0 1 15.056 16.1)" class="st5 st6">Taiwan</text>
				</g>
				<g transform="translate(1091.219743711438,0)">
					<line class="st4" x1="27.6" y1="0" x2="27.6" y2="6"/>
					<text transform="matrix(1 0 0 1 12.5222 16.1)" class="st5 st6">Turkey</text>
				</g>
				<g transform="translate(1133.9345040341718,0)">
					<line class="st4" x1="27.6" y1="0" x2="27.6" y2="6"/>
					<text transform="matrix(1 0 0 1 19.5887 16.1)" class="st5 st6">U.K.</text>
				</g>
				<g transform="translate(1176.6492643569054,0)">
					<line class="st4" x1="27.6" y1="0" x2="27.6" y2="6"/>
					<text transform="matrix(1 0 0 1 19.8414 16.1)" class="st5 st6">U.S.</text>
				</g>
			</g>
			<g id="yAxis">
				<path class="st4" d="M28.1,680.5V0.5"/>
				<g transform="translate(0,680.5)">
					<line class="st4" x1="27.6" y1="0" x2="21.6" y2="0"/>
					<text transform="matrix(1 0 0 1 13.0584 3.2)" class="st5 st6">0</text>
				</g>
				<g transform="translate(0,604.9444444444445)">
					<line class="st4" x1="27.6" y1="0" x2="21.6" y2="0"/>
					<text transform="matrix(1 0 0 1 -25.8674 3.2)" class="st5 st6">2,000,000</text>
				</g>
				<g transform="translate(0,529.3888888888889)">
					<line class="st4" x1="27.6" y1="0" x2="21.6" y2="0"/>
					<text transform="matrix(1 0 0 1 -25.8674 3.2)" class="st5 st6">4,000,000</text>
				</g>
				<g transform="translate(0,453.83333333333337)">
					<line class="st4" x1="27.6" y1="0" x2="21.6" y2="0"/>
					<text transform="matrix(1 0 0 1 -25.8674 3.2)" class="st5 st6">6,000,000</text>
				</g>
				<g transform="translate(0,378.27777777777777)">
					<line class="st4" x1="27.6" y1="0" x2="21.6" y2="0"/>
					<text transform="matrix(1 0 0 1 -25.8674 3.2)" class="st5 st6">8,000,000</text>
				</g>
				<g transform="translate(0,302.72222222222223)">
					<line class="st4" x1="27.6" y1="0" x2="21.6" y2="0"/>
					<text transform="matrix(1 0 0 1 -31.4289 3.2)" class="st5 st6">10,000,000</text>
				</g>
				<g transform="translate(0,227.16666666666669)">
					<line class="st4" x1="27.6" y1="0" x2="21.6" y2="0"/>
					<text transform="matrix(1 0 0 1 -31.4289 3.2)" class="st5 st6">12,000,000</text>
				</g>
				<g transform="translate(0,151.61111111111111)">
					<line class="st4" x1="27.6" y1="0" x2="21.6" y2="0"/>
					<text transform="matrix(1 0 0 1 -31.4289 3.2)" class="st5 st6">14,000,000</text>
				</g>
				<g transform="translate(0,76.05555555555559)">
					<line class="st4" x1="27.6" y1="0" x2="21.6" y2="0"/>
					<text transform="matrix(1 0 0 1 -31.4289 3.2)" class="st5 st6">16,000,000</text>
				</g>
				<g transform="translate(0,0.5)">
					<line class="st4" x1="27.6" y1="0" x2="21.6" y2="0"/>
					<text transform="matrix(1 0 0 1 -31.4289 3.2)" class="st5 st6">18,000,000</text>
				</g>
			</g>
		</g>
	</g>
	<g id="grid">
		<rect class="st7" width="1325.1" height="720"/>
	</g>
</g>
<g id="legend" transform="translate(1280,20)">
	<g transform="translate(5,0)">
		<g transform="translate(0,0)">
			<g transform="translate(0,15.5)">
				<g transform="translate(0, 0)">
					<rect x="53.6" class="st1" width="15" height="15"/>
					<text transform="matrix(1 0 0 1 73.6199 12.5)" class="st8 st6">Agricolture</text>
				</g>
				<g transform="translate(0, 20.5)">
					<rect x="53.6" class="st2" width="15" height="15"/>
					<text transform="matrix(1 0 0 1 73.6199 12.5)" class="st8 st6">Industry</text>
				</g>
				<g transform="translate(0, 41)">
					<rect x="53.6" class="st3" width="15" height="15"/>
					<text transform="matrix(1 0 0 1 73.6199 12.5)" class="st8 st6">Services</text>
				</g>
			</g>
			<text transform="matrix(1 0 0 1 53.6199 0)" class="st9 st10">Colors</text>
		</g>
	</g>
</g>
</svg>
