<?xml version="1.0" encoding="utf-8"?>
<!-- Generator: Adobe Illustrator 25.0.1, SVG Export Plug-In . SVG Version: 6.00 Build 0)  -->
<svg version="1.1" id="Livello_1" xmlns="http://www.w3.org/2000/svg" xmlns:xlink="http://www.w3.org/1999/xlink" x="0px" y="0px"
	 viewBox="0 0 1280 720" style="enable-background:new 0 0 1280 720;" xml:space="preserve">
<style type="text/css">
	.st0{fill:#FFFFFF;}
	.st1{fill:none;stroke:#E85E49;stroke-width:39.6774;}
	.st2{fill:none;stroke:#E85E49;stroke-width:171.9355;}
	.st3{fill:none;stroke:#9E0142;stroke-width:59.5161;}
	.st4{fill:none;stroke:#E85E49;stroke-width:125.6452;}
	.st5{fill:none;stroke:#9E0142;stroke-width:13.2258;}
	.st6{fill:none;stroke:#E85E49;stroke-width:105.8064;}
	.st7{fill:none;stroke:#BEE5A0;stroke-width:13.2258;}
	.st8{fill:none;stroke:#FBF8B0;stroke-width:72.7419;}
	.st9{fill:none;stroke:#56ADAE;stroke-width:13.2258;}
	.st10{fill:none;stroke:#5E4FA2;stroke-width:33.0645;}
	.st11{fill:none;stroke:#5E4FA2;stroke-width:19.8387;}
	.st12{fill:none;stroke:#FDBE70;stroke-width:13.2258;}
	.st13{fill:none;stroke:#FBF8B0;stroke-width:26.4516;}
	.st14{fill:none;stroke:#5E4FA2;stroke-width:6.6129;}
	.st15{fill:none;stroke:#FBF8B0;stroke-width:6.6129;}
	.st16{fill:none;stroke:#56ADAE;stroke-width:72.7419;}
	.st17{fill:none;stroke:#FBF8B0;stroke-width:33.0645;}
	.st18{fill:none;stroke:#FDBE70;stroke-width:19.8387;}
	.st19{fill:none;stroke:#5E4FA2;stroke-width:39.6774;}
	.st20{fill:none;stroke:#5E4FA2;stroke-width:13.2258;}
	.st21{fill:none;stroke:#FBF8B0;stroke-width:59.5161;}
	.st22{fill:none;stroke:#56ADAE;stroke-width:26.4516;}
	.st23{fill:none;stroke:#56ADAE;stroke-width:6.6129;}
	.st24{fill:none;stroke:#FBF8B0;stroke-width:13.2258;}
	.st25{fill:none;stroke:#BEE5A0;stroke-width:6.6129;}
	.st26{fill:none;stroke:#FDBE70;stroke-width:6.6129;}
	.st27{font-family:'Arial-BoldMT';}
	.st28{font-size:10px;}
	.st29{font-family:'ArialMT';}
	.st30{fill:#7B7B7B;}
	.st31{font-size:12px;}
</style>
<rect id="backgorund" class="st0" width="1280" height="720"/>
<g id="visualization" transform="translate(30,30)">
	<g>
		<rect y="20" width="5" height="482.7"/>
		<rect x="607" y="12.5" width="5" height="39.7"/>
		<rect x="607" y="57.2" width="5" height="231.5"/>
		<rect y="507.7" width="5" height="132.3"/>
		<rect x="607" y="293.6" width="5" height="138.9"/>
		<rect x="607" y="437.5" width="5" height="165.3"/>
		<rect x="607" y="607.8" width="5" height="39.7"/>
		<rect x="1214" width="5" height="132.3"/>
		<rect x="1214" y="137.3" width="5" height="46.3"/>
		<rect x="1214" y="188.5" width="5" height="26.5"/>
		<rect x="1214" y="220" width="5" height="13.2"/>
		<rect x="1214" y="238.2" width="5" height="165.3"/>
		<rect x="1214" y="408.5" width="5" height="13.2"/>
		<rect x="1214" y="426.8" width="5" height="132.3"/>
		<rect x="1214" y="564" width="5" height="13.2"/>
		<rect x="1214" y="582.3" width="5" height="33.1"/>
		<rect x="1214" y="620.3" width="5" height="39.7"/>
	</g>
	<g>
		<g>
			<path class="st1" d="M5,39.8c301,0,301-7.5,602-7.5"/>
		</g>
		<g>
			<path class="st2" d="M5,145.6c301,0,301-2.5,602-2.5"/>
		</g>
		<g>
			<path class="st3" d="M5,537.5c301,0,301-278.6,602-278.6"/>
		</g>
		<g>
			<path class="st4" d="M5,294.4c301,0,301,62,602,62"/>
		</g>
		<g>
			<path class="st5" d="M5,573.9c301,0,301-148,602-148"/>
		</g>
		<g>
			<path class="st6" d="M5,410.2c301,0,301,80.2,602,80.2"/>
		</g>
		<g>
			<path class="st3" d="M5,610.2c301,0,301-37.2,602-37.2"/>
		</g>
		<g>
			<path class="st1" d="M5,482.9c301,0,301,144.8,602,144.8"/>
		</g>
		<g>
			<path class="st7" d="M612,19.1c301,0,301-12.5,602-12.5"/>
		</g>
		<g>
			<path class="st8" d="M612,93.5c301,0,301-44,602-44"/>
		</g>
		<g>
			<path class="st9" d="M612,300.2c301,0,301-207.7,602-207.7"/>
		</g>
		<g>
			<path class="st10" d="M612,454c301,0,301-338.3,602-338.3"/>
		</g>
		<g>
			<path class="st11" d="M612,480.5c301,0,301-320.1,602-320.1"/>
		</g>
		<g>
			<path class="st12" d="M612,614.4c301,0,301-437.5,602-437.5"/>
		</g>
		<g>
			<path class="st9" d="M612,313.5c301,0,301-169.6,602-169.6"/>
		</g>
		<g>
			<path class="st13" d="M612,143.1c301,0,301,58.6,602,58.6"/>
		</g>
		<g>
			<path class="st14" d="M612,493.7c301,0,301-263.8,602-263.8"/>
		</g>
		<g>
			<path class="st15" d="M612,159.7c301,0,301,63.6,602,63.6"/>
		</g>
		<g>
			<path class="st16" d="M612,356.5c301,0,301-48.8,602-48.8"/>
		</g>
		<g>
			<path class="st17" d="M612,179.5c301,0,301,75.2,602,75.2"/>
		</g>
		<g>
			<path class="st18" d="M612,631c301,0,301-237.3,602-237.3"/>
		</g>
		<g>
			<path class="st19" d="M612,516.9c301,0,301-153,602-153"/>
		</g>
		<g>
			<path class="st20" d="M612,543.3c301,0,301-128.1,602-128.1"/>
		</g>
		<g>
			<path class="st21" d="M612,225.8c301,0,301,244,602,244"/>
		</g>
		<g>
			<path class="st10" d="M612,566.5c301,0,301-24,602-24"/>
		</g>
		<g>
			<path class="st22" d="M612,406c301,0,301,106.7,602,106.7"/>
		</g>
		<g>
			<path class="st7" d="M612,32.3c301,0,301,401,602,401"/>
		</g>
		<g>
			<path class="st15" d="M612,258.9c301,0,301,308.5,602,308.5"/>
		</g>
		<g>
			<path class="st23" d="M612,422.6c301,0,301,151.4,602,151.4"/>
		</g>
		<g>
			<path class="st24" d="M612,268.8c301,0,301,326.7,602,326.7"/>
		</g>
		<g>
			<path class="st25" d="M612,42.3c301,0,301,543.3,602,543.3"/>
		</g>
		<g>
			<path class="st20" d="M612,589.6c301,0,301,19.1,602,19.1"/>
		</g>
		<g>
			<path class="st25" d="M612,48.9c301,0,301,574.8,602,574.8"/>
		</g>
		<g>
			<path class="st24" d="M612,282c301,0,301,351.5,602,351.5"/>
		</g>
		<g>
			<path class="st26" d="M612,644.2c301,0,301,12.5,602,12.5"/>
		</g>
		<g>
			<path class="st23" d="M612,429.2c301,0,301,214.3,602,214.3"/>
		</g>
		<g>
			<path class="st14" d="M612,599.5c301,0,301,50.6,602,50.6"/>
		</g>
	</g>
	<g>
		<text transform="matrix(1 0 0 1 9 255.852)" class="st27 st28">MALE</text>
		<text transform="matrix(1 0 0 1 9 267.852)" class="st29 st28">73</text>
		<text transform="matrix(1 0 0 1 616 26.8197)" class="st27 st28">BLACK HISPANIC</text>
		<text transform="matrix(1 0 0 1 616 38.8197)" class="st29 st28">6</text>
		<text transform="matrix(1 0 0 1 616 167.3842)" class="st27 st28">BLACK</text>
		<text transform="matrix(1 0 0 1 616 179.3842)" class="st29 st28">35</text>
		<text transform="matrix(1 0 0 1 9 568.352)" class="st27 st28">FEMALE</text>
		<text transform="matrix(1 0 0 1 9 580.352)" class="st29 st28">20</text>
		<text transform="matrix(1 0 0 1 616 357.5455)" class="st27 st28">WHITE</text>
		<text transform="matrix(1 0 0 1 616 369.5455)" class="st29 st28">21</text>
		<text transform="matrix(1 0 0 1 616 514.6423)" class="st27 st28">WHITE HISPANIC</text>
		<text transform="matrix(1 0 0 1 616 526.6423)" class="st29 st28">25</text>
		<text transform="matrix(1 0 0 1 616 622.1423)" class="st27 st28">ASIAN / PACIFIC ISLANDER</text>
		<text transform="matrix(1 0 0 1 616 634.1423)" class="st29 st28">6</text>
		<text transform="matrix(1 0 0 1 1152.2266 60.61)" class="st27 st28">ANTI-ASIAN</text>
		<text transform="matrix(1 0 0 1 1198.877 72.61)" class="st29 st28">20</text>
		<text transform="matrix(1 0 0 1 1148.3447 154.8842)" class="st27 st28">ANTI-BLACK</text>
		<text transform="matrix(1 0 0 1 1204.4385 166.8842)" class="st29 st28">7</text>
		<text transform="matrix(1 0 0 1 1142.2314 196.2552)" class="st27 st28">ANTI-FEMALE</text>
		<text transform="matrix(1 0 0 1 1204.4385 208.2552)" class="st29 st28">4</text>
		<text transform="matrix(1 0 0 1 1096.1328 221.0939)" class="st27 st28">ANTI-ISLAMIC(MUSLIM)</text>
		<text transform="matrix(1 0 0 1 1204.4385 233.0939)" class="st29 st28">2</text>
		<text transform="matrix(1 0 0 1 1145 315.3681)" class="st27 st28">ANTI-JEWISH</text>
		<text transform="matrix(1 0 0 1 1198.877 327.3681)" class="st29 st28">25</text>
		<text transform="matrix(1 0 0 1 1078.3447 409.6423)" class="st27 st28">ANTI-LGBT(MIXED GROUP)</text>
		<text transform="matrix(1 0 0 1 1204.4385 421.6423)" class="st29 st28">2</text>
		<text transform="matrix(1 0 0 1 1053.1494 487.3842)" class="st27 st28">ANTI-MALE HOMOSEXUAL(GAY)</text>
		<text transform="matrix(1 0 0 1 1198.877 499.3842)" class="st29 st28">20</text>
		<text transform="matrix(1 0 0 1 1106.1133 565.1262)" class="st27 st28">ANTI-TRANSGENDER</text>
		<text transform="matrix(1 0 0 1 1204.4385 577.1262)" class="st29 st28">2</text>
		<text transform="matrix(1 0 0 1 1151.123 593.2714)" class="st27 st28">ANTI-WHITE</text>
		<text transform="matrix(1 0 0 1 1204.4385 605.2714)" class="st29 st28">5</text>
		<text transform="matrix(1 0 0 1 1175 634.6423)" class="st27 st28">OTHER</text>
		<text transform="matrix(1 0 0 1 1204.4385 646.6423)" class="st29 st28">6</text>
	</g>
	<g>
		<text transform="matrix(1 0 0 1 -18.5059 16)" class="st30 st27 st31">Gender</text>
		<text transform="matrix(1 0 0 1 595.1562 8.5)" class="st30 st27 st31">Race</text>
		<text transform="matrix(1 0 0 1 1151.123 -4)" class="st30 st27 st31">Bias-Motivation</text>
	</g>
</g>
</svg>
