<svg xmlns="http://www.w3.org/2000/svg" width="1480" height="720"><rect width="1480" height="720" x="0" y="0" fill="#FFFFFF" id="backgorund"/><g id="viz" transform="translate(20,20)"><g id="lines" fill="none"><path d="M774.9999999999999,0L275.55555555555543,226.66666666666666L84.06779661016948,453.3333333333333L51.66666666666667,680" stroke="rgb(35, 23, 27)" stroke-width="1" stroke-opacity="0.5"/><path d="M516.6666666666666,0L206.66666666666683,226.66666666666666L84.06779661016948,453.3333333333333L51.66666666666667,680" stroke="rgb(35, 23, 27)" stroke-width="1" stroke-opacity="0.5"/><path d="M620,0L137.77777777777789,226.66666666666666L63.05084745762712,453.3333333333333L51.66666666666667,680" stroke="rgb(35, 23, 27)" stroke-width="1" stroke-opacity="0.5"/><path d="M568.3333333333333,0L103.33333333333326,226.66666666666666L105.08474576271186,453.3333333333333L51.66666666666667,680" stroke="rgb(35, 23, 27)" stroke-width="1" stroke-opacity="0.5"/><path d="M826.6666666666666,0L241.11111111111114,226.66666666666666L84.06779661016948,453.3333333333333L51.66666666666667,680" stroke="rgb(35, 23, 27)" stroke-width="1" stroke-opacity="0.5"/><path d="M981.6666666666665,0L378.88888888888897,226.66666666666666L147.1186440677966,453.3333333333333L155.00000000000003,680" stroke="rgb(35, 23, 27)" stroke-width="1" stroke-opacity="0.5"/><path d="M723.3333333333333,0L103.33333333333326,226.66666666666666L84.06779661016948,453.3333333333333L103.33333333333333,680" stroke="rgb(35, 23, 27)" stroke-width="1" stroke-opacity="0.5"/><path d="M723.3333333333333,0L241.11111111111114,226.66666666666666L105.08474576271186,453.3333333333333L51.66666666666667,680" stroke="rgb(35, 23, 27)" stroke-width="1" stroke-opacity="0.5"/><path d="M464.9999999999999,0L34.44444444444462,226.66666666666666L84.06779661016948,453.3333333333333L51.66666666666667,680" stroke="rgb(35, 23, 27)" stroke-width="1" stroke-opacity="0.5"/><path d="M568.3333333333333,0L206.66666666666683,226.66666666666666L105.08474576271186,453.3333333333333L0,680" stroke="rgb(35, 23, 27)" stroke-width="1" stroke-opacity="0.5"/><path d="M878.3333333333333,0L378.88888888888897,226.66666666666666L105.08474576271186,453.3333333333333L51.66666666666667,680" stroke="rgb(35, 23, 27)" stroke-width="1" stroke-opacity="0.5"/><path d="M723.3333333333333,0L172.2222222222222,226.66666666666666L126.10169491525424,453.3333333333333L51.66666666666667,680" stroke="rgb(35, 23, 27)" stroke-width="1" stroke-opacity="0.5"/><path d="M516.6666666666666,0L172.2222222222222,226.66666666666666L84.06779661016948,453.3333333333333L0,680" stroke="rgb(35, 23, 27)" stroke-width="1" stroke-opacity="0.5"/><path d="M516.6666666666666,0L0,226.66666666666666L21.01694915254239,453.3333333333333L0,680" stroke="rgb(35, 23, 27)" stroke-width="1" stroke-opacity="0.5"/><path d="M1033.3333333333333,0L516.6666666666666,226.66666666666666L42.03389830508474,453.3333333333333L51.66666666666667,680" stroke="rgb(35, 23, 27)" stroke-width="1" stroke-opacity="0.5"/><path d="M1240,0L482.2222222222223,226.66666666666666L105.08474576271186,453.3333333333333L155.00000000000003,680" stroke="rgb(35, 23, 27)" stroke-width="1" stroke-opacity="0.5"/><path d="M981.6666666666665,0L378.88888888888897,226.66666666666666L63.05084745762712,453.3333333333333L155.00000000000003,680" stroke="rgb(35, 23, 27)" stroke-width="1" stroke-opacity="0.5"/><path d="M774.9999999999999,0L275.55555555555543,226.66666666666666L84.06779661016948,453.3333333333333L103.33333333333333,680" stroke="rgb(35, 23, 27)" stroke-width="1" stroke-opacity="0.5"/><path d="M929.9999999999998,0L482.2222222222223,226.66666666666666L147.1186440677966,453.3333333333333L103.33333333333333,680" stroke="rgb(35, 23, 27)" stroke-width="1" stroke-opacity="0.5"/><path d="M929.9999999999998,0L275.55555555555543,226.66666666666666L105.08474576271186,453.3333333333333L103.33333333333333,680" stroke="rgb(35, 23, 27)" stroke-width="1" stroke-opacity="0.5"/><path d="M723.3333333333333,0L378.88888888888897,226.66666666666666L147.1186440677966,453.3333333333333L51.66666666666667,680" stroke="rgb(35, 23, 27)" stroke-width="1" stroke-opacity="0.5"/><path d="M878.3333333333333,0L275.55555555555543,226.66666666666666L105.08474576271186,453.3333333333333L155.00000000000003,680" stroke="rgb(35, 23, 27)" stroke-width="1" stroke-opacity="0.5"/><path d="M826.6666666666666,0L103.33333333333326,226.66666666666666L0,453.3333333333333L51.66666666666667,680" stroke="rgb(35, 23, 27)" stroke-width="1" stroke-opacity="0.5"/><path d="M671.6666666666665,0L275.55555555555543,226.66666666666666L147.1186440677966,453.3333333333333L206.66666666666669,680" stroke="rgb(35, 23, 27)" stroke-width="1" stroke-opacity="0.5"/><path d="M723.3333333333333,0L172.2222222222222,226.66666666666666L189.15254237288133,453.3333333333333L51.66666666666667,680" stroke="rgb(35, 23, 27)" stroke-width="1" stroke-opacity="0.5"/><path d="M516.6666666666666,0L241.11111111111114,226.66666666666666L126.10169491525424,453.3333333333333L51.66666666666667,680" stroke="rgb(35, 23, 27)" stroke-width="1" stroke-opacity="0.5"/><path d="M723.3333333333333,0L241.11111111111114,226.66666666666666L126.10169491525424,453.3333333333333L155.00000000000003,680" stroke="rgb(35, 23, 27)" stroke-width="1" stroke-opacity="0.5"/><path d="M774.9999999999999,0L310.00000000000006,226.66666666666666L105.08474576271186,453.3333333333333L51.66666666666667,680" stroke="rgb(35, 23, 27)" stroke-width="1" stroke-opacity="0.5"/><path d="M723.3333333333333,0L310.00000000000006,226.66666666666666L84.06779661016948,453.3333333333333L51.66666666666667,680" stroke="rgb(35, 23, 27)" stroke-width="1" stroke-opacity="0.5"/><path d="M620,0L137.77777777777789,226.66666666666666L126.10169491525424,453.3333333333333L51.66666666666667,680" stroke="rgb(35, 23, 27)" stroke-width="1" stroke-opacity="0.5"/><path d="M568.3333333333333,0L172.2222222222222,226.66666666666666L126.10169491525424,453.3333333333333L51.66666666666667,680" stroke="rgb(35, 23, 27)" stroke-width="1" stroke-opacity="0.5"/><path d="M723.3333333333333,0L378.88888888888897,226.66666666666666L105.08474576271186,453.3333333333333L155.00000000000003,680" stroke="rgb(35, 23, 27)" stroke-width="1" stroke-opacity="0.5"/><path d="M1084.9999999999998,0L310.00000000000006,226.66666666666666L105.08474576271186,453.3333333333333L0,680" stroke="rgb(35, 23, 27)" stroke-width="1" stroke-opacity="0.5"/><path d="M1136.6666666666665,0L413.3333333333333,226.66666666666666L84.06779661016948,453.3333333333333L51.66666666666667,680" stroke="rgb(35, 23, 27)" stroke-width="1" stroke-opacity="0.5"/><path d="M568.3333333333333,0L206.66666666666683,226.66666666666666L105.08474576271186,453.3333333333333L0,680" stroke="rgb(35, 23, 27)" stroke-width="1" stroke-opacity="0.5"/><path d="M620,0L241.11111111111114,226.66666666666666L42.03389830508474,453.3333333333333L51.66666666666667,680" stroke="rgb(35, 23, 27)" stroke-width="1" stroke-opacity="0.5"/><path d="M774.9999999999999,0L413.3333333333333,226.66666666666666L63.05084745762712,453.3333333333333L51.66666666666667,680" stroke="rgb(35, 23, 27)" stroke-width="1" stroke-opacity="0.5"/><path d="M568.3333333333333,0L206.66666666666683,226.66666666666666L105.08474576271186,453.3333333333333L0,680" stroke="rgb(35, 23, 27)" stroke-width="1" stroke-opacity="0.5"/><path d="M516.6666666666666,0L34.44444444444462,226.66666666666666L63.05084745762712,453.3333333333333L51.66666666666667,680" stroke="rgb(35, 23, 27)" stroke-width="1" stroke-opacity="0.5"/><path d="M723.3333333333333,0L275.55555555555543,226.66666666666666L105.08474576271186,453.3333333333333L51.66666666666667,680" stroke="rgb(35, 23, 27)" stroke-width="1" stroke-opacity="0.5"/><path d="M774.9999999999999,0L241.11111111111114,226.66666666666666L63.05084745762712,453.3333333333333L103.33333333333333,680" stroke="rgb(35, 23, 27)" stroke-width="1" stroke-opacity="0.5"/><path d="M154.9999999999999,0L68.88888888888894,226.66666666666666L63.05084745762712,453.3333333333333L103.33333333333333,680" stroke="rgb(35, 23, 27)" stroke-width="1" stroke-opacity="0.5"/><path d="M620,0L34.44444444444462,226.66666666666666L63.05084745762712,453.3333333333333L51.66666666666667,680" stroke="rgb(35, 23, 27)" stroke-width="1" stroke-opacity="0.5"/><path d="M774.9999999999999,0L241.11111111111114,226.66666666666666L126.10169491525424,453.3333333333333L258.33333333333337,680" stroke="rgb(35, 23, 27)" stroke-width="1" stroke-opacity="0.5"/><path d="M929.9999999999998,0L275.55555555555543,226.66666666666666L189.15254237288133,453.3333333333333L155.00000000000003,680" stroke="rgb(35, 23, 27)" stroke-width="1" stroke-opacity="0.5"/><path d="M516.6666666666666,0L172.2222222222222,226.66666666666666L84.06779661016948,453.3333333333333L103.33333333333333,680" stroke="rgb(35, 23, 27)" stroke-width="1" stroke-opacity="0.5"/><path d="M929.9999999999998,0L275.55555555555543,226.66666666666666L126.10169491525424,453.3333333333333L51.66666666666667,680" stroke="rgb(35, 23, 27)" stroke-width="1" stroke-opacity="0.5"/><path d="M620,0L103.33333333333326,226.66666666666666L84.06779661016948,453.3333333333333L51.66666666666667,680" stroke="rgb(35, 23, 27)" stroke-width="1" stroke-opacity="0.5"/><path d="M878.3333333333333,0L344.4444444444444,226.66666666666666L105.08474576271186,453.3333333333333L51.66666666666667,680" stroke="rgb(35, 23, 27)" stroke-width="1" stroke-opacity="0.5"/><path d="M671.6666666666665,0L241.11111111111114,226.66666666666666L84.06779661016948,453.3333333333333L51.66666666666667,680" stroke="rgb(35, 23, 27)" stroke-width="1" stroke-opacity="0.5"/><path d="M620,0L929.9999999999999,226.66666666666666L777.6271186440678,453.3333333333333L671.6666666666666,680" stroke="rgb(149, 251, 81)" stroke-width="1" stroke-opacity="0.5"/><path d="M620,0L723.3333333333334,226.66666666666666L735.593220338983,453.3333333333333L723.3333333333334,680" stroke="rgb(149, 251, 81)" stroke-width="1" stroke-opacity="0.5"/><path d="M568.3333333333333,0L895.5555555555555,226.66666666666666L819.6610169491526,453.3333333333333L723.3333333333334,680" stroke="rgb(149, 251, 81)" stroke-width="1" stroke-opacity="0.5"/><path d="M154.9999999999999,0L413.3333333333333,226.66666666666666L630.5084745762712,453.3333333333333L620,680" stroke="rgb(149, 251, 81)" stroke-width="1" stroke-opacity="0.5"/><path d="M413.3333333333332,0L757.7777777777777,226.66666666666666L756.6101694915253,453.3333333333333L723.3333333333334,680" stroke="rgb(149, 251, 81)" stroke-width="1" stroke-opacity="0.5"/><path d="M413.3333333333332,0L482.2222222222223,226.66666666666666L735.593220338983,453.3333333333333L620,680" stroke="rgb(149, 251, 81)" stroke-width="1" stroke-opacity="0.5"/><path d="M671.6666666666665,0L688.8888888888888,226.66666666666666L777.6271186440678,453.3333333333333L775,680" stroke="rgb(149, 251, 81)" stroke-width="1" stroke-opacity="0.5"/><path d="M206.6666666666666,0L206.66666666666683,226.66666666666666L483.3898305084745,453.3333333333333L465,680" stroke="rgb(149, 251, 81)" stroke-width="1" stroke-opacity="0.5"/><path d="M464.9999999999999,0L792.2222222222221,226.66666666666666L756.6101694915253,453.3333333333333L620,680" stroke="rgb(149, 251, 81)" stroke-width="1" stroke-opacity="0.5"/><path d="M361.6666666666667,0L310.00000000000006,226.66666666666666L609.4915254237287,453.3333333333333L671.6666666666666,680" stroke="rgb(149, 251, 81)" stroke-width="1" stroke-opacity="0.5"/><path d="M0,0L241.11111111111114,226.66666666666666L525.4237288135593,453.3333333333333L465,680" stroke="rgb(149, 251, 81)" stroke-width="1" stroke-opacity="0.5"/><path d="M516.6666666666666,0L551.1111111111112,226.66666666666666L672.542372881356,453.3333333333333L723.3333333333334,680" stroke="rgb(149, 251, 81)" stroke-width="1" stroke-opacity="0.5"/><path d="M103.33333333333341,0L585.5555555555555,226.66666666666666L630.5084745762712,453.3333333333333L465,680" stroke="rgb(149, 251, 81)" stroke-width="1" stroke-opacity="0.5"/><path d="M464.9999999999999,0L619.9999999999999,226.66666666666666L777.6271186440678,453.3333333333333L671.6666666666666,680" stroke="rgb(149, 251, 81)" stroke-width="1" stroke-opacity="0.5"/><path d="M464.9999999999999,0L447.77777777777766,226.66666666666666L546.4406779661017,453.3333333333333L620,680" stroke="rgb(149, 251, 81)" stroke-width="1" stroke-opacity="0.5"/><path d="M568.3333333333333,0L826.6666666666666,226.66666666666666L714.5762711864407,453.3333333333333L671.6666666666666,680" stroke="rgb(149, 251, 81)" stroke-width="1" stroke-opacity="0.5"/><path d="M516.6666666666666,0L447.77777777777766,226.66666666666666L735.593220338983,453.3333333333333L723.3333333333334,680" stroke="rgb(149, 251, 81)" stroke-width="1" stroke-opacity="0.5"/><path d="M361.6666666666667,0L516.6666666666666,226.66666666666666L651.5254237288135,453.3333333333333L465,680" stroke="rgb(149, 251, 81)" stroke-width="1" stroke-opacity="0.5"/><path d="M103.33333333333341,0L654.4444444444445,226.66666666666666L735.593220338983,453.3333333333333L723.3333333333334,680" stroke="rgb(149, 251, 81)" stroke-width="1" stroke-opacity="0.5"/><path d="M258.3333333333333,0L447.77777777777766,226.66666666666666L609.4915254237287,453.3333333333333L516.6666666666667,680" stroke="rgb(149, 251, 81)" stroke-width="1" stroke-opacity="0.5"/><path d="M620,0L551.1111111111112,226.66666666666666L798.6440677966101,453.3333333333333L878.3333333333334,680" stroke="rgb(149, 251, 81)" stroke-width="1" stroke-opacity="0.5"/><path d="M413.3333333333332,0L619.9999999999999,226.66666666666666L630.5084745762712,453.3333333333333L620,680" stroke="rgb(149, 251, 81)" stroke-width="1" stroke-opacity="0.5"/><path d="M258.3333333333333,0L688.8888888888888,226.66666666666666L819.6610169491526,453.3333333333333L723.3333333333334,680" stroke="rgb(149, 251, 81)" stroke-width="1" stroke-opacity="0.5"/><path d="M413.3333333333332,0L619.9999999999999,226.66666666666666L777.6271186440678,453.3333333333333L568.3333333333333,680" stroke="rgb(149, 251, 81)" stroke-width="1" stroke-opacity="0.5"/><path d="M464.9999999999999,0L723.3333333333334,226.66666666666666L693.5593220338983,453.3333333333333L620,680" stroke="rgb(149, 251, 81)" stroke-width="1" stroke-opacity="0.5"/><path d="M516.6666666666666,0L792.2222222222221,226.66666666666666L714.5762711864407,453.3333333333333L671.6666666666666,680" stroke="rgb(149, 251, 81)" stroke-width="1" stroke-opacity="0.5"/><path d="M413.3333333333332,0L861.111111111111,226.66666666666666L798.6440677966101,453.3333333333333L671.6666666666666,680" stroke="rgb(149, 251, 81)" stroke-width="1" stroke-opacity="0.5"/><path d="M516.6666666666666,0L826.6666666666666,226.66666666666666L840.6779661016949,453.3333333333333L826.6666666666666,680" stroke="rgb(149, 251, 81)" stroke-width="1" stroke-opacity="0.5"/><path d="M464.9999999999999,0L585.5555555555555,226.66666666666666L735.593220338983,453.3333333333333L723.3333333333334,680" stroke="rgb(149, 251, 81)" stroke-width="1" stroke-opacity="0.5"/><path d="M310,0L482.2222222222223,226.66666666666666L525.4237288135593,453.3333333333333L465,680" stroke="rgb(149, 251, 81)" stroke-width="1" stroke-opacity="0.5"/><path d="M206.6666666666666,0L413.3333333333333,226.66666666666666L588.4745762711864,453.3333333333333L516.6666666666667,680" stroke="rgb(149, 251, 81)" stroke-width="1" stroke-opacity="0.5"/><path d="M206.6666666666666,0L413.3333333333333,226.66666666666666L567.457627118644,453.3333333333333L465,680" stroke="rgb(149, 251, 81)" stroke-width="1" stroke-opacity="0.5"/><path d="M361.6666666666667,0L516.6666666666666,226.66666666666666L609.4915254237287,453.3333333333333L568.3333333333333,680" stroke="rgb(149, 251, 81)" stroke-width="1" stroke-opacity="0.5"/><path d="M361.6666666666667,0L585.5555555555555,226.66666666666666L861.6949152542372,453.3333333333333L775,680" stroke="rgb(149, 251, 81)" stroke-width="1" stroke-opacity="0.5"/><path d="M516.6666666666666,0L378.88888888888897,226.66666666666666L735.593220338983,453.3333333333333L723.3333333333334,680" stroke="rgb(149, 251, 81)" stroke-width="1" stroke-opacity="0.5"/><path d="M723.3333333333333,0L585.5555555555555,226.66666666666666L735.593220338983,453.3333333333333L775,680" stroke="rgb(149, 251, 81)" stroke-width="1" stroke-opacity="0.5"/><path d="M568.3333333333333,0L826.6666666666666,226.66666666666666L777.6271186440678,453.3333333333333L723.3333333333334,680" stroke="rgb(149, 251, 81)" stroke-width="1" stroke-opacity="0.5"/><path d="M154.9999999999999,0L688.8888888888888,226.66666666666666L714.5762711864407,453.3333333333333L620,680" stroke="rgb(149, 251, 81)" stroke-width="1" stroke-opacity="0.5"/><path d="M516.6666666666666,0L447.77777777777766,226.66666666666666L651.5254237288135,453.3333333333333L620,680" stroke="rgb(149, 251, 81)" stroke-width="1" stroke-opacity="0.5"/><path d="M258.3333333333333,0L413.3333333333333,226.66666666666666L630.5084745762712,453.3333333333333L620,680" stroke="rgb(149, 251, 81)" stroke-width="1" stroke-opacity="0.5"/><path d="M310,0L413.3333333333333,226.66666666666666L714.5762711864407,453.3333333333333L568.3333333333333,680" stroke="rgb(149, 251, 81)" stroke-width="1" stroke-opacity="0.5"/><path d="M516.6666666666666,0L619.9999999999999,226.66666666666666L756.6101694915253,453.3333333333333L671.6666666666666,680" stroke="rgb(149, 251, 81)" stroke-width="1" stroke-opacity="0.5"/><path d="M310,0L516.6666666666666,226.66666666666666L630.5084745762712,453.3333333333333L568.3333333333333,680" stroke="rgb(149, 251, 81)" stroke-width="1" stroke-opacity="0.5"/><path d="M154.9999999999999,0L241.11111111111114,226.66666666666666L483.3898305084745,453.3333333333333L465,680" stroke="rgb(149, 251, 81)" stroke-width="1" stroke-opacity="0.5"/><path d="M361.6666666666667,0L447.77777777777766,226.66666666666666L672.542372881356,453.3333333333333L620,680" stroke="rgb(149, 251, 81)" stroke-width="1" stroke-opacity="0.5"/><path d="M516.6666666666666,0L482.2222222222223,226.66666666666666L672.542372881356,453.3333333333333L568.3333333333333,680" stroke="rgb(149, 251, 81)" stroke-width="1" stroke-opacity="0.5"/><path d="M464.9999999999999,0L482.2222222222223,226.66666666666666L672.542372881356,453.3333333333333L620,680" stroke="rgb(149, 251, 81)" stroke-width="1" stroke-opacity="0.5"/><path d="M464.9999999999999,0L654.4444444444445,226.66666666666666L693.5593220338983,453.3333333333333L620,680" stroke="rgb(149, 251, 81)" stroke-width="1" stroke-opacity="0.5"/><path d="M258.3333333333333,0L275.55555555555543,226.66666666666666L420.33898305084745,453.3333333333333L516.6666666666667,680" stroke="rgb(149, 251, 81)" stroke-width="1" stroke-opacity="0.5"/><path d="M413.3333333333332,0L482.2222222222223,226.66666666666666L651.5254237288135,453.3333333333333L620,680" stroke="rgb(149, 251, 81)" stroke-width="1" stroke-opacity="0.5"/><path d="M671.6666666666665,0L688.8888888888888,226.66666666666666L1050.8474576271185,453.3333333333333L1240,680" stroke="rgb(144, 12, 0)" stroke-width="1" stroke-opacity="0.5"/><path d="M361.6666666666667,0L516.6666666666666,226.66666666666666L861.6949152542372,453.3333333333333L930,680" stroke="rgb(144, 12, 0)" stroke-width="1" stroke-opacity="0.5"/><path d="M516.6666666666666,0L964.4444444444442,226.66666666666666L1029.8305084745764,453.3333333333333L1033.3333333333335,680" stroke="rgb(144, 12, 0)" stroke-width="1" stroke-opacity="0.5"/><path d="M464.9999999999999,0L688.8888888888888,226.66666666666666L966.779661016949,453.3333333333333L878.3333333333334,680" stroke="rgb(144, 12, 0)" stroke-width="1" stroke-opacity="0.5"/><path d="M516.6666666666666,0L757.7777777777777,226.66666666666666L1008.8135593220338,453.3333333333333L1085.0000000000002,680" stroke="rgb(144, 12, 0)" stroke-width="1" stroke-opacity="0.5"/><path d="M516.6666666666666,0L1136.6666666666665,226.66666666666666L1176.9491525423728,453.3333333333333L1033.3333333333335,680" stroke="rgb(144, 12, 0)" stroke-width="1" stroke-opacity="0.5"/><path d="M258.3333333333333,0L206.66666666666683,226.66666666666666L735.593220338983,453.3333333333333L826.6666666666666,680" stroke="rgb(144, 12, 0)" stroke-width="1" stroke-opacity="0.5"/><path d="M464.9999999999999,0L1033.3333333333333,226.66666666666666L1113.8983050847457,453.3333333333333L878.3333333333334,680" stroke="rgb(144, 12, 0)" stroke-width="1" stroke-opacity="0.5"/><path d="M258.3333333333333,0L826.6666666666666,226.66666666666666L1008.8135593220338,453.3333333333333L878.3333333333334,680" stroke="rgb(144, 12, 0)" stroke-width="1" stroke-opacity="0.5"/><path d="M826.6666666666666,0L998.8888888888889,226.66666666666666L1071.8644067796608,453.3333333333333L1240,680" stroke="rgb(144, 12, 0)" stroke-width="1" stroke-opacity="0.5"/><path d="M620,0L757.7777777777777,226.66666666666666L861.6949152542372,453.3333333333333L981.6666666666666,680" stroke="rgb(144, 12, 0)" stroke-width="1" stroke-opacity="0.5"/><path d="M361.6666666666667,0L723.3333333333334,226.66666666666666L903.728813559322,453.3333333333333L930,680" stroke="rgb(144, 12, 0)" stroke-width="1" stroke-opacity="0.5"/><path d="M516.6666666666666,0L861.111111111111,226.66666666666666L945.7627118644067,453.3333333333333L1033.3333333333335,680" stroke="rgb(144, 12, 0)" stroke-width="1" stroke-opacity="0.5"/><path d="M258.3333333333333,0L482.2222222222223,226.66666666666666L840.6779661016949,453.3333333333333L981.6666666666666,680" stroke="rgb(144, 12, 0)" stroke-width="1" stroke-opacity="0.5"/><path d="M413.3333333333332,0L516.6666666666666,226.66666666666666L861.6949152542372,453.3333333333333L1188.3333333333333,680" stroke="rgb(144, 12, 0)" stroke-width="1" stroke-opacity="0.5"/><path d="M620,0L723.3333333333334,226.66666666666666L903.728813559322,453.3333333333333L1136.6666666666665,680" stroke="rgb(144, 12, 0)" stroke-width="1" stroke-opacity="0.5"/><path d="M516.6666666666666,0L757.7777777777777,226.66666666666666L945.7627118644067,453.3333333333333L878.3333333333334,680" stroke="rgb(144, 12, 0)" stroke-width="1" stroke-opacity="0.5"/><path d="M929.9999999999998,0L1171.111111111111,226.66666666666666L1197.9661016949153,453.3333333333333L1085.0000000000002,680" stroke="rgb(144, 12, 0)" stroke-width="1" stroke-opacity="0.5"/><path d="M310,0L1171.111111111111,226.66666666666666L1240,453.3333333333333L1136.6666666666665,680" stroke="rgb(144, 12, 0)" stroke-width="1" stroke-opacity="0.5"/><path d="M103.33333333333341,0L585.5555555555555,226.66666666666666L840.6779661016949,453.3333333333333L723.3333333333334,680" stroke="rgb(144, 12, 0)" stroke-width="1" stroke-opacity="0.5"/><path d="M620,0L895.5555555555555,226.66666666666666L987.7966101694915,453.3333333333333L1136.6666666666665,680" stroke="rgb(144, 12, 0)" stroke-width="1" stroke-opacity="0.5"/><path d="M413.3333333333332,0L447.77777777777766,226.66666666666666L819.6610169491526,453.3333333333333L981.6666666666666,680" stroke="rgb(144, 12, 0)" stroke-width="1" stroke-opacity="0.5"/><path d="M413.3333333333332,0L1171.111111111111,226.66666666666666L1197.9661016949153,453.3333333333333L981.6666666666666,680" stroke="rgb(144, 12, 0)" stroke-width="1" stroke-opacity="0.5"/><path d="M361.6666666666667,0L688.8888888888888,226.66666666666666L819.6610169491526,453.3333333333333L878.3333333333334,680" stroke="rgb(144, 12, 0)" stroke-width="1" stroke-opacity="0.5"/><path d="M671.6666666666665,0L826.6666666666666,226.66666666666666L987.7966101694915,453.3333333333333L1033.3333333333335,680" stroke="rgb(144, 12, 0)" stroke-width="1" stroke-opacity="0.5"/><path d="M620,0L998.8888888888889,226.66666666666666L1050.8474576271185,453.3333333333333L878.3333333333334,680" stroke="rgb(144, 12, 0)" stroke-width="1" stroke-opacity="0.5"/><path d="M413.3333333333332,0L654.4444444444445,226.66666666666666L798.6440677966101,453.3333333333333L878.3333333333334,680" stroke="rgb(144, 12, 0)" stroke-width="1" stroke-opacity="0.5"/><path d="M516.6666666666666,0L619.9999999999999,226.66666666666666L819.6610169491526,453.3333333333333L878.3333333333334,680" stroke="rgb(144, 12, 0)" stroke-width="1" stroke-opacity="0.5"/><path d="M413.3333333333332,0L723.3333333333334,226.66666666666666L966.779661016949,453.3333333333333L1033.3333333333335,680" stroke="rgb(144, 12, 0)" stroke-width="1" stroke-opacity="0.5"/><path d="M516.6666666666666,0L998.8888888888889,226.66666666666666L1008.8135593220338,453.3333333333333L775,680" stroke="rgb(144, 12, 0)" stroke-width="1" stroke-opacity="0.5"/><path d="M413.3333333333332,0L1067.7777777777778,226.66666666666666L1071.8644067796608,453.3333333333333L930,680" stroke="rgb(144, 12, 0)" stroke-width="1" stroke-opacity="0.5"/><path d="M929.9999999999998,0L1240,226.66666666666666L1134.915254237288,453.3333333333333L981.6666666666666,680" stroke="rgb(144, 12, 0)" stroke-width="1" stroke-opacity="0.5"/><path d="M413.3333333333332,0L723.3333333333334,226.66666666666666L966.779661016949,453.3333333333333L1085.0000000000002,680" stroke="rgb(144, 12, 0)" stroke-width="1" stroke-opacity="0.5"/><path d="M413.3333333333332,0L688.8888888888888,226.66666666666666L861.6949152542372,453.3333333333333L723.3333333333334,680" stroke="rgb(144, 12, 0)" stroke-width="1" stroke-opacity="0.5"/><path d="M310,0L619.9999999999999,226.66666666666666L966.779661016949,453.3333333333333L671.6666666666666,680" stroke="rgb(144, 12, 0)" stroke-width="1" stroke-opacity="0.5"/><path d="M516.6666666666666,0L1171.111111111111,226.66666666666666L1071.8644067796608,453.3333333333333L1136.6666666666665,680" stroke="rgb(144, 12, 0)" stroke-width="1" stroke-opacity="0.5"/><path d="M723.3333333333333,0L688.8888888888888,226.66666666666666L966.779661016949,453.3333333333333L1188.3333333333333,680" stroke="rgb(144, 12, 0)" stroke-width="1" stroke-opacity="0.5"/><path d="M568.3333333333333,0L723.3333333333334,226.66666666666666L945.7627118644067,453.3333333333333L878.3333333333334,680" stroke="rgb(144, 12, 0)" stroke-width="1" stroke-opacity="0.5"/><path d="M516.6666666666666,0L585.5555555555555,226.66666666666666L798.6440677966101,453.3333333333333L878.3333333333334,680" stroke="rgb(144, 12, 0)" stroke-width="1" stroke-opacity="0.5"/><path d="M568.3333333333333,0L895.5555555555555,226.66666666666666L924.7457627118645,453.3333333333333L1033.3333333333335,680" stroke="rgb(144, 12, 0)" stroke-width="1" stroke-opacity="0.5"/><path d="M568.3333333333333,0L826.6666666666666,226.66666666666666L966.779661016949,453.3333333333333L1188.3333333333333,680" stroke="rgb(144, 12, 0)" stroke-width="1" stroke-opacity="0.5"/><path d="M568.3333333333333,0L895.5555555555555,226.66666666666666L861.6949152542372,453.3333333333333L1136.6666666666665,680" stroke="rgb(144, 12, 0)" stroke-width="1" stroke-opacity="0.5"/><path d="M361.6666666666667,0L516.6666666666666,226.66666666666666L861.6949152542372,453.3333333333333L930,680" stroke="rgb(144, 12, 0)" stroke-width="1" stroke-opacity="0.5"/><path d="M620,0L861.111111111111,226.66666666666666L1029.8305084745764,453.3333333333333L1136.6666666666665,680" stroke="rgb(144, 12, 0)" stroke-width="1" stroke-opacity="0.5"/><path d="M671.6666666666665,0L826.6666666666666,226.66666666666666L987.7966101694915,453.3333333333333L1240,680" stroke="rgb(144, 12, 0)" stroke-width="1" stroke-opacity="0.5"/><path d="M516.6666666666666,0L826.6666666666666,226.66666666666666L882.7118644067797,453.3333333333333L1136.6666666666665,680" stroke="rgb(144, 12, 0)" stroke-width="1" stroke-opacity="0.5"/><path d="M258.3333333333333,0L688.8888888888888,226.66666666666666L840.6779661016949,453.3333333333333L930,680" stroke="rgb(144, 12, 0)" stroke-width="1" stroke-opacity="0.5"/><path d="M516.6666666666666,0L757.7777777777777,226.66666666666666L882.7118644067797,453.3333333333333L981.6666666666666,680" stroke="rgb(144, 12, 0)" stroke-width="1" stroke-opacity="0.5"/><path d="M723.3333333333333,0L654.4444444444445,226.66666666666666L924.7457627118645,453.3333333333333L1136.6666666666665,680" stroke="rgb(144, 12, 0)" stroke-width="1" stroke-opacity="0.5"/><path d="M516.6666666666666,0L551.1111111111112,226.66666666666666L861.6949152542372,453.3333333333333L878.3333333333334,680" stroke="rgb(144, 12, 0)" stroke-width="1" stroke-opacity="0.5"/></g><g><g transform="translate(0,0)" fill="none" font-size="10" font-family="sans-serif" text-anchor="middle"><path class="domain" stroke="currentColor" d="M0.5,6V0.5H1240.5V6"/><g class="tick" opacity="1" transform="translate(0.5,0)"><line stroke="currentColor" y2="6"/><text fill="currentColor" y="9" dy="0.71em">2.0</text></g><g class="tick" opacity="1" transform="translate(103.83333333333341,0)"><line stroke="currentColor" y2="6"/><text fill="currentColor" y="9" dy="0.71em">2.2</text></g><g class="tick" opacity="1" transform="translate(207.1666666666666,0)"><line stroke="currentColor" y2="6"/><text fill="currentColor" y="9" dy="0.71em">2.4</text></g><g class="tick" opacity="1" transform="translate(310.5,0)"><line stroke="currentColor" y2="6"/><text fill="currentColor" y="9" dy="0.71em">2.6</text></g><g class="tick" opacity="1" transform="translate(413.8333333333332,0)"><line stroke="currentColor" y2="6"/><text fill="currentColor" y="9" dy="0.71em">2.8</text></g><g class="tick" opacity="1" transform="translate(517.1666666666666,0)"><line stroke="currentColor" y2="6"/><text fill="currentColor" y="9" dy="0.71em">3.0</text></g><g class="tick" opacity="1" transform="translate(620.5,0)"><line stroke="currentColor" y2="6"/><text fill="currentColor" y="9" dy="0.71em">3.2</text></g><g class="tick" opacity="1" transform="translate(723.8333333333333,0)"><line stroke="currentColor" y2="6"/><text fill="currentColor" y="9" dy="0.71em">3.4</text></g><g class="tick" opacity="1" transform="translate(827.1666666666666,0)"><line stroke="currentColor" y2="6"/><text fill="currentColor" y="9" dy="0.71em">3.6</text></g><g class="tick" opacity="1" transform="translate(930.4999999999998,0)"><line stroke="currentColor" y2="6"/><text fill="currentColor" y="9" dy="0.71em">3.8</text></g><g class="tick" opacity="1" transform="translate(1033.8333333333333,0)"><line stroke="currentColor" y2="6"/><text fill="currentColor" y="9" dy="0.71em">4.0</text></g><g class="tick" opacity="1" transform="translate(1137.1666666666665,0)"><line stroke="currentColor" y2="6"/><text fill="currentColor" y="9" dy="0.71em">4.2</text></g><g class="tick" opacity="1" transform="translate(1240.5,0)"><line stroke="currentColor" y2="6"/><text fill="currentColor" y="9" dy="0.71em">4.4</text></g><text y="-6" text-anchor="start" fill="currentColor">Sepal Width (cm)</text></g><g transform="translate(0,226.66666666666666)" fill="none" font-size="10" font-family="sans-serif" text-anchor="middle"><path class="domain" stroke="currentColor" d="M0.5,6V0.5H1240.5V6"/><g class="tick" opacity="1" transform="translate(69.38888888888894,0)"><line stroke="currentColor" y2="6"/><text fill="currentColor" y="9" dy="0.71em">4.5</text></g><g class="tick" opacity="1" transform="translate(241.61111111111114,0)"><line stroke="currentColor" y2="6"/><text fill="currentColor" y="9" dy="0.71em">5.0</text></g><g class="tick" opacity="1" transform="translate(413.8333333333333,0)"><line stroke="currentColor" y2="6"/><text fill="currentColor" y="9" dy="0.71em">5.5</text></g><g class="tick" opacity="1" transform="translate(586.0555555555555,0)"><line stroke="currentColor" y2="6"/><text fill="currentColor" y="9" dy="0.71em">6.0</text></g><g class="tick" opacity="1" transform="translate(758.2777777777777,0)"><line stroke="currentColor" y2="6"/><text fill="currentColor" y="9" dy="0.71em">6.5</text></g><g class="tick" opacity="1" transform="translate(930.4999999999999,0)"><line stroke="currentColor" y2="6"/><text fill="currentColor" y="9" dy="0.71em">7.0</text></g><g class="tick" opacity="1" transform="translate(1102.7222222222222,0)"><line stroke="currentColor" y2="6"/><text fill="currentColor" y="9" dy="0.71em">7.5</text></g><text y="-6" text-anchor="start" fill="currentColor">Sepal Length (cm)</text></g><g transform="translate(0,453.3333333333333)" fill="none" font-size="10" font-family="sans-serif" text-anchor="middle"><path class="domain" stroke="currentColor" d="M0.5,6V0.5H1240.5V6"/><g class="tick" opacity="1" transform="translate(0.5,0)"><line stroke="currentColor" y2="6"/><text fill="currentColor" y="9" dy="0.71em">1.0</text></g><g class="tick" opacity="1" transform="translate(105.58474576271186,0)"><line stroke="currentColor" y2="6"/><text fill="currentColor" y="9" dy="0.71em">1.5</text></g><g class="tick" opacity="1" transform="translate(210.66949152542372,0)"><line stroke="currentColor" y2="6"/><text fill="currentColor" y="9" dy="0.71em">2.0</text></g><g class="tick" opacity="1" transform="translate(315.7542372881356,0)"><line stroke="currentColor" y2="6"/><text fill="currentColor" y="9" dy="0.71em">2.5</text></g><g class="tick" opacity="1" transform="translate(420.83898305084745,0)"><line stroke="currentColor" y2="6"/><text fill="currentColor" y="9" dy="0.71em">3.0</text></g><g class="tick" opacity="1" transform="translate(525.9237288135593,0)"><line stroke="currentColor" y2="6"/><text fill="currentColor" y="9" dy="0.71em">3.5</text></g><g class="tick" opacity="1" transform="translate(631.0084745762712,0)"><line stroke="currentColor" y2="6"/><text fill="currentColor" y="9" dy="0.71em">4.0</text></g><g class="tick" opacity="1" transform="translate(736.093220338983,0)"><line stroke="currentColor" y2="6"/><text fill="currentColor" y="9" dy="0.71em">4.5</text></g><g class="tick" opacity="1" transform="translate(841.1779661016949,0)"><line stroke="currentColor" y2="6"/><text fill="currentColor" y="9" dy="0.71em">5.0</text></g><g class="tick" opacity="1" transform="translate(946.2627118644067,0)"><line stroke="currentColor" y2="6"/><text fill="currentColor" y="9" dy="0.71em">5.5</text></g><g class="tick" opacity="1" transform="translate(1051.3474576271185,0)"><line stroke="currentColor" y2="6"/><text fill="currentColor" y="9" dy="0.71em">6.0</text></g><g class="tick" opacity="1" transform="translate(1156.4322033898304,0)"><line stroke="currentColor" y2="6"/><text fill="currentColor" y="9" dy="0.71em">6.5</text></g><text y="-6" text-anchor="start" fill="currentColor">Petal Length (cm)</text></g><g transform="translate(0,680)" fill="none" font-size="10" font-family="sans-serif" text-anchor="middle"><path class="domain" stroke="currentColor" d="M0.5,6V0.5H1240.5V6"/><g class="tick" opacity="1" transform="translate(52.16666666666667,0)"><line stroke="currentColor" y2="6"/><text fill="currentColor" y="9" dy="0.71em">0.2</text></g><g class="tick" opacity="1" transform="translate(155.50000000000003,0)"><line stroke="currentColor" y2="6"/><text fill="currentColor" y="9" dy="0.71em">0.4</text></g><g class="tick" opacity="1" transform="translate(258.83333333333337,0)"><line stroke="currentColor" y2="6"/><text fill="currentColor" y="9" dy="0.71em">0.6</text></g><g class="tick" opacity="1" transform="translate(362.1666666666667,0)"><line stroke="currentColor" y2="6"/><text fill="currentColor" y="9" dy="0.71em">0.8</text></g><g class="tick" opacity="1" transform="translate(465.5,0)"><line stroke="currentColor" y2="6"/><text fill="currentColor" y="9" dy="0.71em">1.0</text></g><g class="tick" opacity="1" transform="translate(568.8333333333333,0)"><line stroke="currentColor" y2="6"/><text fill="currentColor" y="9" dy="0.71em">1.2</text></g><g class="tick" opacity="1" transform="translate(672.1666666666666,0)"><line stroke="currentColor" y2="6"/><text fill="currentColor" y="9" dy="0.71em">1.4</text></g><g class="tick" opacity="1" transform="translate(775.5,0)"><line stroke="currentColor" y2="6"/><text fill="currentColor" y="9" dy="0.71em">1.6</text></g><g class="tick" opacity="1" transform="translate(878.8333333333334,0)"><line stroke="currentColor" y2="6"/><text fill="currentColor" y="9" dy="0.71em">1.8</text></g><g class="tick" opacity="1" transform="translate(982.1666666666666,0)"><line stroke="currentColor" y2="6"/><text fill="currentColor" y="9" dy="0.71em">2.0</text></g><g class="tick" opacity="1" transform="translate(1085.5000000000002,0)"><line stroke="currentColor" y2="6"/><text fill="currentColor" y="9" dy="0.71em">2.2</text></g><g class="tick" opacity="1" transform="translate(1188.8333333333333,0)"><line stroke="currentColor" y2="6"/><text fill="currentColor" y="9" dy="0.71em">2.4</text></g><text y="-6" text-anchor="start" fill="currentColor">Petal Width (cm)</text></g></g></g><g id="legend" transform="translate(1280,20)"><g transform="translate(5,0)"><g class="legendColor" transform="translate(0,0)"><g class="legendCells" transform="translate(0,15.5)"><g class="cell" transform="translate(0, 0)"><rect class="swatch" height="15" width="15" style="fill: rgb(35, 23, 27);"/><text class="label" transform="translate( 20, 12.5)" font-family="&quot;Arial&quot;, sans-serif" font-size="10px"><tspan x="0" dy="0em">Iris Setosa</tspan></text></g><g class="cell" transform="translate(0, 20.5)"><rect class="swatch" height="15" width="15" style="fill: rgb(149, 251, 81);"/><text class="label" transform="translate( 20, 12.5)" font-family="&quot;Arial&quot;, sans-serif" font-size="10px"><tspan x="0" dy="0em">Iris Versicolor</tspan></text></g><g class="cell" transform="translate(0, 41)"><rect class="swatch" height="15" width="15" style="fill: rgb(144, 12, 0);"/><text class="label" transform="translate( 20, 12.5)" font-family="&quot;Arial&quot;, sans-serif" font-size="10px"><tspan x="0" dy="0em">Iris Virginica</tspan></text></g></g><text class="legendTitle" font-family="&quot;Arial&quot;, sans-serif" font-size="12px" font-weight="bold"><tspan x="0" dy="0em">Species</tspan></text></g></g></g></svg>