<?xml version="1.0" encoding="utf-8"?>
<!-- Generator: Adobe Illustrator 25.0.1, SVG Export Plug-In . SVG Version: 6.00 Build 0)  -->
<svg version="1.1" id="Livello_1" xmlns="http://www.w3.org/2000/svg" xmlns:xlink="http://www.w3.org/1999/xlink" x="0px" y="0px"
	 viewBox="0 0 1480 720" style="enable-background:new 0 0 1480 720;" xml:space="preserve">
<style type="text/css">
	.st0{fill:#FFFFFF;}
	.st1{fill:none;stroke:#CCCCCC;}
	.st2{fill:#CCCCCC;}
	.st3{fill:#4B97C9;}
	.st4{fill:#CFE1F2;}
	.st5{fill:#93C3DF;}
	.st6{fill:#1864AA;}
	.st7{fill:#F7FBFF;}
	.st8{fill:#08306B;}
	.st9{font-family:'ArialMT';}
	.st10{font-size:10px;}
	.st11{font-family:'Arial-BoldMT';}
	.st12{font-size:12px;}
	.st13{fill:#F6FAFF;}
	.st14{fill:#F5FAFE;}
	.st15{fill:#F4F9FE;}
	.st16{fill:#F3F8FE;}
	.st17{fill:#F2F8FD;}
	.st18{fill:#F1F7FD;}
	.st19{fill:#F0F6FD;}
	.st20{fill:#EFF6FC;}
	.st21{fill:#EDF5FC;}
	.st22{fill:#ECF4FC;}
	.st23{fill:#EBF4FB;}
	.st24{fill:#EAF3FB;}
	.st25{fill:#E9F2FB;}
	.st26{fill:#E8F2FA;}
	.st27{fill:#E7F1FA;}
	.st28{fill:#E6F0FA;}
	.st29{fill:#E5EFF9;}
	.st30{fill:#E4EFF9;}
	.st31{fill:#E3EEF9;}
	.st32{fill:#E2EDF8;}
	.st33{fill:#E1EDF8;}
	.st34{fill:#E0ECF8;}
	.st35{fill:#DFEBF7;}
	.st36{fill:#DEEBF7;}
	.st37{fill:#DDEAF7;}
	.st38{fill:#DCE9F6;}
	.st39{fill:#DBE9F6;}
	.st40{fill:#DAE8F6;}
	.st41{fill:#D9E7F5;}
	.st42{fill:#D8E7F5;}
	.st43{fill:#D6E6F4;}
	.st44{fill:#D5E5F4;}
	.st45{fill:#D4E5F4;}
	.st46{fill:#D3E4F3;}
	.st47{fill:#D2E3F3;}
	.st48{fill:#D1E3F3;}
	.st49{fill:#D0E2F2;}
	.st50{fill:#CEE1F2;}
	.st51{fill:#CCE0F1;}
	.st52{fill:#CBDFF1;}
	.st53{fill:#CADEF0;}
	.st54{fill:#C9DEF0;}
	.st55{fill:#C8DDEF;}
	.st56{fill:#C6DCEF;}
	.st57{fill:#C5DCEF;}
	.st58{fill:#C4DBEE;}
	.st59{fill:#C2DAEE;}
	.st60{fill:#C1DAED;}
	.st61{fill:#C0D9ED;}
	.st62{fill:#BED8EC;}
	.st63{fill:#BDD7EC;}
	.st64{fill:#BBD7EB;}
	.st65{fill:#BAD6EB;}
	.st66{fill:#B8D5EA;}
	.st67{fill:#B6D5EA;}
	.st68{fill:#B5D4E9;}
	.st69{fill:#B3D3E9;}
	.st70{fill:#B2D2E8;}
	.st71{fill:#B0D2E7;}
	.st72{fill:#AED1E7;}
	.st73{fill:#ACD0E6;}
	.st74{fill:#ABCFE6;}
	.st75{fill:#A9CEE5;}
	.st76{fill:#A7CDE5;}
	.st77{fill:#A5CDE4;}
	.st78{fill:#A3CCE4;}
	.st79{fill:#A2CBE3;}
	.st80{fill:#A0CAE3;}
	.st81{fill:#9EC9E2;}
	.st82{fill:#9CC8E1;}
	.st83{fill:#9AC7E1;}
	.st84{fill:#98C6E0;}
	.st85{fill:#96C5E0;}
	.st86{fill:#94C4DF;}
	.st87{fill:#92C3DF;}
	.st88{fill:#90C2DE;}
	.st89{fill:#8EC1DE;}
	.st90{fill:#8CC0DD;}
	.st91{fill:#8ABFDD;}
	.st92{fill:#88BEDC;}
	.st93{fill:#86BDDC;}
	.st94{fill:#84BBDB;}
	.st95{fill:#82BADB;}
	.st96{fill:#80B9DA;}
	.st97{fill:#7EB8DA;}
	.st98{fill:#7CB7D9;}
	.st99{fill:#7AB6D9;}
	.st100{fill:#78B4D8;}
	.st101{fill:#76B3D8;}
	.st102{fill:#74B2D7;}
	.st103{fill:#72B1D7;}
	.st104{fill:#70B0D6;}
	.st105{fill:#6EAFD5;}
	.st106{fill:#6CADD5;}
	.st107{fill:#6AACD4;}
	.st108{fill:#68ABD4;}
	.st109{fill:#66AAD3;}
	.st110{fill:#64A9D3;}
	.st111{fill:#62A7D2;}
	.st112{fill:#60A6D1;}
	.st113{fill:#5FA5D1;}
	.st114{fill:#5DA4D0;}
	.st115{fill:#5BA3CF;}
	.st116{fill:#59A1CF;}
	.st117{fill:#57A0CE;}
	.st118{fill:#569FCD;}
	.st119{fill:#549ECD;}
	.st120{fill:#529DCC;}
	.st121{fill:#519BCB;}
	.st122{fill:#4F9ACB;}
	.st123{fill:#4D99CA;}
	.st124{fill:#4C98C9;}
	.st125{fill:#4A96C9;}
	.st126{fill:#4895C8;}
	.st127{fill:#4794C7;}
	.st128{fill:#4593C7;}
	.st129{fill:#4491C6;}
	.st130{fill:#4290C5;}
	.st131{fill:#408FC5;}
	.st132{fill:#3F8DC4;}
	.st133{fill:#3D8CC3;}
	.st134{fill:#3C8BC2;}
	.st135{fill:#3A89C2;}
	.st136{fill:#3988C1;}
	.st137{fill:#3787C0;}
	.st138{fill:#3685C0;}
	.st139{fill:#3584BF;}
	.st140{fill:#3383BE;}
	.st141{fill:#3281BD;}
	.st142{fill:#3080BD;}
	.st143{fill:#2F7FBC;}
	.st144{fill:#2E7DBB;}
	.st145{fill:#2C7CBA;}
	.st146{fill:#2B7AB9;}
	.st147{fill:#2A79B9;}
	.st148{fill:#2878B8;}
	.st149{fill:#2776B7;}
	.st150{fill:#2675B6;}
	.st151{fill:#2574B5;}
	.st152{fill:#2372B4;}
	.st153{fill:#2271B3;}
	.st154{fill:#216FB3;}
	.st155{fill:#206EB2;}
	.st156{fill:#1E6DB1;}
	.st157{fill:#1D6BB0;}
	.st158{fill:#1C6AAF;}
	.st159{fill:#1B69AE;}
	.st160{fill:#1A67AD;}
	.st161{fill:#1966AC;}
	.st162{fill:#1864AB;}
	.st163{fill:#1763AA;}
	.st164{fill:#1662A8;}
	.st165{fill:#1560A7;}
	.st166{fill:#145FA6;}
	.st167{fill:#135EA5;}
	.st168{fill:#125CA4;}
	.st169{fill:#115BA2;}
	.st170{fill:#105AA1;}
	.st171{fill:#1058A0;}
	.st172{fill:#0F579E;}
	.st173{fill:#0E559D;}
	.st174{fill:#0E549C;}
	.st175{fill:#0D539A;}
	.st176{fill:#0C5199;}
	.st177{fill:#0C5097;}
	.st178{fill:#0B4F95;}
	.st179{fill:#0B4D94;}
	.st180{fill:#0B4C92;}
	.st181{fill:#0A4A90;}
	.st182{fill:#0A498F;}
	.st183{fill:#0A488D;}
	.st184{fill:#09468B;}
	.st185{fill:#094589;}
	.st186{fill:#094487;}
	.st187{fill:#094285;}
	.st188{fill:#094183;}
	.st189{fill:#083F81;}
	.st190{fill:#083E7F;}
	.st191{fill:#083D7D;}
	.st192{fill:#083B7B;}
	.st193{fill:#083A79;}
	.st194{fill:#083877;}
	.st195{fill:#083775;}
	.st196{fill:#083673;}
	.st197{fill:#083471;}
	.st198{fill:#08336F;}
	.st199{fill:#08316D;}
</style>
<rect id="backgorund" class="st0" width="1480" height="720"/>
<g id="viz" transform="translate(640,360)">
	<g id="links">
		<path class="st1" d="M0,0c8,27,8,27,15.9,53.9"/>
		<path class="st1" d="M15.9,53.9c8,27-8.8-138-6.4-166"/>
		<path class="st1" d="M15.9,53.9c8,27,9.4,26.5,17.8,53.4"/>
		<path class="st1" d="M15.9,53.9c8,27-66.5-121.5-83.4-144"/>
		<path class="st1" d="M9.6-112.1c2.4-28,2.4-28,4.8-56"/>
		<path class="st1" d="M33.8,107.3c8.4,26.8,15.3-239.1,25.1-265.5"/>
		<path class="st1" d="M33.8,107.3c8.4,26.8,75-196.4,96.8-214.2"/>
		<path class="st1" d="M33.8,107.3c8.4,26.8,98.3-58.9,124.7-49.2"/>
		<path class="st1" d="M33.8,107.3c8.4,26.8,29.8,18.1,42.5,43.2"/>
		<path class="st1" d="M33.8,107.3c8.4,26.8-22,32.8-19.6,60.8"/>
		<path class="st1" d="M33.8,107.3c8.4,26.8-76.9,26.5-85.5,53.3"/>
		<path class="st1" d="M33.8,107.3c8.4,26.8-136.6-11.4-157.1,7.8"/>
		<path class="st1" d="M33.8,107.3c8.4,26.8-171-76.7-198.5-70.6"/>
		<path class="st1" d="M33.8,107.3C42.2,134.1-140.6-2.5-168.7-2.9"/>
		<path class="st1" d="M-67.4-90.1c-16.9-22.5-65,42.8-91.5,33.4"/>
		<path class="st1" d="M-67.4-90.1c-16.9-22.5-13.6-24.9-29.8-47.8"/>
		<path class="st1" d="M-67.4-90.1c-16.9-22.5,55.4-50,53-78.1"/>
		<path class="st1" d="M14.4-168.1c2.4-28,2.4-28,4.8-56"/>
		<path class="st1" d="M58.9-158.1c9.8-26.4-6.7-31.7,0.8-58.8"/>
		<path class="st1" d="M58.9-158.1c9.8-26.4,25.8-19.6,37.9-45"/>
		<path class="st1" d="M130.6-106.9c21.8-17.8-21-56.7-5.4-80"/>
		<path class="st1" d="M130.6-106.9c21.8-17.8,0.4-40.1,19.1-61.1"/>
		<path class="st1" d="M130.6-106.9c21.8-17.8,20.7-19.1,42.3-37.1"/>
		<path class="st1" d="M130.6-106.9c21.8-17.8,39.1,7,63.3-7.3"/>
		<path class="st1" d="M130.6-106.9c21.8-17.8,52.3,33.9,78.4,23.5"/>
		<path class="st1" d="M158.4,58.1c26.4,9.7,33.1-103.8,60.4-110.3"/>
		<path class="st1" d="M158.4,58.1c26.4,9.7,37.8-73.5,65.9-75.7"/>
		<path class="st1" d="M158.4,58.1c26.4,9.7,37.7-41.5,65.8-39.2"/>
		<path class="st1" d="M158.4,58.1c26.4,9.7,31.8-7.2,58.9,0"/>
		<path class="st1" d="M158.4,58.1c26.4,9.7,19.3,26.5,44.7,38.6"/>
		<path class="st1" d="M158.4,58.1c26.4,9.7,2.6,55.1,25.6,71.3"/>
		<path class="st1" d="M158.4,58.1c26.4,9.7-17.8,79.7,2.3,99.4"/>
		<path class="st1" d="M158.4,58.1c26.4,9.7-43.2,101.6-26.8,124.4"/>
		<path class="st1" d="M76.3,150.5c12.7,25.1,12.7,25.1,25.4,50.2"/>
		<path class="st1" d="M14.1,168.2c2.4,28,48,18.7,56.9,45.3"/>
		<path class="st1" d="M14.1,168.2c2.4,28,19.8,25.8,24.6,53.5"/>
		<path class="st1" d="M14.1,168.2c2.4,28-13.2,28.7-13.1,56.8"/>
		<path class="st1" d="M14.1,168.2c2.4,28-46.2,26.1-50.8,53.8"/>
		<path class="st1" d="M-51.8,160.6c-8.6,26.8-8.6,26.8-17.3,53.5"/>
		<path class="st1" d="M-123.4,115.1c-20.6,19.2,36,61.3,23.5,86.5"/>
		<path class="st1" d="M-123.4,115.1c-20.6,19.2,6.8,43.5-9.8,66.2"/>
		<path class="st1" d="M-123.4,115.1c-20.6,19.2-21.6,18.1-42.3,37.1"/>
		<path class="st1" d="M-123.4,115.1c-20.6,19.2-42.7-9.4-66.4,5.7"/>
		<path class="st1" d="M-123.4,115.1c-20.6,19.2-58.2-39.1-84.2-28.3"/>
		<path class="st1" d="M-164.7,36.7c-27.5,6.1-27.5,6.1-54.9,12.2"/>
		<path class="st1" d="M-168.7-2.9c-28.1-0.5-27.8,14.1-55.9,15.7"/>
		<path class="st1" d="M-168.7-2.9c-28.1-0.5-27.3-15-55.3-17.6"/>
		<path class="st1" d="M-158.9-56.7c-26.5-9.4-31.6,7.2-58.8,0.1"/>
		<path class="st1" d="M-158.9-56.7c-26.5-9.4-19.9-25.6-45.5-37.3"/>
		<path class="st1" d="M-97.2-137.9c-16.2-23-64.3,25.4-87.4,9.3"/>
		<path class="st1" d="M-97.2-137.9c-16.2-23-42.9-0.4-62.9-20.1"/>
		<path class="st1" d="M-97.2-137.9c-16.2-23-17.4-22.1-33.8-45"/>
		<path class="st1" d="M-97.2-137.9c-16.2-23,13.6-40.3,1.7-65.8"/>
		<path class="st1" d="M-97.2-137.9c-16.2-23,47.4-52.6,40.3-79.8"/>
		<path class="st1" d="M-14.4-168.1c-2.4-28-2.4-28-4.8-56"/>
	</g>
	<g>
		<circle class="st2" cx="0" cy="0" r="5"/>
		<circle class="st2" cx="15.9" cy="53.9" r="5"/>
		<circle class="st3" cx="9.6" cy="-112.1" r="5"/>
		<circle class="st2" cx="33.8" cy="107.3" r="5"/>
		<circle class="st2" cx="-67.4" cy="-90.1" r="5"/>
		<circle class="st3" cx="14.4" cy="-168.1" r="5"/>
		<circle class="st2" cx="58.9" cy="-158.1" r="5"/>
		<circle class="st2" cx="130.6" cy="-106.9" r="5"/>
		<circle class="st2" cx="158.4" cy="58.1" r="5"/>
		<circle class="st4" cx="76.3" cy="150.5" r="5"/>
		<circle class="st2" cx="14.1" cy="168.2" r="5"/>
		<circle class="st4" cx="-51.8" cy="160.6" r="5"/>
		<circle class="st2" cx="-123.4" cy="115.1" r="5"/>
		<circle class="st3" cx="-164.7" cy="36.7" r="5"/>
		<circle class="st4" cx="-168.7" cy="-2.9" r="5"/>
		<circle class="st3" cx="-158.9" cy="-56.7" r="5"/>
		<circle class="st2" cx="-97.2" cy="-137.9" r="5"/>
		<circle class="st5" cx="-14.4" cy="-168.1" r="5"/>
		<circle class="st3" cx="19.2" cy="-224.2" r="16.3"/>
		<circle class="st6" cx="59.6" cy="-217" r="18.3"/>
		<circle class="st5" cx="96.8" cy="-203.1" r="14.1"/>
		<circle class="st7" cx="125.2" cy="-186.9" r="8.2"/>
		<circle class="st4" cx="149.7" cy="-168" r="11.5"/>
		<circle class="st4" cx="172.8" cy="-144.1" r="11.5"/>
		<circle class="st3" cx="193.9" cy="-114.2" r="16.3"/>
		<circle class="st7" cx="209" cy="-83.4" r="8.2"/>
		<circle class="st5" cx="218.9" cy="-52.2" r="14.1"/>
		<circle class="st4" cx="224.3" cy="-17.6" r="11.5"/>
		<circle class="st3" cx="224.2" cy="18.9" r="16.3"/>
		<circle class="st3" cx="217.4" cy="58.1" r="16.3"/>
		<circle class="st6" cx="203.2" cy="96.7" r="18.3"/>
		<circle class="st4" cx="184.1" cy="129.4" r="11.5"/>
		<circle class="st3" cx="160.7" cy="157.5" r="16.3"/>
		<circle class="st5" cx="131.7" cy="182.5" r="14.1"/>
		<circle class="st4" cx="101.7" cy="200.7" r="11.5"/>
		<circle class="st4" cx="71" cy="213.5" r="11.5"/>
		<circle class="st4" cx="38.7" cy="221.6" r="11.5"/>
		<circle class="st6" cx="1" cy="225" r="18.3"/>
		<circle class="st4" cx="-36.7" cy="222" r="11.5"/>
		<circle class="st4" cx="-69" cy="214.1" r="11.5"/>
		<circle class="st4" cx="-99.9" cy="201.6" r="11.5"/>
		<circle class="st8" cx="-133.2" cy="181.3" r="20"/>
		<circle class="st6" cx="-165.7" cy="152.2" r="18.3"/>
		<circle class="st5" cx="-189.8" cy="120.8" r="14.1"/>
		<circle class="st3" cx="-207.6" cy="86.8" r="16.3"/>
		<circle class="st3" cx="-219.6" cy="48.9" r="16.3"/>
		<circle class="st4" cx="-224.6" cy="12.7" r="11.5"/>
		<circle class="st4" cx="-224.1" cy="-20.5" r="11.5"/>
		<circle class="st3" cx="-217.8" cy="-56.5" r="16.3"/>
		<circle class="st3" cx="-204.4" cy="-94" r="16.3"/>
		<circle class="st3" cx="-184.6" cy="-128.6" r="16.3"/>
		<circle class="st5" cx="-160.2" cy="-158" r="14.1"/>
		<circle class="st3" cx="-131" cy="-182.9" r="16.3"/>
		<circle class="st6" cx="-95.6" cy="-203.7" r="18.3"/>
		<circle class="st3" cx="-56.9" cy="-217.7" r="16.3"/>
		<circle class="st5" cx="-19.2" cy="-224.2" r="14.1"/>
	</g>
	<g id="labels">
		<g transform="
	        rotate(73.53625035561461)
	        translate(0,0)
	        rotate(0)
	      ">
		</g>
		<g transform="
	        rotate(73.53625035561461)
	        translate(56.25,0)
	        rotate(0)
	      ">
			<text transform="matrix(1 0 0 1 -38.7978 -5.5003)" class="st9 st10">Felidae</text>
		</g>
		<g transform="
	        rotate(-85.11664800227078)
	        translate(112.5,0)
	        rotate(0)
	      ">
			<text transform="matrix(1 0 0 1 -71.0442 -5.5547)" class="st9 st10">Acinonychinae</text>
		</g>
		<g transform="
	        rotate(72.53915257021103)
	        translate(112.5,0)
	        rotate(0)
	      ">
			<text transform="matrix(1 0 0 1 -38.7979 -5.5)" class="st9 st10">Felinae</text>
		</g>
		<g transform="
	        rotate(233.18624649890359)
	        translate(112.5,0)
	        rotate(180)
	      ">
			<text transform="matrix(1 0 0 1 6 -5.4999)" class="st9 st10">Pantherinae</text>
		</g>
		<g transform="
	        rotate(-85.11664800227078)
	        translate(168.75,0)
	        rotate(0)
	      ">
			<text transform="matrix(1 0 0 1 -46.5764 -5.5546)" class="st9 st10">Acinonyx</text>
		</g>
		<g transform="
	        rotate(-69.58228262776905)
	        translate(168.75,0)
	        rotate(0)
	      ">
			<text transform="matrix(1 0 0 1 -52.1375 -5.5002)" class="st9 st10">Catopuma</text>
		</g>
		<g transform="
	        rotate(-39.311004413778335)
	        translate(168.75,0)
	        rotate(0)
	      ">
			<text transform="matrix(1 0 0 1 -27.1134 -5.4999)" class="st9 st10">Felis</text>
		</g>
		<g transform="
	        rotate(20.13103154297758)
	        translate(168.75,0)
	        rotate(0)
	      ">
			<text transform="matrix(1 0 0 1 -53.2608 -5.4999)" class="st9 st10">Leopardus</text>
		</g>
		<g transform="
	        rotate(63.12095939060583)
	        translate(168.75,0)
	        rotate(0)
	      ">
			<text transform="matrix(1 0 0 1 -54.921 -5.4999)" class="st9 st10">Leptailurus</text>
		</g>
		<g transform="
	        rotate(85.2024981479363)
	        translate(168.75,0)
	        rotate(0)
	      ">
			<text transform="matrix(1 0 0 1 -26.752 -5.5546)" class="st9 st10">Lynx</text>
		</g>
		<g transform="
	        rotate(107.86821198413986)
	        translate(168.75,0)
	        rotate(180)
	      ">
			<text transform="matrix(1 0 0 1 6.0004 -5.5001)" class="st9 st10">Otocolobus</text>
		</g>
		<g transform="
	        rotate(136.98099893843278)
	        translate(168.75,0)
	        rotate(180)
	      ">
			<text transform="matrix(1 0 0 1 6.0001 -5.5001)" class="st9 st10">Prionailurus</text>
		</g>
		<g transform="
	        rotate(167.44301955842604)
	        translate(168.75,0)
	        rotate(180)
	      ">
			<text transform="matrix(1 0 0 1 6 -5.5)" class="st9 st10">Profelis</text>
		</g>
		<g transform="
	        rotate(180.9989406109284)
	        translate(168.75,0)
	        rotate(180)
	      ">
			<text transform="matrix(1 0 0 1 6 -5.5)" class="st9 st10">Puma</text>
		</g>
		<g transform="
	        rotate(199.62867226032472)
	        translate(168.75,0)
	        rotate(180)
	      ">
			<text transform="matrix(1 0 0 1 6.0001 -5.5001)" class="st9 st10">Neofelis</text>
		</g>
		<g transform="
	        rotate(234.81341923411514)
	        translate(168.75,0)
	        rotate(180)
	      ">
			<text transform="matrix(1 0 0 1 5.9997 -5.4996)" class="st9 st10">Panthera</text>
		</g>
		<g transform="
	        rotate(265.11664800227084)
	        translate(168.75,0)
	        rotate(180)
	      ">
			<text transform="matrix(1 0 0 1 6 -5.5001)" class="st9 st10">Pardofelis</text>
		</g>
		<g transform="
	        rotate(-85.11664800227078)
	        translate(225,0)
	        rotate(0)
	      ">
			<text transform="matrix(1 0 0 1 21.3301 -5.5)" class="st11 st10">cheetah</text>
		</g>
		<g transform="
	        rotate(-74.63343201982644)
	        translate(225,0)
	        rotate(0)
	      ">
			<text transform="matrix(1 0 0 1 23.2573 -5.5548)" class="st11 st10">bay cat</text>
		</g>
		<g transform="
	        rotate(-64.53113323571168)
	        translate(225,0)
	        rotate(0)
	      ">
			<text transform="matrix(1 0 0 1 19.1419 -5.5545)" class="st11 st10">Asiatic golden cat</text>
		</g>
		<g transform="
	        rotate(-56.186031577895996)
	        translate(225,0)
	        rotate(0)
	      ">
			<text transform="matrix(1 0 0 1 13.1649 -5.4999)" class="st11 st10">domestic cat</text>
		</g>
		<g transform="
	        rotate(-48.29276809084058)
	        translate(225,0)
	        rotate(0)
	      ">
			<text transform="matrix(1 0 0 1 16.547 -5.5548)" class="st11 st10">jungle cat</text>
		</g>
		<g transform="
	        rotate(-39.81065763523222)
	        translate(225,0)
	        rotate(0)
	      ">
			<text transform="matrix(1 0 0 1 16.5468 -5.5)" class="st11 st10">sand cat</text>
		</g>
		<g transform="
	        rotate(-30.495791810534023)
	        translate(225,0)
	        rotate(0)
	      ">
			<text transform="matrix(1 0 0 1 21.3301 -5.5001)" class="st11 st10">black-footed cat</text>
		</g>
		<g transform="
	        rotate(-21.76977295438877)
	        translate(225,0)
	        rotate(0)
	      ">
			<text transform="matrix(1 0 0 1 13.165 -5.5)" class="st11 st10">wild cat</text>
		</g>
		<g transform="
	        rotate(-13.424671296573095)
	        translate(225,0)
	        rotate(0)
	      ">
			<text transform="matrix(1 0 0 1 19.1421 -5.5)" class="st11 st10">Colocolo</text>
		</g>
		<g transform="
	        rotate(-4.490722670204491)
	        translate(225,0)
	        rotate(0)
	      ">
			<text transform="matrix(1 0 0 1 16.547 -5.5547)" class="st11 st10">Geoffroy&apos;s cat</text>
		</g>
		<g transform="
	        rotate(4.824143154493697)
	        translate(225,0)
	        rotate(0)
	      ">
			<text transform="matrix(1 0 0 1 21.3299 -5.5)" class="st11 st10">Kodkod</text>
		</g>
		<g transform="
	        rotate(14.971764348281738)
	        translate(225,0)
	        rotate(0)
	      ">
			<text transform="matrix(1 0 0 1 21.3299 -5.5)" class="st11 st10">Southern oncilla</text>
		</g>
		<g transform="
	        rotate(25.454980330726073)
	        translate(225,0)
	        rotate(0)
	      ">
			<text transform="matrix(1 0 0 1 23.2575 -5.5001)" class="st11 st10">Andean mountain cat</text>
		</g>
		<g transform="
	        rotate(35.10544094408057)
	        translate(225,0)
	        rotate(0)
	      ">
			<text transform="matrix(1 0 0 1 16.5469 -5.4999)" class="st11 st10">ocelot</text>
		</g>
		<g transform="
	        rotate(44.42030676877877)
	        translate(225,0)
	        rotate(0)
	      ">
			<text transform="matrix(1 0 0 1 21.3296 -5.4998)" class="st11 st10">little spotted cat</text>
		</g>
		<g transform="
	        rotate(54.187010764237215)
	        translate(225,0)
	        rotate(0)
	      ">
			<text transform="matrix(1 0 0 1 19.1424 -5.5549)" class="st11 st10">margay</text>
		</g>
		<g transform="
	        rotate(63.12095939060583)
	        translate(225,0)
	        rotate(0)
	      ">
			<text transform="matrix(1 0 0 1 16.5469 -5.4998)" class="st11 st10">serval</text>
		</g>
		<g transform="
	        rotate(71.60306984621417)
	        translate(225,0)
	        rotate(0)
	      ">
			<text transform="matrix(1 0 0 1 16.5472 -5.5551)" class="st11 st10">Canada lynx</text>
		</g>
		<g transform="
	        rotate(80.08518030182253)
	        translate(225,0)
	        rotate(0)
	      ">
			<text transform="matrix(1 0 0 1 16.547 -5.5544)" class="st11 st10">Eurasian lynx</text>
		</g>
		<g transform="
	        rotate(89.73564091517699)
	        translate(225,0)
	        rotate(0)
	      ">
			<text transform="matrix(1 0 0 1 23.2574 -5.5542)" class="st11 st10">Spanish lynx</text>
		</g>
		<g transform="
	        rotate(99.38610152853153)
	        translate(225,0)
	        rotate(180)
	      ">
			<text transform="matrix(1 0 0 1 -49.3255 -5.5)" class="st11 st10">bobcat</text>
		</g>
		<g transform="
	        rotate(107.86821198413986)
	        translate(225,0)
	        rotate(180)
	      ">
			<text transform="matrix(1 0 0 1 -70.6288 -5.5001)" class="st11 st10">Pallas&apos;s cat</text>
		</g>
		<g transform="
	        rotate(116.3503224397482)
	        translate(225,0)
	        rotate(180)
	      ">
			<text transform="matrix(1 0 0 1 -69.8965 -5.5)" class="st11 st10">leopard cat</text>
		</g>
		<g transform="
	        rotate(126.30418393353338)
	        translate(225,0)
	        rotate(180)
	      ">
			<text transform="matrix(1 0 0 1 -81.6796 -5.5)" class="st11 st10">Iriomote cat</text>
		</g>
		<g transform="
	        rotate(137.42639558506477)
	        translate(225,0)
	        rotate(180)
	      ">
			<text transform="matrix(1 0 0 1 -93.8286 -5.4999)" class="st11 st10">flat-headed cat</text>
		</g>
		<g transform="
	        rotate(147.5286943691795)
	        translate(225,0)
	        rotate(180)
	      ">
			<text transform="matrix(1 0 0 1 -100.2651 -5.5548)" class="st11 st10">rusty-spotted cat</text>
		</g>
		<g transform="
	        rotate(157.29539836463798)
	        translate(225,0)
	        rotate(180)
	      ">
			<text transform="matrix(1 0 0 1 -71.3348 -5.5545)" class="st11 st10">fishing cat</text>
		</g>
		<g transform="
	        rotate(167.44301955842604)
	        translate(225,0)
	        rotate(180)
	      ">
			<text transform="matrix(1 0 0 1 -108.5663 -5.5547)" class="st11 st10">African golden cat</text>
		</g>
		<g transform="
	        rotate(176.75788538312418)
	        translate(225,0)
	        rotate(180)
	      ">
			<text transform="matrix(1 0 0 1 -43.2169 -5.5)" class="st11 st10">puma</text>
		</g>
		<g transform="
	        rotate(185.23999583873257)
	        translate(225,0)
	        rotate(180)
	      ">
			<text transform="matrix(1 0 0 1 -67.6603 -5.5547)" class="st11 st10">jaguarundi</text>
		</g>
		<g transform="
	        rotate(194.5548616634307)
	        translate(225,0)
	        rotate(180)
	      ">
			<text transform="matrix(1 0 0 1 -131.8963 -5.4999)" class="st11 st10">Sunda clouded leopard</text>
		</g>
		<g transform="
	        rotate(204.70248285721874)
	        translate(225,0)
	        rotate(180)
	      ">
			<text transform="matrix(1 0 0 1 -100.2216 -5.5)" class="st11 st10">Clouded leopard</text>
		</g>
		<g transform="
	        rotate(214.85010405100678)
	        translate(225,0)
	        rotate(180)
	      ">
			<text transform="matrix(1 0 0 1 -39.1034 -5.4999)" class="st11 st10">lion</text>
		</g>
		<g transform="
	        rotate(224.61680804646522)
	        translate(225,0)
	        rotate(180)
	      ">
			<text transform="matrix(1 0 0 1 -49.1515 -5.555)" class="st11 st10">jaguar</text>
		</g>
		<g transform="
	        rotate(234.38351204192372)
	        translate(225,0)
	        rotate(180)
	      ">
			<text transform="matrix(1 0 0 1 -57.4479 -5.5004)" class="st11 st10">leopard</text>
		</g>
		<g transform="
	        rotate(244.86672802436811)
	        translate(225,0)
	        rotate(180)
	      ">
			<text transform="matrix(1 0 0 1 -44.9273 -5.555)" class="st11 st10">tiger</text>
		</g>
		<g transform="
	        rotate(255.34994400681228)
	        translate(225,0)
	        rotate(180)
	      ">
			<text transform="matrix(1 0 0 1 -85.783 -5.5002)" class="st11 st10">snow leopard</text>
		</g>
		<g transform="
	        rotate(265.11664800227084)
	        translate(225,0)
	        rotate(180)
	      ">
			<text transform="matrix(1 0 0 1 -75.2749 -5.5002)" class="st11 st10">marbled cat</text>
		</g>
	</g>
</g>
<g id="legend" transform="translate(1280,50)">
	<g transform="translate(5,0)">
		<g transform="translate(0,0)">
			<g transform="translate(20,15.5)">
				<g transform="translate(0, 0)">
					<rect x="-42.5" y="0" class="st1" width="0" height="0"/>
					<text transform="matrix(1 0 0 1 -17.5 5)" class="st9 st10">0.0</text>
				</g>
				<g transform="translate(0, 35.5)">
					<circle class="st1" cx="-42.5" cy="0" r="20"/>
					<text transform="matrix(1 0 0 1 -17.5 5)" class="st9 st10">6.0</text>
				</g>
			</g>
			<text transform="matrix(1 0 0 1 -42.5 0)" class="st11 st12">Risk of Extinction</text>
		</g>
		<g transform="translate(0,103.5)">
			<g transform="translate(0,15.5)">
				<g transform="translate(0,0)">
					<rect x="-42.5" y="0" class="st7" width="1" height="10"/>
					<text transform="matrix(1 0 0 1 -42.5 23)" class="st9 st10">1.0</text>
				</g>
				<g transform="translate(1,0)">
					<rect x="-42.5" y="0" class="st13" width="1" height="10"/>
				</g>
				<g transform="translate(2,0)">
					<rect x="-42.5" y="0" class="st14" width="1" height="10"/>
				</g>
				<g transform="translate(3,0)">
					<rect x="-42.5" y="0" class="st15" width="1" height="10"/>
				</g>
				<g transform="translate(4,0)">
					<rect x="-42.5" y="0" class="st16" width="1" height="10"/>
				</g>
				<g transform="translate(5,0)">
					<rect x="-42.5" y="0" class="st17" width="1" height="10"/>
				</g>
				<g transform="translate(6,0)">
					<rect x="-42.5" y="0" class="st18" width="1" height="10"/>
				</g>
				<g transform="translate(7,0)">
					<rect x="-42.5" y="0" class="st19" width="1" height="10"/>
				</g>
				<g transform="translate(8,0)">
					<rect x="-42.5" y="0" class="st20" width="1" height="10"/>
				</g>
				<g transform="translate(9,0)">
					<rect x="-42.5" y="0" class="st21" width="1" height="10"/>
				</g>
				<g transform="translate(10,0)">
					<rect x="-42.5" y="0" class="st22" width="1" height="10"/>
				</g>
				<g transform="translate(11,0)">
					<rect x="-42.5" y="0" class="st23" width="1" height="10"/>
				</g>
				<g transform="translate(12,0)">
					<rect x="-42.5" y="0" class="st24" width="1" height="10"/>
				</g>
				<g transform="translate(13,0)">
					<rect x="-42.5" y="0" class="st25" width="1" height="10"/>
				</g>
				<g transform="translate(14,0)">
					<rect x="-42.5" y="0" class="st26" width="1" height="10"/>
				</g>
				<g transform="translate(15,0)">
					<rect x="-42.5" y="0" class="st27" width="1" height="10"/>
				</g>
				<g transform="translate(16,0)">
					<rect x="-42.5" y="0" class="st28" width="1" height="10"/>
				</g>
				<g transform="translate(17,0)">
					<rect x="-42.5" y="0" class="st29" width="1" height="10"/>
				</g>
				<g transform="translate(18,0)">
					<rect x="-42.5" y="0" class="st30" width="1" height="10"/>
				</g>
				<g transform="translate(19,0)">
					<rect x="-42.5" y="0" class="st31" width="1" height="10"/>
				</g>
				<g transform="translate(20,0)">
					<rect x="-42.5" y="0" class="st32" width="1" height="10"/>
				</g>
				<g transform="translate(21,0)">
					<rect x="-42.5" y="0" class="st33" width="1" height="10"/>
				</g>
				<g transform="translate(22,0)">
					<rect x="-42.5" y="0" class="st34" width="1" height="10"/>
				</g>
				<g transform="translate(23,0)">
					<rect x="-42.5" y="0" class="st35" width="1" height="10"/>
				</g>
				<g transform="translate(24,0)">
					<rect x="-42.5" y="0" class="st36" width="1" height="10"/>
				</g>
				<g transform="translate(25,0)">
					<rect x="-42.5" y="0" class="st37" width="1" height="10"/>
				</g>
				<g transform="translate(26,0)">
					<rect x="-42.5" y="0" class="st38" width="1" height="10"/>
				</g>
				<g transform="translate(27,0)">
					<rect x="-42.5" y="0" class="st39" width="1" height="10"/>
				</g>
				<g transform="translate(28,0)">
					<rect x="-42.5" y="0" class="st40" width="1" height="10"/>
				</g>
				<g transform="translate(29,0)">
					<rect x="-42.5" y="0" class="st41" width="1" height="10"/>
				</g>
				<g transform="translate(30,0)">
					<rect x="-42.5" y="0" class="st42" width="1" height="10"/>
				</g>
				<g transform="translate(31,0)">
					<rect x="-42.5" y="0" class="st43" width="1" height="10"/>
				</g>
				<g transform="translate(32,0)">
					<rect x="-42.5" y="0" class="st44" width="1" height="10"/>
				</g>
				<g transform="translate(33,0)">
					<rect x="-42.5" y="0" class="st45" width="1" height="10"/>
				</g>
				<g transform="translate(34,0)">
					<rect x="-42.5" y="0" class="st46" width="1" height="10"/>
				</g>
				<g transform="translate(35,0)">
					<rect x="-42.5" y="0" class="st47" width="1" height="10"/>
				</g>
				<g transform="translate(36,0)">
					<rect x="-42.5" y="0" class="st48" width="1" height="10"/>
				</g>
				<g transform="translate(37,0)">
					<rect x="-42.5" y="0" class="st49" width="1" height="10"/>
				</g>
				<g transform="translate(38,0)">
					<rect x="-42.5" y="0" class="st4" width="1" height="10"/>
				</g>
				<g transform="translate(39,0)">
					<rect x="-42.5" y="0" class="st50" width="1" height="10"/>
				</g>
				<g transform="translate(40,0)">
					<rect x="-42.5" y="0" class="st51" width="1" height="10"/>
				</g>
				<g transform="translate(41,0)">
					<rect x="-42.5" y="0" class="st52" width="1" height="10"/>
				</g>
				<g transform="translate(42,0)">
					<rect x="-42.5" y="0" class="st53" width="1" height="10"/>
				</g>
				<g transform="translate(43,0)">
					<rect x="-42.5" y="0" class="st54" width="1" height="10"/>
				</g>
				<g transform="translate(44,0)">
					<rect x="-42.5" y="0" class="st55" width="1" height="10"/>
				</g>
				<g transform="translate(45,0)">
					<rect x="-42.5" y="0" class="st56" width="1" height="10"/>
				</g>
				<g transform="translate(46,0)">
					<rect x="-42.5" y="0" class="st57" width="1" height="10"/>
				</g>
				<g transform="translate(47,0)">
					<rect x="-42.5" y="0" class="st58" width="1" height="10"/>
				</g>
				<g transform="translate(48,0)">
					<rect x="-42.5" y="0" class="st59" width="1" height="10"/>
				</g>
				<g transform="translate(49,0)">
					<rect x="-42.5" y="0" class="st60" width="1" height="10"/>
				</g>
				<g transform="translate(50,0)">
					<rect x="-42.5" y="0" class="st61" width="1" height="10"/>
				</g>
				<g transform="translate(51,0)">
					<rect x="-42.5" y="0" class="st62" width="1" height="10"/>
				</g>
				<g transform="translate(52,0)">
					<rect x="-42.5" y="0" class="st63" width="1" height="10"/>
				</g>
				<g transform="translate(53,0)">
					<rect x="-42.5" y="0" class="st64" width="1" height="10"/>
				</g>
				<g transform="translate(54,0)">
					<rect x="-42.5" y="0" class="st65" width="1" height="10"/>
				</g>
				<g transform="translate(55,0)">
					<rect x="-42.5" y="0" class="st66" width="1" height="10"/>
				</g>
				<g transform="translate(56,0)">
					<rect x="-42.5" y="0" class="st67" width="1" height="10"/>
				</g>
				<g transform="translate(57,0)">
					<rect x="-42.5" y="0" class="st68" width="1" height="10"/>
				</g>
				<g transform="translate(58,0)">
					<rect x="-42.5" y="0" class="st69" width="1" height="10"/>
				</g>
				<g transform="translate(59,0)">
					<rect x="-42.5" y="0" class="st70" width="1" height="10"/>
				</g>
				<g transform="translate(60,0)">
					<rect x="-42.5" y="0" class="st71" width="1" height="10"/>
				</g>
				<g transform="translate(61,0)">
					<rect x="-42.5" y="0" class="st72" width="1" height="10"/>
				</g>
				<g transform="translate(62,0)">
					<rect x="-42.5" y="0" class="st73" width="1" height="10"/>
				</g>
				<g transform="translate(63,0)">
					<rect x="-42.5" y="0" class="st74" width="1" height="10"/>
				</g>
				<g transform="translate(64,0)">
					<rect x="-42.5" y="0" class="st75" width="1" height="10"/>
				</g>
				<g transform="translate(65,0)">
					<rect x="-42.5" y="0" class="st76" width="1" height="10"/>
				</g>
				<g transform="translate(66,0)">
					<rect x="-42.5" y="0" class="st77" width="1" height="10"/>
				</g>
				<g transform="translate(67,0)">
					<rect x="-42.5" y="0" class="st78" width="1" height="10"/>
				</g>
				<g transform="translate(68,0)">
					<rect x="-42.5" y="0" class="st79" width="1" height="10"/>
				</g>
				<g transform="translate(69,0)">
					<rect x="-42.5" y="0" class="st80" width="1" height="10"/>
				</g>
				<g transform="translate(70,0)">
					<rect x="-42.5" y="0" class="st81" width="1" height="10"/>
				</g>
				<g transform="translate(71,0)">
					<rect x="-42.5" y="0" class="st82" width="1" height="10"/>
				</g>
				<g transform="translate(72,0)">
					<rect x="-42.5" y="0" class="st83" width="1" height="10"/>
				</g>
				<g transform="translate(73,0)">
					<rect x="-42.5" y="0" class="st84" width="1" height="10"/>
				</g>
				<g transform="translate(74,0)">
					<rect x="-42.5" y="0" class="st85" width="1" height="10"/>
				</g>
				<g transform="translate(75,0)">
					<rect x="-42.5" y="0" class="st86" width="1" height="10"/>
				</g>
				<g transform="translate(76,0)">
					<rect x="-42.5" y="0" class="st87" width="1" height="10"/>
				</g>
				<g transform="translate(77,0)">
					<rect x="-42.5" y="0" class="st88" width="1" height="10"/>
				</g>
				<g transform="translate(78,0)">
					<rect x="-42.5" y="0" class="st89" width="1" height="10"/>
				</g>
				<g transform="translate(79,0)">
					<rect x="-42.5" y="0" class="st90" width="1" height="10"/>
				</g>
				<g transform="translate(80,0)">
					<rect x="-42.5" y="0" class="st91" width="1" height="10"/>
				</g>
				<g transform="translate(81,0)">
					<rect x="-42.5" y="0" class="st92" width="1" height="10"/>
				</g>
				<g transform="translate(82,0)">
					<rect x="-42.5" y="0" class="st93" width="1" height="10"/>
				</g>
				<g transform="translate(83,0)">
					<rect x="-42.5" y="0" class="st94" width="1" height="10"/>
				</g>
				<g transform="translate(84,0)">
					<rect x="-42.5" y="0" class="st95" width="1" height="10"/>
				</g>
				<g transform="translate(85,0)">
					<rect x="-42.5" y="0" class="st96" width="1" height="10"/>
				</g>
				<g transform="translate(86,0)">
					<rect x="-42.5" y="0" class="st97" width="1" height="10"/>
				</g>
				<g transform="translate(87,0)">
					<rect x="-42.5" y="0" class="st98" width="1" height="10"/>
				</g>
				<g transform="translate(88,0)">
					<rect x="-42.5" y="0" class="st99" width="1" height="10"/>
				</g>
				<g transform="translate(89,0)">
					<rect x="-42.5" y="0" class="st100" width="1" height="10"/>
				</g>
				<g transform="translate(90,0)">
					<rect x="-42.5" y="0" class="st101" width="1" height="10"/>
				</g>
				<g transform="translate(91,0)">
					<rect x="-42.5" y="0" class="st102" width="1" height="10"/>
				</g>
				<g transform="translate(92,0)">
					<rect x="-42.5" y="0" class="st103" width="1" height="10"/>
				</g>
				<g transform="translate(93,0)">
					<rect x="-42.5" y="0" class="st104" width="1" height="10"/>
				</g>
				<g transform="translate(94,0)">
					<rect x="-42.5" y="0" class="st105" width="1" height="10"/>
				</g>
				<g transform="translate(95,0)">
					<rect x="-42.5" y="0" class="st106" width="1" height="10"/>
				</g>
				<g transform="translate(96,0)">
					<rect x="-42.5" y="0" class="st107" width="1" height="10"/>
				</g>
				<g transform="translate(97,0)">
					<rect x="-42.5" y="0" class="st108" width="1" height="10"/>
				</g>
				<g transform="translate(98,0)">
					<rect x="-42.5" y="0" class="st109" width="1" height="10"/>
				</g>
				<g transform="translate(99,0)">
					<rect x="-42.5" y="0" class="st110" width="1" height="10"/>
				</g>
				<g transform="translate(100,0)">
					<rect x="-42.5" y="0" class="st111" width="1" height="10"/>
				</g>
				<g transform="translate(101,0)">
					<rect x="-42.5" y="0" class="st112" width="1" height="10"/>
				</g>
				<g transform="translate(102,0)">
					<rect x="-42.5" y="0" class="st113" width="1" height="10"/>
				</g>
				<g transform="translate(103,0)">
					<rect x="-42.5" y="0" class="st114" width="1" height="10"/>
				</g>
				<g transform="translate(104,0)">
					<rect x="-42.5" y="0" class="st115" width="1" height="10"/>
				</g>
				<g transform="translate(105,0)">
					<rect x="-42.5" y="0" class="st116" width="1" height="10"/>
				</g>
				<g transform="translate(106,0)">
					<rect x="-42.5" y="0" class="st117" width="1" height="10"/>
				</g>
				<g transform="translate(107,0)">
					<rect x="-42.5" y="0" class="st118" width="1" height="10"/>
				</g>
				<g transform="translate(108,0)">
					<rect x="-42.5" y="0" class="st119" width="1" height="10"/>
				</g>
				<g transform="translate(109,0)">
					<rect x="-42.5" y="0" class="st120" width="1" height="10"/>
				</g>
				<g transform="translate(110,0)">
					<rect x="-42.5" y="0" class="st121" width="1" height="10"/>
				</g>
				<g transform="translate(111,0)">
					<rect x="-42.5" y="0" class="st122" width="1" height="10"/>
				</g>
				<g transform="translate(112,0)">
					<rect x="-42.5" y="0" class="st123" width="1" height="10"/>
				</g>
				<g transform="translate(113,0)">
					<rect x="-42.5" y="0" class="st124" width="1" height="10"/>
				</g>
				<g transform="translate(114,0)">
					<rect x="-42.5" y="0" class="st125" width="1" height="10"/>
				</g>
				<g transform="translate(115,0)">
					<rect x="-42.5" y="0" class="st126" width="1" height="10"/>
				</g>
				<g transform="translate(116,0)">
					<rect x="-42.5" y="0" class="st127" width="1" height="10"/>
				</g>
				<g transform="translate(117,0)">
					<rect x="-42.5" y="0" class="st128" width="1" height="10"/>
				</g>
				<g transform="translate(118,0)">
					<rect x="-42.5" y="0" class="st129" width="1" height="10"/>
				</g>
				<g transform="translate(119,0)">
					<rect x="-42.5" y="0" class="st130" width="1" height="10"/>
				</g>
				<g transform="translate(120,0)">
					<rect x="-42.5" y="0" class="st131" width="1" height="10"/>
				</g>
				<g transform="translate(121,0)">
					<rect x="-42.5" y="0" class="st132" width="1" height="10"/>
				</g>
				<g transform="translate(122,0)">
					<rect x="-42.5" y="0" class="st133" width="1" height="10"/>
				</g>
				<g transform="translate(123,0)">
					<rect x="-42.5" y="0" class="st134" width="1" height="10"/>
				</g>
				<g transform="translate(124,0)">
					<rect x="-42.5" y="0" class="st135" width="1" height="10"/>
				</g>
				<g transform="translate(125,0)">
					<rect x="-42.5" y="0" class="st136" width="1" height="10"/>
				</g>
				<g transform="translate(126,0)">
					<rect x="-42.5" y="0" class="st137" width="1" height="10"/>
				</g>
				<g transform="translate(127,0)">
					<rect x="-42.5" y="0" class="st138" width="1" height="10"/>
				</g>
				<g transform="translate(128,0)">
					<rect x="-42.5" y="0" class="st139" width="1" height="10"/>
				</g>
				<g transform="translate(129,0)">
					<rect x="-42.5" y="0" class="st140" width="1" height="10"/>
				</g>
				<g transform="translate(130,0)">
					<rect x="-42.5" y="0" class="st141" width="1" height="10"/>
				</g>
				<g transform="translate(131,0)">
					<rect x="-42.5" y="0" class="st142" width="1" height="10"/>
				</g>
				<g transform="translate(132,0)">
					<rect x="-42.5" y="0" class="st143" width="1" height="10"/>
				</g>
				<g transform="translate(133,0)">
					<rect x="-42.5" y="0" class="st144" width="1" height="10"/>
				</g>
				<g transform="translate(134,0)">
					<rect x="-42.5" y="0" class="st145" width="1" height="10"/>
				</g>
				<g transform="translate(135,0)">
					<rect x="-42.5" y="0" class="st146" width="1" height="10"/>
				</g>
				<g transform="translate(136,0)">
					<rect x="-42.5" y="0" class="st147" width="1" height="10"/>
				</g>
				<g transform="translate(137,0)">
					<rect x="-42.5" y="0" class="st148" width="1" height="10"/>
				</g>
				<g transform="translate(138,0)">
					<rect x="-42.5" y="0" class="st149" width="1" height="10"/>
				</g>
				<g transform="translate(139,0)">
					<rect x="-42.5" y="0" class="st150" width="1" height="10"/>
				</g>
				<g transform="translate(140,0)">
					<rect x="-42.5" y="0" class="st151" width="1" height="10"/>
				</g>
				<g transform="translate(141,0)">
					<rect x="-42.5" y="0" class="st152" width="1" height="10"/>
				</g>
				<g transform="translate(142,0)">
					<rect x="-42.5" y="0" class="st153" width="1" height="10"/>
				</g>
				<g transform="translate(143,0)">
					<rect x="-42.5" y="0" class="st154" width="1" height="10"/>
				</g>
				<g transform="translate(144,0)">
					<rect x="-42.5" y="0" class="st155" width="1" height="10"/>
				</g>
				<g transform="translate(145,0)">
					<rect x="-42.5" y="0" class="st156" width="1" height="10"/>
				</g>
				<g transform="translate(146,0)">
					<rect x="-42.5" y="0" class="st157" width="1" height="10"/>
				</g>
				<g transform="translate(147,0)">
					<rect x="-42.5" y="0" class="st158" width="1" height="10"/>
				</g>
				<g transform="translate(148,0)">
					<rect x="-42.5" y="0" class="st159" width="1" height="10"/>
				</g>
				<g transform="translate(149,0)">
					<rect x="-42.5" y="0" class="st160" width="1" height="10"/>
				</g>
				<g transform="translate(150,0)">
					<rect x="-42.5" y="0" class="st161" width="1" height="10"/>
				</g>
				<g transform="translate(151,0)">
					<rect x="-42.5" y="0" class="st162" width="1" height="10"/>
				</g>
				<g transform="translate(152,0)">
					<rect x="-42.5" y="0" class="st163" width="1" height="10"/>
				</g>
				<g transform="translate(153,0)">
					<rect x="-42.5" y="0" class="st164" width="1" height="10"/>
				</g>
				<g transform="translate(154,0)">
					<rect x="-42.5" y="0" class="st165" width="1" height="10"/>
				</g>
				<g transform="translate(155,0)">
					<rect x="-42.5" y="0" class="st166" width="1" height="10"/>
				</g>
				<g transform="translate(156,0)">
					<rect x="-42.5" y="0" class="st167" width="1" height="10"/>
				</g>
				<g transform="translate(157,0)">
					<rect x="-42.5" y="0" class="st168" width="1" height="10"/>
				</g>
				<g transform="translate(158,0)">
					<rect x="-42.5" y="0" class="st169" width="1" height="10"/>
				</g>
				<g transform="translate(159,0)">
					<rect x="-42.5" y="0" class="st170" width="1" height="10"/>
				</g>
				<g transform="translate(160,0)">
					<rect x="-42.5" y="0" class="st171" width="1" height="10"/>
				</g>
				<g transform="translate(161,0)">
					<rect x="-42.5" y="0" class="st172" width="1" height="10"/>
				</g>
				<g transform="translate(162,0)">
					<rect x="-42.5" y="0" class="st173" width="1" height="10"/>
				</g>
				<g transform="translate(163,0)">
					<rect x="-42.5" y="0" class="st174" width="1" height="10"/>
				</g>
				<g transform="translate(164,0)">
					<rect x="-42.5" y="0" class="st175" width="1" height="10"/>
				</g>
				<g transform="translate(165,0)">
					<rect x="-42.5" y="0" class="st176" width="1" height="10"/>
				</g>
				<g transform="translate(166,0)">
					<rect x="-42.5" y="0" class="st177" width="1" height="10"/>
				</g>
				<g transform="translate(167,0)">
					<rect x="-42.5" y="0" class="st178" width="1" height="10"/>
				</g>
				<g transform="translate(168,0)">
					<rect x="-42.5" y="0" class="st179" width="1" height="10"/>
				</g>
				<g transform="translate(169,0)">
					<rect x="-42.5" y="0" class="st180" width="1" height="10"/>
				</g>
				<g transform="translate(170,0)">
					<rect x="-42.5" y="0" class="st181" width="1" height="10"/>
				</g>
				<g transform="translate(171,0)">
					<rect x="-42.5" y="0" class="st182" width="1" height="10"/>
				</g>
				<g transform="translate(172,0)">
					<rect x="-42.5" y="0" class="st183" width="1" height="10"/>
				</g>
				<g transform="translate(173,0)">
					<rect x="-42.5" y="0" class="st184" width="1" height="10"/>
				</g>
				<g transform="translate(174,0)">
					<rect x="-42.5" y="0" class="st185" width="1" height="10"/>
				</g>
				<g transform="translate(175,0)">
					<rect x="-42.5" y="0" class="st186" width="1" height="10"/>
				</g>
				<g transform="translate(176,0)">
					<rect x="-42.5" y="0" class="st187" width="1" height="10"/>
				</g>
				<g transform="translate(177,0)">
					<rect x="-42.5" y="0" class="st188" width="1" height="10"/>
				</g>
				<g transform="translate(178,0)">
					<rect x="-42.5" y="0" class="st189" width="1" height="10"/>
				</g>
				<g transform="translate(179,0)">
					<rect x="-42.5" y="0" class="st190" width="1" height="10"/>
				</g>
				<g transform="translate(180,0)">
					<rect x="-42.5" y="0" class="st191" width="1" height="10"/>
				</g>
				<g transform="translate(181,0)">
					<rect x="-42.5" y="0" class="st192" width="1" height="10"/>
				</g>
				<g transform="translate(182,0)">
					<rect x="-42.5" y="0" class="st193" width="1" height="10"/>
				</g>
				<g transform="translate(183,0)">
					<rect x="-42.5" y="0" class="st194" width="1" height="10"/>
				</g>
				<g transform="translate(184,0)">
					<rect x="-42.5" y="0" class="st195" width="1" height="10"/>
				</g>
				<g transform="translate(185,0)">
					<rect x="-42.5" y="0" class="st196" width="1" height="10"/>
				</g>
				<g transform="translate(186,0)">
					<rect x="-42.5" y="0" class="st197" width="1" height="10"/>
				</g>
				<g transform="translate(187,0)">
					<rect x="-42.5" y="0" class="st198" width="1" height="10"/>
				</g>
				<g transform="translate(188,0)">
					<rect x="-42.5" y="0" class="st199" width="1" height="10"/>
				</g>
				<g transform="translate(189,0)">
					<rect x="-42.5" y="0" class="st8" width="1" height="10"/>
					<text transform="matrix(1 0 0 1 -56.4014 23)" class="st9 st10">6.0</text>
				</g>
			</g>
			<text transform="matrix(1 0 0 1 -42.5 0)" class="st11 st12">Risk of Extinction</text>
		</g>
	</g>
</g>
</svg>
