<?xml version="1.0" encoding="utf-8"?>
<!-- Generator: Adobe Illustrator 25.0.1, SVG Export Plug-In . SVG Version: 6.00 Build 0)  -->
<svg version="1.1" id="Livello_1" xmlns="http://www.w3.org/2000/svg" xmlns:xlink="http://www.w3.org/1999/xlink" x="0px" y="0px"
	 viewBox="0 0 1480 720" style="enable-background:new 0 0 1480 720;" xml:space="preserve">
<style type="text/css">
	.st0{fill:#FFFFFF;}
	.st1{fill:none;stroke:#CCCCCC;}
	.st2{fill:#CCCCCC;}
	.st3{font-family:'ArialMT';}
	.st4{font-size:9.8446px;}
	.st5{fill:#4B97C9;}
	.st6{fill:#CFE1F2;}
	.st7{fill:#93C3DF;}
	.st8{font-family:'Arial-BoldMT';}
	.st9{fill:#1864AA;}
	.st10{fill:#F7FBFF;}
	.st11{fill:#08306B;}
	.st12{font-size:11.8135px;}
	.st13{fill:#F6FAFF;}
	.st14{fill:#F5FAFE;}
	.st15{fill:#F4F9FE;}
	.st16{fill:#F3F8FE;}
	.st17{fill:#F2F8FD;}
	.st18{fill:#F1F7FD;}
	.st19{fill:#F0F6FD;}
	.st20{fill:#EFF6FC;}
	.st21{fill:#EDF5FC;}
	.st22{fill:#ECF4FC;}
	.st23{fill:#EBF4FB;}
	.st24{fill:#EAF3FB;}
	.st25{fill:#E9F2FB;}
	.st26{fill:#E8F2FA;}
	.st27{fill:#E7F1FA;}
	.st28{fill:#E6F0FA;}
	.st29{fill:#E5EFF9;}
	.st30{fill:#E4EFF9;}
	.st31{fill:#E3EEF9;}
	.st32{fill:#E2EDF8;}
	.st33{fill:#E1EDF8;}
	.st34{fill:#E0ECF8;}
	.st35{fill:#DFEBF7;}
	.st36{fill:#DEEBF7;}
	.st37{fill:#DDEAF7;}
	.st38{fill:#DCE9F6;}
	.st39{fill:#DBE9F6;}
	.st40{fill:#DAE8F6;}
	.st41{fill:#D9E7F5;}
	.st42{fill:#D8E7F5;}
	.st43{fill:#D6E6F4;}
	.st44{fill:#D5E5F4;}
	.st45{fill:#D4E5F4;}
	.st46{fill:#D3E4F3;}
	.st47{fill:#D2E3F3;}
	.st48{fill:#D1E3F3;}
	.st49{fill:#D0E2F2;}
	.st50{fill:#CEE1F2;}
	.st51{fill:#CCE0F1;}
	.st52{fill:#CBDFF1;}
	.st53{fill:#CADEF0;}
	.st54{fill:#C9DEF0;}
	.st55{fill:#C8DDEF;}
	.st56{fill:#C6DCEF;}
	.st57{fill:#C5DCEF;}
	.st58{fill:#C4DBEE;}
	.st59{fill:#C2DAEE;}
	.st60{fill:#C1DAED;}
	.st61{fill:#C0D9ED;}
	.st62{fill:#BED8EC;}
	.st63{fill:#BDD7EC;}
	.st64{fill:#BBD7EB;}
	.st65{fill:#BAD6EB;}
	.st66{fill:#B8D5EA;}
	.st67{fill:#B6D5EA;}
	.st68{fill:#B5D4E9;}
	.st69{fill:#B3D3E9;}
	.st70{fill:#B2D2E8;}
	.st71{fill:#B0D2E7;}
	.st72{fill:#AED1E7;}
	.st73{fill:#ACD0E6;}
	.st74{fill:#ABCFE6;}
	.st75{fill:#A9CEE5;}
	.st76{fill:#A7CDE5;}
	.st77{fill:#A5CDE4;}
	.st78{fill:#A3CCE4;}
	.st79{fill:#A2CBE3;}
	.st80{fill:#A0CAE3;}
	.st81{fill:#9EC9E2;}
	.st82{fill:#9CC8E1;}
	.st83{fill:#9AC7E1;}
	.st84{fill:#98C6E0;}
	.st85{fill:#96C5E0;}
	.st86{fill:#94C4DF;}
	.st87{fill:#92C3DF;}
	.st88{fill:#90C2DE;}
	.st89{fill:#8EC1DE;}
	.st90{fill:#8CC0DD;}
	.st91{fill:#8ABFDD;}
	.st92{fill:#88BEDC;}
	.st93{fill:#86BDDC;}
	.st94{fill:#84BBDB;}
	.st95{fill:#82BADB;}
	.st96{fill:#80B9DA;}
	.st97{fill:#7EB8DA;}
	.st98{fill:#7CB7D9;}
	.st99{fill:#7AB6D9;}
	.st100{fill:#78B4D8;}
	.st101{fill:#76B3D8;}
	.st102{fill:#74B2D7;}
	.st103{fill:#72B1D7;}
	.st104{fill:#70B0D6;}
	.st105{fill:#6EAFD5;}
	.st106{fill:#6CADD5;}
	.st107{fill:#6AACD4;}
	.st108{fill:#68ABD4;}
	.st109{fill:#66AAD3;}
	.st110{fill:#64A9D3;}
	.st111{fill:#62A7D2;}
	.st112{fill:#60A6D1;}
	.st113{fill:#5FA5D1;}
	.st114{fill:#5DA4D0;}
	.st115{fill:#5BA3CF;}
	.st116{fill:#59A1CF;}
	.st117{fill:#57A0CE;}
	.st118{fill:#569FCD;}
	.st119{fill:#549ECD;}
	.st120{fill:#529DCC;}
	.st121{fill:#519BCB;}
	.st122{fill:#4F9ACB;}
	.st123{fill:#4D99CA;}
	.st124{fill:#4C98C9;}
	.st125{fill:#4A96C9;}
	.st126{fill:#4895C8;}
	.st127{fill:#4794C7;}
	.st128{fill:#4593C7;}
	.st129{fill:#4491C6;}
	.st130{fill:#4290C5;}
	.st131{fill:#408FC5;}
	.st132{fill:#3F8DC4;}
	.st133{fill:#3D8CC3;}
	.st134{fill:#3C8BC2;}
	.st135{fill:#3A89C2;}
	.st136{fill:#3988C1;}
	.st137{fill:#3787C0;}
	.st138{fill:#3685C0;}
	.st139{fill:#3584BF;}
	.st140{fill:#3383BE;}
	.st141{fill:#3281BD;}
	.st142{fill:#3080BD;}
	.st143{fill:#2F7FBC;}
	.st144{fill:#2E7DBB;}
	.st145{fill:#2C7CBA;}
	.st146{fill:#2B7AB9;}
	.st147{fill:#2A79B9;}
	.st148{fill:#2878B8;}
	.st149{fill:#2776B7;}
	.st150{fill:#2675B6;}
	.st151{fill:#2574B5;}
	.st152{fill:#2372B4;}
	.st153{fill:#2271B3;}
	.st154{fill:#216FB3;}
	.st155{fill:#206EB2;}
	.st156{fill:#1E6DB1;}
	.st157{fill:#1D6BB0;}
	.st158{fill:#1C6AAF;}
	.st159{fill:#1B69AE;}
	.st160{fill:#1A67AD;}
	.st161{fill:#1966AC;}
	.st162{fill:#1864AB;}
	.st163{fill:#1763AA;}
	.st164{fill:#1662A8;}
	.st165{fill:#1560A7;}
	.st166{fill:#145FA6;}
	.st167{fill:#135EA5;}
	.st168{fill:#125CA4;}
	.st169{fill:#115BA2;}
	.st170{fill:#105AA1;}
	.st171{fill:#1058A0;}
	.st172{fill:#0F579E;}
	.st173{fill:#0E559D;}
	.st174{fill:#0E549C;}
	.st175{fill:#0D539A;}
	.st176{fill:#0C5199;}
	.st177{fill:#0C5097;}
	.st178{fill:#0B4F95;}
	.st179{fill:#0B4D94;}
	.st180{fill:#0B4C92;}
	.st181{fill:#0A4A90;}
	.st182{fill:#0A498F;}
	.st183{fill:#0A488D;}
	.st184{fill:#09468B;}
	.st185{fill:#094589;}
	.st186{fill:#094487;}
	.st187{fill:#094285;}
	.st188{fill:#094183;}
	.st189{fill:#083F81;}
	.st190{fill:#083E7F;}
	.st191{fill:#083D7D;}
	.st192{fill:#083B7B;}
	.st193{fill:#083A79;}
	.st194{fill:#083877;}
	.st195{fill:#083775;}
	.st196{fill:#083673;}
	.st197{fill:#083471;}
	.st198{fill:#08336F;}
	.st199{fill:#08316D;}
</style>
<rect id="backgorund" y="11.2" class="st0" width="1457" height="708.8"/>
<g id="viz" transform="translate(20,20)">
	<g id="links">
		<path class="st1" d="M-0.3,313.3c136.6,0,136.6,0,273.2,0"/>
		<path class="st1" d="M272.9,313.3c136.6,0,136.6-293.2,273.2-293.2"/>
		<path class="st1" d="M272.9,313.3c136.6,0,136.6-3.3,273.2-3.3"/>
		<path class="st1" d="M272.9,313.3c136.6,0,136.6,296.5,273.2,296.5"/>
		<path class="st1" d="M546.1,20.1c136.6,0,136.6,0,273.2,0"/>
		<path class="st1" d="M546.1,310c136.6,0,136.6-259.8,273.2-259.8"/>
		<path class="st1" d="M546.1,310c136.6,0,136.6-206.2,273.2-206.2"/>
		<path class="st1" d="M546.1,310c136.6,0,136.6-97.7,273.2-97.7"/>
		<path class="st1" d="M546.1,310c136.6,0,136.6-17.5,273.2-17.5"/>
		<path class="st1" d="M546.1,310c136.6,0,136.6,22.1,273.2,22.1"/>
		<path class="st1" d="M546.1,310c136.6,0,136.6,63.3,273.2,63.3"/>
		<path class="st1" d="M546.1,310c136.6,0,136.6,118,273.2,118"/>
		<path class="st1" d="M546.1,310c136.6,0,136.6,176.6,273.2,176.6"/>
		<path class="st1" d="M546.1,310c136.6,0,136.6,201.2,273.2,201.2"/>
		<path class="st1" d="M546.1,609.9c136.6,0,136.6-64.3,273.2-64.3"/>
		<path class="st1" d="M546.1,609.9c136.6,0,136.6,3.1,273.2,3.1"/>
		<path class="st1" d="M546.1,609.9c136.6,0,136.6,61.2,273.2,61.2"/>
		<path class="st1" d="M819.2,20.1c136.6,0,136.6,0,273.2,0"/>
		<path class="st1" d="M819.2,50.2c136.6,0,136.6-9.7,273.2-9.7"/>
		<path class="st1" d="M819.2,50.2c136.6,0,136.6,9.7,273.2,9.7"/>
		<path class="st1" d="M819.2,103.8c136.6,0,136.6-29.4,273.2-29.4"/>
		<path class="st1" d="M819.2,103.8c136.6,0,136.6-16.2,273.2-16.2"/>
		<path class="st1" d="M819.2,103.8c136.6,0,136.6-1.4,273.2-1.4"/>
		<path class="st1" d="M819.2,103.8c136.6,0,136.6,15.8,273.2,15.8"/>
		<path class="st1" d="M819.2,103.8c136.6,0,136.6,31.3,273.2,31.3"/>
		<path class="st1" d="M819.2,212.3c136.6,0,136.6-62.8,273.2-62.8"/>
		<path class="st1" d="M819.2,212.3c136.6,0,136.6-46.7,273.2-46.7"/>
		<path class="st1" d="M819.2,212.3c136.6,0,136.6-29.5,273.2-29.5"/>
		<path class="st1" d="M819.2,212.3c136.6,0,136.6-10,273.2-10"/>
		<path class="st1" d="M819.2,212.3c136.6,0,136.6,10.5,273.2,10.5"/>
		<path class="st1" d="M819.2,212.3c136.6,0,136.6,28.6,273.2,28.6"/>
		<path class="st1" d="M819.2,212.3c136.6,0,136.6,45.7,273.2,45.7"/>
		<path class="st1" d="M819.2,212.3c136.6,0,136.6,64.2,273.2,64.2"/>
		<path class="st1" d="M819.2,292.6c136.6,0,136.6,0,273.2,0"/>
		<path class="st1" d="M819.2,332.1c136.6,0,136.6-24.7,273.2-24.7"/>
		<path class="st1" d="M819.2,332.1c136.6,0,136.6-9.9,273.2-9.9"/>
		<path class="st1" d="M819.2,332.1c136.6,0,136.6,8.2,273.2,8.2"/>
		<path class="st1" d="M819.2,332.1c136.6,0,136.6,26.3,273.2,26.3"/>
		<path class="st1" d="M819.2,373.3c136.6,0,136.6,0,273.2,0"/>
		<path class="st1" d="M819.2,428.1c136.6,0,136.6-40,273.2-40"/>
		<path class="st1" d="M819.2,428.1c136.6,0,136.6-21,273.2-21"/>
		<path class="st1" d="M819.2,428.1c136.6,0,136.6,1.3,273.2,1.3"/>
		<path class="st1" d="M819.2,428.1c136.6,0,136.6,20.6,273.2,20.6"/>
		<path class="st1" d="M819.2,428.1c136.6,0,136.6,39.1,273.2,39.1"/>
		<path class="st1" d="M819.2,486.7c136.6,0,136.6,0,273.2,0"/>
		<path class="st1" d="M819.2,511.2c136.6,0,136.6-7.4,273.2-7.4"/>
		<path class="st1" d="M819.2,511.2c136.6,0,136.6,7.4,273.2,7.4"/>
		<path class="st1" d="M819.2,545.6c136.6,0,136.6-9.8,273.2-9.8"/>
		<path class="st1" d="M819.2,545.6c136.6,0,136.6,9.8,273.2,9.8"/>
		<path class="st1" d="M819.2,612.9c136.6,0,136.6-38.1,273.2-38.1"/>
		<path class="st1" d="M819.2,612.9c136.6,0,136.6-19.6,273.2-19.6"/>
		<path class="st1" d="M819.2,612.9c136.6,0,136.6-1.2,273.2-1.2"/>
		<path class="st1" d="M819.2,612.9c136.6,0,136.6,19.2,273.2,19.2"/>
		<path class="st1" d="M819.2,612.9c136.6,0,136.6,39.7,273.2,39.7"/>
		<path class="st1" d="M819.2,671.1c136.6,0,136.6,0,273.2,0"/>
	</g>
	<g id="nodes">
		<g transform="translate(0,307.2305792377512)">
			<circle class="st2" cx="-0.3" cy="6.1" r="4.9"/>
		</g>
		<g id="Felidae" transform="translate(277.5,307.2305792377512)">
			<circle class="st2" cx="-4.6" cy="6.1" r="4.9"/>
			<text transform="matrix(1 0 0 1 -44.7881 0.6903)" class="st3 st4">Felidae</text>
		</g>
		<g id="Acinonychinae" transform="translate(555,9.36589531409199)">
			<circle class="st5" cx="-8.9" cy="10.7" r="4.9"/>
			<text transform="matrix(1 0 0 1 -80.8467 5.2669)" class="st3 st4">Acinonychinae</text>
		</g>
		<g id="_Felinae" transform="translate(555,303.872878043942)">
			<circle class="st2" cx="-8.9" cy="6.2" r="4.9"/>
			<text transform="matrix(1 0 0 1 -49.1021 0.7429)" class="st3 st4">Felinae</text>
		</g>
		<g id="_Pantherinae" transform="translate(555,608.4529643552197)">
			<circle class="st2" cx="-8.9" cy="1.4" r="4.9"/>
			<text transform="matrix(1 0 0 1 -69.9062 -3.992)" class="st3 st4">Pantherinae</text>
		</g>
		<g id="Acinonyx" transform="translate(832.5,9.36589531409199)">
			<circle class="st5" cx="-13.3" cy="10.7" r="4.9"/>
			<text transform="matrix(1 0 0 1 -61.0732 5.2669)" class="st3 st4">Acinonyx</text>
		</g>
		<g id="_Catopuma" transform="translate(832.5,39.98974008166801)">
			<circle class="st2" cx="-13.3" cy="10.3" r="4.9"/>
			<text transform="matrix(1 0 0 1 -66.5479 4.8447)" class="st3 st4">Catopuma</text>
		</g>
		<g id="_Felis" transform="translate(832.5,94.37527758862744)">
			<circle class="st2" cx="-13.3" cy="9.4" r="4.9"/>
			<text transform="matrix(1 0 0 1 -41.9121 3.9992)" class="st3 st4">Felis</text>
		</g>
		<g id="_Leopardus" transform="translate(832.5,204.586667702168)">
			<circle class="st2" cx="-13.3" cy="7.7" r="4.9"/>
			<text transform="matrix(1 0 0 1 -67.6533 2.2859)" class="st3 st4">Leopardus</text>
		</g>
		<g id="_Leptailurus" transform="translate(832.5,286.1366594313709)">
			<circle class="st6" cx="-13.3" cy="6.4" r="4.9"/>
			<text transform="matrix(1 0 0 1 -69.2881 1.0186)" class="st3 st4">Leptailurus</text>
		</g>
		<g id="_Lynx" transform="translate(832.5,326.2952356957068)">
			<circle class="st2" cx="-13.3" cy="5.8" r="4.9"/>
			<text transform="matrix(1 0 0 1 -41.5566 0.3405)" class="st3 st4">Lynx</text>
		</g>
		<g id="_Otocolobus" transform="translate(832.5,368.1225933415348)">
			<circle class="st6" cx="-13.3" cy="5.2" r="4.9"/>
			<text transform="matrix(1 0 0 1 -70.9268 -0.2564)" class="st3 st4">Otocolobus</text>
		</g>
		<g id="_Prionailurus" transform="translate(832.5,423.78284392918107)">
			<circle class="st2" cx="-13.3" cy="4.3" r="4.9"/>
			<text transform="matrix(1 0 0 1 -73.1094 -1.1217)" class="st3 st4">Prionailurus</text>
		</g>
		<g id="_Profelis" transform="translate(832.5,483.2973774228122)">
			<circle class="st5" cx="-13.3" cy="3.4" r="4.9"/>
			<text transform="matrix(1 0 0 1 -53.9541 -2.0464)" class="st3 st4">Profelis</text>
		</g>
		<g id="_Puma" transform="translate(832.5,508.2695072024087)">
			<circle class="st6" cx="-13.3" cy="3" r="4.9"/>
			<text transform="matrix(1 0 0 1 -46.8447 -2.4345)" class="st3 st4">Puma</text>
		</g>
		<g id="_Neofelis" transform="translate(832.5,543.1516050847623)">
			<circle class="st5" cx="-13.3" cy="2.4" r="4.9"/>
			<text transform="matrix(1 0 0 1 -56.6934 -2.9768)" class="st3 st4">Neofelis</text>
		</g>
		<g id="_Panthera" transform="translate(832.5,611.5731832949884)">
			<circle class="st2" cx="-13.3" cy="1.4" r="4.9"/>
			<text transform="matrix(1 0 0 1 -61.082 -4.04)" class="st3 st4">Panthera</text>
		</g>
		<g id="_Pardofelis" transform="translate(832.5,670.634104685908)">
			<circle class="st7" cx="-13.3" cy="0.5" r="4.9"/>
			<text transform="matrix(1 0 0 1 -64.9043 -4.9583)" class="st3 st4">Pardofelis</text>
		</g>
		<g id="_Acinonyx_jubatus" transform="translate(1110,9.36589531409199)">
			<circle class="st5" cx="-17.6" cy="10.7" r="8"/>
			<text transform="matrix(1 0 0 1 -7.5586 5.3206)" class="st8 st4">cheetah</text>
		</g>
		<g id="_Catopuma_badia" transform="translate(1110,30.144507018252874)">
			<circle class="st9" cx="-17.6" cy="10.4" r="9"/>
			<text transform="matrix(1 0 0 1 -6.6094 4.9439)" class="st8 st4">bay cat</text>
		</g>
		<g id="_Catopuma_temminckii" transform="translate(1110,49.83497314508315)">
			<circle class="st7" cx="-17.6" cy="10.1" r="7"/>
			<text transform="matrix(1 0 0 1 -8.6357 4.6377)" class="st8 st4">Asiatic golden cat</text>
		</g>
		<g id="_Felis_catus" transform="translate(1110,64.50574919263794)">
			<circle class="st10" cx="-17.6" cy="9.9" r="4"/>
			<text transform="matrix(1 0 0 1 -11.5771 4.4635)" class="st8 st4">domestic cat</text>
		</g>
		<g id="_Felis_chaus" transform="translate(1110,77.88578355318563)">
			<circle class="st6" cx="-17.6" cy="9.7" r="5.7"/>
			<text transform="matrix(1 0 0 1 -9.9131 4.2016)" class="st8 st4">jungle cat</text>
		</g>
		<g id="_Felis_margarita" transform="translate(1110,92.94794523002483)">
			<circle class="st6" cx="-17.6" cy="9.4" r="5.7"/>
			<text transform="matrix(1 0 0 1 -9.9131 4.0213)" class="st8 st4">sand cat</text>
		</g>
		<g id="_Felis_nigripes" transform="translate(1110,110.3889941712017)">
			<circle class="st5" cx="-17.6" cy="9.2" r="8"/>
			<text transform="matrix(1 0 0 1 -7.5586 3.7502)" class="st8 st4">black-footed cat</text>
		</g>
		<g id="_Felis_silvestris" transform="translate(1110,126.1479157960871)">
			<circle class="st10" cx="-17.6" cy="8.9" r="4"/>
			<text transform="matrix(1 0 0 1 -11.5771 3.5054)" class="st8 st4">wild cat</text>
		</g>
		<g id="_Leopardus_colocolo" transform="translate(1110,140.8186918436419)">
			<circle class="st7" cx="-17.6" cy="8.7" r="7"/>
			<text transform="matrix(1 0 0 1 -8.6357 3.2775)" class="st8 st4">Colocolo</text>
		</g>
		<g id="_Leopardus_geoffroyi" transform="translate(1110,157.17159520748817)">
			<circle class="st6" cx="-17.6" cy="8.4" r="5.7"/>
			<text transform="matrix(1 0 0 1 -9.9131 2.969)" class="st8 st4">Geoffroy&apos;s cat</text>
		</g>
		<g id="_Leopardus_guigna" transform="translate(1110,174.61264414866508)">
			<circle class="st5" cx="-17.6" cy="8.2" r="8"/>
			<text transform="matrix(1 0 0 1 -7.5586 2.7521)" class="st8 st4">Kodkod</text>
		</g>
		<g id="_Leopardus_guttulus" transform="translate(1110,194.43258035417966)">
			<circle class="st5" cx="-17.6" cy="7.9" r="8"/>
			<text transform="matrix(1 0 0 1 -7.5586 2.4439)" class="st8 st4">Southern oncilla</text>
		</g>
		<g id="_Leopardus_jacobita" transform="translate(1110,215.21119205834054)">
			<circle class="st9" cx="-17.6" cy="7.5" r="9"/>
			<text transform="matrix(1 0 0 1 -6.6094 2.1208)" class="st8 st4">Andean mountain cat</text>
		</g>
		<g id="_Leopardus_pardalis" transform="translate(1110,233.61091649816373)">
			<circle class="st6" cx="-17.6" cy="7.2" r="5.7"/>
			<text transform="matrix(1 0 0 1 -9.9131 1.8349)" class="st8 st4">ocelot</text>
		</g>
		<g id="_Leopardus_tigrinus" transform="translate(1110,251.05196543934062)">
			<circle class="st5" cx="-17.6" cy="7" r="8"/>
			<text transform="matrix(1 0 0 1 -7.5586 1.5638)" class="st8 st4">little spotted cat</text>
		</g>
		<g id="_Leopardus_wiedii" transform="translate(1110,269.7837560675246)">
			<circle class="st7" cx="-17.6" cy="6.7" r="7"/>
			<text transform="matrix(1 0 0 1 -8.6357 1.2187)" class="st8 st4">margay</text>
		</g>
		<g id="_Leptailurus_serval" transform="translate(1110,286.1366594313709)">
			<circle class="st6" cx="-17.6" cy="6.4" r="5.7"/>
			<text transform="matrix(1 0 0 1 -9.9131 1.0186)" class="st8 st4">serval</text>
		</g>
		<g id="_Lynx_canadensis" transform="translate(1110,301.1988211082101)">
			<circle class="st6" cx="-17.6" cy="6.2" r="5.7"/>
			<text transform="matrix(1 0 0 1 -9.9131 0.7304)" class="st8 st4">Canada lynx</text>
		</g>
		<g id="_Lynx_lynx" transform="translate(1110,316.2609827850493)">
			<circle class="st6" cx="-17.6" cy="6" r="5.7"/>
			<text transform="matrix(1 0 0 1 -9.9131 0.4963)" class="st8 st4">Eurasian lynx</text>
		</g>
		<g id="_Lynx_pardinus" transform="translate(1110,334.66070722487245)">
			<circle class="st9" cx="-17.6" cy="5.7" r="9"/>
			<text transform="matrix(1 0 0 1 -6.6094 0.2104)" class="st8 st4">Spanish lynx</text>
		</g>
		<g id="_Lynx_rufus" transform="translate(1110,353.0604316646957)">
			<circle class="st6" cx="-17.6" cy="5.4" r="5.7"/>
			<text transform="matrix(1 0 0 1 -9.9131 -2.233906e-02)" class="st8 st4">bobcat</text>
		</g>
		<g id="_Otocolobus_manul" transform="translate(1110,368.1225933415348)">
			<circle class="st6" cx="-17.6" cy="5.2" r="5.7"/>
			<text transform="matrix(1 0 0 1 -9.9131 -0.2564)" class="st8 st4">Pallas&apos;s cat</text>
		</g>
		<g id="_Prionailurus_bengalensis" transform="translate(1110,383.184755018374)">
			<circle class="st6" cx="-17.6" cy="4.9" r="5.7"/>
			<text transform="matrix(1 0 0 1 -9.9131 -0.4904)" class="st8 st4">leopard cat</text>
		</g>
		<g id="_Prionailurus_iriomotensis" transform="translate(1110,402.4511883588367)">
			<circle class="st11" cx="-17.6" cy="4.6" r="9.8"/>
			<text transform="matrix(1 0 0 1 -5.752 -0.7901)" class="st8 st4">Iriomote cat</text>
		</g>
		<g id="_Prionailurus_planiceps" transform="translate(1110,425.05518446228336)">
			<circle class="st9" cx="-17.6" cy="4.3" r="9"/>
			<text transform="matrix(1 0 0 1 -6.6094 -1.1411)" class="st8 st4">flat-headed cat</text>
		</g>
		<g id="_Prionailurus_rubiginosus" transform="translate(1110,444.7456505891136)">
			<circle class="st7" cx="-17.6" cy="4" r="7"/>
			<text transform="matrix(1 0 0 1 -8.6357 -1.5005)" class="st8 st4">rusty-spotted cat</text>
		</g>
		<g id="_Prionailurus_viverrinus" transform="translate(1110,463.4774412172976)">
			<circle class="st5" cx="-17.6" cy="3.7" r="8"/>
			<text transform="matrix(1 0 0 1 -7.5586 -1.7919)" class="st8 st4">fishing cat</text>
		</g>
		<g id="_Profelis_aurata" transform="translate(1110,483.2973774228122)">
			<circle class="st5" cx="-17.6" cy="3.4" r="8"/>
			<text transform="matrix(1 0 0 1 -7.5586 -2.1001)" class="st8 st4">African golden cat</text>
		</g>
		<g id="_Puma_concolor" transform="translate(1110,500.7384263639891)">
			<circle class="st6" cx="-17.6" cy="3.1" r="5.7"/>
			<text transform="matrix(1 0 0 1 -9.9131 -2.3175)" class="st8 st4">puma</text>
		</g>
		<g id="_Puma_yagouaroundi" transform="translate(1110,515.8005880408282)">
			<circle class="st6" cx="-17.6" cy="2.9" r="5.7"/>
			<text transform="matrix(1 0 0 1 -9.9131 -2.6053)" class="st8 st4">jaguarundi</text>
		</g>
		<g id="_Neofelis_diardi" transform="translate(1110,533.2416369820052)">
			<circle class="st5" cx="-17.6" cy="2.6" r="8"/>
			<text transform="matrix(1 0 0 1 -7.5586 -2.8227)" class="st8 st4">Sunda clouded leopard</text>
		</g>
		<g id="_Neofelis_nebulosa" transform="translate(1110,553.0615731875197)">
			<circle class="st5" cx="-17.6" cy="2.3" r="8"/>
			<text transform="matrix(1 0 0 1 -7.5586 -3.1309)" class="st8 st4">Clouded leopard</text>
		</g>
		<g id="_Panthera_leo" transform="translate(1110,572.8815093930343)">
			<circle class="st5" cx="-17.6" cy="2" r="8"/>
			<text transform="matrix(1 0 0 1 -7.5586 -3.4391)" class="st8 st4">lion</text>
		</g>
		<g id="_Panthera_onca" transform="translate(1110,591.6133000212183)">
			<circle class="st7" cx="-17.6" cy="1.7" r="7"/>
			<text transform="matrix(1 0 0 1 -8.6357 -3.7842)" class="st8 st4">jaguar</text>
		</g>
		<g id="_Panthera_pardus" transform="translate(1110,610.3450906494023)">
			<circle class="st5" cx="-17.6" cy="1.4" r="8"/>
			<text transform="matrix(1 0 0 1 -7.5586 -4.0209)" class="st8 st4">leopard</text>
		</g>
		<g id="_Panthera_tigris" transform="translate(1110,631.1237023535632)">
			<circle class="st9" cx="-17.6" cy="1.1" r="9"/>
			<text transform="matrix(1 0 0 1 -6.6094 -4.3981)" class="st8 st4">tiger</text>
		</g>
		<g id="_Panthera_uncia" transform="translate(1110,651.9023140577241)">
			<circle class="st5" cx="-17.6" cy="0.7" r="8"/>
			<text transform="matrix(1 0 0 1 -7.5586 -4.667)" class="st8 st4">snow leopard</text>
		</g>
		<g id="_Pardofelis_marmorata" transform="translate(1110,670.634104685908)">
			<circle class="st7" cx="-17.6" cy="0.5" r="7"/>
			<text transform="matrix(1 0 0 1 -8.6357 -4.9583)" class="st8 st4">marbled cat</text>
		</g>
	</g>
</g>
<g id="legend" transform="translate(1280,20)">
	<g transform="translate(5,0)">
		<g transform="translate(0,0)">
			<g transform="translate(10,15.5)">
				<g transform="translate(0, 0)">
					<rect x="-20.1" y="10.6" class="st1" width="0" height="0"/>
					<text transform="matrix(1 0 0 1 -5.3633 15.562)" class="st3 st4">0.0</text>
				</g>
				<g transform="translate(0, 25.5)">
					<circle class="st1" cx="-20.1" cy="10.2" r="9.8"/>
					<text transform="matrix(1 0 0 1 -5.3633 15.1655)" class="st3 st4">6.0</text>
				</g>
			</g>
			<text transform="matrix(1 0 0 1 -19.9746 10.8809)" class="st8 st12">Risk of Extinction</text>
		</g>
		<g transform="translate(0,83.5)">
			<g transform="translate(0,15.5)">
				<g transform="translate(0,0)">
					<rect x="-20" y="9.3" class="st10" width="1" height="9.8"/>
					<text transform="matrix(1 0 0 1 -19.9746 31.9844)" class="st3 st4">1.0</text>
				</g>
				<g transform="translate(1,0)">
					<rect x="-20" y="9.3" class="st13" width="1" height="9.8"/>
				</g>
				<g transform="translate(2,0)">
					<rect x="-20" y="9.3" class="st14" width="1" height="9.8"/>
				</g>
				<g transform="translate(3,0)">
					<rect x="-20" y="9.3" class="st15" width="1" height="9.8"/>
				</g>
				<g transform="translate(4,0)">
					<rect x="-20" y="9.3" class="st16" width="1" height="9.8"/>
				</g>
				<g transform="translate(5,0)">
					<rect x="-20.1" y="9.3" class="st17" width="1" height="9.8"/>
				</g>
				<g transform="translate(6,0)">
					<rect x="-20.1" y="9.3" class="st18" width="1" height="9.8"/>
				</g>
				<g transform="translate(7,0)">
					<rect x="-20.1" y="9.3" class="st19" width="1" height="9.8"/>
				</g>
				<g transform="translate(8,0)">
					<rect x="-20.1" y="9.3" class="st20" width="1" height="9.8"/>
				</g>
				<g transform="translate(9,0)">
					<rect x="-20.1" y="9.3" class="st21" width="1" height="9.8"/>
				</g>
				<g transform="translate(10,0)">
					<rect x="-20.1" y="9.3" class="st22" width="1" height="9.8"/>
				</g>
				<g transform="translate(11,0)">
					<rect x="-20.1" y="9.3" class="st23" width="1" height="9.8"/>
				</g>
				<g transform="translate(12,0)">
					<rect x="-20.2" y="9.3" class="st24" width="1" height="9.8"/>
				</g>
				<g transform="translate(13,0)">
					<rect x="-20.2" y="9.3" class="st25" width="1" height="9.8"/>
				</g>
				<g transform="translate(14,0)">
					<rect x="-20.2" y="9.3" class="st26" width="1" height="9.8"/>
				</g>
				<g transform="translate(15,0)">
					<rect x="-20.2" y="9.3" class="st27" width="1" height="9.8"/>
				</g>
				<g transform="translate(16,0)">
					<rect x="-20.2" y="9.3" class="st28" width="1" height="9.8"/>
				</g>
				<g transform="translate(17,0)">
					<rect x="-20.2" y="9.3" class="st29" width="1" height="9.8"/>
				</g>
				<g transform="translate(18,0)">
					<rect x="-20.3" y="9.3" class="st30" width="1" height="9.8"/>
				</g>
				<g transform="translate(19,0)">
					<rect x="-20.3" y="9.3" class="st31" width="1" height="9.8"/>
				</g>
				<g transform="translate(20,0)">
					<rect x="-20.3" y="9.3" class="st32" width="1" height="9.8"/>
				</g>
				<g transform="translate(21,0)">
					<rect x="-20.3" y="9.3" class="st33" width="1" height="9.8"/>
				</g>
				<g transform="translate(22,0)">
					<rect x="-20.3" y="9.3" class="st34" width="1" height="9.8"/>
				</g>
				<g transform="translate(23,0)">
					<rect x="-20.3" y="9.3" class="st35" width="1" height="9.8"/>
				</g>
				<g transform="translate(24,0)">
					<rect x="-20.3" y="9.3" class="st36" width="1" height="9.8"/>
				</g>
				<g transform="translate(25,0)">
					<rect x="-20.4" y="9.3" class="st37" width="1" height="9.8"/>
				</g>
				<g transform="translate(26,0)">
					<rect x="-20.4" y="9.3" class="st38" width="1" height="9.8"/>
				</g>
				<g transform="translate(27,0)">
					<rect x="-20.4" y="9.3" class="st39" width="1" height="9.8"/>
				</g>
				<g transform="translate(28,0)">
					<rect x="-20.4" y="9.3" class="st40" width="1" height="9.8"/>
				</g>
				<g transform="translate(29,0)">
					<rect x="-20.4" y="9.3" class="st41" width="1" height="9.8"/>
				</g>
				<g transform="translate(30,0)">
					<rect x="-20.4" y="9.3" class="st42" width="1" height="9.8"/>
				</g>
				<g transform="translate(31,0)">
					<rect x="-20.5" y="9.3" class="st43" width="1" height="9.8"/>
				</g>
				<g transform="translate(32,0)">
					<rect x="-20.5" y="9.3" class="st44" width="1" height="9.8"/>
				</g>
				<g transform="translate(33,0)">
					<rect x="-20.5" y="9.3" class="st45" width="1" height="9.8"/>
				</g>
				<g transform="translate(34,0)">
					<rect x="-20.5" y="9.3" class="st46" width="1" height="9.8"/>
				</g>
				<g transform="translate(35,0)">
					<rect x="-20.5" y="9.3" class="st47" width="1" height="9.8"/>
				</g>
				<g transform="translate(36,0)">
					<rect x="-20.5" y="9.3" class="st48" width="1" height="9.8"/>
				</g>
				<g transform="translate(37,0)">
					<rect x="-20.5" y="9.3" class="st49" width="1" height="9.8"/>
				</g>
				<g transform="translate(38,0)">
					<rect x="-20.6" y="9.3" class="st6" width="1" height="9.8"/>
				</g>
				<g transform="translate(39,0)">
					<rect x="-20.6" y="9.3" class="st50" width="1" height="9.8"/>
				</g>
				<g transform="translate(40,0)">
					<rect x="-20.6" y="9.3" class="st51" width="1" height="9.8"/>
				</g>
				<g transform="translate(41,0)">
					<rect x="-20.6" y="9.3" class="st52" width="1" height="9.8"/>
				</g>
				<g transform="translate(42,0)">
					<rect x="-20.6" y="9.3" class="st53" width="1" height="9.8"/>
				</g>
				<g transform="translate(43,0)">
					<rect x="-20.6" y="9.3" class="st54" width="1" height="9.8"/>
				</g>
				<g transform="translate(44,0)">
					<rect x="-20.7" y="9.3" class="st55" width="1" height="9.8"/>
				</g>
				<g transform="translate(45,0)">
					<rect x="-20.7" y="9.3" class="st56" width="1" height="9.8"/>
				</g>
				<g transform="translate(46,0)">
					<rect x="-20.7" y="9.3" class="st57" width="1" height="9.8"/>
				</g>
				<g transform="translate(47,0)">
					<rect x="-20.7" y="9.3" class="st58" width="1" height="9.8"/>
				</g>
				<g transform="translate(48,0)">
					<rect x="-20.7" y="9.3" class="st59" width="1" height="9.8"/>
				</g>
				<g transform="translate(49,0)">
					<rect x="-20.7" y="9.3" class="st60" width="1" height="9.8"/>
				</g>
				<g transform="translate(50,0)">
					<rect x="-20.8" y="9.3" class="st61" width="1" height="9.8"/>
				</g>
				<g transform="translate(51,0)">
					<rect x="-20.8" y="9.3" class="st62" width="1" height="9.8"/>
				</g>
				<g transform="translate(52,0)">
					<rect x="-20.8" y="9.3" class="st63" width="1" height="9.8"/>
				</g>
				<g transform="translate(53,0)">
					<rect x="-20.8" y="9.3" class="st64" width="1" height="9.8"/>
				</g>
				<g transform="translate(54,0)">
					<rect x="-20.8" y="9.3" class="st65" width="1" height="9.8"/>
				</g>
				<g transform="translate(55,0)">
					<rect x="-20.8" y="9.3" class="st66" width="1" height="9.8"/>
				</g>
				<g transform="translate(56,0)">
					<rect x="-20.8" y="9.3" class="st67" width="1" height="9.8"/>
				</g>
				<g transform="translate(57,0)">
					<rect x="-20.9" y="9.3" class="st68" width="1" height="9.8"/>
				</g>
				<g transform="translate(58,0)">
					<rect x="-20.9" y="9.3" class="st69" width="1" height="9.8"/>
				</g>
				<g transform="translate(59,0)">
					<rect x="-20.9" y="9.3" class="st70" width="1" height="9.8"/>
				</g>
				<g transform="translate(60,0)">
					<rect x="-20.9" y="9.3" class="st71" width="1" height="9.8"/>
				</g>
				<g transform="translate(61,0)">
					<rect x="-20.9" y="9.3" class="st72" width="1" height="9.8"/>
				</g>
				<g transform="translate(62,0)">
					<rect x="-20.9" y="9.3" class="st73" width="1" height="9.8"/>
				</g>
				<g transform="translate(63,0)">
					<rect x="-21" y="9.3" class="st74" width="1" height="9.8"/>
				</g>
				<g transform="translate(64,0)">
					<rect x="-21" y="9.3" class="st75" width="1" height="9.8"/>
				</g>
				<g transform="translate(65,0)">
					<rect x="-21" y="9.3" class="st76" width="1" height="9.8"/>
				</g>
				<g transform="translate(66,0)">
					<rect x="-21" y="9.3" class="st77" width="1" height="9.8"/>
				</g>
				<g transform="translate(67,0)">
					<rect x="-21" y="9.3" class="st78" width="1" height="9.8"/>
				</g>
				<g transform="translate(68,0)">
					<rect x="-21" y="9.3" class="st79" width="1" height="9.8"/>
				</g>
				<g transform="translate(69,0)">
					<rect x="-21" y="9.3" class="st80" width="1" height="9.8"/>
				</g>
				<g transform="translate(70,0)">
					<rect x="-21.1" y="9.3" class="st81" width="1" height="9.8"/>
				</g>
				<g transform="translate(71,0)">
					<rect x="-21.1" y="9.3" class="st82" width="1" height="9.8"/>
				</g>
				<g transform="translate(72,0)">
					<rect x="-21.1" y="9.3" class="st83" width="1" height="9.8"/>
				</g>
				<g transform="translate(73,0)">
					<rect x="-21.1" y="9.3" class="st84" width="1" height="9.8"/>
				</g>
				<g transform="translate(74,0)">
					<rect x="-21.1" y="9.3" class="st85" width="1" height="9.8"/>
				</g>
				<g transform="translate(75,0)">
					<rect x="-21.1" y="9.3" class="st86" width="1" height="9.8"/>
				</g>
				<g transform="translate(76,0)">
					<rect x="-21.2" y="9.3" class="st87" width="1" height="9.8"/>
				</g>
				<g transform="translate(77,0)">
					<rect x="-21.2" y="9.3" class="st88" width="1" height="9.8"/>
				</g>
				<g transform="translate(78,0)">
					<rect x="-21.2" y="9.3" class="st89" width="1" height="9.8"/>
				</g>
				<g transform="translate(79,0)">
					<rect x="-21.2" y="9.3" class="st90" width="1" height="9.8"/>
				</g>
				<g transform="translate(80,0)">
					<rect x="-21.2" y="9.3" class="st91" width="1" height="9.8"/>
				</g>
				<g transform="translate(81,0)">
					<rect x="-21.2" y="9.3" class="st92" width="1" height="9.8"/>
				</g>
				<g transform="translate(82,0)">
					<rect x="-21.2" y="9.3" class="st93" width="1" height="9.8"/>
				</g>
				<g transform="translate(83,0)">
					<rect x="-21.3" y="9.3" class="st94" width="1" height="9.8"/>
				</g>
				<g transform="translate(84,0)">
					<rect x="-21.3" y="9.3" class="st95" width="1" height="9.8"/>
				</g>
				<g transform="translate(85,0)">
					<rect x="-21.3" y="9.3" class="st96" width="1" height="9.8"/>
				</g>
				<g transform="translate(86,0)">
					<rect x="-21.3" y="9.3" class="st97" width="1" height="9.8"/>
				</g>
				<g transform="translate(87,0)">
					<rect x="-21.3" y="9.3" class="st98" width="1" height="9.8"/>
				</g>
				<g transform="translate(88,0)">
					<rect x="-21.3" y="9.3" class="st99" width="1" height="9.8"/>
				</g>
				<g transform="translate(89,0)">
					<rect x="-21.4" y="9.3" class="st100" width="1" height="9.8"/>
				</g>
				<g transform="translate(90,0)">
					<rect x="-21.4" y="9.3" class="st101" width="1" height="9.8"/>
				</g>
				<g transform="translate(91,0)">
					<rect x="-21.4" y="9.3" class="st102" width="1" height="9.8"/>
				</g>
				<g transform="translate(92,0)">
					<rect x="-21.4" y="9.3" class="st103" width="1" height="9.8"/>
				</g>
				<g transform="translate(93,0)">
					<rect x="-21.4" y="9.3" class="st104" width="1" height="9.8"/>
				</g>
				<g transform="translate(94,0)">
					<rect x="-21.4" y="9.3" class="st105" width="1" height="9.8"/>
				</g>
				<g transform="translate(95,0)">
					<rect x="-21.5" y="9.3" class="st106" width="1" height="9.8"/>
				</g>
				<g transform="translate(96,0)">
					<rect x="-21.5" y="9.3" class="st107" width="1" height="9.8"/>
				</g>
				<g transform="translate(97,0)">
					<rect x="-21.5" y="9.3" class="st108" width="1" height="9.8"/>
				</g>
				<g transform="translate(98,0)">
					<rect x="-21.5" y="9.3" class="st109" width="1" height="9.8"/>
				</g>
				<g transform="translate(99,0)">
					<rect x="-21.5" y="9.3" class="st110" width="1" height="9.8"/>
				</g>
				<g transform="translate(100,0)">
					<rect x="-21.5" y="9.3" class="st111" width="1" height="9.8"/>
				</g>
				<g transform="translate(101,0)">
					<rect x="-21.5" y="9.3" class="st112" width="1" height="9.8"/>
				</g>
				<g transform="translate(102,0)">
					<rect x="-21.6" y="9.3" class="st113" width="1" height="9.8"/>
				</g>
				<g transform="translate(103,0)">
					<rect x="-21.6" y="9.3" class="st114" width="1" height="9.8"/>
				</g>
				<g transform="translate(104,0)">
					<rect x="-21.6" y="9.3" class="st115" width="1" height="9.8"/>
				</g>
				<g transform="translate(105,0)">
					<rect x="-21.6" y="9.3" class="st116" width="1" height="9.8"/>
				</g>
				<g transform="translate(106,0)">
					<rect x="-21.6" y="9.3" class="st117" width="1" height="9.8"/>
				</g>
				<g transform="translate(107,0)">
					<rect x="-21.6" y="9.3" class="st118" width="1" height="9.8"/>
				</g>
				<g transform="translate(108,0)">
					<rect x="-21.7" y="9.3" class="st119" width="1" height="9.8"/>
				</g>
				<g transform="translate(109,0)">
					<rect x="-21.7" y="9.3" class="st120" width="1" height="9.8"/>
				</g>
				<g transform="translate(110,0)">
					<rect x="-21.7" y="9.3" class="st121" width="1" height="9.8"/>
				</g>
				<g transform="translate(111,0)">
					<rect x="-21.7" y="9.3" class="st122" width="1" height="9.8"/>
				</g>
				<g transform="translate(112,0)">
					<rect x="-21.7" y="9.3" class="st123" width="1" height="9.8"/>
				</g>
				<g transform="translate(113,0)">
					<rect x="-21.7" y="9.3" class="st124" width="1" height="9.8"/>
				</g>
				<g transform="translate(114,0)">
					<rect x="-21.7" y="9.3" class="st125" width="1" height="9.8"/>
				</g>
				<g transform="translate(115,0)">
					<rect x="-21.8" y="9.3" class="st126" width="1" height="9.8"/>
				</g>
				<g transform="translate(116,0)">
					<rect x="-21.8" y="9.3" class="st127" width="1" height="9.8"/>
				</g>
				<g transform="translate(117,0)">
					<rect x="-21.8" y="9.3" class="st128" width="1" height="9.8"/>
				</g>
				<g transform="translate(118,0)">
					<rect x="-21.8" y="9.3" class="st129" width="1" height="9.8"/>
				</g>
				<g transform="translate(119,0)">
					<rect x="-21.8" y="9.3" class="st130" width="1" height="9.8"/>
				</g>
				<g transform="translate(120,0)">
					<rect x="-21.8" y="9.3" class="st131" width="1" height="9.8"/>
				</g>
				<g transform="translate(121,0)">
					<rect x="-21.9" y="9.3" class="st132" width="1" height="9.8"/>
				</g>
				<g transform="translate(122,0)">
					<rect x="-21.9" y="9.3" class="st133" width="1" height="9.8"/>
				</g>
				<g transform="translate(123,0)">
					<rect x="-21.9" y="9.3" class="st134" width="1" height="9.8"/>
				</g>
				<g transform="translate(124,0)">
					<rect x="-21.9" y="9.3" class="st135" width="1" height="9.8"/>
				</g>
				<g transform="translate(125,0)">
					<rect x="-21.9" y="9.3" class="st136" width="1" height="9.8"/>
				</g>
				<g transform="translate(126,0)">
					<rect x="-21.9" y="9.3" class="st137" width="1" height="9.8"/>
				</g>
				<g transform="translate(127,0)">
					<rect x="-21.9" y="9.3" class="st138" width="1" height="9.8"/>
				</g>
				<g transform="translate(128,0)">
					<rect x="-22" y="9.3" class="st139" width="1" height="9.8"/>
				</g>
				<g transform="translate(129,0)">
					<rect x="-22" y="9.3" class="st140" width="1" height="9.8"/>
				</g>
				<g transform="translate(130,0)">
					<rect x="-22" y="9.3" class="st141" width="1" height="9.8"/>
				</g>
				<g transform="translate(131,0)">
					<rect x="-22" y="9.3" class="st142" width="1" height="9.8"/>
				</g>
				<g transform="translate(132,0)">
					<rect x="-22" y="9.3" class="st143" width="1" height="9.8"/>
				</g>
				<g transform="translate(133,0)">
					<rect x="-22" y="9.3" class="st144" width="1" height="9.8"/>
				</g>
				<g transform="translate(134,0)">
					<rect x="-22.1" y="9.3" class="st145" width="1" height="9.8"/>
				</g>
				<g transform="translate(135,0)">
					<rect x="-22.1" y="9.3" class="st146" width="1" height="9.8"/>
				</g>
				<g transform="translate(136,0)">
					<rect x="-22.1" y="9.3" class="st147" width="1" height="9.8"/>
				</g>
				<g transform="translate(137,0)">
					<rect x="-22.1" y="9.3" class="st148" width="1" height="9.8"/>
				</g>
				<g transform="translate(138,0)">
					<rect x="-22.1" y="9.3" class="st149" width="1" height="9.8"/>
				</g>
				<g transform="translate(139,0)">
					<rect x="-22.1" y="9.3" class="st150" width="1" height="9.8"/>
				</g>
				<g transform="translate(140,0)">
					<rect x="-22.2" y="9.3" class="st151" width="1" height="9.8"/>
				</g>
				<g transform="translate(141,0)">
					<rect x="-22.2" y="9.3" class="st152" width="1" height="9.8"/>
				</g>
				<g transform="translate(142,0)">
					<rect x="-22.2" y="9.3" class="st153" width="1" height="9.8"/>
				</g>
				<g transform="translate(143,0)">
					<rect x="-22.2" y="9.3" class="st154" width="1" height="9.8"/>
				</g>
				<g transform="translate(144,0)">
					<rect x="-22.2" y="9.3" class="st155" width="1" height="9.8"/>
				</g>
				<g transform="translate(145,0)">
					<rect x="-22.2" y="9.3" class="st156" width="1" height="9.8"/>
				</g>
				<g transform="translate(146,0)">
					<rect x="-22.2" y="9.3" class="st157" width="1" height="9.8"/>
				</g>
				<g transform="translate(147,0)">
					<rect x="-22.3" y="9.3" class="st158" width="1" height="9.8"/>
				</g>
				<g transform="translate(148,0)">
					<rect x="-22.3" y="9.3" class="st159" width="1" height="9.8"/>
				</g>
				<g transform="translate(149,0)">
					<rect x="-22.3" y="9.3" class="st160" width="1" height="9.8"/>
				</g>
				<g transform="translate(150,0)">
					<rect x="-22.3" y="9.3" class="st161" width="1" height="9.8"/>
				</g>
				<g transform="translate(151,0)">
					<rect x="-22.3" y="9.3" class="st162" width="1" height="9.8"/>
				</g>
				<g transform="translate(152,0)">
					<rect x="-22.3" y="9.3" class="st163" width="1" height="9.8"/>
				</g>
				<g transform="translate(153,0)">
					<rect x="-22.4" y="9.3" class="st164" width="1" height="9.8"/>
				</g>
				<g transform="translate(154,0)">
					<rect x="-22.4" y="9.3" class="st165" width="1" height="9.8"/>
				</g>
				<g transform="translate(155,0)">
					<rect x="-22.4" y="9.3" class="st166" width="1" height="9.8"/>
				</g>
				<g transform="translate(156,0)">
					<rect x="-22.4" y="9.3" class="st167" width="1" height="9.8"/>
				</g>
				<g transform="translate(157,0)">
					<rect x="-22.4" y="9.3" class="st168" width="1" height="9.8"/>
				</g>
				<g transform="translate(158,0)">
					<rect x="-22.4" y="9.3" class="st169" width="1" height="9.8"/>
				</g>
				<g transform="translate(159,0)">
					<rect x="-22.4" y="9.3" class="st170" width="1" height="9.8"/>
				</g>
				<g transform="translate(160,0)">
					<rect x="-22.5" y="9.3" class="st171" width="1" height="9.8"/>
				</g>
				<g transform="translate(161,0)">
					<rect x="-22.5" y="9.3" class="st172" width="1" height="9.8"/>
				</g>
				<g transform="translate(162,0)">
					<rect x="-22.5" y="9.3" class="st173" width="1" height="9.8"/>
				</g>
				<g transform="translate(163,0)">
					<rect x="-22.5" y="9.3" class="st174" width="1" height="9.8"/>
				</g>
				<g transform="translate(164,0)">
					<rect x="-22.5" y="9.3" class="st175" width="1" height="9.8"/>
				</g>
				<g transform="translate(165,0)">
					<rect x="-22.5" y="9.3" class="st176" width="1" height="9.8"/>
				</g>
				<g transform="translate(166,0)">
					<rect x="-22.6" y="9.3" class="st177" width="1" height="9.8"/>
				</g>
				<g transform="translate(167,0)">
					<rect x="-22.6" y="9.3" class="st178" width="1" height="9.8"/>
				</g>
				<g transform="translate(168,0)">
					<rect x="-22.6" y="9.3" class="st179" width="1" height="9.8"/>
				</g>
				<g transform="translate(169,0)">
					<rect x="-22.6" y="9.3" class="st180" width="1" height="9.8"/>
				</g>
				<g transform="translate(170,0)">
					<rect x="-22.6" y="9.3" class="st181" width="1" height="9.8"/>
				</g>
				<g transform="translate(171,0)">
					<rect x="-22.6" y="9.3" class="st182" width="1" height="9.8"/>
				</g>
				<g transform="translate(172,0)">
					<rect x="-22.6" y="9.3" class="st183" width="1" height="9.8"/>
				</g>
				<g transform="translate(173,0)">
					<rect x="-22.7" y="9.3" class="st184" width="1" height="9.8"/>
				</g>
				<g transform="translate(174,0)">
					<rect x="-22.7" y="9.3" class="st185" width="1" height="9.8"/>
				</g>
				<g transform="translate(175,0)">
					<rect x="-22.7" y="9.3" class="st186" width="1" height="9.8"/>
				</g>
				<g transform="translate(176,0)">
					<rect x="-22.7" y="9.3" class="st187" width="1" height="9.8"/>
				</g>
				<g transform="translate(177,0)">
					<rect x="-22.7" y="9.3" class="st188" width="1" height="9.8"/>
				</g>
				<g transform="translate(178,0)">
					<rect x="-22.7" y="9.3" class="st189" width="1" height="9.8"/>
				</g>
				<g transform="translate(179,0)">
					<rect x="-22.8" y="9.3" class="st190" width="1" height="9.8"/>
				</g>
				<g transform="translate(180,0)">
					<rect x="-22.8" y="9.3" class="st191" width="1" height="9.8"/>
				</g>
				<g transform="translate(181,0)">
					<rect x="-22.8" y="9.3" class="st192" width="1" height="9.8"/>
				</g>
				<g transform="translate(182,0)">
					<rect x="-22.8" y="9.3" class="st193" width="1" height="9.8"/>
				</g>
				<g transform="translate(183,0)">
					<rect x="-22.8" y="9.3" class="st194" width="1" height="9.8"/>
				</g>
				<g transform="translate(184,0)">
					<rect x="-22.8" y="9.3" class="st195" width="1" height="9.8"/>
				</g>
				<g transform="translate(185,0)">
					<rect x="-22.9" y="9.3" class="st196" width="1" height="9.8"/>
				</g>
				<g transform="translate(186,0)">
					<rect x="-22.9" y="9.3" class="st197" width="1" height="9.8"/>
				</g>
				<g transform="translate(187,0)">
					<rect x="-22.9" y="9.3" class="st198" width="1" height="9.8"/>
				</g>
				<g transform="translate(188,0)">
					<rect x="-22.9" y="9.3" class="st199" width="1" height="9.8"/>
				</g>
				<g transform="translate(189,0)">
					<rect x="-22.9" y="9.3" class="st11" width="1" height="9.8"/>
					<text transform="matrix(1 0 0 1 -36.5977 31.9844)" class="st3 st4">6.0</text>
				</g>
			</g>
			<text transform="matrix(1 0 0 1 -19.9746 9.583)" class="st8 st12">Risk of Extinction</text>
		</g>
	</g>
</g>
</svg>
