<svg xmlns="http://www.w3.org/2000/svg" width="1280" height="720"><rect width="1280" height="720" x="0" y="0" fill="#FFFFFF" id="backgorund"/><g transform="translate(10,10)" id="viz"><g id="arcs"><path d="M14.229598395821384,580A47.08196255328748,47.08196255328748 0,0,1 108.39352350239635,580" fill="none" stroke="gray" stroke-width="6.3559322033898304" opacity="0.5"/><path d="M14.229598395821384,580A96.00670574948754,96.00670574948754 0,0,1 206.24300989479647,580" fill="none" stroke="gray" stroke-width="3.305084745762712" opacity="0.5"/><path d="M14.229598395821384,580A152.71880674796503,152.71880674796503 0,0,1 319.66721189175144,580" fill="none" stroke="gray" stroke-width="2.7966101694915255" opacity="0.5"/><path d="M14.229598395821384,580A208.75829662420475,208.75829662420475 0,0,1 431.74619164423086,580" fill="none" stroke="gray" stroke-width="3.305084745762712" opacity="0.5"/><path d="M520.9764221783539,580A206.29144933797878,206.29144933797878 0,0,0 108.39352350239635,580" fill="none" stroke="gray" stroke-width="0.7627118644067797" opacity="0.5"/><path d="M520.9764221783539,580A100.65460514330124,100.65460514330124 0,0,0 319.66721189175144,580" fill="none" stroke="gray" stroke-width="2.0338983050847457" opacity="0.5"/><path d="M605.4597650915448,580A248.53312079457422,248.53312079457422 0,0,0 108.39352350239635,580" fill="none" stroke="gray" stroke-width="1.5254237288135595" opacity="0.5"/><path d="M605.4597650915448,580A42.241671456595384,42.241671456595384 0,0,1 689.9431080047356,580" fill="none" stroke="gray" stroke-width="0.7627118644067797" opacity="0.5"/><path d="M605.4597650915448,580A142.89627659989668,142.89627659989668 0,0,0 319.66721189175144,580" fill="none" stroke="gray" stroke-width="7.88135593220339" opacity="0.5"/><path d="M785.5566824676218,580A338.58157948261277,338.58157948261277 0,0,0 108.39352350239635,580" fill="none" stroke="gray" stroke-width="7.627118644067796" opacity="0.5"/><path d="M785.5566824676218,580A289.65683628641267,289.65683628641267 0,0,0 206.24300989479647,580" fill="none" stroke="gray" stroke-width="15" opacity="0.5"/><path d="M785.5566824676218,580A47.80678723144314,47.80678723144314 0,0,0 689.9431080047356,580" fill="none" stroke="gray" stroke-width="0.7627118644067797" opacity="0.5"/><path d="M785.5566824676218,580A232.9447352879352,232.9447352879352 0,0,0 319.66721189175144,580" fill="none" stroke="gray" stroke-width="17.54237288135593" opacity="0.5"/><path d="M785.5566824676218,580A176.9052454116955,176.9052454116955 0,0,0 431.74619164423086,580" fill="none" stroke="gray" stroke-width="5.338983050847458" opacity="0.5"/><path d="M890.8352134908259,580A342.2961017980147,342.2961017980147 0,0,0 206.24300989479647,580" fill="none" stroke="gray" stroke-width="8.389830508474576" opacity="0.5"/><path d="M890.8352134908259,580A285.58400079953725,285.58400079953725 0,0,0 319.66721189175144,580" fill="none" stroke="gray" stroke-width="10.169491525423728" opacity="0.5"/><path d="M890.8352134908259,580A229.54451092329754,229.54451092329754 0,0,0 431.74619164423086,580" fill="none" stroke="gray" stroke-width="4.576271186440678" opacity="0.5"/><path d="M978.2667842469574,580A329.299786177603,329.299786177603 0,0,0 319.66721189175144,580" fill="none" stroke="gray" stroke-width="1.0169491525423728" opacity="0.5"/><path d="M1064.9466146175828,580A187.5017533064236,187.5017533064236 0,0,0 689.9431080047356,580" fill="none" stroke="gray" stroke-width="1.271186440677966" opacity="0.5"/><path d="M1064.9466146175828,580A372.6397013629157,372.6397013629157 0,0,0 319.66721189175144,580" fill="none" stroke="gray" stroke-width="11.186440677966102" opacity="0.5"/><path d="M1064.9466146175828,580A316.60021148667596,316.60021148667596 0,0,0 431.74619164423086,580" fill="none" stroke="gray" stroke-width="7.627118644067796" opacity="0.5"/><path d="M1064.9466146175828,580A43.13183112784475,43.13183112784475 0,0,1 1151.2102768732723,580" fill="none" stroke="gray" stroke-width="0.7627118644067797" opacity="0.5"/><path d="M1240.704736086253,580A460.5187620972508,460.5187620972508 0,0,0 319.66721189175144,580" fill="none" stroke="gray" stroke-width="30" opacity="0.5"/><path d="M1240.704736086253,580A404.47927222101106,404.47927222101106 0,0,0 431.74619164423086,580" fill="none" stroke="gray" stroke-width="1.5254237288135595" opacity="0.5"/></g><g id="nodes"><g><circle cx="14.229598395821384" cy="580" r="14.229598395821384"/><text transform="translate(14.229598395821384,599.2295983958214) rotate(-90)" alignment-baseline="middle" font-family="Helvetica, Arial, sans-serif" font-size="12" text-anchor="end">Arya Stark</text></g><g><circle cx="108.39352350239635" cy="580" r="14.425284395445132"/><text transform="translate(108.39352350239635,599.4252843954451) rotate(-90)" alignment-baseline="middle" font-family="Helvetica, Arial, sans-serif" font-size="12" text-anchor="end">Cersei Lannister</text></g><g><circle cx="206.24300989479647" cy="580" r="17.915159681646543"/><text transform="translate(206.24300989479647,602.9151596816465) rotate(-90)" alignment-baseline="middle" font-family="Helvetica, Arial, sans-serif" font-size="12" text-anchor="end">Jaime Lannister</text></g><g><circle cx="319.66721189175144" cy="580" r="30"/><text transform="translate(319.66721189175144,615) rotate(-90)" alignment-baseline="middle" font-family="Helvetica, Arial, sans-serif" font-size="12" text-anchor="end">Tyrion Lannister</text></g><g><circle cx="431.74619164423086" cy="580" r="16.569937437171"/><text transform="translate(431.74619164423086,601.569937437171) rotate(-90)" alignment-baseline="middle" font-family="Helvetica, Arial, sans-serif" font-size="12" text-anchor="end">Tywin Lannister</text></g><g><circle cx="520.9764221783539" cy="580" r="7.151250781643679"/><text transform="translate(520.9764221783539,592.1512507816436) rotate(-90)" alignment-baseline="middle" font-family="Helvetica, Arial, sans-serif" font-size="12" text-anchor="end">Benjen Stark</text></g><g><circle cx="605.4597650915448" cy="580" r="11.82304981623873"/><text transform="translate(605.4597650915448,596.8230498162387) rotate(-90)" alignment-baseline="middle" font-family="Helvetica, Arial, sans-serif" font-size="12" text-anchor="end">Bran Stark</text></g><g><circle cx="689.9431080047356" cy="580" r="7.151250781643679"/><text transform="translate(689.9431080047356,592.1512507816436) rotate(-90)" alignment-baseline="middle" font-family="Helvetica, Arial, sans-serif" font-size="12" text-anchor="end">Stafford Lannister</text></g><g><circle cx="785.5566824676218" cy="580" r="22.95328136593407"/><text transform="translate(785.5566824676218,607.9532813659341) rotate(-90)" alignment-baseline="middle" font-family="Helvetica, Arial, sans-serif" font-size="12" text-anchor="end">Catelyn Stark</text></g><g><circle cx="890.8352134908259" cy="580" r="16.816207341961707"/><text transform="translate(890.8352134908259,601.8162073419617) rotate(-90)" alignment-baseline="middle" font-family="Helvetica, Arial, sans-serif" font-size="12" text-anchor="end">Eddard Stark</text></g><g><circle cx="978.2667842469574" cy="580" r="5.106321098861283"/><text transform="translate(978.2667842469574,590.1063210988613) rotate(-90)" alignment-baseline="middle" font-family="Helvetica, Arial, sans-serif" font-size="12" text-anchor="end">Rickon Stark</text></g><g><circle cx="1064.9466146175828" cy="580" r="16.06446695645558"/><text transform="translate(1064.9466146175828,601.0644669564556) rotate(-90)" alignment-baseline="middle" font-family="Helvetica, Arial, sans-serif" font-size="12" text-anchor="end">Robb Stark</text></g><g><circle cx="1151.2102768732723" cy="580" r="4.690152983925463"/><text transform="translate(1151.2102768732723,589.6901529839255) rotate(-90)" alignment-baseline="middle" font-family="Helvetica, Arial, sans-serif" font-size="12" text-anchor="end">Willem Lannister</text></g><g><circle cx="1240.704736086253" cy="580" r="19.295263913746844"/><text transform="translate(1240.704736086253,604.2952639137468) rotate(-90)" alignment-baseline="middle" font-family="Helvetica, Arial, sans-serif" font-size="12" text-anchor="end">Sansa Stark</text></g></g></g></svg>