<svg xmlns="http://www.w3.org/2000/svg" width="1480" height="720"><rect width="1480" height="720" x="0" y="0" fill="#FFFFFF" id="backgorund"/><g transform="translate(20,20)" id="viz"><g id="nodes"><g transform="translate(621,341)"><path id="p_1303" d="M-6.245698675651501e-14,340A340,340,0,1,1,6.245698675651501e-14,-340A340,340,0,1,1,-6.245698675651501e-14,340Z" fill="none" stroke="#ccc"/><text fill="black" text-anchor="middle" font-family="'Arial', sans-serif" font-size="8" dominant-baseline="middle"><textPath href="#p_1303" startOffset="50%"/></text></g><g transform="translate(524.5433082635575,368.8142359278038)" id="Asia"><path id="p_1055.283614186184" d="M-2.956163947777839e-14,160.92606999482277A160.92606999482277,160.92606999482277,0,1,1,2.956163947777839e-14,-160.92606999482277A160.92606999482277,160.92606999482277,0,1,1,-2.956163947777839e-14,160.92606999482277Z" fill="none" stroke="#ccc"/><text fill="black" text-anchor="middle" font-family="'Arial', sans-serif" font-size="8" dominant-baseline="middle"><textPath href="#p_1055.283614186184" startOffset="50%">Asia</textPath></text></g><g transform="translate(800.1788160038827,368.8142359278038)" id="Africa"><path id="p_1280.313721226395" d="M-2.026557817973378e-14,110.32066929470858A110.32066929470858,110.32066929470858,0,1,1,2.026557817973378e-14,-110.32066929470858A110.32066929470858,110.32066929470858,0,1,1,-2.026557817973378e-14,110.32066929470858Z" fill="none" stroke="#ccc"/><text fill="black" text-anchor="middle" font-family="'Arial', sans-serif" font-size="8" dominant-baseline="middle"><textPath href="#p_1280.313721226395" startOffset="50%">Africa</textPath></text></g><g transform="translate(706.3170146468601,561.2593789953568)" id="Europe"><path id="p_1367.981810225591" d="M-1.8260478785510798e-14,99.40541658337438A99.40541658337438,99.40541658337438,0,1,1,1.8260478785510798e-14,-99.40541658337438A99.40541658337438,99.40541658337438,0,1,1,-1.8260478785510798e-14,99.40541658337438Z" fill="none" stroke="#ccc"/><text fill="black" text-anchor="middle" font-family="'Arial', sans-serif" font-size="8" dominant-baseline="middle"><textPath href="#p_1367.981810225591" startOffset="50%">Europe</textPath></text></g><g transform="translate(704.9253963518859,185.5561943003616)" id="South America"><path id="p_983.3071953971775" d="M-1.686808993959729e-14,91.82560474493006A91.82560474493006,91.82560474493006,0,1,1,1.686808993959729e-14,-91.82560474493006A91.82560474493006,91.82560474493006,0,1,1,-1.686808993959729e-14,91.82560474493006Z" fill="none" stroke="#ccc"/><text fill="black" text-anchor="middle" font-family="'Arial', sans-serif" font-size="8" dominant-baseline="middle"><textPath href="#p_983.3071953971775" startOffset="50%">South America</textPath></text></g><g transform="translate(532.5952523552148,112.76914948232726)" id="North America"><path id="p_737.2212247764876" d="M-1.6690127608931608e-14,90.85682293894547A90.85682293894547,90.85682293894547,0,1,1,1.6690127608931608e-14,-90.85682293894547A90.85682293894547,90.85682293894547,0,1,1,-1.6690127608931608e-14,90.85682293894547Z" fill="none" stroke="#ccc"/><text fill="black" text-anchor="middle" font-family="'Arial', sans-serif" font-size="8" dominant-baseline="middle"><textPath href="#p_737.2212247764876" startOffset="50%">North America</textPath></text></g><g transform="translate(461.55297554373414,368.8142359278038)" id="China"><path id="p_924.9141802957436" d="M-1.7184299391075085e-14,93.54696882420555A93.54696882420555,93.54696882420555,0,1,1,1.7184299391075085e-14,-93.54696882420555A93.54696882420555,93.54696882420555,0,1,1,-1.7184299391075085e-14,93.54696882420555Z" fill="none" stroke="#ccc"/><text fill="black" text-anchor="middle" font-family="'Arial', sans-serif" font-size="8" dominant-baseline="middle"><textPath href="#p_924.9141802957436" startOffset="50%">China</textPath></text></g><g transform="translate(620.28466131316,368.8142359278038)" id="India"><path id="p_1050.8948457353902" d="M-1.1168034558724003e-14,60.79594849442645A60.79594849442645,60.79594849442645,0,1,1,1.1168034558724003e-14,-60.79594849442645A60.79594849442645,60.79594849442645,0,1,1,-1.1168034558724003e-14,60.79594849442645Z" fill="none" stroke="#ccc"/><text fill="black" text-anchor="middle" font-family="'Arial', sans-serif" font-size="8" dominant-baseline="middle"><textPath href="#p_1050.8948457353902" startOffset="50%">India</textPath></text></g><g transform="translate(565.7643542672832,457.4264850912516)" id="Pakistan"><path id="p_1063.0474343147973" d="M-7.137840695842817e-15,38.85659495626255A38.85659495626255,38.85659495626255,0,1,1,7.137840695842817e-15,-38.85659495626255A38.85659495626255,38.85659495626255,0,1,1,-7.137840695842817e-15,38.85659495626255Z" fill="none" stroke="#ccc"/><text fill="black" text-anchor="middle" font-family="'Arial', sans-serif" font-size="8" dominant-baseline="middle"><textPath href="#p_1063.0474343147973" startOffset="50%">Pakistan</textPath></text></g><g transform="translate(564.0456073965406,291.36875146042405)" id="Japan"><path id="p_886.9408442332259" d="M-5.607624390788527e-15,30.526485376261267A30.526485376261267,30.526485376261267,0,1,1,5.607624390788527e-15,-30.526485376261267A30.526485376261267,30.526485376261267,0,1,1,-5.607624390788527e-15,30.526485376261267Z" fill="none" stroke="#ccc"/><text fill="black" text-anchor="middle" font-family="'Arial', sans-serif" font-size="8" dominant-baseline="middle"><textPath href="#p_886.9408442332259" startOffset="50%">Japan</textPath></text></g><g transform="translate(513.7398894668273,255.34673829177808)" id="Indonesia"><path id="p_797.044232998721" d="M-4.952031745497835e-15,26.95760524011567A26.95760524011567,26.95760524011567,0,1,1,4.952031745497835e-15,-26.95760524011567A26.95760524011567,26.95760524011567,0,1,1,-4.952031745497835e-15,26.95760524011567Z" fill="none" stroke="#ccc"/><text fill="black" text-anchor="middle" font-family="'Arial', sans-serif" font-size="8" dominant-baseline="middle"><textPath href="#p_797.044232998721" startOffset="50%">Indonesia</textPath></text></g><g transform="translate(749.7903736893008,370.20247145993415)" id="Nigeria"><path id="p_1155.1918003803949" d="M-6.282246158703493e-15,34.198955231159644A34.198955231159644,34.198955231159644,0,1,1,6.282246158703493e-15,-34.198955231159644A34.198955231159644,34.198955231159644,0,1,1,-6.282246158703493e-15,34.198955231159644Z" fill="none" stroke="#ccc"/><text fill="black" text-anchor="middle" font-family="'Arial', sans-serif" font-size="8" dominant-baseline="middle"><textPath href="#p_1155.1918003803949" startOffset="50%">Nigeria</textPath></text></g><g transform="translate(833.4364559138724,370.20247145993415)" id="Egypt"><path id="p_1249.6972859164243" d="M-8.27708618460765e-15,45.05835854261805A45.05835854261805,45.05835854261805,0,1,1,8.27708618460765e-15,-45.05835854261805A45.05835854261805,45.05835854261805,0,1,1,-8.27708618460765e-15,45.05835854261805Z" fill="none" stroke="#ccc"/><text fill="black" text-anchor="middle" font-family="'Arial', sans-serif" font-size="8" dominant-baseline="middle"><textPath href="#p_1249.6972859164243" startOffset="50%">Egypt</textPath></text></g><g transform="translate(782.5979136641616,425.16963410292067)" id="Democratic Republic of the Congo"><path id="p_1234.1932886705004" d="M-4.670632831998137e-15,25.425740903418102A25.425740903418102,25.425740903418102,0,1,1,4.670632831998137e-15,-25.425740903418102A25.425740903418102,25.425740903418102,0,1,1,-4.670632831998137e-15,25.425740903418102Z" fill="none" stroke="#ccc"/><text fill="black" text-anchor="middle" font-family="'Arial', sans-serif" font-size="8" dominant-baseline="middle"><textPath href="#p_1234.1932886705004" startOffset="50%">Democratic Republic of the Congo</textPath></text></g><g transform="translate(783.0036904945266,319.1709777821304)" id="Somalia"><path id="p_1125.4748560401786" d="M-4.096478034747255e-15,22.3001877635216A22.3001877635216,22.3001877635216,0,1,1,4.096478034747255e-15,-22.3001877635216A22.3001877635216,22.3001877635216,0,1,1,-4.096478034747255e-15,22.3001877635216Z" fill="none" stroke="#ccc"/><text fill="black" text-anchor="middle" font-family="'Arial', sans-serif" font-size="8" dominant-baseline="middle"><textPath href="#p_1125.4748560401786" startOffset="50%">Somalia</textPath></text></g><g transform="translate(830.6907281012345,440.15447095235476)" id="Sudan"><path id="p_1292.4039379158949" d="M-3.77657906133432e-15,20.55873886230556A20.55873886230556,20.55873886230556,0,1,1,3.77657906133432e-15,-20.55873886230556A20.55873886230556,20.55873886230556,0,1,1,-3.77657906133432e-15,20.55873886230556Z" fill="none" stroke="#ccc"/><text fill="black" text-anchor="middle" font-family="'Arial', sans-serif" font-size="8" dominant-baseline="middle"><textPath href="#p_1292.4039379158949" startOffset="50%">Sudan</textPath></text></g><g transform="translate(826.0229903618268,301.2317577235878)" id="Angola"><path id="p_1148.1756167729534" d="M-3.659404211164381e-15,19.920868687538867A19.920868687538867,19.920868687538867,0,1,1,3.659404211164381e-15,-19.920868687538867A19.920868687538867,19.920868687538867,0,1,1,-3.659404211164381e-15,19.920868687538867Z" fill="none" stroke="#ccc"/><text fill="black" text-anchor="middle" font-family="'Arial', sans-serif" font-size="8" dominant-baseline="middle"><textPath href="#p_1148.1756167729534" startOffset="50%">Angola</textPath></text></g><g transform="translate(737.3969128612775,313.7153841113702)" id="Tanzania"><path id="p_1071.3552650418746" d="M-3.5348758878110154e-15,19.242968069226894A19.242968069226894,19.242968069226894,0,1,1,3.5348758878110154e-15,-19.242968069226894A19.242968069226894,19.242968069226894,0,1,1,-3.5348758878110154e-15,19.242968069226894Z" fill="none" stroke="#ccc"/><text fill="black" text-anchor="middle" font-family="'Arial', sans-serif" font-size="8" dominant-baseline="middle"><textPath href="#p_1071.3552650418746" startOffset="50%">Tanzania</textPath></text></g><g transform="translate(733.9543246219115,425.39275703471725)" id="Ivory Coast"><path id="p_1179.176673062468" d="M-3.458939826662043e-15,18.82959140583931A18.82959140583931,18.82959140583931,0,1,1,3.458939826662043e-15,-18.82959140583931A18.82959140583931,18.82959140583931,0,1,1,-3.458939826662043e-15,18.82959140583931Z" fill="none" stroke="#ccc"/><text fill="black" text-anchor="middle" font-family="'Arial', sans-serif" font-size="8" dominant-baseline="middle"><textPath href="#p_1179.176673062468" startOffset="50%">Ivory Coast</textPath></text></g><g transform="translate(867.0265289433919,311.703268994405)" id="South Africa"><path id="p_1197.7396920410167" d="M-3.308363874973654e-15,18.00989410321989A18.00989410321989,18.00989410321989,0,1,1,3.308363874973654e-15,-18.00989410321989A18.00989410321989,18.00989410321989,0,1,1,-3.308363874973654e-15,18.00989410321989Z" fill="none" stroke="#ccc"/><text fill="black" text-anchor="middle" font-family="'Arial', sans-serif" font-size="8" dominant-baseline="middle"><textPath href="#p_1197.7396920410167" startOffset="50%">South Africa</textPath></text></g><g transform="translate(666.3925266819991,566.6301827972878)" id="Russia"><path id="p_1281.8263936863682" d="M-8.781394327747925e-15,47.803684207081176A47.803684207081176,47.803684207081176,0,1,1,8.781394327747925e-15,-47.803684207081176A47.803684207081176,47.803684207081176,0,1,1,-8.781394327747925e-15,47.803684207081176Z" fill="none" stroke="#ccc"/><text fill="black" text-anchor="middle" font-family="'Arial', sans-serif" font-size="8" dominant-baseline="middle"><textPath href="#p_1281.8263936863682" startOffset="50%">Russia</textPath></text></g><g transform="translate(749.6019228712123,566.6301827972878)" id="Turkey"><path id="p_1348.2490491998383" d="M-5.69772009224813e-15,31.016943531338207A31.016943531338207,31.016943531338207,0,1,1,5.69772009224813e-15,-31.016943531338207A31.016943531338207,31.016943531338207,0,1,1,-5.69772009224813e-15,31.016943531338207Z" fill="none" stroke="#ccc"/><text fill="black" text-anchor="middle" font-family="'Arial', sans-serif" font-size="8" dominant-baseline="middle"><textPath href="#p_1348.2490491998383" startOffset="50%">Turkey</textPath></text></g><g transform="translate(721.9431979853563,620.7014885060441)" id="United Kingdom"><path id="p_1368.973735259281" d="M-4.652870774854793e-15,25.329048767880412A25.329048767880412,25.329048767880412,0,1,1,4.652870774854793e-15,-25.329048767880412A25.329048767880412,25.329048767880412,0,1,1,-4.652870774854793e-15,25.329048767880412Z" fill="none" stroke="#ccc"/><text fill="black" text-anchor="middle" font-family="'Arial', sans-serif" font-size="8" dominant-baseline="middle"><textPath href="#p_1368.973735259281" startOffset="50%">United Kingdom</textPath></text></g><g transform="translate(720.4259532194258,522.1274543233166)" id="Germany"><path id="p_1261.361697916663" d="M-3.2713298707062907e-15,17.8082903739207A17.8082903739207,17.8082903739207,0,1,1,3.2713298707062907e-15,-17.8082903739207A17.8082903739207,17.8082903739207,0,1,1,-3.2713298707062907e-15,17.8082903739207Z" fill="none" stroke="#ccc"/><text fill="black" text-anchor="middle" font-family="'Arial', sans-serif" font-size="8" dominant-baseline="middle"><textPath href="#p_1261.361697916663" startOffset="50%">Germany</textPath></text></g><g transform="translate(687.5505669909073,500.7115303451714)" id="Spain"><path id="p_1206.300645037987" d="M-3.1299304357891893e-15,17.038547701908115A17.038547701908115,17.038547701908115,0,1,1,3.1299304357891893e-15,-17.038547701908115A17.038547701908115,17.038547701908115,0,1,1,-3.1299304357891893e-15,17.038547701908115Z" fill="none" stroke="#ccc"/><text fill="black" text-anchor="middle" font-family="'Arial', sans-serif" font-size="8" dominant-baseline="middle"><textPath href="#p_1206.300645037987" startOffset="50%">Spain</textPath></text></g><g transform="translate(677.7811352475219,634.3889750500116)" id="Ukraine"><path id="p_1329.6868588619582" d="M-3.034077489261651e-15,16.51674856442469A16.51674856442469,16.51674856442469,0,1,1,3.034077489261651e-15,-16.51674856442469A16.51674856442469,16.51674856442469,0,1,1,-3.034077489261651e-15,16.51674856442469Z" fill="none" stroke="#ccc"/><text fill="black" text-anchor="middle" font-family="'Arial', sans-serif" font-size="8" dominant-baseline="middle"><textPath href="#p_1329.6868588619582" startOffset="50%">Ukraine</textPath></text></g><g transform="translate(758.5019475947956,515.5514182526023)" id="Italy"><path id="p_1291.4959964375391" d="M-3.0204622382668515e-15,16.44263059014139A16.44263059014139,16.44263059014139,0,1,1,3.0204622382668515e-15,-16.44263059014139A16.44263059014139,16.44263059014139,0,1,1,-3.0204622382668515e-15,16.44263059014139Z" fill="none" stroke="#ccc"/><text fill="black" text-anchor="middle" font-family="'Arial', sans-serif" font-size="8" dominant-baseline="middle"><textPath href="#p_1291.4959964375391" startOffset="50%">Italy</textPath></text></g><g transform="translate(766.2271379476956,614.2507204038277)" id="France"><path id="p_1396.5113511438046" d="M-2.7616078242108144e-15,15.033492792281299A15.033492792281299,15.033492792281299,0,1,1,2.7616078242108144e-15,-15.033492792281299A15.033492792281299,15.033492792281299,0,1,1,-2.7616078242108144e-15,15.033492792281299Z" fill="none" stroke="#ccc"/><text fill="black" text-anchor="middle" font-family="'Arial', sans-serif" font-size="8" dominant-baseline="middle"><textPath href="#p_1396.5113511438046" startOffset="50%">France</textPath></text></g><g transform="translate(651.8219219040257,501.7373578233733)" id="Belarus"><path id="p_1168.875332215039" d="M-2.62981617831209e-15,14.316052487640084A14.316052487640084,14.316052487640084,0,1,1,2.62981617831209e-15,-14.316052487640084A14.316052487640084,14.316052487640084,0,1,1,-2.62981617831209e-15,14.316052487640084Z" fill="none" stroke="#ccc"/><text fill="black" text-anchor="middle" font-family="'Arial', sans-serif" font-size="8" dominant-baseline="middle"><textPath href="#p_1168.875332215039" startOffset="50%">Belarus</textPath></text></g><g transform="translate(678.1852275961617,185.31811156687243)" id="Brazil"><path id="p_917.8590659375365" d="M-9.801288001586264e-15,53.3557267745024A53.3557267745024,53.3557267745024,0,1,1,9.801288001586264e-15,-53.3557267745024A53.3557267745024,53.3557267745024,0,1,1,-9.801288001586264e-15,53.3557267745024Z" fill="none" stroke="#ccc"/><text fill="black" text-anchor="middle" font-family="'Arial', sans-serif" font-size="8" dominant-baseline="middle"><textPath href="#p_917.8590659375365" startOffset="50%">Brazil</textPath></text></g><g transform="translate(761.5235064880605,185.31811156687243)" id="Peru"><path id="p_973.4354017215355" d="M-4.701501786806206e-15,25.59378366660262A25.59378366660262,25.59378366660262,0,1,1,4.701501786806206e-15,-25.59378366660262A25.59378366660262,25.59378366660262,0,1,1,-4.701501786806206e-15,25.59378366660262Z" fill="none" stroke="#ccc"/><text fill="black" text-anchor="middle" font-family="'Arial', sans-serif" font-size="8" dominant-baseline="middle"><textPath href="#p_973.4354017215355" startOffset="50%">Peru</textPath></text></g><g transform="translate(742.5697392055381,236.21133419884967)" id="Colombia"><path id="p_1004.1065814997077" d="M-4.4685233439849684e-15,24.32550809531983A24.32550809531983,24.32550809531983,0,1,1,4.4685233439849684e-15,-24.32550809531983A24.32550809531983,24.32550809531983,0,1,1,-4.4685233439849684e-15,24.32550809531983Z" fill="none" stroke="#ccc"/><text fill="black" text-anchor="middle" font-family="'Arial', sans-serif" font-size="8" dominant-baseline="middle"><textPath href="#p_1004.1065814997077" startOffset="50%">Colombia</textPath></text></g><g transform="translate(741.4867950203427,138.35678709730678)" id="Chile"><path id="p_901.9182116927084" d="M-3.871346647846808e-15,21.074629575058925A21.074629575058925,21.074629575058925,0,1,1,3.871346647846808e-15,-21.074629575058925A21.074629575058925,21.074629575058925,0,1,1,-3.871346647846808e-15,21.074629575058925Z" fill="none" stroke="#ccc"/><text fill="black" text-anchor="middle" font-family="'Arial', sans-serif" font-size="8" dominant-baseline="middle"><textPath href="#p_901.9182116927084" startOffset="50%">Chile</textPath></text></g><g transform="translate(705.4212779775743,115.40633542659185)" id="Venezuela"><path id="p_839.1128381801306" d="M-3.1752442791640835e-15,17.285224775964316A17.285224775964316,17.285224775964316,0,1,1,3.1752442791640835e-15,-17.285224775964316A17.285224775964316,17.285224775964316,0,1,1,-3.1752442791640835e-15,17.285224775964316Z" fill="none" stroke="#ccc"/><text fill="black" text-anchor="middle" font-family="'Arial', sans-serif" font-size="8" dominant-baseline="middle"><textPath href="#p_839.1128381801306" startOffset="50%">Venezuela</textPath></text></g><g transform="translate(701.61466238578,256.10055586569405)" id="Argentina"><path id="p_975.5300472953579" d="M-3.0888339850203674e-15,16.814829043883968A16.814829043883968,16.814829043883968,0,1,1,3.0888339850203674e-15,-16.814829043883968A16.814829043883968,16.814829043883968,0,1,1,-3.0888339850203674e-15,16.814829043883968Z" fill="none" stroke="#ccc"/><text fill="black" text-anchor="middle" font-family="'Arial', sans-serif" font-size="8" dominant-baseline="middle"><textPath href="#p_975.5300472953579" startOffset="50%">Argentina</textPath></text></g><g transform="translate(493.3826814824032,110.24818257312556)" id="United States"><path id="p_651.8053950491836" d="M-8.665820757398561e-15,47.1745309936549A47.1745309936549,47.1745309936549,0,1,1,8.665820757398561e-15,-47.1745309936549A47.1745309936549,47.1745309936549,0,1,1,-8.665820757398561e-15,47.1745309936549Z" fill="none" stroke="#ccc"/><text fill="black" text-anchor="middle" font-family="'Arial', sans-serif" font-size="8" dominant-baseline="middle"><textPath href="#p_651.8053950491836" startOffset="50%">United States</textPath></text></g><g transform="translate(581.972487679778,110.24818257312556)" id="Mexico"><path id="p_730.2471770058297" d="M-6.801658946786821e-15,37.0265067529261A37.0265067529261,37.0265067529261,0,1,1,6.801658946786821e-15,-37.0265067529261A37.0265067529261,37.0265067529261,0,1,1,-6.801658946786821e-15,37.0265067529261Z" fill="none" stroke="#ccc"/><text fill="black" text-anchor="middle" font-family="'Arial', sans-serif" font-size="8" dominant-baseline="middle"><textPath href="#p_730.2471770058297" startOffset="50%">Mexico</textPath></text></g><g transform="translate(546.2047631742988,169.6816738514947)" id="Canada"><path id="p_744.8373639801551" d="M-5.134501984179068e-15,27.950926954361634A27.950926954361634,27.950926954361634,0,1,1,5.134501984179068e-15,-27.950926954361634A27.950926954361634,27.950926954361634,0,1,1,-5.134501984179068e-15,27.950926954361634Z" fill="none" stroke="#ccc"/><text fill="black" text-anchor="middle" font-family="'Arial', sans-serif" font-size="8" dominant-baseline="middle"><textPath href="#p_744.8373639801551" startOffset="50%">Canada</textPath></text></g><g transform="translate(544.6909303615132,68.260106237038)" id="Cuba"><path id="p_628.6865678937604" d="M-2.706873185162038e-15,14.73553129520919A14.73553129520919,14.73553129520919,0,1,1,2.706873185162038e-15,-14.73553129520919A14.73553129520919,14.73553129520919,0,1,1,-2.706873185162038e-15,14.73553129520919Z" fill="none" stroke="#ccc"/><text fill="black" text-anchor="middle" font-family="'Arial', sans-serif" font-size="8" dominant-baseline="middle"><textPath href="#p_628.6865678937604" startOffset="50%">Cuba</textPath></text></g><g transform="translate(445.30167665608536,370.95398340968023)" id="Shanghai"><path id="p_852.2740940644981" d="M-6.432781966155091e-15,35.018433998732505A35.018433998732505,35.018433998732505,0,1,1,6.432781966155091e-15,-35.018433998732505A35.018433998732505,35.018433998732505,0,1,1,-6.432781966155091e-15,35.018433998732505Z" fill="rgb(248, 142, 83)" stroke="none"/></g><g transform="translate(517.6896448562812,370.95398340968023)" id="Beijing"><path id="p_922.6243940166311" d="M-6.0584683814979186e-15,32.980765750669555A32.980765750669555,32.980765750669555,0,1,1,6.0584683814979186e-15,-32.980765750669555A32.980765750669555,32.980765750669555,0,1,1,-6.0584683814979186e-15,32.980765750669555Z" fill="rgb(248, 142, 83)" stroke="none"/></g><g transform="translate(483.35657820566894,426.2527981949833)" id="Tianjin"><path id="p_938.3299211843511" d="M-5.092181465996624e-15,27.72054478369872A27.72054478369872,27.72054478369872,0,1,1,5.092181465996624e-15,-27.72054478369872A27.72054478369872,27.72054478369872,0,1,1,-5.092181465996624e-15,27.72054478369872Z" fill="rgb(248, 142, 83)" stroke="none"/></g><g transform="translate(483.30013294218634,318.06672744184954)" id="Guangzhou"><path id="p_828.0821926205425" d="M-4.723829896867293e-15,25.715332236506654A25.715332236506654,25.715332236506654,0,1,1,4.723829896867293e-15,-25.715332236506654A25.715332236506654,25.715332236506654,0,1,1,-4.723829896867293e-15,25.715332236506654Z" fill="rgb(248, 142, 83)" stroke="none"/></g><g transform="translate(430.7693877551479,310.258477430536)" id="Shenzhen"><path id="p_765.031654290247" d="M-4.2257275042746146e-15,23.003789104563214A23.003789104563214,23.003789104563214,0,1,1,4.2257275042746146e-15,-23.003789104563214A23.003789104563214,23.003789104563214,0,1,1,-4.2257275042746146e-15,23.003789104563214Z" fill="rgb(248, 142, 83)" stroke="none"/></g><g transform="translate(593.0100435943193,368.8142359278038)" id="Delhi"><path id="p_991.9568418469152" d="M-5.351564880302595e-15,29.132562324792005A29.132562324792005,29.132562324792005,0,1,1,5.351564880302595e-15,-29.132562324792005A29.132562324792005,29.132562324792005,0,1,1,-5.351564880302595e-15,29.132562324792005Z" fill="rgb(248, 142, 83)" stroke="none"/></g><g transform="translate(651.6116078633489,368.8142359278038)" id="Mumbai"><path id="p_1046.5060772845964" d="M-4.6071641504421066e-15,25.080233493443682A25.080233493443682,25.080233493443682,0,1,1,4.6071641504421066e-15,-25.080233493443682A25.080233493443682,25.080233493443682,0,1,1,-4.6071641504421066e-15,25.080233493443682Z" fill="rgb(248, 142, 83)" stroke="none"/></g><g transform="translate(565.7643542672832,457.4264850912516)" id="Karachi"><path id="p_1058.6586658640035" d="M-6.3316370105232824e-15,34.46782650546871A34.46782650546871,34.46782650546871,0,1,1,6.3316370105232824e-15,-34.46782650546871A34.46782650546871,34.46782650546871,0,1,1,-6.3316370105232824e-15,34.46782650546871Z" fill="rgb(248, 142, 83)" stroke="none"/></g><g transform="translate(564.0456073965406,291.36875146042405)" id="Tokyo"><path id="p_882.5520757824321" d="M-4.801420705468992e-15,26.137716925467426A26.137716925467426,26.137716925467426,0,1,1,4.801420705468992e-15,-26.137716925467426A26.137716925467426,26.137716925467426,0,1,1,-4.801420705468992e-15,26.137716925467426Z" fill="rgb(248, 142, 83)" stroke="none"/></g><g transform="translate(513.7398894668273,255.34673829177808)" id="Jakarta"><path id="p_792.6554645479272" d="M-4.145828060178301e-15,22.56883678932183A22.56883678932183,22.56883678932183,0,1,1,4.145828060178301e-15,-22.56883678932183A22.56883678932183,22.56883678932183,0,1,1,-4.145828060178301e-15,22.56883678932183Z" fill="rgb(248, 142, 83)" stroke="none"/></g><g transform="translate(749.7903736893008,370.20247145993415)" id="Lagos"><path id="p_1150.8030319296008" d="M-5.4760424733839586e-15,29.810186780365804A29.810186780365804,29.810186780365804,0,1,1,5.4760424733839586e-15,-29.810186780365804A29.810186780365804,29.810186780365804,0,1,1,-5.4760424733839586e-15,29.810186780365804Z" fill="rgb(158, 1, 66)" stroke="none"/></g><g transform="translate(816.3497028332578,370.20247145993415)" id="Cairo"><path id="p_1211.1350113044016" d="M-4.332096879088735e-15,23.582837011209598A23.582837011209598,23.582837011209598,0,1,1,4.332096879088735e-15,-23.582837011209598A23.582837011209598,23.582837011209598,0,1,1,-4.332096879088735e-15,23.582837011209598Z" fill="rgb(158, 1, 66)" stroke="none"/></g><g transform="translate(859.2136771504788,370.20247145993415)" id="Alexandria"><path id="p_1245.3085174656308" d="M-2.7356837775396115e-15,14.892368855217692A14.892368855217692,14.892368855217692,0,1,1,2.7356837775396115e-15,-14.892368855217692A14.892368855217692,14.892368855217692,0,1,1,-2.7356837775396115e-15,14.892368855217692Z" fill="rgb(158, 1, 66)" stroke="none"/></g><g transform="translate(782.5979136641616,425.16963410292067)" id="Kinshasa-Brazzaville"><path id="p_1229.8045202197065" d="M-3.864429146678602e-15,21.036972452624262A21.036972452624262,21.036972452624262,0,1,1,3.864429146678602e-15,-21.036972452624262A21.036972452624262,21.036972452624262,0,1,1,-3.864429146678602e-15,21.036972452624262Z" fill="rgb(158, 1, 66)" stroke="none"/></g><g transform="translate(783.0036904945266,319.1709777821304)" id="Mogadishu"><path id="p_1121.0860875893848" d="M-3.29027434942772e-15,17.91141931272776A17.91141931272776,17.91141931272776,0,1,1,3.29027434942772e-15,-17.91141931272776A17.91141931272776,17.91141931272776,0,1,1,-3.29027434942772e-15,17.91141931272776Z" fill="rgb(158, 1, 66)" stroke="none"/></g><g transform="translate(830.6907281012345,440.15447095235476)" id="Khartoum-Omdurman"><path id="p_1288.015169465101" d="M-2.9703753760147855e-15,16.16997041151172A16.16997041151172,16.16997041151172,0,1,1,2.9703753760147855e-15,-16.16997041151172A16.16997041151172,16.16997041151172,0,1,1,-2.9703753760147855e-15,16.16997041151172Z" fill="rgb(158, 1, 66)" stroke="none"/></g><g transform="translate(826.0229903618268,301.2317577235878)" id="Luanda"><path id="p_1143.7868483221596" d="M-2.853200525844847e-15,15.532100236745029A15.532100236745029,15.532100236745029,0,1,1,2.853200525844847e-15,-15.532100236745029A15.532100236745029,15.532100236745029,0,1,1,-2.853200525844847e-15,15.532100236745029Z" fill="rgb(158, 1, 66)" stroke="none"/></g><g transform="translate(737.3969128612775,313.7153841113702)" id="Dar es Salaam"><path id="p_1066.9664965910808" d="M-2.728672202491481e-15,14.854199618433054A14.854199618433054,14.854199618433054,0,1,1,2.728672202491481e-15,-14.854199618433054A14.854199618433054,14.854199618433054,0,1,1,-2.728672202491481e-15,14.854199618433054Z" fill="rgb(158, 1, 66)" stroke="none"/></g><g transform="translate(733.9543246219115,425.39275703471725)" id="Abidjan"><path id="p_1174.787904611674" d="M-2.6527361413425084e-15,14.44082295504547A14.44082295504547,14.44082295504547,0,1,1,2.6527361413425084e-15,-14.44082295504547A14.44082295504547,14.44082295504547,0,1,1,-2.6527361413425084e-15,14.44082295504547Z" fill="rgb(158, 1, 66)" stroke="none"/></g><g transform="translate(867.0265289433919,311.703268994405)" id="Greater Johannesburg"><path id="p_1193.350923590223" d="M-2.502160189654119e-15,13.621125652426048A13.621125652426048,13.621125652426048,0,1,1,2.502160189654119e-15,-13.621125652426048A13.621125652426048,13.621125652426048,0,1,1,-2.502160189654119e-15,13.621125652426048Z" fill="rgb(158, 1, 66)" stroke="none"/></g><g transform="translate(647.9444593376418,566.6301827972878)" id="Moscow"><path id="p_1240.5414905468594" d="M-4.586335648870083e-15,24.966848411929977A24.966848411929977,24.966848411929977,0,1,1,4.586335648870083e-15,-24.966848411929977A24.966848411929977,24.966848411929977,0,1,1,-4.586335648870083e-15,24.966848411929977Z" fill="rgb(251, 248, 176)" stroke="none"/></g><g transform="translate(693.553759319326,566.6301827972878)" id="Saint Petersburg"><path id="p_1277.4376252355742" d="M-2.985753150898541e-15,16.253683118960442A16.253683118960442,16.253683118960442,0,1,1,2.985753150898541e-15,-16.253683118960442A16.253683118960442,16.253683118960442,0,1,1,-2.985753150898541e-15,16.253683118960442Z" fill="rgb(251, 248, 176)" stroke="none"/></g><g transform="translate(749.6019228712123,566.6301827972878)" id="Istanbul"><path id="p_1343.8602807490445" d="M-4.8915164069285954e-15,26.628175080544366A26.628175080544366,26.628175080544366,0,1,1,4.8915164069285954e-15,-26.628175080544366A26.628175080544366,26.628175080544366,0,1,1,-4.8915164069285954e-15,26.628175080544366Z" fill="rgb(251, 248, 176)" stroke="none"/></g><g transform="translate(721.9431979853563,620.7014885060441)" id="London"><path id="p_1364.584966808487" d="M-3.846667089535259e-15,20.94028031708657A20.94028031708657,20.94028031708657,0,1,1,3.846667089535259e-15,-20.94028031708657A20.94028031708657,20.94028031708657,0,1,1,-3.846667089535259e-15,20.94028031708657Z" fill="rgb(251, 248, 176)" stroke="none"/></g><g transform="translate(720.4259532194258,522.1274543233166)" id="Berlin"><path id="p_1256.9729294658691" d="M-2.4651261853867554e-15,13.419521923126856A13.419521923126856,13.419521923126856,0,1,1,2.4651261853867554e-15,-13.419521923126856A13.419521923126856,13.419521923126856,0,1,1,-2.4651261853867554e-15,13.419521923126856Z" fill="rgb(251, 248, 176)" stroke="none"/></g><g transform="translate(687.5505669909073,500.7115303451714)" id="Madrid"><path id="p_1201.911876587193" d="M-2.3237267504696544e-15,12.649779251114273A12.649779251114273,12.649779251114273,0,1,1,2.3237267504696544e-15,-12.649779251114273A12.649779251114273,12.649779251114273,0,1,1,-2.3237267504696544e-15,12.649779251114273Z" fill="rgb(251, 248, 176)" stroke="none"/></g><g transform="translate(677.7811352475219,634.3889750500116)" id="Kiev"><path id="p_1325.2980904111644" d="M-2.2278738039421152e-15,12.127980113630846A12.127980113630846,12.127980113630846,0,1,1,2.2278738039421152e-15,-12.127980113630846A12.127980113630846,12.127980113630846,0,1,1,-2.2278738039421152e-15,12.127980113630846Z" fill="rgb(251, 248, 176)" stroke="none"/></g><g transform="translate(758.5019475947956,515.5514182526023)" id="Rome"><path id="p_1287.1072279867453" d="M-2.2142585529473154e-15,12.053862139347544A12.053862139347544,12.053862139347544,0,1,1,2.2142585529473154e-15,-12.053862139347544A12.053862139347544,12.053862139347544,0,1,1,-2.2142585529473154e-15,12.053862139347544Z" fill="rgb(251, 248, 176)" stroke="none"/></g><g transform="translate(766.2271379476956,614.2507204038277)" id="Paris"><path id="p_1392.1225826930108" d="M-1.9554041388912787e-15,10.644724341487452A10.644724341487452,10.644724341487452,0,1,1,1.9554041388912787e-15,-10.644724341487452A10.644724341487452,10.644724341487452,0,1,1,-1.9554041388912787e-15,10.644724341487452Z" fill="rgb(251, 248, 176)" stroke="none"/></g><g transform="translate(651.8219219040257,501.7373578233733)" id="Minsk"><path id="p_1164.4865637642451" d="M-1.8236124929925545e-15,9.927284036846242A9.927284036846242,9.927284036846242,0,1,1,1.8236124929925545e-15,-9.927284036846242A9.927284036846242,9.927284036846242,0,1,1,-1.8236124929925545e-15,9.927284036846242Z" fill="rgb(251, 248, 176)" stroke="none"/></g><g transform="translate(661.5058096235938,190.68817739461525)" id="São Paulo"><path id="p_877.7912951814749" d="M-4.518452206467674e-15,24.597308163265776A24.597308163265776,24.597308163265776,0,1,1,4.518452206467674e-15,-24.597308163265776A24.597308163265776,24.597308163265776,0,1,1,-4.518452206467674e-15,24.597308163265776Z" fill="rgb(94, 79, 162)" stroke="none"/></g><g transform="translate(708.5867177768354,190.68817739461525)" id="Rio de Janeiro"><path id="p_918.3697267106326" d="M-3.3239666288354485e-15,18.094831539181875A18.094831539181875,18.094831539181875,0,1,1,3.3239666288354485e-15,-18.094831539181875A18.094831539181875,18.094831539181875,0,1,1,-3.3239666288354485e-15,18.094831539181875Z" fill="rgb(94, 79, 162)" stroke="none"/></g><g transform="translate(690.2789386878512,220.0898549185)" id="Salvador"><path id="p_923.5209181849414" d="M-2.2323090702015326e-15,12.152124578590078A12.152124578590078,12.152124578590078,0,1,1,2.2323090702015326e-15,-12.152124578590078A12.152124578590078,12.152124578590078,0,1,1,-2.2323090702015326e-15,12.152124578590078Z" fill="rgb(94, 79, 162)" stroke="none"/></g><g transform="translate(690.2771401871913,161.30296165887233)" id="Brasília"><path id="p_864.7192044563666" d="M-2.2299169734343335e-15,12.139102610303034A12.139102610303034,12.139102610303034,0,1,1,2.2299169734343335e-15,-12.139102610303034A12.139102610303034,12.139102610303034,0,1,1,-2.2299169734343335e-15,12.139102610303034Z" fill="rgb(94, 79, 162)" stroke="none"/></g><g transform="translate(664.5289314759144,150.36992172395082)" id="Fortaleza"><path id="p_827.3442124502297" d="M-2.102478385657573e-15,11.445359250364541A11.445359250364541,11.445359250364541,0,1,1,2.102478385657573e-15,-11.445359250364541A11.445359250364541,11.445359250364541,0,1,1,-2.102478385657573e-15,11.445359250364541Z" fill="rgb(94, 79, 162)" stroke="none"/></g><g transform="translate(761.5235064880605,185.31811156687243)" id="Lima"><path id="p_969.0466332707417" d="M-3.895298101486671e-15,21.20501521580878A21.20501521580878,21.20501521580878,0,1,1,3.895298101486671e-15,-21.20501521580878A21.20501521580878,21.20501521580878,0,1,1,-3.895298101486671e-15,21.20501521580878Z" fill="rgb(94, 79, 162)" stroke="none"/></g><g transform="translate(742.5697392055381,236.21133419884967)" id="Bogotá"><path id="p_999.7178130489139" d="M-3.6623196586654335e-15,19.93673964452599A19.93673964452599,19.93673964452599,0,1,1,3.6623196586654335e-15,-19.93673964452599A19.93673964452599,19.93673964452599,0,1,1,-3.6623196586654335e-15,19.93673964452599Z" fill="rgb(94, 79, 162)" stroke="none"/></g><g transform="translate(741.4867950203427,138.35678709730678)" id="Santiago"><path id="p_897.5294432419146" d="M-3.0651429625272743e-15,16.685861124265088A16.685861124265088,16.685861124265088,0,1,1,3.0651429625272743e-15,-16.685861124265088A16.685861124265088,16.685861124265088,0,1,1,-3.0651429625272743e-15,16.685861124265088Z" fill="rgb(94, 79, 162)" stroke="none"/></g><g transform="translate(705.4212779775743,115.40633542659185)" id="Caracas"><path id="p_834.7240697293366" d="M-2.369040593844548e-15,12.896456325170472A12.896456325170472,12.896456325170472,0,1,1,2.369040593844548e-15,-12.896456325170472A12.896456325170472,12.896456325170472,0,1,1,-2.369040593844548e-15,12.896456325170472Z" fill="rgb(94, 79, 162)" stroke="none"/></g><g transform="translate(701.61466238578,256.10055586569405)" id="Buenos Aires"><path id="p_971.1412788445641" d="M-2.282630299700833e-15,12.426060593090128A12.426060593090128,12.426060593090128,0,1,1,2.282630299700833e-15,-12.426060593090128A12.426060593090128,12.426060593090128,0,1,1,-2.282630299700833e-15,12.426060593090128Z" fill="rgb(94, 79, 162)" stroke="none"/></g><g transform="translate(478.9331681204858,112.49402725446765)" id="New York City"><path id="p_613.2180963613105" d="M-3.8192265516497466e-15,20.790900986357A20.790900986357,20.790900986357,0,1,1,3.8192265516497466e-15,-20.790900986357A20.790900986357,20.790900986357,0,1,1,-3.8192265516497466e-15,20.790900986357Z" fill="rgb(137, 207, 165)" stroke="none"/></g><g transform="translate(518.283109686163,112.49402725446765)" id="Los Angeles"><path id="p_645.9474090691572" d="M-2.6030367607870213e-15,14.170272128526403A14.170272128526403,14.170272128526403,0,1,1,2.6030367607870213e-15,-14.170272128526403A14.170272128526403,14.170272128526403,0,1,1,-2.6030367607870213e-15,14.170272128526403Z" fill="rgb(137, 207, 165)" stroke="none"/></g><g transform="translate(504.26082241521294,139.3390303466304)" id="Chicago"><path id="p_656.3274219519785" d="M-2.1543195105717356e-15,11.72756919013524A11.72756919013524,11.72756919013524,0,1,1,2.1543195105717356e-15,-11.72756919013524A11.72756919013524,11.72756919013524,0,1,1,-2.1543195105717356e-15,11.72756919013524Z" fill="rgb(137, 207, 165)" stroke="none"/></g><g transform="translate(504.10042661870597,86.81731597573051)" id="Houston"><path id="p_602.6919937002232" d="M-1.9791978194867177e-15,10.77425110578665A10.77425110578665,10.77425110578665,0,1,1,1.9791978194867177e-15,-10.77425110578665A10.77425110578665,10.77425110578665,0,1,1,-1.9791978194867177e-15,10.77425110578665Z" fill="rgb(137, 207, 165)" stroke="none"/></g><g transform="translate(481.5147988376785,78.51051990227322)" id="Philadelphia"><path id="p_569.9270751696364" d="M-1.635226127760411e-15,8.901756429684701A8.901756429684701,8.901756429684701,0,1,1,1.635226127760411e-15,-8.901756429684701A8.901756429684701,8.901756429684701,0,1,1,-1.635226127760411e-15,8.901756429684701Z" fill="rgb(137, 207, 165)" stroke="none"/></g><g transform="translate(570.5686412079508,110.24818257312556)" id="Mexico City"><path id="p_703.0507156113813" d="M-3.900602649513625e-15,21.233891830305016A21.233891830305016,21.233891830305016,0,1,1,3.900602649513625e-15,-21.233891830305016A21.233891830305016,21.233891830305016,0,1,1,-3.900602649513625e-15,21.233891830305016Z" fill="rgb(137, 207, 165)" stroke="none"/></g><g transform="translate(605.40076373548,110.24818257312556)" id="Ecatepec de Morelos"><path id="p_725.8584085550359" d="M-1.6917507692938937e-15,9.209462246430327A9.209462246430327,9.209462246430327,0,1,1,1.6917507692938937e-15,-9.209462246430327A9.209462246430327,9.209462246430327,0,1,1,-1.6917507692938937e-15,9.209462246430327Z" fill="rgb(137, 207, 165)" stroke="none"/></g><g transform="translate(534.5963585124813,169.6816738514947)" id="Toronto"><path id="p_717.2317862057262" d="M-2.195868957014219e-15,11.95375384175023A11.95375384175023,11.95375384175023,0,1,1,2.195868957014219e-15,-11.95375384175023A11.95375384175023,11.95375384175023,0,1,1,-2.195868957014219e-15,11.95375384175023Z" fill="rgb(137, 207, 165)" stroke="none"/></g><g transform="translate(560.3529012414459,169.6816738514947)" id="Montreal"><path id="p_740.4485955293612" d="M-1.7293274991855462e-15,9.414020436420643A9.414020436420643,9.414020436420643,0,1,1,1.7293274991855462e-15,-9.414020436420643A9.414020436420643,9.414020436420643,0,1,1,-1.7293274991855462e-15,9.414020436420643Z" fill="rgb(137, 207, 165)" stroke="none"/></g><g transform="translate(544.6909303615132,68.260106237038)" id="Havana"><path id="p_624.2977994429666" d="M-1.9006694998425022e-15,10.346762844415345A10.346762844415345,10.346762844415345,0,1,1,1.9006694998425022e-15,-10.346762844415345A10.346762844415345,10.346762844415345,0,1,1,-1.9006694998425022e-15,10.346762844415345Z" fill="rgb(137, 207, 165)" stroke="none"/></g></g><g id="labels"><g transform="translate(445.30167665608536,370.95398340968023)"><text text-anchor="middle" dominant-baseline="text-before-edge" transform="translate(0,-5.5546875)" style="opacity: 1;"><tspan x="0" y="0" dy="0" style="font-family: Arial, sans-serif; font-size: 10px; fill: black; font-weight: bold;">Shanghai</tspan></text></g><g transform="translate(517.6896448562812,370.95398340968023)"><text text-anchor="middle" dominant-baseline="text-before-edge" transform="translate(0,-5.5546875)" style="opacity: 1;"><tspan x="0" y="0" dy="0" style="font-family: Arial, sans-serif; font-size: 10px; fill: black; font-weight: bold;">Beijing</tspan></text></g><g transform="translate(483.35657820566894,426.2527981949833)"><text text-anchor="middle" dominant-baseline="text-before-edge" transform="translate(0,-5.5546875)" style="opacity: 1;"><tspan x="0" y="0" dy="0" style="font-family: Arial, sans-serif; font-size: 10px; fill: black; font-weight: bold;">Tianjin</tspan></text></g><g transform="translate(483.30013294218634,318.06672744184954)"><text text-anchor="middle" dominant-baseline="text-before-edge" transform="translate(0,-5.5546875)" style="opacity: 1;"><tspan x="0" y="0" dy="0" style="font-family: Arial, sans-serif; font-size: 10px; fill: black; font-weight: bold;">Guangzhou</tspan></text></g><g transform="translate(430.7693877551479,310.258477430536)"><text text-anchor="middle" dominant-baseline="text-before-edge" transform="translate(0,-5.5546875)" style="opacity: 1;"><tspan x="0" y="0" dy="0" style="font-family: Arial, sans-serif; font-size: 10px; fill: black; font-weight: bold;">Shenzhen</tspan></text></g><g transform="translate(593.0100435943193,368.8142359278038)"><text text-anchor="middle" dominant-baseline="text-before-edge" transform="translate(0,-5.5546875)" style="opacity: 1;"><tspan x="0" y="0" dy="0" style="font-family: Arial, sans-serif; font-size: 10px; fill: black; font-weight: bold;">Delhi</tspan></text></g><g transform="translate(651.6116078633489,368.8142359278038)"><text text-anchor="middle" dominant-baseline="text-before-edge" transform="translate(0,-5.5546875)" style="opacity: 1;"><tspan x="0" y="0" dy="0" style="font-family: Arial, sans-serif; font-size: 10px; fill: black; font-weight: bold;">Mumbai</tspan></text></g><g transform="translate(565.7643542672832,457.4264850912516)"><text text-anchor="middle" dominant-baseline="text-before-edge" transform="translate(0,-5.5546875)" style="opacity: 1;"><tspan x="0" y="0" dy="0" style="font-family: Arial, sans-serif; font-size: 10px; fill: black; font-weight: bold;">Karachi</tspan></text></g><g transform="translate(564.0456073965406,291.36875146042405)"><text text-anchor="middle" dominant-baseline="text-before-edge" transform="translate(0,-5.5546875)" style="opacity: 1;"><tspan x="0" y="0" dy="0" style="font-family: Arial, sans-serif; font-size: 10px; fill: black; font-weight: bold;">Tokyo</tspan></text></g><g transform="translate(513.7398894668273,255.34673829177808)"><text text-anchor="middle" dominant-baseline="text-before-edge" transform="translate(0,-5.5546875)" style="opacity: 1;"><tspan x="0" y="0" dy="0" style="font-family: Arial, sans-serif; font-size: 10px; fill: black; font-weight: bold;">Jakarta</tspan></text></g><g transform="translate(749.7903736893008,370.20247145993415)"><text text-anchor="middle" dominant-baseline="text-before-edge" transform="translate(0,-5.5546875)" style="opacity: 1;"><tspan x="0" y="0" dy="0" style="font-family: Arial, sans-serif; font-size: 10px; fill: black; font-weight: bold;">Lagos</tspan></text></g><g transform="translate(816.3497028332578,370.20247145993415)"><text text-anchor="middle" dominant-baseline="text-before-edge" transform="translate(0,-5.5546875)" style="opacity: 1;"><tspan x="0" y="0" dy="0" style="font-family: Arial, sans-serif; font-size: 10px; fill: black; font-weight: bold;">Cairo</tspan></text></g><g transform="translate(859.2136771504788,370.20247145993415)"><text text-anchor="middle" dominant-baseline="text-before-edge" transform="translate(0,-5.5546875)" style="opacity: 1;"><tspan x="0" y="0" dy="0" style="font-family: Arial, sans-serif; font-size: 10px; fill: black; font-weight: bold;">Alexandria</tspan></text></g><g transform="translate(782.5979136641616,425.16963410292067)"><text text-anchor="middle" dominant-baseline="text-before-edge" transform="translate(0,-5.5546875)" style="opacity: 1;"><tspan x="0" y="0" dy="0" style="font-family: Arial, sans-serif; font-size: 10px; fill: black; font-weight: bold;">Kinshasa-Brazzaville</tspan></text></g><g transform="translate(783.0036904945266,319.1709777821304)"><text text-anchor="middle" dominant-baseline="text-before-edge" transform="translate(0,-5.5546875)" style="opacity: 1;"><tspan x="0" y="0" dy="0" style="font-family: Arial, sans-serif; font-size: 10px; fill: black; font-weight: bold;">Mogadishu</tspan></text></g><g transform="translate(830.6907281012345,440.15447095235476)"><text text-anchor="middle" dominant-baseline="text-before-edge" transform="translate(0,-5.5546875)" style="opacity: 1;"><tspan x="0" y="0" dy="0" style="font-family: Arial, sans-serif; font-size: 10px; fill: black; font-weight: bold;">Khartoum-Omdurman</tspan></text></g><g transform="translate(826.0229903618268,301.2317577235878)"><text text-anchor="middle" dominant-baseline="text-before-edge" transform="translate(0,-5.5546875)" style="opacity: 1;"><tspan x="0" y="0" dy="0" style="font-family: Arial, sans-serif; font-size: 10px; fill: black; font-weight: bold;">Luanda</tspan></text></g><g transform="translate(737.3969128612775,313.7153841113702)"><text text-anchor="middle" dominant-baseline="text-before-edge" transform="translate(0,-5.5546875)" style="opacity: 0;"><tspan x="0" y="0" dy="0" style="font-family: Arial, sans-serif; font-size: 10px; fill: black; font-weight: bold;">Dar es Salaam</tspan></text></g><g transform="translate(733.9543246219115,425.39275703471725)"><text text-anchor="middle" dominant-baseline="text-before-edge" transform="translate(0,-5.5546875)" style="opacity: 0;"><tspan x="0" y="0" dy="0" style="font-family: Arial, sans-serif; font-size: 10px; fill: black; font-weight: bold;">Abidjan</tspan></text></g><g transform="translate(867.0265289433919,311.703268994405)"><text text-anchor="middle" dominant-baseline="text-before-edge" transform="translate(0,-5.5546875)" style="opacity: 0;"><tspan x="0" y="0" dy="0" style="font-family: Arial, sans-serif; font-size: 10px; fill: black; font-weight: bold;">Greater Johannesburg</tspan></text></g><g transform="translate(647.9444593376418,566.6301827972878)"><text text-anchor="middle" dominant-baseline="text-before-edge" transform="translate(0,-5.5546875)" style="opacity: 1;"><tspan x="0" y="0" dy="0" style="font-family: Arial, sans-serif; font-size: 10px; fill: black; font-weight: bold;">Moscow</tspan></text></g><g transform="translate(693.553759319326,566.6301827972878)"><text text-anchor="middle" dominant-baseline="text-before-edge" transform="translate(0,-5.5546875)" style="opacity: 0;"><tspan x="0" y="0" dy="0" style="font-family: Arial, sans-serif; font-size: 10px; fill: black; font-weight: bold;">Saint Petersburg</tspan></text></g><g transform="translate(749.6019228712123,566.6301827972878)"><text text-anchor="middle" dominant-baseline="text-before-edge" transform="translate(0,-5.5546875)" style="opacity: 1;"><tspan x="0" y="0" dy="0" style="font-family: Arial, sans-serif; font-size: 10px; fill: black; font-weight: bold;">Istanbul</tspan></text></g><g transform="translate(721.9431979853563,620.7014885060441)"><text text-anchor="middle" dominant-baseline="text-before-edge" transform="translate(0,-5.5546875)" style="opacity: 1;"><tspan x="0" y="0" dy="0" style="font-family: Arial, sans-serif; font-size: 10px; fill: black; font-weight: bold;">London</tspan></text></g><g transform="translate(720.4259532194258,522.1274543233166)"><text text-anchor="middle" dominant-baseline="text-before-edge" transform="translate(0,-5.5546875)" style="opacity: 1;"><tspan x="0" y="0" dy="0" style="font-family: Arial, sans-serif; font-size: 10px; fill: black; font-weight: bold;">Berlin</tspan></text></g><g transform="translate(687.5505669909073,500.7115303451714)"><text text-anchor="middle" dominant-baseline="text-before-edge" transform="translate(0,-5.5546875)" style="opacity: 1;"><tspan x="0" y="0" dy="0" style="font-family: Arial, sans-serif; font-size: 10px; fill: black; font-weight: bold;">Madrid</tspan></text></g><g transform="translate(677.7811352475219,634.3889750500116)"><text text-anchor="middle" dominant-baseline="text-before-edge" transform="translate(0,-5.5546875)" style="opacity: 1;"><tspan x="0" y="0" dy="0" style="font-family: Arial, sans-serif; font-size: 10px; fill: black; font-weight: bold;">Kiev</tspan></text></g><g transform="translate(758.5019475947956,515.5514182526023)"><text text-anchor="middle" dominant-baseline="text-before-edge" transform="translate(0,-5.5546875)" style="opacity: 1;"><tspan x="0" y="0" dy="0" style="font-family: Arial, sans-serif; font-size: 10px; fill: black; font-weight: bold;">Rome</tspan></text></g><g transform="translate(766.2271379476956,614.2507204038277)"><text text-anchor="middle" dominant-baseline="text-before-edge" transform="translate(0,-5.5546875)" style="opacity: 1;"><tspan x="0" y="0" dy="0" style="font-family: Arial, sans-serif; font-size: 10px; fill: black; font-weight: bold;">Paris</tspan></text></g><g transform="translate(651.8219219040257,501.7373578233733)"><text text-anchor="middle" dominant-baseline="text-before-edge" transform="translate(0,-5.5546875)" style="opacity: 1;"><tspan x="0" y="0" dy="0" style="font-family: Arial, sans-serif; font-size: 10px; fill: black; font-weight: bold;">Minsk</tspan></text></g><g transform="translate(661.5058096235938,190.68817739461525)"><text text-anchor="middle" dominant-baseline="text-before-edge" transform="translate(0,-5.5546875)" style="opacity: 1;"><tspan x="0" y="0" dy="0" style="font-family: Arial, sans-serif; font-size: 10px; fill: black; font-weight: bold;">São Paulo</tspan></text></g><g transform="translate(708.5867177768354,190.68817739461525)"><text text-anchor="middle" dominant-baseline="text-before-edge" transform="translate(0,-5.5546875)" style="opacity: 0;"><tspan x="0" y="0" dy="0" style="font-family: Arial, sans-serif; font-size: 10px; fill: black; font-weight: bold;">Rio de Janeiro</tspan></text></g><g transform="translate(690.2789386878512,220.0898549185)"><text text-anchor="middle" dominant-baseline="text-before-edge" transform="translate(0,-5.5546875)" style="opacity: 1;"><tspan x="0" y="0" dy="0" style="font-family: Arial, sans-serif; font-size: 10px; fill: black; font-weight: bold;">Salvador</tspan></text></g><g transform="translate(690.2771401871913,161.30296165887233)"><text text-anchor="middle" dominant-baseline="text-before-edge" transform="translate(0,-5.5546875)" style="opacity: 1;"><tspan x="0" y="0" dy="0" style="font-family: Arial, sans-serif; font-size: 10px; fill: black; font-weight: bold;">Brasília</tspan></text></g><g transform="translate(664.5289314759144,150.36992172395082)"><text text-anchor="middle" dominant-baseline="text-before-edge" transform="translate(0,-5.5546875)" style="opacity: 0;"><tspan x="0" y="0" dy="0" style="font-family: Arial, sans-serif; font-size: 10px; fill: black; font-weight: bold;">Fortaleza</tspan></text></g><g transform="translate(761.5235064880605,185.31811156687243)"><text text-anchor="middle" dominant-baseline="text-before-edge" transform="translate(0,-5.5546875)" style="opacity: 1;"><tspan x="0" y="0" dy="0" style="font-family: Arial, sans-serif; font-size: 10px; fill: black; font-weight: bold;">Lima</tspan></text></g><g transform="translate(742.5697392055381,236.21133419884967)"><text text-anchor="middle" dominant-baseline="text-before-edge" transform="translate(0,-5.5546875)" style="opacity: 1;"><tspan x="0" y="0" dy="0" style="font-family: Arial, sans-serif; font-size: 10px; fill: black; font-weight: bold;">Bogotá</tspan></text></g><g transform="translate(741.4867950203427,138.35678709730678)"><text text-anchor="middle" dominant-baseline="text-before-edge" transform="translate(0,-5.5546875)" style="opacity: 1;"><tspan x="0" y="0" dy="0" style="font-family: Arial, sans-serif; font-size: 10px; fill: black; font-weight: bold;">Santiago</tspan></text></g><g transform="translate(705.4212779775743,115.40633542659185)"><text text-anchor="middle" dominant-baseline="text-before-edge" transform="translate(0,-5.5546875)" style="opacity: 1;"><tspan x="0" y="0" dy="0" style="font-family: Arial, sans-serif; font-size: 10px; fill: black; font-weight: bold;">Caracas</tspan></text></g><g transform="translate(701.61466238578,256.10055586569405)"><text text-anchor="middle" dominant-baseline="text-before-edge" transform="translate(0,-5.5546875)" style="opacity: 1;"><tspan x="0" y="0" dy="0" style="font-family: Arial, sans-serif; font-size: 10px; fill: black; font-weight: bold;">Buenos Aires</tspan></text></g><g transform="translate(478.9331681204858,112.49402725446765)"><text text-anchor="middle" dominant-baseline="text-before-edge" transform="translate(0,-5.5546875)" style="opacity: 1;"><tspan x="0" y="0" dy="0" style="font-family: Arial, sans-serif; font-size: 10px; fill: black; font-weight: bold;">New York City</tspan></text></g><g transform="translate(518.283109686163,112.49402725446765)"><text text-anchor="middle" dominant-baseline="text-before-edge" transform="translate(0,-5.5546875)" style="opacity: 0;"><tspan x="0" y="0" dy="0" style="font-family: Arial, sans-serif; font-size: 10px; fill: black; font-weight: bold;">Los Angeles</tspan></text></g><g transform="translate(504.26082241521294,139.3390303466304)"><text text-anchor="middle" dominant-baseline="text-before-edge" transform="translate(0,-5.5546875)" style="opacity: 1;"><tspan x="0" y="0" dy="0" style="font-family: Arial, sans-serif; font-size: 10px; fill: black; font-weight: bold;">Chicago</tspan></text></g><g transform="translate(504.10042661870597,86.81731597573051)"><text text-anchor="middle" dominant-baseline="text-before-edge" transform="translate(0,-5.5546875)" style="opacity: 1;"><tspan x="0" y="0" dy="0" style="font-family: Arial, sans-serif; font-size: 10px; fill: black; font-weight: bold;">Houston</tspan></text></g><g transform="translate(481.5147988376785,78.51051990227322)"><text text-anchor="middle" dominant-baseline="text-before-edge" transform="translate(0,-5.5546875)" style="opacity: 0;"><tspan x="0" y="0" dy="0" style="font-family: Arial, sans-serif; font-size: 10px; fill: black; font-weight: bold;">Philadelphia</tspan></text></g><g transform="translate(570.5686412079508,110.24818257312556)"><text text-anchor="middle" dominant-baseline="text-before-edge" transform="translate(0,-5.5546875)" style="opacity: 1;"><tspan x="0" y="0" dy="0" style="font-family: Arial, sans-serif; font-size: 10px; fill: black; font-weight: bold;">Mexico City</tspan></text></g><g transform="translate(605.40076373548,110.24818257312556)"><text text-anchor="middle" dominant-baseline="text-before-edge" transform="translate(0,-5.5546875)" style="opacity: 0;"><tspan x="0" y="0" dy="0" style="font-family: Arial, sans-serif; font-size: 10px; fill: black; font-weight: bold;">Ecatepec de Morelos</tspan></text></g><g transform="translate(534.5963585124813,169.6816738514947)"><text text-anchor="middle" dominant-baseline="text-before-edge" transform="translate(0,-5.5546875)" style="opacity: 1;"><tspan x="0" y="0" dy="0" style="font-family: Arial, sans-serif; font-size: 10px; fill: black; font-weight: bold;">Toronto</tspan></text></g><g transform="translate(560.3529012414459,169.6816738514947)"><text text-anchor="middle" dominant-baseline="text-before-edge" transform="translate(0,-5.5546875)" style="opacity: 0;"><tspan x="0" y="0" dy="0" style="font-family: Arial, sans-serif; font-size: 10px; fill: black; font-weight: bold;">Montreal</tspan></text></g><g transform="translate(544.6909303615132,68.260106237038)"><text text-anchor="middle" dominant-baseline="text-before-edge" transform="translate(0,-5.5546875)" style="opacity: 1;"><tspan x="0" y="0" dy="0" style="font-family: Arial, sans-serif; font-size: 10px; fill: black; font-weight: bold;">Havana</tspan></text></g></g></g><g id="legend" transform="translate(1280,20)"><g transform="translate(5,0)"><g class="legendSize" transform="translate(0,0)"><g class="legendCells" transform="translate(35,15.5)"><g class="cell" transform="translate(0, 9)"><circle class="swatch" r="9" fill="none" stroke="#ccc"/><text class="label" transform="translate( 40,&#10;          5)" font-family="&quot;Arial&quot;, sans-serif" font-size="10px"><tspan x="0" dy="0em">1567442.0</tspan></text></g><g class="cell" transform="translate(0, 62.018433998732505)"><circle class="swatch" r="35" fill="none" stroke="#ccc"/><text class="label" transform="translate( 40,&#10;          5)" font-family="&quot;Arial&quot;, sans-serif" font-size="10px"><tspan x="0" dy="0em">24256800.0</tspan></text></g></g><text class="legendTitle" font-family="&quot;Arial&quot;, sans-serif" font-size="12px" font-weight="bold"><tspan x="0" dy="0em">Population [sum]</tspan></text></g><g class="legendColor" transform="translate(0,145.0184326171875)"><g class="legendCells" transform="translate(0,15.5)"><g class="cell" transform="translate(0, 0)"><rect class="swatch" height="15" width="15" style="fill: rgb(158, 1, 66);"/><text class="label" transform="translate( 20, 12.5)" font-family="&quot;Arial&quot;, sans-serif" font-size="10px"><tspan x="0" dy="0em">Africa</tspan></text></g><g class="cell" transform="translate(0, 20.5)"><rect class="swatch" height="15" width="15" style="fill: rgb(248, 142, 83);"/><text class="label" transform="translate( 20, 12.5)" font-family="&quot;Arial&quot;, sans-serif" font-size="10px"><tspan x="0" dy="0em">Asia</tspan></text></g><g class="cell" transform="translate(0, 41)"><rect class="swatch" height="15" width="15" style="fill: rgb(251, 248, 176);"/><text class="label" transform="translate( 20, 12.5)" font-family="&quot;Arial&quot;, sans-serif" font-size="10px"><tspan x="0" dy="0em">Europe</tspan></text></g><g class="cell" transform="translate(0, 61.5)"><rect class="swatch" height="15" width="15" style="fill: rgb(137, 207, 165);"/><text class="label" transform="translate( 20, 12.5)" font-family="&quot;Arial&quot;, sans-serif" font-size="10px"><tspan x="0" dy="0em">North America</tspan></text></g><g class="cell" transform="translate(0, 82)"><rect class="swatch" height="15" width="15" style="fill: rgb(94, 79, 162);"/><text class="label" transform="translate( 20, 12.5)" font-family="&quot;Arial&quot;, sans-serif" font-size="10px"><tspan x="0" dy="0em">South America</tspan></text></g></g><text class="legendTitle" font-family="&quot;Arial&quot;, sans-serif" font-size="12px" font-weight="bold"><tspan x="0" dy="0em">Continent [csvDistinct]</tspan></text></g></g></g></svg>